<svg xmlns="http://www.w3.org/2000/svg" xmlns:xlink="http://www.w3.org/1999/xlink" width="190" height="104" viewBox="0 0 190 104">
  <defs>
    <clipPath id="clip-path">
      <rect id="Rect치ngulo_90543" data-name="Rect치ngulo 90543" width="71.48" height="71.504" transform="translate(0 0)" fill="none"/>
    </clipPath>
  </defs>
  <g id="Grupo_138596" data-name="Grupo 138596" transform="translate(-285.049 -411)">
    <rect id="Rect치ngulo_41122" data-name="Rect치ngulo 41122" width="190" height="104" transform="translate(285.049 411)" fill="none"/>
    <g id="Grupo_117447" data-name="Grupo 117447" transform="translate(-3337.23 1038.209)" opacity="0.3">
      <path id="Trazado_158283" data-name="Trazado 158283" d="M3677.784-530.075h0a16.354,16.354,0,0,0,23.129,0l67.216-67.214a16.357,16.357,0,0,0,0-23.129,16.355,16.355,0,0,0-23.129,0L3677.784-553.2A16.353,16.353,0,0,0,3677.784-530.075Z" transform="translate(14.296)" fill="#fc4b52"/>
      <path id="Trazado_158284" data-name="Trazado 158284" d="M3652.069-530.075h0a16.354,16.354,0,0,0,23.129,0l67.216-67.214a16.358,16.358,0,0,0,0-23.129,16.355,16.355,0,0,0-23.129,0L3652.069-553.2A16.354,16.354,0,0,0,3652.069-530.075Z" transform="translate(0)" fill="#feca2e"/>
    </g>
    <g id="Grupo_149704" data-name="Grupo 149704" transform="translate(344.049 427)">
      <g id="Grupo_149704-2" data-name="Grupo 149704" transform="translate(0 0.001)" clip-path="url(#clip-path)">
        <path id="Trazado_262504" data-name="Trazado 262504" d="M0,59.372V11.987a6.093,6.093,0,0,1,6.479-5.07c.393.019.789,0,1.183,0A.453.453,0,0,0,8.169,6.4c.006-.58-.008-1.16.006-1.74A4.789,4.789,0,0,1,10.557.51,5.117,5.117,0,0,1,12.263,0H13.8a4.726,4.726,0,0,1,4.24,5.1c.007,1.8.007,1.8,1.812,1.8,2.133,0,4.266,0,6.4,0,.813,0,.856-.051.867-.872.005-.394-.007-.789.005-1.182A4.872,4.872,0,0,1,31.076,0h1.812c2.7.514,4.055,2.139,4.231,5.09.008.139.009.278.009.417,0,1.52-.1,1.4,1.383,1.4q3.407,0,6.814,0c.818,0,.86-.057.883-.862a9.5,9.5,0,0,1,.1-2.355,4.519,4.519,0,0,1,4-3.69H51.84c2.793.481,4.228,2.216,4.245,5.1.013,2.069-.277,1.793,1.813,1.807a6.28,6.28,0,0,1,6.543,6.538q.011,13.2-.012,26.4a2.119,2.119,0,0,0,.882,1.816A15.883,15.883,0,0,1,71.285,52.1a16.586,16.586,0,0,1-1.141,9.345c-2.594,5.475-6.794,8.961-12.853,9.839a16.363,16.363,0,0,1-8.37-.752,17.007,17.007,0,0,1-7.312-5.268,1.952,1.952,0,0,0-1.7-.827q-16.751.028-33.5.014a6.425,6.425,0,0,1-5.041-2.1A5.533,5.533,0,0,1,0,59.372" transform="translate(0 -0.001)"/>
        <path id="Trazado_262505" data-name="Trazado 262505" d="M69.686,106.238a2.528,2.528,0,0,0-2.641-1.722q-24.626.02-49.252.01c-1.859,0-2.743.907-2.744,2.8q0,16.2,0,32.4c0,1.953.9,2.861,2.841,2.862q15.222,0,30.443-.016c.572,0,.83.163.97.7a8.587,8.587,0,0,0,.5,1.291c.129.289.112.439-.251.41-.138-.011-.278,0-.418,0H16.813c-2.753,0-4.14-1.392-4.14-4.158q0-18.95-.017-37.9c0-.656.19-.776.8-.775q27.8.024,55.592.015c.253,0,.507.028.761.044a.841.841,0,0,1,.2.5c.036,1.006.038,2.012,0,3.017-.009.215-.014.474-.318.532" transform="translate(-10.299 -83.109)" fill="#f4f4f4"/>
        <path id="Trazado_262506" data-name="Trazado 262506" d="M69.849,58.027c-.3.013-.6.038-.9.038q-27.653,0-55.306,0c-.929,0-.929,0-.929-.919,0-.882-.013-1.765.005-2.647a3.573,3.573,0,0,1,3.474-3.56c.672-.032,1.347.008,2.019-.016.364-.014.455.125.495.475a4.743,4.743,0,0,0,9.43.1c.069-.5.231-.583.681-.58,2.693.02,5.387.035,8.08-.009.638-.01.8.212.886.787a4.64,4.64,0,0,0,4.364,3.973,4.7,4.7,0,0,0,4.91-3.585c.3-1.157.3-1.157,1.515-1.157q3.8,0,7.592,0c.315,0,.544-.022.6.439a4.663,4.663,0,0,0,4.842,4.31,4.724,4.724,0,0,0,4.624-4.492c0-.046.015-.091.023-.137A6.979,6.979,0,0,1,68.174,51c.483.019.752.416.992.789a5.435,5.435,0,0,1,.858,2.608c.068,1.015.027,2.033.02,3.05a.884.884,0,0,1-.194.58" transform="translate(-10.341 -41.431)" fill="#a7e446"/>
        <path id="Trazado_262507" data-name="Trazado 262507" d="M234.923,245.005a13.363,13.363,0,0,1-10.54-1.221,14.255,14.255,0,0,1,4.7-26.608,12.125,12.125,0,0,1,5.839.383,14.75,14.75,0,0,1,8.052,10.956,15.066,15.066,0,0,1-3.307,12.71,12.582,12.582,0,0,1-4.745,3.78" transform="translate(-176.534 -176.579)" fill="#fc4b52"/>
        <path id="Trazado_262508" data-name="Trazado 262508" d="M38.2,135.43c0-2.367.014-4.733-.011-7.1-.005-.489.132-.617.617-.615q7.134.027,14.268,0c.5,0,.6.149.6.622q-.027,7.1,0,14.2c0,.507-.1.665-.642.663q-7.1-.035-14.2,0c-.537,0-.651-.158-.645-.667.027-2.366.012-4.733.012-7.1" transform="translate(-31.076 -103.929)" fill="#ced7db"/>
        <path id="Trazado_262509" data-name="Trazado 262509" d="M53.665,231.3c0,2.344-.014,4.688.011,7.032.005.5-.1.677-.643.675q-7.1-.034-14.2,0c-.469,0-.642-.108-.64-.614q.027-7.136,0-14.272c0-.447.113-.594.58-.593q7.17.025,14.341,0c.491,0,.561.187.558.607-.015,2.39-.007,4.781-.007,7.171" transform="translate(-31.079 -181.896)" fill="#a7e446"/>
        <path id="Trazado_262510" data-name="Trazado 262510" d="M223.535,135.5c0-2.369.012-4.738-.01-7.107,0-.48.126-.634.621-.633q7.106.026,14.213,0c.547,0,.649.186.647.683q-.025,6.55,0,13.1c0,.555-.181.677-.684.609a15.282,15.282,0,0,0-7.576.963,2.245,2.245,0,0,1-.819.123c-1.9,0-3.809-.023-5.713.011-.562.01-.7-.171-.693-.709.027-2.345.012-4.692.012-7.037" transform="translate(-181.894 -103.962)" fill="#a7e446"/>
        <path id="Trazado_262511" data-name="Trazado 262511" d="M148.278,135.518c0,2.344-.015,4.688.011,7.032.006.518-.139.672-.664.669q-6.509-.03-13.019,0c-.475,0-.637-.119-.635-.619q.027-7.136,0-14.273c0-.455.126-.589.586-.587q6.579.025,13.158,0c.492,0,.572.185.569.61-.015,2.391-.007,4.781-.007,7.171" transform="translate(-109.02 -103.948)" fill="#a7e446"/>
        <path id="Trazado_262512" data-name="Trazado 262512" d="M133.969,231.286c0-2.368.013-4.736-.01-7.1,0-.489.143-.627.627-.625q6.546.025,13.093,0c.441,0,.611.107.606.58-.024,1.973-.015,3.947-.008,5.92a6.641,6.641,0,0,1-.515,1.792,15.606,15.606,0,0,0-.576,6.462c.074.51-.023.735-.627.731q-5.954-.041-11.909,0c-.571,0-.7-.191-.69-.721.025-2.345.011-4.69.011-7.035" transform="translate(-109.01 -181.922)" fill="#a7e446"/>
        <path id="Trazado_262513" data-name="Trazado 262513" d="M313.513,247.489c.751-.532,1.529-1.029,2.247-1.6a14.994,14.994,0,0,0,5.7-9.77,15.291,15.291,0,0,0-6.189-14.856c-.577-.417-1.169-.811-1.755-1.216a12.091,12.091,0,0,1,5.763,3.055,13.694,13.694,0,0,1,4.472,13.663c-1.164,5.361-4.542,8.9-9.761,10.649a2.977,2.977,0,0,1-.473.079" transform="translate(-255.125 -179.063)" fill="#c93c41"/>
        <path id="Trazado_262514" data-name="Trazado 262514" d="M318.874,106.282a7.282,7.282,0,0,0,.11-2.183c.033-.621.01-1.245.012-1.868.648-.015,1.3-.023,1.942-.047.3-.011.429.108.4.407-.011.115,0,.232,0,.348,0,6.38-.009,12.761.013,19.141,0,.643-.127.759-.7.469-.532-.269-1.332-.317-1.592-.729-.286-.452-.1-1.21-.1-1.834q-.005-6.16-.005-12.32c0-.461-.049-.923-.075-1.384" transform="translate(-259.487 -83.153)" fill="#ced7db"/>
        <path id="Trazado_262515" data-name="Trazado 262515" d="M57.521,17.5c0-.789-.012-1.579,0-2.369a2.366,2.366,0,0,1,4.728-.155c.052,1.693.058,3.391,0,5.084a2.365,2.365,0,0,1-4.723-.122c-.019-.812,0-1.625,0-2.438" transform="translate(-46.804 -10.38)" fill="#7e8d93"/>
        <path id="Trazado_262516" data-name="Trazado 262516" d="M261.833,17.51c0-.813-.017-1.626,0-2.438a2.367,2.367,0,0,1,4.731-.028c.033,1.648.035,3.3,0,4.946a2.367,2.367,0,0,1-4.73-.041c-.02-.812,0-1.625,0-2.438" transform="translate(-213.064 -10.38)" fill="#7e8d93"/>
        <path id="Trazado_262517" data-name="Trazado 262517" d="M164.174,17.543c0,.766.013,1.532,0,2.3a2.366,2.366,0,0,1-4.727.176c-.069-1.668-.07-3.344,0-5.012a2.364,2.364,0,0,1,4.725.171c.017.789,0,1.579,0,2.368" transform="translate(-129.707 -10.376)" fill="#7e8d93"/>
        <path id="Trazado_262518" data-name="Trazado 262518" d="M303.8,57.9a34.573,34.573,0,0,0-.137-4.347,4.98,4.98,0,0,0-.908-2.064,1.248,1.248,0,0,0-1.241-.579,11.244,11.244,0,0,1-1.314.012c1.605-.241,3.205-.369,4.6.694a3.448,3.448,0,0,1,1.339,2.778c.027.994-.009,1.99.016,2.984.01.42-.124.583-.552.559-.6-.035-1.2-.026-1.8-.036" transform="translate(-244.288 -41.301)" fill="#85b638"/>
        <path id="Trazado_262519" data-name="Trazado 262519" d="M223.568,226.334c0-.916,0-1.666,0-2.415,0-.232.093-.334.328-.332.749.006,1.5,0,2.428,0a22.653,22.653,0,0,0-2.754,2.745" transform="translate(-181.929 -181.947)" fill="#a7e446"/>
        <path id="Trazado_262520" data-name="Trazado 262520" d="M257.335,252.475c-1.9,0-3.807.008-5.711,0a2.332,2.332,0,0,1-2.557-2.547c-.007-3.065,0-6.129-.006-9.194a2.266,2.266,0,0,1,.878-1.95c.362-.269.3-.6.286-.931a7.8,7.8,0,0,1,1.334-4.943,7.132,7.132,0,0,1,12.951,3.844,7.233,7.233,0,0,1,.012.835,1.48,1.48,0,0,0,.551,1.451,1.892,1.892,0,0,1,.616,1.568c0,3.181.011,6.362-.009,9.542a2.275,2.275,0,0,1-2.355,2.319c-2,.022-3.993.006-5.989.006" transform="translate(-202.676 -187.08)"/>
        <path id="Trazado_262521" data-name="Trazado 262521" d="M58.607,236.45a1.4,1.4,0,0,1,1.091.586c.7.833,1.432,1.647,2.121,2.492.27.33.429.38.723.015.684-.849,1.41-1.665,2.123-2.49.587-.679,1.248-.79,1.812-.314s.59,1.143.009,1.839c-.729.873-1.459,1.747-2.229,2.583-.393.426-.484.72-.028,1.193.788.817,1.5,1.712,2.231,2.58.587.693.6,1.347.05,1.844s-1.274.37-1.872-.32c-.669-.772-1.36-1.528-1.979-2.338-.394-.516-.613-.418-.965.028-.647.819-1.344,1.6-2.028,2.388-.617.712-1.295.817-1.87.305a1.247,1.247,0,0,1,.065-1.847c.765-.9,1.511-1.825,2.32-2.688.4-.423.344-.691-.012-1.085-.811-.894-1.585-1.821-2.365-2.741a1.142,1.142,0,0,1-.219-1.35,1.178,1.178,0,0,1,1.021-.679" transform="translate(-46.726 -192.412)"/>
        <path id="Trazado_262522" data-name="Trazado 262522" d="M245.748,141.656a1.327,1.327,0,0,1-.372.928c-.8.933-1.577,1.888-2.408,2.793-.364.4-.343.634.016,1.021.8.867,1.553,1.785,2.316,2.689a1.175,1.175,0,0,1-.028,1.833,1.212,1.212,0,0,1-1.77-.286c-.674-.767-1.349-1.534-1.982-2.334-.361-.455-.6-.6-1.021-.041-.628.831-1.344,1.6-2.022,2.39-.586.686-1.23.811-1.816.353a1.227,1.227,0,0,1-.031-1.841c.727-.874,1.431-1.773,2.227-2.58.539-.546.479-.9-.015-1.417-.754-.786-1.439-1.638-2.147-2.467a1.244,1.244,0,0,1-.32-1.4,1.147,1.147,0,0,1,1.992-.275q1.178,1.279,2.275,2.632c.3.366.451.317.72-.011.735-.9,1.5-1.77,2.254-2.65a1.2,1.2,0,0,1,2.133.663" transform="translate(-192.237 -114.367)"/>
        <path id="Trazado_262523" data-name="Trazado 262523" d="M151.495,144.146c.839-.978,1.636-1.913,2.44-2.841.621-.716,1.3-.838,1.863-.351.551.472.529,1.211-.063,1.9-.783.917-1.561,1.84-2.362,2.741-.243.274-.276.449-.011.743.822.914,1.611,1.858,2.4,2.8a1.251,1.251,0,0,1,.045,1.851,1.228,1.228,0,0,1-1.82-.279c-.689-.784-1.378-1.569-2.035-2.38-.328-.4-.532-.519-.912-.023-.648.845-1.373,1.633-2.076,2.436-.634.723-1.292.823-1.863.3-.548-.5-.532-1.149.057-1.842.781-.919,1.548-1.852,2.362-2.741.331-.361.371-.578.018-.96-.8-.867-1.551-1.786-2.316-2.689a1.237,1.237,0,0,1-.058-1.846c.562-.5,1.246-.4,1.865.312.821.94,1.627,1.891,2.463,2.864" transform="translate(-119.384 -114.463)"/>
        <path id="Trazado_262524" data-name="Trazado 262524" d="M156.193,237.51a1.385,1.385,0,0,1-.461,1.018c-.774.9-1.519,1.817-2.32,2.687-.333.361-.287.573.014.909.836.933,1.639,1.9,2.448,2.854a1.172,1.172,0,0,1,.139,1.423,1.128,1.128,0,0,1-1.187.551,1.2,1.2,0,0,1-.8-.5c-.716-.823-1.44-1.639-2.134-2.48-.3-.365-.482-.447-.827-.013q-1.1,1.388-2.323,2.684a1.171,1.171,0,0,1-2.022-.51,1.36,1.36,0,0,1,.438-1.257c.8-.932,1.581-1.887,2.41-2.794.312-.342.265-.536-.018-.852-.822-.915-1.612-1.858-2.406-2.8a1.221,1.221,0,0,1,.031-1.8,1.159,1.159,0,0,1,1.721.2q1.115,1.244,2.172,2.54c.3.362.459.455.8.017.732-.929,1.527-1.808,2.314-2.692a1.1,1.1,0,0,1,1.336-.267,1.058,1.058,0,0,1,.674,1.073" transform="translate(-119.366 -192.31)"/>
        <path id="Trazado_262525" data-name="Trazado 262525" d="M271.289,296.81c-3.036.01-6.072.017-9.109.037-.32,0-.383-.125-.382-.411q.011-4.347,0-8.695c0-.363.148-.409.453-.407,3.013.016,6.027.02,9.04.028a1.181,1.181,0,0,1,.224.914q.01,3.808,0,7.616a1.244,1.244,0,0,1-.223.917" transform="translate(-213.039 -233.821)" fill="#fedb00"/>
        <path id="Trazado_262526" data-name="Trazado 262526" d="M272.806,248.653c-1.37,0-2.741-.029-4.11.014-.545.017-.645-.166-.644-.667,0-2.727,1.466-4.746,3.805-5.2a4.764,4.764,0,0,1,5.738,4.553c.069,1.3.069,1.3-1.236,1.3h-3.553" transform="translate(-218.13 -197.508)" fill="#fc4b52"/>
        <path id="Trazado_262527" data-name="Trazado 262527" d="M312.768,296.789v-9.448c.648-.008,1.3.006,1.943-.031.388-.022.452.142.451.483q-.017,4.273,0,8.546c0,.34-.06.51-.451.488-.646-.037-1.295-.028-1.942-.038" transform="translate(-254.518 -233.801)" fill="#fdc008"/>
        <path id="Trazado_262528" data-name="Trazado 262528" d="M288.5,306.624a1.158,1.158,0,0,1,1.209,1.16,1.2,1.2,0,0,1-1.187,1.2,1.22,1.22,0,0,1-1.18-1.146,1.172,1.172,0,0,1,1.158-1.216" transform="translate(-233.825 -249.519)" fill="#020200"/>
      </g>
    </g>
  </g>
</svg>
