<svg id="Grupo_149732" data-name="Grupo 149732" xmlns="http://www.w3.org/2000/svg" xmlns:xlink="http://www.w3.org/1999/xlink" width="58.325" height="55.343" viewBox="0 0 58.325 55.343">
  <defs>
    <clipPath id="clip-path">
      <rect id="Rectángulo_90562" data-name="Rectángulo 90562" width="58.325" height="55.343" fill="none"/>
    </clipPath>
  </defs>
  <g id="Grupo_149731" data-name="Grupo 149731" clip-path="url(#clip-path)">
    <path id="Trazado_262994" data-name="Trazado 262994" d="M62.724,165.1q-.008,3.712-.019,7.424c0,.24.083.5-.123.714a1.355,1.355,0,0,1-.95.3c-.688-.005-1.376,0-2.064,0q-19.06,0-38.12,0a5.291,5.291,0,0,1-2.3-.419,3.784,3.784,0,0,1-2.292-3.292c-.019-.191-.012-.384-.012-.576q0-12.5,0-25.008a2.226,2.226,0,0,1,.2-1.237c.27-.341.668-.257,1.031-.271a7.605,7.605,0,0,1,.884.008c3.369-.018,6.738,0,10.107-.012a1.242,1.242,0,0,1,1.157.584c.284.441.607.859.9,1.293.708,1.05,1.47,2.068,2.174,3.121a1.182,1.182,0,0,0,1.1.557c2.2-.015,4.408-.008,6.611,0a1.966,1.966,0,0,1,.894.1c.243.218.114.464.045.7a10.077,10.077,0,0,0,.562,7.528,11.106,11.106,0,0,0,7.73,6.114,11.83,11.83,0,0,0,6.958-.428,1.469,1.469,0,0,1,.525-.125,1.1,1.1,0,0,1,.7.414c.673.634,1.359,1.257,2.005,1.916.292.3.5.312.778.006a1.154,1.154,0,0,1,.562-.42c.463.215.9.453.953,1.014" transform="translate(-14.11 -120.775)" fill="#a7e446"/>
    <path id="Trazado_262995" data-name="Trazado 262995" d="M41.024,23.991c-.044-.064-.085-.13-.134-.192-.42-.536-.639-1.334-1.241-1.584a5.907,5.907,0,0,0-2.1-.077q-4.276-.013-8.553-.019a.944.944,0,0,1-.2-.76q-.007-10.3,0-20.595A1.011,1.011,0,0,1,29,0Q46.54,0,64.082,0a2.722,2.722,0,0,1,2.813,2.656c0,.346,0,.691,0,1.037a1,1,0,0,1,.194.763q.006,7.85,0,15.7a1.718,1.718,0,0,1-.067.568c-.212.4-.549.217-.842.141a12,12,0,0,0-6.96.2A10.964,10.964,0,0,0,55,23.561a1.624,1.624,0,0,1-.885.569,9.207,9.207,0,0,1-1.269.038q-5.382,0-10.765,0a2.008,2.008,0,0,1-1.056-.178" transform="translate(-24.126 0)" fill="#f7f6fd"/>
    <path id="Trazado_262996" data-name="Trazado 262996" d="M170.6,135.625a12.768,12.768,0,0,1,4.224-2.839,12.169,12.169,0,0,1,7.769-.432c.213.057.429.1.644.151a2.175,2.175,0,0,1,1.132.324,13.08,13.08,0,0,1,2.389,1.414,1.281,1.281,0,0,1,.358.448,11.423,11.423,0,0,1,3.427,5.2,10.469,10.469,0,0,1-.993,8.456c-.093.164-.252.311-.126.522a12.516,12.516,0,0,1-4.642,4.083,1.655,1.655,0,0,1-.57.165,28.612,28.612,0,0,1-2.785.764,11.819,11.819,0,0,1-9.8-2.622A10.555,10.555,0,0,1,167.7,142.4a13.65,13.65,0,0,1,.609-3.1,1.577,1.577,0,0,1,.274-.927,11.909,11.909,0,0,1,1.584-2.445,1.132,1.132,0,0,1,.434-.3" transform="translate(-140.473 -111.626)" fill="#929292"/>
    <path id="Trazado_262997" data-name="Trazado 262997" d="M3.052,144.314a2.865,2.865,0,0,0-.125.906q.007,12.82,0,25.64a3.8,3.8,0,0,0,3.981,3.772q20.3,0,40.606,0a3.264,3.264,0,0,0,.954-.119c-.715,2.07-1.9,2.883-4.215,2.883H4.311c-2.71,0-4.295-1.5-4.295-4.074,0-8.3.018-16.6-.016-24.9a4.061,4.061,0,0,1,1.96-3.776.912.912,0,0,1,1.092-.34" transform="translate(0 -122.056)" fill="#85b638"/>
    <path id="Trazado_262998" data-name="Trazado 262998" d="M267.343,43.359a14.531,14.531,0,0,0-3.879-2.186q0-8.593,0-17.186a6.838,6.838,0,0,1,1.744.1,2.819,2.819,0,0,1,2.14,2.742q0,8.265-.008,16.529" transform="translate(-220.696 -20.293)" fill="#bfd9fa"/>
    <path id="Trazado_262999" data-name="Trazado 262999" d="M13.163,22.263a4.154,4.154,0,0,0-1.092.34q0-9.9,0-19.806A2.875,2.875,0,0,1,14.983.006q0,11.059,0,22.118c-.6.1-1.234-.126-1.824.139" transform="translate(-10.111 -0.005)" fill="#e2e7f5"/>
    <path id="Trazado_263000" data-name="Trazado 263000" d="M294.281,266.9a5.248,5.248,0,0,0-.978-.963c-.092-.181.044-.294.151-.4q1.228-1.194,2.486-2.359a.379.379,0,0,1,.375-.135c-.042.285.213.4.376.552q3.428,3.266,6.872,6.518a1.179,1.179,0,0,1,.428.952c-.023,1.626-.009,3.252-.009,4.879l-.164.113a2.374,2.374,0,0,0-.289-.424q-4.394-4.184-8.8-8.357c-.141-.134-.3-.252-.45-.378" transform="translate(-245.666 -222.575)" fill="#929292"/>
    <path id="Trazado_263001" data-name="Trazado 263001" d="M276.377,245.391c-1.044.927-2.07,1.871-3.013,2.892-.952.92-.951.92-1.922,0q-.985-.933-1.972-1.865a13.771,13.771,0,0,0,3.7-2.644c.344-.375.648-.781,1-1.152.153-.162.221-.425.511-.452.7.661,1.391,1.34,2.119,1.975.361.315.445.55.013.848a4.233,4.233,0,0,0-.437.4" transform="translate(-225.727 -204.924)" fill="#686868"/>
    <path id="Trazado_263002" data-name="Trazado 263002" d="M117.333,156a13.771,13.771,0,0,0-2.292,3.675c-2.55,0-5.1-.02-7.65.01a1.148,1.148,0,0,1-1.114-.584c-.7-1.054-1.448-2.076-2.177-3.11l13.233.008" transform="translate(-87.202 -132)" fill="#85b638"/>
    <path id="Trazado_263003" data-name="Trazado 263003" d="M100.423,43.758c-3.318,0-6.636-.01-9.954.011-.509,0-.7-.084-.685-.62.043-1.234.01-1.235,1.3-1.235,6.454,0,12.908.007,19.362-.012.562,0,.772.1.747.679-.052,1.176-.014,1.178-1.239,1.178h-9.529" transform="translate(-75.208 -35.457)" fill="#edcb61"/>
    <path id="Trazado_263004" data-name="Trazado 263004" d="M100.538,101.9c3.318,0,6.636.01,9.954-.01.5,0,.708.075.689.616-.044,1.238-.01,1.239-1.3,1.239q-9.681,0-19.362.012c-.556,0-.777-.087-.75-.676.053-1.179.014-1.181,1.236-1.181h9.529" transform="translate(-75.198 -86.216)" fill="#edcb61"/>
    <path id="Trazado_263005" data-name="Trazado 263005" d="M98.071,19.779c-2.549,0-5.1-.009-7.647.008-.446,0-.637-.07-.626-.556.027-1.3,0-1.3,1.354-1.3,4.835,0,9.67.007,14.5-.01.5,0,.708.075.689.616-.044,1.238-.01,1.239-1.3,1.239H98.071" transform="translate(-75.221 -15.167)" fill="#edcb61"/>
    <path id="Trazado_263006" data-name="Trazado 263006" d="M98.072,79.734c-2.549,0-5.1-.008-7.647.008-.443,0-.639-.065-.629-.554.027-1.3,0-1.3,1.353-1.3,4.835,0,9.67.01,14.5-.014.577,0,.7.166.687.675-.035,1.183-.01,1.183-1.229,1.183h-7.04" transform="translate(-75.22 -65.899)" fill="#edcb61"/>
    <path id="Trazado_263007" data-name="Trazado 263007" d="M41.777,25.792c.012.59.264,1.339-.087,1.724-.336.368-1.141.1-1.739.111-1.171.019-2.342-.007-3.513.013-.369.006-.49-.092-.48-.451.025-.939.019-1.878,0-2.817-.006-.31.069-.457.432-.435.5.03,1.008.018,1.513.024a.566.566,0,0,1,.168.236,2,2,0,0,0,2.294,1.444,2.2,2.2,0,0,1,1.41.151" transform="translate(-30.121 -20.254)" fill="#a7e446"/>
    <path id="Trazado_263008" data-name="Trazado 263008" d="M41.777,85.766c.012.59.264,1.339-.087,1.724-.336.368-1.141.1-1.739.111-1.171.019-2.342-.007-3.513.013-.369.006-.49-.092-.48-.451.025-.939.019-1.878,0-2.817-.006-.31.069-.457.432-.435.5.03,1.008.018,1.513.024a.566.566,0,0,1,.168.236,2,2,0,0,0,2.294,1.444,2.2,2.2,0,0,1,1.41.151" transform="translate(-30.121 -71.004)" fill="#a7e446"/>
    <path id="Trazado_263009" data-name="Trazado 263009" d="M51.827,25.8c-.606,0-1.213,0-1.819,0a1.88,1.88,0,0,1-2.053-1.826c1.149-.006,2.3,0,3.445-.024.337-.006.471.09.451.421-.028.477-.018.956-.025,1.434" transform="translate(-40.171 -20.266)" fill="#85b638"/>
    <path id="Trazado_263010" data-name="Trazado 263010" d="M51.827,85.778c-.606,0-1.213,0-1.819,0a1.88,1.88,0,0,1-2.053-1.826c1.148-.006,2.3,0,3.445-.024.337-.006.471.09.451.421-.028.477-.018.956-.025,1.434" transform="translate(-40.171 -71.016)" fill="#85b638"/>
    <path id="Trazado_263011" data-name="Trazado 263011" d="M235.485,42.952c0,.871,0,.871-1.116.871-.827,0-.827,0-.827-1.089,0-.757,0-.765,1.177-.754.906.008.749-.143.766.971" transform="translate(-195.631 -35.522)" fill="#edcb61"/>
    <path id="Trazado_263012" data-name="Trazado 263012" d="M234.536,101.949c.954,0,.954,0,.953,1.084,0,.762,0,.762-1.172.761-.772,0-.779,0-.769-1.141.007-.832-.127-.689.988-.7" transform="translate(-195.635 -86.268)" fill="#edcb61"/>
    <path id="Trazado_263013" data-name="Trazado 263013" d="M214.63,156.6a6.334,6.334,0,0,1,6.256,4.4,7.706,7.706,0,0,1-1.368,8.025,5.879,5.879,0,0,1-4.89,2.113,5.157,5.157,0,0,1-3.881-1.809,8.064,8.064,0,0,1,.43-11.332,4.718,4.718,0,0,1,3.453-1.4" transform="translate(-174.761 -132.508)" fill="#f7f6fd"/>
    <path id="Trazado_263014" data-name="Trazado 263014" d="M200.252,155.983a6.282,6.282,0,0,0-3.595,1.736,8.03,8.03,0,0,0-.894,9.99,6.258,6.258,0,0,0,4.487,2.816,7.011,7.011,0,0,1-4-.479,7.38,7.38,0,0,1-4.734-7.512,7.575,7.575,0,0,1,6.532-6.556,5.471,5.471,0,0,1,2.208.006" transform="translate(-160.383 -131.894)" fill="#e2e7f5"/>
  </g>
</svg>
