<svg id="Grupo_149735" data-name="Grupo 149735" xmlns="http://www.w3.org/2000/svg" xmlns:xlink="http://www.w3.org/1999/xlink" width="57.429" height="52.297" viewBox="0 0 57.429 52.297">
  <defs>
    <clipPath id="clip-path">
      <rect id="Rectángulo_90564" data-name="Rectángulo 90564" width="57.429" height="52.297" fill="none"/>
    </clipPath>
  </defs>
  <g id="Grupo_149734" data-name="Grupo 149734" clip-path="url(#clip-path)">
    <path id="Trazado_263036" data-name="Trazado 263036" d="M34.859,52.226a1.356,1.356,0,0,1,.13.794q0,4.975.006,9.949c.223.244.168.548.175.835.021.821.031.837.872.84,1.17,0,2.341-.011,3.511.01.258,0,.6-.1.712.3-1.549,0-3.1.023-4.645-.017-.544-.014-.642.177-.641.672.017,5.037.01,10.075.01,15.112,0,1.063-.442,1.517-1.481,1.517L10.28,82.226a1.55,1.55,0,0,1-.18-1.075q-.007-11.8,0-23.6,0-6.077,0-12.155a1.45,1.45,0,0,1,.178-1.016l16.748-.011c.154,0,.317-.031.438.107a2.51,2.51,0,0,0-.173.916c0,1.841-.005,3.681.005,5.522.005.975.186,1.145,1.187,1.148,1.821.005,3.642,0,5.464,0a1.666,1.666,0,0,1,.912.165" transform="translate(-8.503 -37.39)" fill="#ebeef0"/>
    <path id="Trazado_263037" data-name="Trazado 263037" d="M173.721,58.627c-.146-.2-.359-.109-.54-.11-1.4-.01-2.808-.021-4.212,0-.4.006-.562-.105-.53-.524.035-.446.011-.9.013-1.345,1.528,0,3.057-.028,4.584.012.559.015.724-.12.722-.7-.023-5.9-.014-11.794-.014-17.691,0-1.155.252-1.406,1.413-1.406h6.818a2.238,2.238,0,0,1,0,1.878c-1.918,0-3.836.013-5.753,0-.427,0-.613.066-.611.565q.029,8.395.007,16.789c0,.357.024.562.487.575,1.955.058,3.911.061,5.866.054a2.208,2.208,0,0,1,0,1.873c-1.917-.021-3.834-.026-5.75-.075-.5-.013-.611.155-.61.63q.024,8.4,0,16.794c0,.518.142.671.66.662,1.9-.032,3.8-.019,5.7-.023a2.207,2.207,0,0,1,.008,1.877c-2.312.005-4.625.02-6.937.011-.976,0-1.3-.352-1.3-1.324q0-8.906,0-17.813c0-.235-.014-.469-.021-.7" transform="translate(-141.959 -31.066)" fill="#a69aa6"/>
    <path id="Trazado_263038" data-name="Trazado 263038" d="M254.582,12.133q0-.939,0-1.878.014-1.175.027-2.35a2.382,2.382,0,0,1,2.6-2.587c2.136,0,4.275.066,6.408-.022a2.462,2.462,0,0,1,2.743,2.737,1.755,1.755,0,0,0,.007.235c-.141.578-.639.87-1.034,1.222-.7.624-1.381,1.269-2.085,1.888-.467.411-.553.426-1.015-.025-.629-.615-1.246-1.243-1.869-1.865-.124-.124-.245-.253-.376-.37-.472-.423-.965-.462-1.3-.105-.318.341-.274.813.152,1.251.791.813,1.6,1.608,2.4,2.41a10.491,10.491,0,0,0,.757.737.948.948,0,0,0,1.453-.052c.806-.711,1.555-1.485,2.392-2.16.145-.117.259-.31.5-.238,0,1.271.026,2.543.007,3.814a2.269,2.269,0,0,1-2.273,2.288q-3.579.042-7.16,0a2.356,2.356,0,0,1-2.31-2.464c-.021-.821-.019-1.642-.027-2.463" transform="translate(-214.563 -4.462)" fill="#fd646f"/>
    <path id="Trazado_263039" data-name="Trazado 263039" d="M254.572,138.632q0-.937,0-1.873a28.247,28.247,0,0,1,.1-3.043,2.226,2.226,0,0,1,2.22-1.878q3.551-.018,7.1,0a2.256,2.256,0,0,1,2.348,2.313c0,.215.009.43.014.645-.067.48-.475.7-.784.978q-1.141,1.015-2.26,2.053c-.486.448-.664.46-1.135,0-.73-.711-1.445-1.437-2.163-2.159a.989.989,0,0,0-.821-.376.746.746,0,0,0-.657,1.018,1.011,1.011,0,0,0,.209.352c1.072,1.143,2.167,2.266,3.329,3.317.483.437.872.351,1.444-.178.761-.7,1.512-1.421,2.31-2.084.144-.12.27-.3.5-.243,0,1.212.014,2.425.01,3.637a2.312,2.312,0,0,1-2.4,2.472q-3.432.041-6.865,0a2.412,2.412,0,0,1-2.489-2.488c-.022-.821-.013-1.642-.018-2.464" transform="translate(-214.556 -111.108)" fill="#fee077"/>
    <path id="Trazado_263040" data-name="Trazado 263040" d="M254.555,264.989q0-.938-.008-1.877c.093-.994-.074-2,.1-2.986a2.2,2.2,0,0,1,2.225-1.932c2.329-.018,4.658-.014,6.987-.006a2.262,2.262,0,0,1,2.469,2.486c0,.157.007.313.011.469.009.37-.291.538-.515.734q-1.236,1.081-2.427,2.21c-.595.564-.776.565-1.359-.013-.695-.688-1.383-1.383-2.076-2.073a1.127,1.127,0,0,0-.637-.394.717.717,0,0,0-.779.4.745.745,0,0,0,.16.915c.617.628,1.243,1.246,1.865,1.87.456.457.908.918,1.371,1.368.561.547.92.58,1.514.018.654-.618,1.353-1.185,1.985-1.826.241-.244.473-.532.872-.525,0,1.292.027,2.584,0,3.876a2.182,2.182,0,0,1-2.182,2.162c-2.33.021-4.661-.035-6.989.025a2.41,2.41,0,0,1-2.573-2.557c-.009-.783-.011-1.566-.017-2.349" transform="translate(-214.536 -217.598)" fill="#6cf4c1"/>
    <path id="Trazado_263041" data-name="Trazado 263041" d="M1.775,44.3q.005,5.378.01,10.755,0,13.547-.008,27.094a1.879,1.879,0,0,1-1.241-.224,1.367,1.367,0,0,1-.518-1.234q.008-14.168,0-28.337C.022,50.233.076,48.115,0,46c-.042-1.2.617-1.886,1.773-1.706" transform="translate(0 -37.309)" fill="#d0d0d5"/>
    <path id="Trazado_263042" data-name="Trazado 263042" d="M286.408,132.753c-.89.793-1.789,1.577-2.668,2.383-.792.727-1.2.74-1.942,0q-1.417-1.409-2.825-2.827a3.306,3.306,0,0,1-.379-.446.872.872,0,0,1,.135-1.254.942.942,0,0,1,1.273.055c.8.78,1.6,1.559,2.365,2.372.338.36.556.348.895,0,1.017-1.029,2.181-1.9,3.17-2.965a16.3,16.3,0,0,0,1.762-1.533c.714-.608,1.383-1.268,2.079-1.9a1.147,1.147,0,0,1,.934-.406.934.934,0,0,1,.78.631.9.9,0,0,1-.315,1.048c-1.082.989-2.171,1.97-3.251,2.961-.676.62-1.342,1.251-2.013,1.876" transform="translate(-234.632 -106.388)" fill="#a69aa6"/>
    <path id="Trazado_263043" data-name="Trazado 263043" d="M286.375,6.5c-.933.834-1.872,1.662-2.8,2.5-.619.563-1.09.59-1.684.008q-1.617-1.584-3.2-3.2a.95.95,0,1,1,1.354-1.32c.813.794,1.608,1.606,2.417,2.406.136.135.245.387.51.124,1.111-1.1,2.372-2.046,3.424-3.211a10.389,10.389,0,0,0,1.555-1.323c.818-.7,1.6-1.445,2.4-2.16a.945.945,0,0,1,1.4-.023.908.908,0,0,1-.156,1.39c-1.584,1.459-3.182,2.9-4.773,4.352-.158.144-.3.3-.454.455" transform="translate(-234.594 0)" fill="#a69aa6"/>
    <path id="Trazado_263044" data-name="Trazado 263044" d="M286.475,259.059a34.307,34.307,0,0,0-2.584,2.3c-.869.817-1.217.817-2.052-.018q-1.5-1.5-2.993-2.995a.983.983,0,0,1-.143-1.4.935.935,0,0,1,1.443.094c.8.785,1.588,1.572,2.368,2.372.21.216.392.31.64.078q1.672-1.562,3.347-3.121c1.264-.991,2.385-2.143,3.592-3.2a5.518,5.518,0,0,1,.534-.456.927.927,0,0,1,1.2,1.412c-.587.574-1.217,1.1-1.817,1.665-1.171,1.094-2.419,2.107-3.53,3.267" transform="translate(-234.699 -212.825)" fill="#a69aa6"/>
    <path id="Trazado_263045" data-name="Trazado 263045" d="M126.209,52.8c-2.286,0-4.573.012-6.859.009-.642,0-.863-.219-.867-.9-.013-2.149,0-4.3-.008-6.448,0-.244.03-.435.339-.408a33.933,33.933,0,0,1,2.575,2.564c1.487,1.526,2.947,3.079,4.419,4.62a1.392,1.392,0,0,1,.4.568" transform="translate(-99.853 -37.969)" fill="#a69aa6"/>
    <path id="Trazado_263046" data-name="Trazado 263046" d="M34.137,139.767h-8a3.075,3.075,0,0,1-.528-.018.91.91,0,0,1-.764-.968.893.893,0,0,1,.793-.882,2.479,2.479,0,0,1,.469-.013H42.34c.8,0,1.215.334,1.206.955s-.419.925-1.236.926q-1.94,0-3.881,0H34.137" transform="translate(-20.941 -116.209)" fill="#a69aa6"/>
    <path id="Trazado_263047" data-name="Trazado 263047" d="M34.182,181.72H26.188a2.95,2.95,0,0,1-.528-.014.876.876,0,0,1-.792-.879.854.854,0,0,1,.654-.925,2.2,2.2,0,0,1,.7-.062q7.994,0,15.988,0a2.187,2.187,0,0,1,.7.063.853.853,0,0,1,.652.926.876.876,0,0,1-.794.877,3.01,3.01,0,0,1-.528.014H34.182" transform="translate(-20.958 -151.571)" fill="#a69aa6"/>
    <path id="Trazado_263048" data-name="Trazado 263048" d="M34.178,223.646H26.132a3.111,3.111,0,0,1-.527-.016.917.917,0,0,1-.305-1.71,1.533,1.533,0,0,1,.852-.157l16.035,0a2.047,2.047,0,0,1,.582.041.914.914,0,0,1,.752.98.9.9,0,0,1-.942.853c-.587.018-1.175.006-1.762.006H34.178" transform="translate(-20.919 -186.905)" fill="#a69ba6"/>
    <path id="Trazado_263049" data-name="Trazado 263049" d="M30.665,95.972c1.567,0,3.135,0,4.7,0,.717,0,1.112.328,1.125.912s-.382.962-1.083.964q-4.732.014-9.463,0c-.69,0-1.109-.387-1.1-.955.008-.584.406-.919,1.117-.921,1.567,0,3.135,0,4.7,0" transform="translate(-20.94 -80.886)" fill="#a69aa6"/>
  </g>
</svg>
