<svg id="Grupo_149734" data-name="Grupo 149734" xmlns="http://www.w3.org/2000/svg" xmlns:xlink="http://www.w3.org/1999/xlink" width="194.57" height="177.183" viewBox="0 0 194.57 177.183">
  <defs>
    <clipPath id="clip-path">
      <rect id="Rectángulo_90564" data-name="Rectángulo 90564" width="194.57" height="177.183" fill="none"/>
    </clipPath>
  </defs>
  <g id="Grupo_149734-2" data-name="Grupo 149734" clip-path="url(#clip-path)">
    <path id="Trazado_263036" data-name="Trazado 263036" d="M94.01,71a4.593,4.593,0,0,1,.442,2.691q.01,16.854.02,33.708c.755.825.569,1.857.594,2.83.071,2.782.105,2.837,2.953,2.847,3.965.013,7.931-.037,11.894.032.875.015,2.033-.338,2.411,1-5.247,0-10.5.077-15.738-.058-1.844-.047-2.176.6-2.17,2.278.057,17.066.035,34.133.034,51.2,0,3.6-1.5,5.14-5.017,5.139q-39.348-.011-78.7-.027c-.883-1.1-.608-2.408-.609-3.64q-.025-39.987-.012-79.973,0-20.59.011-41.181c0-1.169-.244-2.409.6-3.442l56.742-.036c.522,0,1.075-.1,1.484.364a8.5,8.5,0,0,0-.585,3.1c.013,6.236-.018,12.473.017,18.709.019,3.3.632,3.879,4.021,3.889,6.171.019,12.341,0,18.511.005A5.644,5.644,0,0,1,94.01,71" transform="translate(-4.716 -20.738)" fill="#ebeef0"/>
    <path id="Trazado_263037" data-name="Trazado 263037" d="M186.346,110.607c-.494-.676-1.217-.369-1.831-.373-4.757-.034-9.515-.072-14.271-.008-1.363.019-1.905-.357-1.8-1.776.117-1.511.038-3.037.044-4.556,5.177,0,10.357-.095,15.53.04,1.893.05,2.453-.407,2.446-2.375-.077-19.978-.047-39.957-.046-59.936,0-3.914.855-4.763,4.787-4.763q11.55,0,23.1,0a7.583,7.583,0,0,1,.01,6.362c-6.5,0-13,.043-19.492-.015-1.446-.013-2.076.222-2.071,1.913q.1,28.441.025,56.881c0,1.21.082,1.9,1.649,1.95,6.625.195,13.249.208,19.875.183a7.481,7.481,0,0,1,0,6.347c-6.493-.071-12.989-.087-19.48-.252-1.71-.044-2.071.526-2.067,2.135q.08,28.45,0,56.9c-.006,1.756.482,2.273,2.236,2.244,6.431-.108,12.865-.064,19.3-.078a7.477,7.477,0,0,1,.026,6.361c-7.834.018-15.669.068-23.5.038-3.307-.012-4.391-1.192-4.392-4.485q0-30.175,0-60.351c0-.8-.047-1.59-.072-2.385" transform="translate(-78.737 -17.231)" fill="#a69aa6"/>
    <path id="Trazado_263038" data-name="Trazado 263038" d="M254.589,28.467q-.006-3.181-.01-6.362.046-3.98.092-7.961c.064-5.564,3.278-8.762,8.824-8.766,7.237-.006,14.484.224,21.709-.075,5.482-.227,9.884,3.521,9.295,9.271a5.951,5.951,0,0,0,.022.8c-.477,1.958-2.166,2.947-3.5,4.14-2.37,2.115-4.679,4.3-7.065,6.4-1.584,1.392-1.875,1.443-3.44-.086-2.132-2.085-4.223-4.212-6.333-6.319-.422-.422-.831-.856-1.275-1.255-1.6-1.435-3.269-1.567-4.4-.357-1.077,1.155-.929,2.754.514,4.237,2.68,2.755,5.423,5.448,8.143,8.164a35.528,35.528,0,0,0,2.563,2.5c1.832,1.493,3.135,1.4,4.924-.177,2.73-2.409,5.267-5.03,8.106-7.317.492-.4.878-1.05,1.683-.806.014,4.307.088,8.615.025,12.922a7.688,7.688,0,0,1-7.7,7.752q-12.127.143-24.258,0c-4.529-.06-7.7-3.574-7.826-8.347-.07-2.78-.063-5.563-.091-8.345" transform="translate(-119.006 -2.475)" fill="#fd646f"/>
    <path id="Trazado_263039" data-name="Trazado 263039" d="M254.575,154.877q0-3.174-.005-6.347c.262-3.432-.281-6.889.351-10.31a7.543,7.543,0,0,1,7.52-6.361q12.031-.061,24.063-.009a7.642,7.642,0,0,1,7.953,7.837c.012.729.031,1.458.047,2.186-.227,1.626-1.609,2.382-2.656,3.314q-3.865,3.437-7.656,6.954c-1.646,1.519-2.248,1.558-3.845,0-2.473-2.408-4.895-4.869-7.33-7.315a3.349,3.349,0,0,0-2.782-1.274A2.529,2.529,0,0,0,268.011,147a3.428,3.428,0,0,0,.709,1.193c3.632,3.874,7.343,7.676,11.277,11.24,1.636,1.482,2.956,1.188,4.891-.6,2.58-2.386,5.121-4.814,7.826-7.059.488-.405.916-1.011,1.706-.823.013,4.107.047,8.215.034,12.322-.016,4.958-3.18,8.315-8.128,8.374q-11.627.14-23.258,0c-4.96-.053-8.3-3.464-8.432-8.428-.075-2.781-.044-5.565-.061-8.346" transform="translate(-119.002 -61.625)" fill="#fee077"/>
    <path id="Trazado_263040" data-name="Trazado 263040" d="M254.573,281.249q-.013-3.179-.026-6.36c.314-3.366-.252-6.76.337-10.118a7.458,7.458,0,0,1,7.539-6.547c7.89-.06,15.781-.049,23.672-.021,5.329.019,8.31,3.06,8.365,8.422.005.53.024,1.06.037,1.591.031,1.255-.987,1.823-1.746,2.488q-4.187,3.663-8.223,7.487c-2.015,1.911-2.628,1.913-4.6-.043-2.354-2.331-4.686-4.686-7.034-7.024a3.818,3.818,0,0,0-2.157-1.335,2.428,2.428,0,0,0-2.638,1.371,2.526,2.526,0,0,0,.542,3.1c2.09,2.129,4.213,4.222,6.319,6.335,1.544,1.549,3.077,3.109,4.644,4.635,1.9,1.853,3.115,1.967,5.129.062,2.214-2.093,4.583-4.015,6.727-6.185.816-.826,1.6-1.8,2.955-1.778.011,4.377.092,8.755.013,13.131a7.394,7.394,0,0,1-7.394,7.326c-7.894.07-15.792-.119-23.68.084-5,.128-8.659-3.217-8.718-8.663-.029-2.652-.039-5.3-.057-7.957" transform="translate(-118.991 -120.689)" fill="#6cf4c1"/>
    <path id="Trazado_263041" data-name="Trazado 263041" d="M6.015,44.364q.018,18.22.032,36.439,0,45.9-.026,91.8c-1.445,0-2.885.216-4.2-.76a4.633,4.633,0,0,1-1.755-4.182q.027-48,.013-96.006c0-7.171.181-14.348-.07-21.509-.143-4.082,2.089-6.39,6.009-5.779" transform="translate(0 -20.693)" fill="#d0d0d5"/>
    <path id="Trazado_263042" data-name="Trazado 263042" d="M305.555,148.334c-3.015,2.688-6.06,5.345-9.038,8.075-2.684,2.461-4.053,2.506-6.579-.007q-4.8-4.775-9.572-9.577a11.183,11.183,0,0,1-1.284-1.511,2.954,2.954,0,0,1,.458-4.25,3.193,3.193,0,0,1,4.314.186c2.707,2.642,5.422,5.282,8.013,8.036,1.146,1.218,1.882,1.179,3.032.015,3.447-3.487,7.388-6.453,10.741-10.046,2.255-1.424,3.962-3.481,5.97-5.192,2.418-2.06,4.685-4.3,7.043-6.428a3.888,3.888,0,0,1,3.164-1.377,3.163,3.163,0,0,1,2.642,2.137,3.06,3.06,0,0,1-1.068,3.552c-3.667,3.35-7.355,6.675-11.016,10.03-2.29,2.1-4.547,4.237-6.819,6.357" transform="translate(-130.137 -59.007)" fill="#a69aa6"/>
    <path id="Trazado_263043" data-name="Trazado 263043" d="M305.551,22.013c-3.161,2.825-6.341,5.63-9.477,8.482-2.1,1.908-3.693,2-5.7.028q-5.479-5.366-10.845-10.846c-1.537-1.566-1.545-3.418-.178-4.761s3.175-1.266,4.765.288c2.754,2.691,5.449,5.443,8.188,8.15.461.456.831,1.312,1.729.42,3.765-3.735,8.036-6.932,11.6-10.878,2.046-1.15,3.514-2.986,5.267-4.483,2.772-2.368,5.406-4.9,8.134-7.317,1.635-1.451,3.529-1.444,4.758-.077,1.293,1.439,1.171,3.144-.529,4.709-5.366,4.941-10.781,9.829-16.171,14.743-.536.489-1.027,1.027-1.539,1.543" transform="translate(-130.116 0)" fill="#a69aa6"/>
    <path id="Trazado_263044" data-name="Trazado 263044" d="M305.593,274.681a116.225,116.225,0,0,0-8.756,7.8c-2.943,2.767-4.123,2.769-6.954-.061q-5.072-5.07-10.139-10.145c-1.5-1.515-1.691-3.517-.485-4.749,1.409-1.439,3.2-1.346,4.89.318,2.694,2.658,5.38,5.326,8.023,8.035.713.731,1.328,1.049,2.167.265q5.665-5.291,11.338-10.575c4.282-3.359,8.079-7.261,12.17-10.834a18.709,18.709,0,0,1,1.81-1.546,3.14,3.14,0,0,1,4.05,4.784c-1.987,1.946-4.123,3.741-6.157,5.641-3.969,3.708-8.2,7.137-11.958,11.068" transform="translate(-130.174 -118.042)" fill="#a69aa6"/>
    <path id="Trazado_263045" data-name="Trazado 263045" d="M144.676,71.324c-7.746.013-15.493.04-23.239.03-2.176,0-2.923-.741-2.937-3.066-.043-7.282-.01-14.565-.026-21.847,0-.828.1-1.472,1.149-1.384a114.959,114.959,0,0,1,8.723,8.688c5.038,5.171,9.985,10.432,14.972,15.653a4.715,4.715,0,0,1,1.357,1.925" transform="translate(-55.383 -21.059)" fill="#a69aa6"/>
    <path id="Trazado_263046" data-name="Trazado 263046" d="M56.322,144.271q-13.546,0-27.092,0a10.417,10.417,0,0,1-1.789-.06,3.085,3.085,0,0,1-2.587-3.278,3.025,3.025,0,0,1,2.688-2.989,8.4,8.4,0,0,1,1.59-.045q27.391,0,54.783,0h.2c2.709.014,4.118,1.13,4.085,3.235-.032,2.087-1.419,3.135-4.186,3.139q-6.573.009-13.148,0H56.322" transform="translate(-11.615 -64.454)" fill="#a69aa6"/>
    <path id="Trazado_263047" data-name="Trazado 263047" d="M56.427,186.214q-13.542,0-27.084,0a9.995,9.995,0,0,1-1.788-.048,2.969,2.969,0,0,1-2.682-2.98,2.894,2.894,0,0,1,2.216-3.132,7.444,7.444,0,0,1,2.363-.21q27.084-.008,54.168,0a7.412,7.412,0,0,1,2.363.213,2.89,2.89,0,0,1,2.207,3.138,2.968,2.968,0,0,1-2.691,2.972,10.2,10.2,0,0,1-1.788.046q-13.642,0-27.284,0" transform="translate(-11.624 -84.068)" fill="#a69aa6"/>
    <path id="Trazado_263048" data-name="Trazado 263048" d="M56.525,228.143q-13.631,0-27.262,0a10.553,10.553,0,0,1-1.787-.054,3.108,3.108,0,0,1-1.034-5.794,5.192,5.192,0,0,1,2.888-.531q27.163.01,54.325.01a6.938,6.938,0,0,1,1.971.138,3.1,3.1,0,0,1,2.547,3.321,3.032,3.032,0,0,1-3.192,2.891c-1.988.062-3.98.02-5.969.02H56.525" transform="translate(-11.602 -103.666)" fill="#a69ba6"/>
    <path id="Trazado_263049" data-name="Trazado 263049" d="M44.563,95.974c5.31,0,10.621-.009,15.931,0,2.43.006,3.767,1.111,3.812,3.09s-1.3,3.259-3.668,3.266q-16.03.047-32.062,0c-2.339-.006-3.758-1.31-3.731-3.236.028-1.979,1.376-3.115,3.786-3.121,5.31-.015,10.621,0,15.931,0" transform="translate(-11.614 -44.863)" fill="#a69aa6"/>
  </g>
</svg>
