<svg xmlns="http://www.w3.org/2000/svg" xmlns:xlink="http://www.w3.org/1999/xlink" width="152" height="152" viewBox="0 0 152 152">
  <defs>
    <clipPath id="clip-path">
      <rect id="Rectángulo_90559" data-name="Rectángulo 90559" width="70.078" height="70.133" fill="none"/>
    </clipPath>
  </defs>
  <g id="Grupo_149774" data-name="Grupo 149774" transform="translate(-977 -5692.113)">
    <g id="Elipse_5605" data-name="Elipse 5605" transform="translate(977 5692.113)" fill="#fff" stroke="#ffe4e5" stroke-width="6">
      <circle cx="76" cy="76" r="76" stroke="none"/>
      <circle cx="76" cy="76" r="73" fill="none"/>
    </g>
    <g id="Grupo_149727" data-name="Grupo 149727" transform="translate(1019 5733.047)">
      <g id="Grupo_149726" data-name="Grupo 149726" transform="translate(0 0)" clip-path="url(#clip-path)">
        <path id="Trazado_262934" data-name="Trazado 262934" d="M0,34.943A35.039,35.039,0,1,1,34.971,70.132,35.011,35.011,0,0,1,0,34.943" transform="translate(0 0)"/>
        <path id="Trazado_262935" data-name="Trazado 262935" d="M14.985,40.233A25.384,25.384,0,1,1,40.249,65.818,25.333,25.333,0,0,1,14.985,40.233" transform="translate(-5.325 -5.334)" fill="#b7ebbb"/>
        <path id="Trazado_262936" data-name="Trazado 262936" d="M46.015,56.485c-3.293,0-6.587.032-9.881-.01-3.213-.04-5.227-1.872-5.272-4.7-.046-2.872,2.077-4.9,5.339-4.925q9.759-.07,19.519,0c3.237.021,5.472,2.082,5.448,4.871-.023,2.807-2.219,4.726-5.515,4.756-3.213.03-6.426.006-9.639.006" transform="translate(-10.968 -16.639)"/>
      </g>
    </g>
  </g>
</svg>
