<svg id="Grupo_149731" data-name="Grupo 149731" xmlns="http://www.w3.org/2000/svg" xmlns:xlink="http://www.w3.org/1999/xlink" width="189.599" height="189.884" viewBox="0 0 189.599 189.884">
  <defs>
    <clipPath id="clip-path">
      <rect id="Rectángulo_90562" data-name="Rectángulo 90562" width="189.599" height="189.884" fill="none"/>
    </clipPath>
  </defs>
  <g id="Grupo_149731-2" data-name="Grupo 149731" clip-path="url(#clip-path)">
    <path id="Trazado_262994" data-name="Trazado 262994" d="M165.988,219.48q-.025,12.736-.063,25.472c0,.824.271,1.724-.4,2.451a4.254,4.254,0,0,1-3.089,1.037c-2.236-.018-4.472,0-6.708,0q-61.959,0-123.918.008a16.406,16.406,0,0,1-7.474-1.438c-4.71-2.321-6.982-6.2-7.449-11.3-.06-.656-.037-1.317-.037-1.976q0-42.9,0-85.8c0-1.442-.132-2.914.641-4.244.877-1.171,2.171-.88,3.353-.93a23.421,23.421,0,0,1,2.874.028c10.952-.06,21.9,0,32.856-.041a3.978,3.978,0,0,1,3.761,2.005c.924,1.512,1.975,2.946,2.928,4.438,2.3,3.6,4.777,7.1,7.066,10.708a3.786,3.786,0,0,0,3.584,1.912c7.164-.052,14.328-.029,21.492-.016a6.078,6.078,0,0,1,2.9.339c.788.748.372,1.593.146,2.39a37.444,37.444,0,0,0,49.575,45.338,4.57,4.57,0,0,1,1.707-.428,3.545,3.545,0,0,1,2.273,1.421c2.187,2.177,4.417,4.314,6.518,6.573.948,1.021,1.633,1.07,2.53.02a3.776,3.776,0,0,1,1.828-1.44c1.5.738,2.922,1.553,3.1,3.477" transform="translate(-7.956 -67.411)" fill="#a7e446"/>
    <path id="Trazado_262995" data-name="Trazado 262995" d="M68.535,82.314c-.144-.22-.278-.447-.434-.659-1.365-1.838-2.078-4.578-4.033-5.436-1.938-.851-4.515-.256-6.812-.263q-13.9-.044-27.8-.066a3.371,3.371,0,0,1-.641-2.606q-.024-35.331,0-70.661A3.616,3.616,0,0,1,29.441,0Q86.466,0,143.49,0a9.077,9.077,0,0,1,9.143,9.114c.005,1.186,0,2.372.005,3.559a3.57,3.57,0,0,1,.63,2.617q.018,26.933,0,53.867a6.2,6.2,0,0,1-.218,1.949c-.69,1.379-1.786.745-2.736.483a37.057,37.057,0,0,0-22.625.68,35.3,35.3,0,0,0-13.725,8.569,5.26,5.26,0,0,1-2.876,1.952,28.367,28.367,0,0,1-4.126.132q-17.5.007-34.993,0a6.226,6.226,0,0,1-3.433-.611" transform="translate(-13.603 0)" fill="#f7f6fd"/>
    <path id="Trazado_262996" data-name="Trazado 262996" d="M177.152,144.648a41.453,41.453,0,0,1,13.73-9.74,37.611,37.611,0,0,1,25.255-1.482c.691.2,1.4.346,2.094.518,1.386-.171,2.523.581,3.678,1.112a42.089,42.089,0,0,1,7.766,4.852,4.362,4.362,0,0,1,1.165,1.537,39.427,39.427,0,0,1,11.141,17.845,37.67,37.67,0,0,1-3.229,29.014c-.3.563-.82,1.069-.409,1.791A41.466,41.466,0,0,1,223.254,204.1a5.17,5.17,0,0,1-1.854.565c-3.032.823-5.916,2.113-9.052,2.62-12.019,1.944-22.733-.939-31.843-9-9.071-8.022-13.184-18.314-12.784-30.412a49.134,49.134,0,0,1,1.98-10.623c-.2-1.2.461-2.177.892-3.18a41.18,41.18,0,0,1,5.149-8.389,3.687,3.687,0,0,1,1.41-1.042" transform="translate(-79.205 -62.305)" fill="#929292"/>
    <path id="Trazado_262997" data-name="Trazado 262997" d="M9.921,144.492a10.34,10.34,0,0,0-.405,3.108q.021,43.986.014,87.972a12.666,12.666,0,0,0,12.94,12.942q66,.006,132,.013a10.084,10.084,0,0,0,3.1-.408c-2.323,7.1-6.184,9.891-13.7,9.891q-64.926,0-129.852,0C5.2,258.01.053,252.854.052,244.033c0-28.473.059-56.946-.052-85.418-.022-5.538,1.729-9.879,6.372-12.955.959-1.072,2.018-1.839,3.549-1.167" transform="translate(0 -68.127)" fill="#85b638"/>
    <path id="Trazado_262998" data-name="Trazado 262998" d="M276.074,90.466a46.628,46.628,0,0,0-12.61-7.5q0-29.483.008-58.965c1.891.091,3.792-.256,5.671.348a9.593,9.593,0,0,1,6.957,9.407q0,28.357-.025,56.713" transform="translate(-124.438 -11.327)" fill="#bfd9fa"/>
    <path id="Trazado_262999" data-name="Trazado 262999" d="M15.622,76.368c-1.309,0-2.352.821-3.549,1.167q0-33.978,0-67.956A9.6,9.6,0,0,1,21.539.006q.006,37.944.012,75.887c-1.961.349-4.012-.433-5.929.475" transform="translate(-5.701 -0.003)" fill="#e2e7f5"/>
    <path id="Trazado_263000" data-name="Trazado 263000" d="M296.549,276.3A17.546,17.546,0,0,0,293.371,273c-.3-.621.144-1.009.492-1.366q3.992-4.1,8.082-8.092a1.2,1.2,0,0,1,1.22-.465c-.135.979.693,1.365,1.221,1.9q11.144,11.206,22.339,22.362a4.143,4.143,0,0,1,1.39,3.266c-.074,5.579-.031,11.159-.031,16.738l-.532.388a8.182,8.182,0,0,0-.938-1.453q-14.283-14.354-28.6-28.672c-.46-.46-.975-.865-1.464-1.3" transform="translate(-138.517 -124.232)" fill="#929292"/>
    <path id="Trazado_263001" data-name="Trazado 263001" d="M291.923,253.22c-3.394,3.18-6.728,6.419-9.795,9.923-3.094,3.157-3.092,3.156-6.247,0q-3.2-3.2-6.411-6.4c4.393-2.519,8.673-5.195,12.043-9.07,1.117-1.285,2.108-2.681,3.24-3.952.5-.557.719-1.46,1.66-1.552,2.288,2.268,4.521,4.6,6.888,6.778,1.173,1.08,1.446,1.887.044,2.91a14.064,14.064,0,0,0-1.422,1.363" transform="translate(-127.274 -114.38)" fill="#686868"/>
    <path id="Trazado_263002" data-name="Trazado 263002" d="M147.115,156.02a47.726,47.726,0,0,0-7.451,12.611c-8.289,0-16.579-.068-24.867.036a3.687,3.687,0,0,1-3.62-2c-2.264-3.617-4.706-7.122-7.077-10.672l43.015.029" transform="translate(-49.168 -73.677)" fill="#85b638"/>
    <path id="Trazado_263003" data-name="Trazado 263003" d="M124.372,48.272c-10.786,0-21.572-.035-32.358.037-1.655.011-2.288-.29-2.227-2.128.139-4.235.033-4.239,4.223-4.239,20.98,0,41.961.024,62.941-.041,1.827-.006,2.511.329,2.427,2.33-.169,4.035-.045,4.04-4.028,4.04H124.372" transform="translate(-42.406 -19.79)" fill="#edcb61"/>
    <path id="Trazado_263004" data-name="Trazado 263004" d="M124.773,101.922c10.786,0,21.572.033,32.358-.035,1.634-.01,2.3.258,2.239,2.115-.141,4.246-.032,4.25-4.213,4.25-20.98,0-41.961-.023-62.941.04-1.809.005-2.525-.3-2.439-2.318.172-4.046.046-4.052,4.018-4.052h30.977" transform="translate(-42.4 -48.122)" fill="#edcb61"/>
    <path id="Trazado_263005" data-name="Trazado 263005" d="M116.692,24.288c-8.286,0-16.571-.03-24.857.029-1.451.01-2.07-.241-2.036-1.909.089-4.448,0-4.449,4.4-4.449,15.717,0,31.433.023,47.149-.035,1.633-.005,2.3.256,2.239,2.113-.141,4.248-.032,4.251-4.21,4.251H116.692" transform="translate(-42.413 -8.466)" fill="#edcb61"/>
    <path id="Trazado_263006" data-name="Trazado 263006" d="M116.7,84.252c-8.286,0-16.571-.029-24.857.027-1.441.01-2.077-.223-2.043-1.9.089-4.454,0-4.456,4.4-4.456,15.717,0,31.433.036,47.149-.046,1.876-.01,2.284.569,2.234,2.316-.115,4.058-.031,4.06-4,4.06H116.7" transform="translate(-42.412 -36.782)" fill="#edcb61"/>
    <path id="Trazado_263007" data-name="Trazado 263007" d="M54.875,30.307c.038,2.025.86,4.6-.282,5.914-1.092,1.261-3.71.348-5.653.381-3.806.065-7.615-.025-11.42.045-1.2.022-1.591-.316-1.56-1.546.082-3.22.063-6.445.008-9.667-.018-1.063.224-1.567,1.4-1.492,1.634.1,3.278.062,4.918.083a1.946,1.946,0,0,1,.546.809c1.06,3.815,3.727,5.087,7.458,4.954,1.52-.054,3.156-.5,4.583.519" transform="translate(-16.983 -11.305)" fill="#a7e446"/>
    <path id="Trazado_263008" data-name="Trazado 263008" d="M54.875,90.281c.038,2.025.86,4.6-.282,5.914-1.092,1.261-3.71.348-5.653.381-3.806.065-7.615-.025-11.42.045-1.2.022-1.591-.316-1.56-1.546.082-3.22.063-6.445.008-9.667-.018-1.063.224-1.567,1.4-1.492,1.634.1,3.278.062,4.918.083a1.945,1.945,0,0,1,.546.809c1.06,3.815,3.727,5.087,7.458,4.954,1.52-.054,3.156-.5,4.583.519" transform="translate(-16.983 -39.632)" fill="#a7e446"/>
    <path id="Trazado_263009" data-name="Trazado 263009" d="M60.542,30.314c-1.971-.005-3.942,0-5.913-.016-3.918-.024-6.293-2.257-6.674-6.265,3.734-.021,7.468-.01,11.2-.082,1.1-.021,1.531.31,1.467,1.445-.092,1.636-.06,3.279-.08,4.919" transform="translate(-22.65 -11.312)" fill="#85b638"/>
    <path id="Trazado_263010" data-name="Trazado 263010" d="M60.542,90.288c-1.971-.005-3.942,0-5.913-.016-3.918-.024-6.293-2.257-6.674-6.265,3.733-.021,7.468-.01,11.2-.082,1.1-.021,1.531.31,1.467,1.445-.092,1.636-.06,3.279-.08,4.919" transform="translate(-22.65 -39.638)" fill="#85b638"/>
    <path id="Trazado_263011" data-name="Trazado 263011" d="M239.859,45.319c0,2.99,0,2.99-3.629,2.989-2.689,0-2.689,0-2.688-3.735,0-2.6,0-2.623,3.826-2.586,2.945.029,2.436-.491,2.491,3.332" transform="translate(-110.305 -19.827)" fill="#edcb61"/>
    <path id="Trazado_263012" data-name="Trazado 263012" d="M236.763,101.951c3.1,0,3.1,0,3.1,3.719,0,2.613,0,2.613-3.81,2.611-2.51,0-2.532,0-2.5-3.915.024-2.853-.413-2.363,3.212-2.415" transform="translate(-110.307 -48.151)" fill="#edcb61"/>
    <path id="Trazado_263013" data-name="Trazado 263013" d="M228.14,156.612c10.3-.278,17.318,6.43,20.338,15.111,3.449,9.918,2.065,19.244-4.446,27.533a18.673,18.673,0,0,1-15.9,7.251c-5.256.078-9.261-2.521-12.616-6.206-9.716-10.668-9.072-29,1.4-38.881,3.1-2.921,6.695-5.058,11.225-4.807" transform="translate(-98.538 -73.961)" fill="#f7f6fd"/>
    <path id="Trazado_263014" data-name="Trazado 263014" d="M220.033,156.269a20.012,20.012,0,0,0-11.686,5.955,27.255,27.255,0,0,0-7,15.28,28.046,28.046,0,0,0,4.1,19,20.259,20.259,0,0,0,14.586,9.663c-4.531.984-8.833.058-13.016-1.644-10.055-4.092-16.673-15.2-15.389-25.775,1.425-11.742,10.043-20.858,21.232-22.495a16.869,16.869,0,0,1,7.179.02" transform="translate(-90.431 -73.618)" fill="#e2e7f5"/>
  </g>
</svg>
