<svg id="Grupo_149720" data-name="Grupo 149720" xmlns="http://www.w3.org/2000/svg" xmlns:xlink="http://www.w3.org/1999/xlink" width="63.229" height="79.5" viewBox="0 0 63.229 79.5">
  <defs>
    <clipPath id="clip-path">
      <rect id="Rectángulo_90555" data-name="Rectángulo 90555" width="63.229" height="79.5" fill="none"/>
    </clipPath>
  </defs>
  <g id="Grupo_149720-2" data-name="Grupo 149720" clip-path="url(#clip-path)">
    <path id="Trazado_262805" data-name="Trazado 262805" d="M7.811,79.5A3.671,3.671,0,0,1,5.422,77a5.585,5.585,0,0,1-.089-1.31q0-23.006.013-46.012c0-.656-.12-.85-.82-.848A4.272,4.272,0,0,1,.012,24.308q-.027-5.586,0-11.173a4.259,4.259,0,0,1,4.6-4.576c.643.006.749-.205.731-.775-.039-1.266-.012-2.534-.012-3.8C5.332,1.675,5.9.821,7.965,0H45.779a14.888,14.888,0,0,1,5.679,1.323,19.362,19.362,0,0,1,11.58,14.9,13.689,13.689,0,0,1,.176,2.472q-.008,18.782,0,37.564c0,.362.006.724-.012,1.086a1.31,1.31,0,0,1-1.022,1.375A1.425,1.425,0,0,1,60.456,57.3a8.911,8.911,0,0,1-.038-1.24c0-11.948-.041-23.9.028-35.843a6.585,6.585,0,0,0-5.97-6.469c-.516.014-1.032,0-1.548-.007A3.517,3.517,0,0,1,49.4,10.1a8.41,8.41,0,0,0-.541-3.5,6.519,6.519,0,0,0-6.094-4.029c-2.865-.023-5.73-.006-8.595-.006q-12.35,0-24.7,0c-1.383,0-1.571.188-1.579,1.559-.006.957,0,1.914,0,2.87,0,1.305,0,1.307,1.273,1.308,4.388,0,8.775,0,13.163,0a4.475,4.475,0,0,1,4.012,2.209,3.956,3.956,0,0,1,.611,2.134c0,1.914.024,3.827-.006,5.741a4.357,4.357,0,0,1-4.131,4.332c-1.493.089-2.994.056-4.489.007-.99-.032-1.418-.473-1.556-1.468a1.483,1.483,0,0,1,1.648-1.3c1.186-.039,2.373,0,3.56-.016,1.618-.021,2.171-.585,2.177-2.215.005-1.5.008-3,0-4.5s-.62-2.115-2.132-2.119c-5.057-.013-10.114,0-15.17,0-.774,0-1.549-.023-2.322.01a1.752,1.752,0,0,0-1.9,1.955c-.015,2.145.007,4.291-.012,6.436,0,.553.152.769.722.588a5.726,5.726,0,0,1,1.767-.15c2.4,0,4.8-.019,7.2.011,1.1.014,1.513.371,1.739,1.375a1.457,1.457,0,0,1-1.615,1.417c-1.186.048-2.375,0-3.562.02-.863.012-.931.084-.956.922-.009.284,0,.569,0,.854q0,25.021,0,50.043a4.6,4.6,0,0,1-.013.542c0,.077-.011.155-.007.232.061,1.382.228,1.556,1.608,1.556q24.708.006,49.415,0c1.367,0,1.495-.133,1.5-1.527q.005-5.626,0-11.252a6.822,6.822,0,0,1,.05-1.161,1.558,1.558,0,0,1,1.365-1.467c1.015.168,1.378.523,1.383,1.516.023,4.495.037,8.99-.005,13.485-.015,1.578-.957,2.558-2.7,2.987Z" transform="translate(0)"/>
    <path id="Trazado_262806" data-name="Trazado 262806" d="M36.918,84.052c-.008-.258-.024-.516-.024-.774q0-25.479-.02-50.958c0-.752.174-.954.919-.914,1.287.07,2.579.024,3.87.018.954,0,1.25-.262,1.454-1.233a3.9,3.9,0,0,1,3.048,0c.207.972.5,1.229,1.456,1.233,1.368.006,2.737.016,4.105,0a4.207,4.207,0,0,0,4.262-4.129c.065-1.912.067-3.83,0-5.741a4.21,4.21,0,0,0-4.289-4.1q-7.048-.028-14.1.007c-.561,0-.745-.106-.724-.706.051-1.447.01-2.9.019-4.345.005-.859.31-1.171,1.164-1.171,11.386,0,22.772-.019,34.158.012a6.5,6.5,0,0,1,6.551,6.8c-.077,2.885,1.428,4.686,4.467,4.358a2.546,2.546,0,0,1,.462.033,1.043,1.043,0,0,1,.977.84,9.539,9.539,0,0,1,.5,2.733c0,3.358.007,6.717-.006,10.075,0,.416.111.9-.389,1.166-2.986-.3-5.981-.133-8.972-.14-10.483-.024-20.965-.009-31.448-.009-.336,0-.672-.011-1.007.011a2.39,2.39,0,0,0-2.3,2.125,7.589,7.589,0,0,0-.039,1.085q0,19.208,0,38.416a3.934,3.934,0,0,0,.135,1.46,2.535,2.535,0,0,0,2.113,1.714,8.251,8.251,0,0,0,1.161.03q15.492,0,30.983,0a2.408,2.408,0,0,1,1.433.2c.108.429-.255.529-.5.645A16.041,16.041,0,0,1,70.842,84.3c-3.093.254-6.19.147-9.286.152q-11.617.021-23.234,0c-.489,0-1.058.169-1.4-.393" transform="translate(-29.237 -8.899)" fill="#f8f5f8"/>
    <path id="Trazado_262807" data-name="Trazado 262807" d="M36.989,126.963a1.446,1.446,0,0,0,.9.154c10.278,0,20.557.031,30.835-.02a15.855,15.855,0,0,0,8.223-1.971c.3-.338.71-.264,1.087-.267,1.652-.013,3.3,0,4.957-.008,1.938-.015,2.853-.926,2.854-2.854q.006-19.593.007-39.187a2.878,2.878,0,0,0-.793-2.267.462.462,0,0,1-.186-.479c.227-.241.129-.541.13-.814.007-3.307-.013-6.614.014-9.921a11.086,11.086,0,0,0-.5-3.108,1.094,1.094,0,0,0-.748-.876,6.657,6.657,0,0,1,6.2,5.945c.038.489.044.981.044,1.472q0,17.993,0,35.985c0,1.275.324,1.622,1.495,1.631a.766.766,0,0,0-.316.72c.021.789.006,1.579.006,2.369-.988.321-1.182.574-1.183,1.617q-.006,6.245,0,12.49c0,1.186-.222,1.407-1.395,1.407H38.912c-1.934,0-2.019-.09-1.923-2.018" transform="translate(-29.308 -51.81)" fill="#eeebee"/>
    <path id="Trazado_262808" data-name="Trazado 262808" d="M25.82,62.895H22.772a1.345,1.345,0,0,0-1.531-1.1c-2.607.02-5.214.014-7.82,0a5.728,5.728,0,0,0-2.1.425,1.308,1.308,0,0,1-.093-.778c-.006-2.25-.014-4.5,0-6.749a1.983,1.983,0,0,1,2.19-2.219q8.866-.01,17.731,0a1.976,1.976,0,0,1,2.187,2.147q.036,2.521,0,5.043A1.963,1.963,0,0,1,31.145,61.8c-1.265.009-2.53.022-3.794,0a1.336,1.336,0,0,0-1.531,1.1" transform="translate(-8.891 -41.603)" fill="#a7e446"/>
    <path id="Trazado_262809" data-name="Trazado 262809" d="M242.3,17.516a16.666,16.666,0,0,1,9.3,9.206c-.277.058-.387-.105-.518-.191a9.359,9.359,0,0,0-5.509-1.482c-1.33.036-1.55-.191-1.531-1.5a9.963,9.963,0,0,0-1.736-6.03" transform="translate(-192.116 -13.888)" fill="#e1dee1"/>
    <path id="Trazado_262810" data-name="Trazado 262810" d="M14.268,110.5q0,.464,0,.928c0,1.141-.065,1.195-1.225,1.01a1.985,1.985,0,0,1-1.712-2.468,2.279,2.279,0,0,1,2.706-1.5c.256.075.228.236.23.407,0,.542,0,1.083,0,1.625" transform="translate(-8.937 -85.947)" fill="#85b638"/>
    <path id="Trazado_262811" data-name="Trazado 262811" d="M99.706,135.037a3.2,3.2,0,0,1,1.285,2.821q-.03,19.513-.013,39.026c0,2.171-1.011,3.184-3.16,3.19q-3.019.008-6.038.026c-.284-.009-.567-.026-.85-.026H58.853c-2.15,0-3.18-1.03-3.18-3.18q0-19.523,0-39.047c0-2.157,1.011-3.163,3.185-3.163q19.486,0,38.972,0a4.1,4.1,0,0,1,1.875.361" transform="translate(-44.142 -106.783)"/>
    <path id="Trazado_262812" data-name="Trazado 262812" d="M162.595,152.347a1.247,1.247,0,0,0-1.444-1.09c-.465.043-.557-.164-.551-.581.02-1.4.023-2.791,0-4.187-.008-.451.154-.57.582-.568q4.179.022,8.358,0c.4,0,.539.117.534.528-.021,1.421-.025,2.843,0,4.264.009.468-.176.559-.589.545-.8-.026-1.6.01-2.4-.012a1.258,1.258,0,0,0-1.437,1.1.707.707,0,0,1-.241.156,6.269,6.269,0,0,1-2.814-.155" transform="translate(-127.336 -115.699)" fill="#85b638"/>
    <path id="Trazado_262813" data-name="Trazado 262813" d="M108.462,151.246c-1.392,0-2.784-.016-4.175.009-.441.008-.577-.129-.569-.569.024-1.394.022-2.789,0-4.183-.006-.425.107-.591.561-.588,2.784.018,5.567.013,8.351,0,.365,0,.567.056.56.5q-.034,2.168,0,4.338c.007.442-.182.5-.554.5-1.392-.016-2.784-.006-4.175-.006" transform="translate(-82.236 -115.694)" fill="#85b638"/>
    <path id="Trazado_262814" data-name="Trazado 262814" d="M222.188,151.241c-1.366,0-2.733-.018-4.1.01-.469.01-.624-.122-.614-.6.03-1.368.026-2.738,0-4.106-.008-.454.1-.636.6-.633,2.732.021,5.465.018,8.2,0,.5,0,.684.19.677.685-.019,1.369-.025,2.738,0,4.106.01.467-.176.551-.589.545-1.392-.021-2.784-.008-4.176-.008" transform="translate(-172.434 -115.688)" fill="#85b638"/>
    <path id="Trazado_262815" data-name="Trazado 262815" d="M165.522,176.947l.134-.006c.19.949.51,1.225,1.457,1.233.826.007,1.652.017,2.477-.005.361-.01.5.092.49.474-.021,1.266-.018,2.533,0,3.8,0,.37-.125.493-.493.492q-4.218-.016-8.437,0c-.393,0-.549-.111-.542-.527q.033-1.861,0-3.722c-.008-.417.135-.548.533-.514a1.27,1.27,0,0,0,1.461-1.077,12.635,12.635,0,0,1,2.1-.076,1.909,1.909,0,0,0,.818-.07" transform="translate(-127.343 -140.294)" fill="#a7e446"/>
    <path id="Trazado_262816" data-name="Trazado 262816" d="M108.474,251.2c1.366,0,2.732.019,4.1-.011.475-.011.621.132.609.607-.03,1.187-.028,2.376,0,3.563.01.452-.088.631-.59.627q-4.137-.037-8.273,0c-.471,0-.626-.126-.613-.607.032-1.187.039-2.376,0-3.563-.018-.545.2-.634.674-.624,1.365.027,2.732.01,4.1.01" transform="translate(-82.223 -199.166)" fill="#a7e446"/>
    <path id="Trazado_262817" data-name="Trazado 262817" d="M165.306,324.343c-1.365,0-2.731-.017-4.1.01-.452.009-.639-.083-.622-.587.038-1.186.029-2.375,0-3.562-.01-.45.094-.638.593-.634q4.134.033,8.269,0c.472,0,.626.133.613.611-.03,1.161-.037,2.324,0,3.484.018.529-.111.709-.668.691-1.364-.042-2.73-.014-4.1-.014" transform="translate(-127.328 -253.383)" fill="#a7e446"/>
    <path id="Trazado_262818" data-name="Trazado 262818" d="M108.421,324.343c-1.365,0-2.731-.017-4.1.01-.453.009-.637-.086-.621-.589.038-1.186.029-2.375,0-3.561-.01-.452.1-.637.594-.633q4.134.032,8.269,0c.473,0,.624.136.612.612q-.045,1.78,0,3.562c.012.461-.095.624-.589.612-1.39-.036-2.782-.012-4.173-.012" transform="translate(-82.225 -253.383)" fill="#a7e446"/>
    <path id="Trazado_262819" data-name="Trazado 262819" d="M108.475,187.619c-1.368,0-2.737-.017-4.1.009-.484.009-.689-.1-.67-.639.041-1.188.031-2.379,0-3.568-.01-.445.133-.567.569-.564q4.181.027,8.363,0c.373,0,.554.061.544.5q-.043,1.861,0,3.724c.012.48-.2.548-.6.543-1.368-.018-2.736-.007-4.1-.007" transform="translate(-82.222 -144.985)" fill="#a7e446"/>
    <path id="Trazado_262820" data-name="Trazado 262820" d="M222.22,182.863c1.394,0,2.788.016,4.181-.01.436-.008.574.118.563.561q-.043,1.822,0,3.646c.01.453-.154.566-.582.564q-4.142-.023-8.284,0c-.4,0-.62-.056-.609-.54.029-1.24.027-2.482,0-3.723-.009-.438.176-.506.551-.5,1.393.017,2.787.007,4.181.007" transform="translate(-172.443 -144.982)" fill="#a7e446"/>
    <path id="Trazado_262821" data-name="Trazado 262821" d="M222.173,255.987c-1.366,0-2.732-.014-4.1.008-.423.007-.595-.1-.585-.556.027-1.239.023-2.479,0-3.717-.007-.419.154-.519.543-.517q4.174.019,8.349,0c.425,0,.592.1.582.556-.028,1.239-.024,2.479,0,3.717.007.416-.147.523-.54.518-1.417-.019-2.834-.007-4.251-.007" transform="translate(-172.445 -199.176)" fill="#a7e446"/>
    <path id="Trazado_262822" data-name="Trazado 262822" d="M165.436,251.2c1.34,0,2.68.02,4.02-.011.474-.011.622.131.61.607-.03,1.187-.027,2.375,0,3.563.01.45-.086.632-.589.628q-4.136-.037-8.272,0c-.469,0-.627-.125-.615-.606.031-1.187.038-2.376,0-3.562-.018-.544.2-.635.675-.625,1.391.027,2.783.01,4.174.01" transform="translate(-127.326 -199.166)" fill="#a7e446"/>
    <path id="Trazado_262823" data-name="Trazado 262823" d="M222.239,290.228c-1.366,0-2.732-.017-4.1.009-.48.009-.691-.09-.672-.633.042-1.16.031-2.324,0-3.485-.01-.449.079-.635.585-.631,2.783.024,5.567.017,8.35.005.379,0,.549.076.54.505-.027,1.239-.025,2.479,0,3.718.008.416-.137.525-.533.52-1.391-.02-2.783-.008-4.175-.008" transform="translate(-172.428 -226.359)" fill="#a7e446"/>
    <path id="Trazado_262824" data-name="Trazado 262824" d="M165.355,290.227c-1.366,0-2.732-.016-4.1.009-.477.009-.694-.084-.674-.631.042-1.16.031-2.324,0-3.485-.01-.447.075-.637.583-.633,2.783.025,5.567.017,8.35.005.377,0,.551.071.541.5-.027,1.239-.025,2.479,0,3.718.008.414-.133.527-.531.521-1.392-.02-2.783-.008-4.175-.008" transform="translate(-127.323 -226.359)" fill="#a7e446"/>
    <path id="Trazado_262825" data-name="Trazado 262825" d="M108.461,290.226c-1.34,0-2.681-.024-4.02.012-.545.014-.785-.089-.756-.709.053-1.134.033-2.272.006-3.408-.01-.443.068-.64.58-.635,2.783.025,5.567.018,8.351.005.378,0,.554.065.544.5-.028,1.239-.025,2.479,0,3.718.008.41-.126.53-.528.524-1.392-.021-2.784-.008-4.175-.008" transform="translate(-82.209 -226.358)" fill="#a7e446"/>
    <path id="Trazado_262826" data-name="Trazado 262826" d="M108.427,221.8c-1.367,0-2.735-.018-4.1.01-.465.01-.631-.11-.616-.6.035-1.188.026-2.378,0-3.566-.008-.419.092-.6.554-.6q4.178.027,8.357,0c.446,0,.57.14.561.573-.025,1.214-.029,2.43,0,3.644.012.465-.17.549-.582.543-1.393-.021-2.786-.008-4.179-.008" transform="translate(-82.229 -172.098)" fill="#a7e446"/>
    <path id="Trazado_262827" data-name="Trazado 262827" d="M165.273,221.8c-1.341,0-2.683-.018-4.024.01-.48.01-.687-.086-.668-.629.042-1.161.028-2.326.005-3.488-.008-.437.071-.651.582-.647,2.785.022,5.572.017,8.357,0,.4,0,.541.11.533.523-.023,1.24-.025,2.481,0,3.721.009.419-.137.521-.532.515-1.419-.021-2.837-.008-4.256-.008" transform="translate(-127.322 -172.092)" fill="#a7e446"/>
    <path id="Trazado_262828" data-name="Trazado 262828" d="M222.328,217.053c1.341,0,2.683.019,4.023-.011.474-.011.623.127.61.608-.033,1.188-.025,2.377,0,3.566.007.406-.059.6-.535.591-2.785-.022-5.571-.018-8.356,0-.419,0-.595-.09-.583-.553.031-1.214.028-2.429,0-3.643-.01-.457.166-.568.587-.562,1.418.019,2.837.007,4.256.007" transform="translate(-172.44 -172.09)" fill="#a7e446"/>
    <path id="Trazado_262829" data-name="Trazado 262829" d="M223.308,324.4c-1.776.008-3.553.019-5.329.021-.211,0-.519.089-.506-.285a33.362,33.362,0,0,1,.1-4.374,12.8,12.8,0,0,1,2.378-.066c2.033-.015,4.067,0,6.1-.011.454,0,.779.125.524.608a9.418,9.418,0,0,1-3.27,4.106" transform="translate(-172.413 -253.467)" fill="#a7e446"/>
    <path id="Trazado_262830" data-name="Trazado 262830" d="M69.476,151.264c-.721,0-1.443-.014-2.164.006-.339.01-.445-.111-.442-.445q.02-2.129,0-4.259c-.005-.482.22-.629.66-.626,1.391.01,2.782.013,4.173,0,.371,0,.489.133.486.5-.014,1.445-.02,2.891,0,4.336.007.438-.179.512-.554.5-.721-.022-1.442-.006-2.164-.007" transform="translate(-53.02 -115.712)" fill="#85b638"/>
    <path id="Trazado_262831" data-name="Trazado 262831" d="M69.521,255.983c-.7,0-1.392-.018-2.087.007-.405.015-.6-.06-.592-.537.032-1.238.023-2.478,0-3.717-.006-.39.092-.544.513-.537,1.442.024,2.885.02,4.328,0,.381,0,.486.14.482.5-.014,1.265-.022,2.53,0,3.795.008.446-.2.505-.564.495-.7-.019-1.391-.006-2.087-.006" transform="translate(-52.998 -199.172)" fill="#85b638"/>
    <path id="Trazado_262832" data-name="Trazado 262832" d="M69.525,182.86c.72,0,1.441.015,2.161-.006.356-.01.5.089.5.472-.019,1.263-.022,2.526,0,3.789.008.433-.187.51-.558.507-1.415-.014-2.83-.018-4.245,0-.405.006-.53-.127-.523-.53q.034-1.856,0-3.712c-.007-.392.086-.551.509-.531.719.034,1.44.009,2.161.009" transform="translate(-53.008 -144.979)" fill="#85b638"/>
    <path id="Trazado_262833" data-name="Trazado 262833" d="M69.509,319.578c.7,0,1.4.019,2.091-.007.419-.016.6.093.593.557-.027,1.241-.02,2.484,0,3.726,0,.357-.086.5-.473.5-1.42-.02-2.841-.011-4.261-.006-.375,0-.585-.142-.584-.543,0-1.268.011-2.536-.006-3.8,0-.364.165-.429.473-.423.723.013,1.446,0,2.169,0" transform="translate(-53.018 -253.382)" fill="#85b638"/>
    <path id="Trazado_262834" data-name="Trazado 262834" d="M68.947,289.934c-.7-.073-1.832.373-2.362-.162-.49-.5-.117-1.619-.132-2.465-.011-.666-.227-1.553.109-1.943.392-.456,1.3-.126,1.986-.148.875-.028,1.752.009,2.627-.014.4-.011.606.06.593.538-.032,1.212-.028,2.427,0,3.639.01.446-.142.583-.574.564-.694-.03-1.391-.008-2.247-.008" transform="translate(-52.594 -226.068)" fill="#85b638"/>
    <path id="Trazado_262835" data-name="Trazado 262835" d="M69.424,221.831c-.7,0-1.393-.018-2.089.007-.378.014-.481-.124-.476-.489.018-1.266.021-2.532,0-3.8-.007-.4.163-.468.506-.465q2.166.019,4.333,0c.372,0,.489.133.485.5-.015,1.266-.019,2.533,0,3.8.007.406-.182.462-.516.455-.747-.016-1.5,0-2.244,0" transform="translate(-53.011 -172.125)" fill="#85b638"/>
    <path id="Trazado_262836" data-name="Trazado 262836" d="M223.789,324.26a17.8,17.8,0,0,0,2.98-3.916c.325-.587.215-.725-.441-.72-2.757.022-5.515,0-8.273,0,.162-.194.383-.106.576-.107,2.675-.006,5.351.016,8.026-.019.633-.008.78.2.757.793-.043,1.081-.033,2.166,0,3.247.015.572-.2.781-.769.756-.95-.041-1.9-.025-2.853-.033" transform="translate(-172.894 -253.325)" fill="#85b638"/>
    <path id="Trazado_262837" data-name="Trazado 262837" d="M173.159,176.953a12,12,0,0,1-2.921.146c0-.051,0-.1,0-.151l2.921,0" transform="translate(-134.98 -140.3)" fill="#afefc6"/>
  </g>
</svg>
