<svg id="Grupo_149721" data-name="Grupo 149721" xmlns="http://www.w3.org/2000/svg" xmlns:xlink="http://www.w3.org/1999/xlink" width="79.151" height="77.725" viewBox="0 0 79.151 77.725">
  <defs>
    <clipPath id="clip-path">
      <rect id="Rectángulo_90556" data-name="Rectángulo 90556" width="79.151" height="77.725" fill="none"/>
    </clipPath>
  </defs>
  <g id="Grupo_149721-2" data-name="Grupo 149721" clip-path="url(#clip-path)">
    <path id="Trazado_262838" data-name="Trazado 262838" d="M0,59.451c.629-2.514,2.52-4.1,4.243-5.815,1.207-1.2,2.413-2.4,3.606-3.615a7.008,7.008,0,0,1,5.331-2.194c1.906.03,3.813,0,5.719.008a2.884,2.884,0,0,1,3.074,3.032q.017,10.61,0,21.221a2.857,2.857,0,0,1-3.053,3.044c-5.281.012-10.563-.007-15.844.011A3.2,3.2,0,0,1,0,72.928V68.436a1.1,1.1,0,0,1,.959-.813c1.109.029,1.544.439,1.589,1.537.032.774,0,1.549.014,2.323.019.9.143,1.04,1.039,1.045,2.6.017,5.2.006,7.806.006,2.318,0,4.637.007,6.955,0,.932,0,1.027-.093,1.028-1.018q.012-9.99,0-19.981c0-.993-.138-1.124-1.115-1.132-1.52-.012-3.04-.02-4.56,0-1.252.018-1.708.492-1.724,1.757-.016,1.291.011,2.582-.011,3.872A3.722,3.722,0,0,1,10.622,59.1a4.225,4.225,0,0,1-2.632.73c-1.236.039-2.473,0-3.709.015-1.217.016-1.675.47-1.718,1.684-.019.542-.008,1.084-.009,1.626a1.544,1.544,0,0,1-1.127,1.649C.664,65,.276,64.563,0,63.944Z" transform="translate(0 -37.945)"/>
    <path id="Trazado_262839" data-name="Trazado 262839" d="M0,125.842c.383.294.625.821,1.23.748a4.727,4.727,0,0,1,.151,2.747c-.033.331-.383.267-.607.351-.337.12-.5.455-.774.645Z" transform="translate(0 -99.844)" fill="#fdfdfd"/>
    <path id="Trazado_262840" data-name="Trazado 262840" d="M113.522,232.851a1.18,1.18,0,0,1-1.311,1.044c-1.442.008-2.887.042-4.327-.011a4.043,4.043,0,0,1-3.985-4.168c-.016-1.833.008-3.666-.008-5.5a3.993,3.993,0,0,1,.927-2.715c.219-.258.259-.411.014-.69a3.9,3.9,0,0,1-.94-2.707c.014-1.807.017-3.614,0-5.42a4,4,0,0,1,.906-2.723.489.489,0,0,0-.009-.77,3.912,3.912,0,0,1-.9-2.648c.014-1.833-.008-3.666.007-5.5a3.99,3.99,0,0,1,4.118-4.171q13.987-.031,27.975,0a3.989,3.989,0,0,1,4.112,4.177c.015,1.833-.006,3.665.007,5.5a3.892,3.892,0,0,1-.9,2.646.491.491,0,0,0,0,.772,4.035,4.035,0,0,1,.9,2.726q-.028,2.671,0,5.343a3.97,3.97,0,0,1-.948,2.783c-.255.288-.18.44.028.69a3.963,3.963,0,0,1,.918,2.641c-.01,1.858.011,3.717-.007,5.575a4.022,4.022,0,0,1-4.071,4.159c-6,.036-12,.01-18.006.017a1.335,1.335,0,0,1-1.446-1.205,1.074,1.074,0,0,1,.921-1.26,4.9,4.9,0,0,1,1.23-.079q7.958,0,15.917,0c.232,0,.464,0,.7,0,1.661-.03,2.174-.54,2.18-2.185q.009-2.207,0-4.413c-.007-1.7-.5-2.2-2.229-2.2q-12.362-.007-24.725,0c-.129,0-.258,0-.386,0a20.091,20.091,0,0,0-2.084.006,1.527,1.527,0,0,0-1.616,1.612q-.077,2.786,0,5.574c.031,1.055.615,1.566,1.781,1.614,1.415.058,2.832.02,4.249.043.987.267,1.22.6,1.008,1.452" transform="translate(-82.427 -156.189)"/>
    <path id="Trazado_262841" data-name="Trazado 262841" d="M160.323,13.716q0,5.186,0,10.373a2.96,2.96,0,0,1-3.262,3.251q-7.725.007-15.45,0a2.957,2.957,0,0,1-3.261-3.251c0-3.664.013-7.328-.007-10.992a6.891,6.891,0,0,1,2.11-5.135q2.9-2.891,5.787-5.8A6.972,6.972,0,0,1,151.43,0c1.905,0,3.811-.007,5.716,0a2.944,2.944,0,0,1,3.175,3.185q.009,5.264,0,10.528" transform="translate(-109.761 0)"/>
    <path id="Trazado_262842" data-name="Trazado 262842" d="M298.671,61.508q0,5.186,0,10.373a2.941,2.941,0,0,1-3.247,3.254q-7.763.007-15.527,0a2.9,2.9,0,0,1-3.2-3.206c-.006-3.664.018-7.328-.009-10.992a7.006,7.006,0,0,1,2.2-5.257q2.834-2.8,5.624-5.64a7,7,0,0,1,5.32-2.212c1.931.03,3.862,0,5.794.008a2.912,2.912,0,0,1,3.05,3.068c.011,3.535,0,7.07,0,10.6" transform="translate(-219.523 -37.946)"/>
    <path id="Trazado_262843" data-name="Trazado 262843" d="M131.248,320.074l22.722-.019c1,0,2.01-.008,3.014,0a1.76,1.76,0,0,1,1.944,1.9q.022,2.71,0,5.421a1.782,1.782,0,0,1-2,1.935c-1.906.014-3.813,0-5.719,0-3.967,0-7.935.015-11.9-.012a1.385,1.385,0,0,0-1.583,1.131,15.112,15.112,0,0,0-3.058.154,1.161,1.161,0,0,0-.95-1.273,13.77,13.77,0,0,0-2.048-.052c-.944-.021-1.327-.57-1.028-1.5.376-.166.7.07,1.035.155a3.373,3.373,0,1,0-.1-6.449c-.309.094-.6.321-.956.164a1.216,1.216,0,0,1,.625-1.566" transform="translate(-103.574 -253.93)" fill="#798b97"/>
    <path id="Trazado_262844" data-name="Trazado 262844" d="M20.275,197.512c.232-.014.274-.191.374-.3a2.2,2.2,0,0,1,3.686.43q2.328,4.526,4.547,9.107a2.209,2.209,0,0,1-2.22,3.223q-4.858-.27-9.715-.56c-2.138-.128-3.143-1.988-1.868-3.685a2.234,2.234,0,0,0,.061-2.939,19.237,19.237,0,0,1-2.183-14.308,3.44,3.44,0,0,1,3.9-2.732,3.4,3.4,0,0,1,2.921,3.743,24.31,24.31,0,0,0-.328,4.307,12.994,12.994,0,0,0,.827,3.716" transform="translate(-9.877 -147.344)"/>
    <path id="Trazado_262845" data-name="Trazado 262845" d="M305.14,196.524c.816.444.995.825.755,1.688a18.73,18.73,0,0,1-2.462,5.462.812.812,0,0,0,.023,1.145,8.206,8.206,0,0,1,.641.963,2.241,2.241,0,0,1-1.838,3.608c-1.848.137-3.7.225-5.55.331-1.388.08-2.776.144-4.164.232a2.237,2.237,0,0,1-2.273-3.383c1.389-2.812,2.8-5.61,4.209-8.414,1.06-2.116,2.611-2.359,4.237-.667a11.687,11.687,0,0,0,.823-6.437,16.087,16.087,0,0,1-.252-1.68,3.459,3.459,0,0,1,6.832-.952,16.906,16.906,0,0,1,.474,3.6c.016.93-.18,1.186-1.122,1.472-.76.123-1.239-.249-1.365-1.137-.094-.662-.088-1.336-.2-2-.056-.331-.1-.663-.173-.99-.179-.8-.577-1.155-1.169-1.059-.572.092-.841.57-.669,1.415a18.124,18.124,0,0,1,.251,3.773,14.26,14.26,0,0,1-1.891,6.861c-.707,1.282-1.841,1.307-2.669.112-.847-1.224-.847-1.224-1.5.087-1.118,2.237-2.241,4.471-3.338,6.715.016.4.27.1.409.136,2.61-.195,5.224-.3,7.832-.508.7-.055.765-.114.352-.684-1.605-2.215-1.023-2.385.032-4.01a17.845,17.845,0,0,0,2.085-4.632c.3-1.005.815-1.3,1.681-1.044" transform="translate(-230.059 -147.334)"/>
    <path id="Trazado_262846" data-name="Trazado 262846" d="M302.066,216.331l4.27-8.575c.395.6.725,1.117,1.073,1.624a1.2,1.2,0,0,0,2.238-.107,15.258,15.258,0,0,0,1.661-10.394,6.087,6.087,0,0,1-.1-.61,1.136,1.136,0,0,1,2.232-.413,12.807,12.807,0,0,1,.431,3.133,1.3,1.3,0,0,0,1.2,1.442q-.167,1.518-.334,3.036a1.273,1.273,0,0,0-1.5,1.1,16.7,16.7,0,0,1-2.743,5.655,1.4,1.4,0,0,0-.026,1.834c.426.6.812,1.231,1.285,1.955l-9.167.521c-.217.041-.465.166-.526-.2" transform="translate(-239.66 -156.276)" fill="#fd646f"/>
    <path id="Trazado_262847" data-name="Trazado 262847" d="M3.746,76.7a.746.746,0,0,0,.473-.821c-.045-.757-.016-1.518-.017-2.277A1.379,1.379,0,0,0,5.3,72c-.04-.565-.015-1.135-.006-1.7A1.656,1.656,0,0,1,7.107,68.46c1.39-.025,2.781,0,4.172-.007,2.236-.007,3.372-1.144,3.38-3.382,0-1.368-.012-2.736,0-4.1a1.668,1.668,0,0,1,1.9-1.894c1.7-.006,3.4.018,5.1-.011.685-.012.975.221.974.937q-.022,10.414,0,20.827c0,.672-.262.91-.919.909q-7.765-.021-15.53,0c-.665,0-.929-.267-.907-.926.029-.876.011-1.755.006-2.632-.005-1.147-.394-1.514-1.544-1.47" transform="translate(-2.972 -46.859)" fill="#e7ecf1"/>
    <path id="Trazado_262848" data-name="Trazado 262848" d="M20.391,73.385l5.152-5.174c0,1.467.007,2.976,0,4.486a.628.628,0,0,1-.678.684c-1.508.011-3.016,0-4.469,0" transform="translate(-16.178 -54.119)" fill="#d7e4e9"/>
    <path id="Trazado_262849" data-name="Trazado 262849" d="M157.335,264.242a1.593,1.593,0,0,1,1.374,1.609c.025,1.961.03,3.923,0,5.884a1.683,1.683,0,0,1-1.629,1.652c-.128.011-.257.009-.386.009q-12.673,0-25.346,0c-.154,0-.308-.018-.462-.028-.424-.435-.8-.886-.5-1.553.293-.166.542.009.8.1a3.389,3.389,0,0,0,3.88-1.065,3.37,3.37,0,0,0-3.637-5.3c-.349.1-.71.37-1.079.029-.093-1.012.207-1.4,1.115-1.4q12.669,0,25.338,0a.986.986,0,0,1,.529.064" transform="translate(-103.364 -209.596)" fill="#8c9ba7"/>
    <path id="Trazado_262850" data-name="Trazado 262850" d="M130.882,208.2c.282-.013.564-.038.846-.038q12.317,0,24.634,0c1.861,0,2.361.51,2.361,2.4,0,1.651.011,3.3,0,4.952a1.685,1.685,0,0,1-1.817,1.852q-12.9.018-25.792,0a1.53,1.53,0,0,1-.229-.034c-.624-.556-.711-.918-.355-1.484.406-.11.751.13,1.121.211a3.2,3.2,0,0,0,3.387-1.156,3.289,3.289,0,0,0,.437-3.571,3.36,3.36,0,0,0-3-1.972,3.48,3.48,0,0,0-1.279.265c-.265.074-.516.261-.813.118a1.241,1.241,0,0,1,.508-1.544" transform="translate(-103.364 -165.153)" fill="#7a8b97"/>
    <path id="Trazado_262851" data-name="Trazado 262851" d="M118.388,271.6c-.117.6.362,1.019.461,1.553-.669.008-1.339.045-2.007.018a1.688,1.688,0,0,1-1.712-1.728q-.039-2.865,0-5.73a1.723,1.723,0,0,1,1.835-1.778c.849-.037,1.7-.019,2.55-.019q12.442,0,24.885,0a1.521,1.521,0,0,1,.9.11l-25.608.018c-.889,0-1.194.266-1.283,1.136-.008.079.089.169.137.254.026.346-.279.464-.465.654a3.362,3.362,0,0,0-.109,4.823c.18.2.465.345.417.687" transform="translate(-91.329 -209.384)" fill="#798b97"/>
    <path id="Trazado_262852" data-name="Trazado 262852" d="M118.565,327.8c-.215.8.161,1.355.9,1.4a5.714,5.714,0,0,1,2.032.125c-1.49,0-2.98.025-4.47,0a1.764,1.764,0,0,1-1.881-1.966q-.015-2.665,0-5.33a1.776,1.776,0,0,1,1.954-1.964c.642-.006,1.284.011,1.926.017a2.5,2.5,0,0,0-.617,1.567c.033.362-.251.54-.452.758a3.273,3.273,0,0,0,.036,4.631c.214.23.581.358.574.76" transform="translate(-91.35 -253.944)" fill="#596b75"/>
    <path id="Trazado_262853" data-name="Trazado 262853" d="M118.864,208.245a3.144,3.144,0,0,0-.465,1.533c.08.295-.183.394-.325.554a3.449,3.449,0,0,0,.2,5.122c.147.14.324.258.321.5-.367.562.129.963.267,1.43-.692.007-1.385.045-2.075.015a1.638,1.638,0,0,1-1.638-1.692q-.033-2.892,0-5.785a1.639,1.639,0,0,1,1.639-1.69c.691-.027,1.384.01,2.076.018" transform="translate(-91.346 -165.201)" fill="#596c75"/>
    <path id="Trazado_262854" data-name="Trazado 262854" d="M166.926,22.594q0,5.149,0,10.3c0,.906-.129,1.044-1.013,1.045q-7.649.005-15.3,0c-.893,0-1.023-.136-1.023-1.034q0-5.149,0-10.3c0-1.351.585-1.946,1.919-1.954,1.442-.009,2.885.006,4.327,0a2.917,2.917,0,0,0,3.092-3.031c.027-1.445,0-2.89.008-4.336.011-1.415.624-2.026,2.031-2.032q2.473-.01,4.945,0c.88,0,1.012.142,1.013,1.048q0,5.149,0,10.3" transform="translate(-118.683 -8.921)" fill="#e7ecf1"/>
    <path id="Trazado_262855" data-name="Trazado 262855" d="M163.794,20.463c0,1.482.005,2.991,0,4.5a.62.62,0,0,1-.682.673c-1.506.009-3.012,0-4.466,0l5.152-5.176" transform="translate(-125.867 -16.235)" fill="#d8e6eb"/>
    <path id="Trazado_262856" data-name="Trazado 262856" d="M305.249,70.494q0,5.11,0,10.219c0,.935-.1,1.042-1.008,1.043-5.125,0-10.249-.006-15.374.01-.684,0-.974-.22-.969-.938.023-3.484,0-6.967.013-10.451,0-1.284.6-1.873,1.9-1.889,1.39-.017,2.781,0,4.172-.006a2.95,2.95,0,0,0,3.257-3.252c.006-1.393-.008-2.787,0-4.18a1.718,1.718,0,0,1,1.946-1.947q2.511-.008,5.022,0c.92,0,1.033.111,1.034,1.017q0,5.187,0,10.374" transform="translate(-228.419 -46.89)" fill="#e7ecf1"/>
    <path id="Trazado_262857" data-name="Trazado 262857" d="M302.732,69.059c0,1.282,0,2.772,0,4.262,0,.589-.346.744-.851.743-1.438,0-2.875,0-4.144,0l4.993-5" transform="translate(-236.227 -54.792)" fill="#d7e5ea"/>
    <path id="Trazado_262858" data-name="Trazado 262858" d="M169.543,328.678a3.582,3.582,0,1,1-3.612-3.541,3.553,3.553,0,0,1,3.612,3.541" transform="translate(-128.833 -257.965)"/>
    <path id="Trazado_262859" data-name="Trazado 262859" d="M125.022,331.752a3.605,3.605,0,1,1,3.915-6.044,3.6,3.6,0,0,1-3.283,6.324c-.217-.077-.422-.186-.632-.28" transform="translate(-97.807 -257.891)"/>
    <path id="Trazado_262860" data-name="Trazado 262860" d="M214.693,339.047c-1.208,0-2.415.009-3.622,0-.836-.009-1.363-.465-1.362-1.142a1.23,1.23,0,0,1,1.362-1.171q3.622-.028,7.245,0a1.232,1.232,0,0,1,1.362,1.171c0,.676-.527,1.133-1.362,1.142-1.207.012-2.415,0-3.622,0" transform="translate(-166.384 -267.153)"/>
    <path id="Trazado_262861" data-name="Trazado 262861" d="M35.061,216.581l-9.163-.526,1.2-1.836c.6-.923.591-1.167-.048-2.083a17.569,17.569,0,0,1-2.935-13.88c.163-.856.564-1.242,1.235-1.225.8.02,1.252.662,1.052,1.608a16.059,16.059,0,0,0-.3,4.151,14.829,14.829,0,0,0,1.912,6.538,1.2,1.2,0,0,0,2.237.1c.347-.5.679-1.02,1.073-1.615l4.268,8.571c-.062.366-.31.242-.526.2" transform="translate(-18.844 -156.325)" fill="#fd646f"/>
    <path id="Trazado_262862" data-name="Trazado 262862" d="M78.5,290.891c.17-.08.411.026.526-.2.044.372,0,.387-.526.2" transform="translate(-62.281 -230.635)" fill="#843439"/>
    <path id="Trazado_262863" data-name="Trazado 262863" d="M302.014,290.687c.114.227.355.121.526.2-.531.186-.571.171-.526-.2" transform="translate(-239.608 -230.632)" fill="#84343a"/>
    <path id="Trazado_262864" data-name="Trazado 262864" d="M31.846,139.465c1.363,0,2.725-.006,4.088,0,.907.006,1.411.434,1.411,1.168s-.48,1.149-1.412,1.151q-4.165.01-8.33,0c-.908,0-1.42-.433-1.419-1.154s.518-1.159,1.421-1.165c1.414-.009,2.828,0,4.242,0" transform="translate(-20.774 -110.65)" fill="#000001"/>
    <path id="Trazado_262865" data-name="Trazado 262865" d="M31.721,120.334c-1.439,0-2.879.006-4.318,0a1.158,1.158,0,0,1-1.13-.661,1.1,1.1,0,0,1,.095-1.167,1.127,1.127,0,0,1,1-.486c2.9,0,5.809-.014,8.713,0a1.1,1.1,0,0,1,1.238,1.169c-.011.69-.463,1.126-1.277,1.139-1.439.023-2.879.007-4.318.006" transform="translate(-20.747 -93.63)" fill="#010101"/>
    <path id="Trazado_262866" data-name="Trazado 262866" d="M166.008,276.233a3.59,3.59,0,1,1,3.54-3.6,3.542,3.542,0,0,1-3.54,3.6" transform="translate(-128.833 -213.468)"/>
    <path id="Trazado_262867" data-name="Trazado 262867" d="M124.909,275.866a3.7,3.7,0,0,1-1.405-4.145,3.928,3.928,0,0,1,1.563-2.02c2.186-.914,4.153-.319,5.073,1.534a3.6,3.6,0,0,1-4.531,4.944c-.237-.094-.466-.208-.7-.313" transform="translate(-97.85 -213.647)"/>
    <path id="Trazado_262868" data-name="Trazado 262868" d="M214.7,280.914c1.208,0,2.416-.007,3.624,0,.84.006,1.357.45,1.363,1.138a1.226,1.226,0,0,1-1.354,1.178q-3.624.022-7.247,0a1.228,1.228,0,0,1-1.363-1.169c0-.687.52-1.139,1.354-1.146,1.208-.01,2.416,0,3.624,0" transform="translate(-166.393 -222.876)"/>
    <path id="Trazado_262869" data-name="Trazado 262869" d="M169.543,216.574a3.582,3.582,0,1,1-7.164-.043,3.639,3.639,0,0,1,3.611-3.574,3.6,3.6,0,0,1,3.553,3.617" transform="translate(-128.832 -168.961)"/>
    <path id="Trazado_262870" data-name="Trazado 262870" d="M125,219.921c-2.322-1.788-2.4-4.2-.2-6.172,2.005-.925,3.756-.622,4.86.841a3.639,3.639,0,0,1-.005,4.392,3.589,3.589,0,0,1-4.159,1.144c-.168-.065-.333-.137-.5-.205" transform="translate(-97.747 -169.172)"/>
    <path id="Trazado_262871" data-name="Trazado 262871" d="M214.691,224.808c1.183,0,2.366-.006,3.549,0,.891.006,1.436.458,1.434,1.165s-.544,1.153-1.439,1.155q-3.549.007-7.1,0c-.893,0-1.434-.45-1.433-1.16s.545-1.153,1.439-1.159c1.183-.008,2.366,0,3.549,0" transform="translate(-166.379 -178.362)"/>
    <path id="Trazado_262872" data-name="Trazado 262872" d="M170.176,70.254c1.388,0,2.777-.007,4.165,0,.868.006,1.352.413,1.369,1.119.018.741-.488,1.2-1.38,1.2q-4.2.012-8.407,0c-.89,0-1.392-.464-1.368-1.209.022-.706.5-1.1,1.379-1.109,1.414-.008,2.828,0,4.242,0" transform="translate(-130.558 -55.738)"/>
    <path id="Trazado_262873" data-name="Trazado 262873" d="M170.136,94.107q-1.928,0-3.855,0a4.792,4.792,0,0,1-.692-.029,1.1,1.1,0,0,1-1.031-1.211,1.041,1.041,0,0,1,1.1-1.064q4.472-.031,8.944,0a1.063,1.063,0,0,1,1.11,1.132,1.1,1.1,0,0,1-1.179,1.157c-1.464.034-2.93.01-4.395.01Z" transform="translate(-130.557 -72.823)" fill="#010101"/>
    <path id="Trazado_262874" data-name="Trazado 262874" d="M308.462,141.788c-1.388,0-2.777.007-4.165,0-.925-.006-1.405-.418-1.4-1.165.007-.731.511-1.152,1.424-1.154q4.165-.009,8.33,0c.9,0,1.414.452,1.407,1.179s-.516,1.135-1.433,1.14c-1.388.008-2.777,0-4.165,0" transform="translate(-240.321 -110.649)" fill="#000001"/>
    <path id="Trazado_262875" data-name="Trazado 262875" d="M308.349,120.333c-1.414,0-2.828.021-4.241-.007-1.048-.021-1.61-.885-1.163-1.714a1.19,1.19,0,0,1,1.166-.6c2.853,0,5.706-.009,8.559.005.815,0,1.283.438,1.3,1.115.022.7-.471,1.184-1.308,1.2-1.439.021-2.879.006-4.318.006" transform="translate(-240.235 -93.628)" fill="#010101"/>
    <path id="Trazado_262876" data-name="Trazado 262876" d="M176.14,337.673a1.242,1.242,0,0,1-1.311,1.227,1.259,1.259,0,0,1,.069-2.517,1.228,1.228,0,0,1,1.241,1.291" transform="translate(-137.748 -266.887)" fill="#fc636e"/>
    <path id="Trazado_262877" data-name="Trazado 262877" d="M137.119,337.64a1.256,1.256,0,1,1-1.255-1.257,1.233,1.233,0,0,1,1.255,1.257" transform="translate(-106.798 -266.888)" fill="#fddf76"/>
    <path id="Trazado_262878" data-name="Trazado 262878" d="M173.607,281.484a1.28,1.28,0,0,1,1.352-1.181,1.26,1.26,0,0,1,1.173,1.352,1.24,1.24,0,0,1-1.343,1.172,1.257,1.257,0,0,1-1.182-1.344" transform="translate(-137.738 -222.391)" fill="#fcdf76"/>
    <path id="Trazado_262879" data-name="Trazado 262879" d="M135.843,282.836a1.233,1.233,0,0,1-1.235-1.282,1.256,1.256,0,1,1,2.511.042,1.233,1.233,0,0,1-1.277,1.24" transform="translate(-106.799 -222.397)" fill="#9ae49c"/>
    <path id="Trazado_262880" data-name="Trazado 262880" d="M174.895,224.242a1.284,1.284,0,0,1-.032,2.567,1.284,1.284,0,0,1,.032-2.567" transform="translate(-137.742 -177.914)" fill="#99e39b"/>
    <path id="Trazado_262881" data-name="Trazado 262881" d="M137.114,225.552a1.258,1.258,0,1,1-1.23-1.31,1.271,1.271,0,0,1,1.23,1.31" transform="translate(-106.792 -177.915)" fill="#fbde75"/>
  </g>
</svg>
