<svg xmlns="http://www.w3.org/2000/svg" xmlns:xlink="http://www.w3.org/1999/xlink" width="122" height="122" viewBox="0 0 122 122">
  <defs>
    <clipPath id="clip-path">
      <rect id="Rectángulo_90547" data-name="Rectángulo 90547" width="73.316" height="73.606" fill="#a7e446"/>
    </clipPath>
  </defs>
  <g id="Grupo_149772" data-name="Grupo 149772" transform="translate(-388 -1104)">
    <g id="Elipse_5542" data-name="Elipse 5542" transform="translate(388 1104)" fill="#f5feff" stroke="#0082b2" stroke-width="2">
      <circle cx="61" cy="61" r="61" stroke="none"/>
      <circle cx="61" cy="61" r="60" fill="none"/>
    </g>
    <circle id="Elipse_5549" data-name="Elipse 5549" cx="43" cy="43" r="43" transform="translate(406 1122)" fill="#dff7f9"/>
    <g id="Grupo_149710" data-name="Grupo 149710" transform="translate(412.342 1128.197)">
      <g id="Grupo_149709" data-name="Grupo 149709" clip-path="url(#clip-path)">
        <path id="Trazado_262599" data-name="Trazado 262599" d="M54.077,73.187a2.512,2.512,0,0,1-1.5.413Q27.288,73.588,2,73.592C.544,73.592,0,73.04,0,71.568Q0,36.8,0,2.032C0,.531.541,0,2.066,0h50.19c1.86,0,2.3.433,2.306,2.27,0,.237.015.475.023.712a2.5,2.5,0,0,1,.231,1.54q.007,27.311,0,54.621,0,5.985,0,11.971a5.158,5.158,0,0,1-.057,1.106c-.09.413-.187.837-.686.967" transform="translate(0 0)" fill="#a7e446"/>
        <path id="Trazado_262600" data-name="Trazado 262600" d="M268.334,16.334c2.935.5,5.872,1,8.806,1.515,1.922.335,3.841.686,5.76,1.035,1.36.247,1.809.814,1.591,2.217-.408,2.631-.879,5.253-1.326,7.878Q281.532,38.57,279.9,48.16q-1.624,9.512-3.253,19.023-1.469,8.616-2.921,17.235c-.282,1.687-.66,2.049-2.386,2.045-1,0-2.007-.016-3.011-.025a1.6,1.6,0,0,1-.254-1.206c-.009-2.536,0-5.073,0-7.61q0-29.845.007-59.691c0-.539-.149-1.119.261-1.6" transform="translate(-211.228 -12.872)" fill="#fcbe44"/>
        <path id="Trazado_262601" data-name="Trazado 262601" d="M258.142,14.55q0,23.131-.008,46.261,0,11.922,0,23.843c-.684.009-1.37-.008-2.051.036a1.168,1.168,0,0,1-.968-.415,2.507,2.507,0,0,0,.49-1.783q-.011-33.7,0-67.393c0-.343.015-.686.023-1.03a13.762,13.762,0,0,1,2.521.48" transform="translate(-201.035 -11.088)" fill="#e5ac3e"/>
        <path id="Trazado_262602" data-name="Trazado 262602" d="M78.065,29.757c-.114-.478.132-.546.351-.644q5.313-2.368,10.623-4.744a.827.827,0,0,1,.745.007q5.271,2.366,10.549,4.715c.243.108.486.16.414.544-.6,3.259-.772,6.607-2.093,9.718a19.693,19.693,0,0,1-6.3,8.095c-.84.64-1.711,1.239-2.56,1.867-.223.165-.387.291-.684.076-2.657-1.925-5.285-3.862-7.145-6.657a21.411,21.411,0,0,1-3.337-9.3c-.166-1.281-.39-2.555-.564-3.679" transform="translate(-61.494 -19.137)" fill="#fbfdfe"/>
        <path id="Trazado_262603" data-name="Trazado 262603" d="M42.582,178.644c0,1.452.019,2.9,0,4.357a3.142,3.142,0,0,1-3.258,3.243q-3.089.024-6.179,0a3.142,3.142,0,0,1-3.243-3.256q-.023-3.09,0-6.18a3.139,3.139,0,0,1,3.254-3.244c1.98-.015,3.962.018,5.942-.012a3.415,3.415,0,0,1,3,1.447c.142.411-.168.632-.384.882-1.172,1.359-2.347,2.714-3.5,4.09-.629.752-.823.775-1.508.107q-.823-.8-1.625-1.625c-.348-.358-.636-.348-1.01-.009-1.093.993-1.105,1.01-.047,2.068.8.8,1.6,1.614,2.412,2.407.847.826,1.444.785,2.183-.1,1.03-1.237,2.1-2.438,3.136-3.672.206-.246.4-.579.822-.5" transform="translate(-23.557 -136.763)" fill="#fbfdfe"/>
        <path id="Trazado_262604" data-name="Trazado 262604" d="M42.582,268.432c0,1.452.019,2.9,0,4.357a3.142,3.142,0,0,1-3.258,3.243q-3.089.024-6.179,0a3.142,3.142,0,0,1-3.243-3.256q-.023-3.09,0-6.18a3.139,3.139,0,0,1,3.254-3.244c1.98-.016,3.962.018,5.942-.012a3.415,3.415,0,0,1,3,1.447c.142.411-.168.632-.384.882-1.172,1.359-2.347,2.714-3.5,4.09-.629.752-.823.775-1.508.107q-.823-.8-1.625-1.625c-.348-.358-.636-.348-1.01-.009-1.093.993-1.105,1.01-.047,2.068.8.8,1.6,1.614,2.412,2.407.847.826,1.444.785,2.183-.1,1.03-1.237,2.1-2.438,3.136-3.672.206-.246.4-.579.822-.5" transform="translate(-23.557 -207.518)" fill="#fbfdfe"/>
        <path id="Trazado_262605" data-name="Trazado 262605" d="M129.2,167.556c2.931,0,5.862.015,8.793-.013.557-.005.707.147.7.7-.014,1.848.009,1.848-1.841,1.848-5.466,0-10.932-.012-16.4.016-.661,0-.841-.164-.825-.825.044-1.728.01-1.729,1.725-1.729H129.2" transform="translate(-94.276 -132.029)" fill="#fbfdfe"/>
        <path id="Trazado_262606" data-name="Trazado 262606" d="M129.169,257.338c2.931,0,5.862.017,8.793-.015.594-.006.753.15.744.744-.027,1.808,0,1.809-1.8,1.809-5.492,0-10.985-.011-16.477.014-.623,0-.8-.159-.784-.783.035-1.768.006-1.769,1.763-1.769Z" transform="translate(-94.281 -202.777)" fill="#fbfdfe"/>
        <path id="Trazado_262607" data-name="Trazado 262607" d="M53.972,176.015a32.291,32.291,0,0,0-2.843,3.162c-.412.444-.774.935-1.18,1.385a1.275,1.275,0,0,1-2.009.084c-1.138-1.1-2.241-2.242-3.371-3.353-.283-.278-.3-.477-.024-.791,1.335-1.529,1.326-1.536,2.75-.112l1.233,1.232c.15.149.294.34.508.079,1.467-1.792,3.109-3.439,4.456-5.332a11.022,11.022,0,0,0,1.742-1.916c.268-.306.435-.315.687-.043a4.028,4.028,0,0,0,.4.378c1.224,1,1.2.977.133,2.2a20.807,20.807,0,0,0-2.486,3.03" transform="translate(-34.947 -134.134)" fill="#fc4b52"/>
        <path id="Trazado_262608" data-name="Trazado 262608" d="M53.972,265.8a32.291,32.291,0,0,0-2.843,3.162c-.412.444-.774.935-1.18,1.385a1.275,1.275,0,0,1-2.009.084c-1.138-1.1-2.241-2.242-3.371-3.353-.283-.278-.3-.477-.024-.791,1.335-1.529,1.326-1.536,2.75-.112l1.233,1.232c.15.149.294.34.508.079,1.467-1.792,3.109-3.439,4.456-5.332a11.022,11.022,0,0,0,1.742-1.916c.268-.306.435-.315.687-.043a4.028,4.028,0,0,0,.4.378c1.224,1,1.2.977.133,2.2a20.809,20.809,0,0,0-2.486,3.03" transform="translate(-34.947 -204.889)" fill="#fc4b52"/>
        <path id="Trazado_262609" data-name="Trazado 262609" d="M166.61,200.026c-1.478,0-2.955-.015-4.433.009-.453.007-.64-.077-.646-.6-.023-1.95-.046-1.95,1.9-1.95,2.507,0,5.013.016,7.52-.012.557-.006.778.088.768.719-.03,1.83,0,1.831-1.859,1.831H166.61" transform="translate(-127.287 -155.616)" fill="#fbfdfe"/>
        <path id="Trazado_262610" data-name="Trazado 262610" d="M166.615,289.81c-1.5,0-3.008-.016-4.512.01-.455.008-.568-.141-.577-.583-.043-1.965-.058-1.964,1.878-1.964,2.533,0,5.066.017,7.6-.013.562-.007.7.156.7.706-.014,1.845.009,1.845-1.841,1.845h-3.245" transform="translate(-127.278 -226.368)" fill="#fbfdfe"/>
        <path id="Trazado_262611" data-name="Trazado 262611" d="M27.7,20.442c-1.055,0-2.111-.029-3.164.012-.535.021-.651-.167-.652-.67,0-1.88-.021-1.88,1.883-1.88,1.688,0,3.376.025,5.063-.014.57-.013.7.17.693.712-.013,1.84.008,1.84-1.844,1.84H27.7" transform="translate(-18.823 -14.098)" fill="#fbfdfe"/>
        <path id="Trazado_262612" data-name="Trazado 262612" d="M122.816,200.037c-.87,0-1.741-.018-2.61.008-.422.013-.591-.082-.6-.557-.052-1.989-.07-1.989,1.932-1.989,1.265,0,2.531.017,3.8-.009.455-.009.638.08.644.6.023,1.95.045,1.949-1.894,1.949h-1.265" transform="translate(-94.239 -155.627)" fill="#fbfdfe"/>
        <path id="Trazado_262613" data-name="Trazado 262613" d="M122.816,289.825c-.87,0-1.741-.018-2.61.008-.421.013-.591-.08-.6-.556-.053-1.99-.071-1.99,1.931-1.99,1.265,0,2.531.017,3.8-.009.455-.009.639.079.645.6.023,1.95.045,1.95-1.893,1.95h-1.265" transform="translate(-94.238 -226.383)" fill="#fbfdfe"/>
        <path id="Trazado_262614" data-name="Trazado 262614" d="M26.336,44.413c-.685,0-1.371-.014-2.055.006-.346.01-.489-.119-.449-.458a.492.492,0,0,0,0-.079c-.094-2.006-.094-2.006,1.9-2.006.9,0,1.792.015,2.688-.007.38-.009.478.128.5.5.111,2.047.121,2.046-1.948,2.046h-.633" transform="translate(-18.756 -32.994)" fill="#fbfdfe"/>
        <path id="Trazado_262615" data-name="Trazado 262615" d="M204.783,20.5c-1.262,0-1.262,0-1.261-1.533,0-1.006,0-1.006,1.553-1,.986,0,.986,0,.985,1.572,0,.965,0,.965-1.276.965" transform="translate(-160.381 -14.151)" fill="#fbfdfe"/>
        <path id="Trazado_262616" data-name="Trazado 262616" d="M228.811,17.958c1.193,0,1.193,0,1.193,1.207,0,1.331,0,1.331-1.306,1.331-1.232,0-1.232,0-1.232-1.246,0-1.291,0-1.291,1.345-1.291" transform="translate(-179.249 -14.151)" fill="#fbfdfe"/>
        <path id="Trazado_262617" data-name="Trazado 262617" d="M108.591,66.088a1.338,1.338,0,0,1-.978-.45c-1.12-1.122-2.232-2.252-3.369-3.356-.3-.293-.275-.456.006-.75,1.4-1.466,1.39-1.471,2.836-.022.482.484.957,1.267,1.5,1.323.574.059,1.008-.815,1.491-1.291q2.4-2.363,4.761-4.766c.358-.366.561-.386.936-.01,1.343,1.346,1.359,1.331.028,2.662l-6,6a1.675,1.675,0,0,1-1.211.665" transform="translate(-81.976 -44.517)" fill="#fc4b52"/>
      </g>
    </g>
  </g>
</svg>
