<svg xmlns="http://www.w3.org/2000/svg" xmlns:xlink="http://www.w3.org/1999/xlink" width="122" height="122" viewBox="0 0 122 122">
  <defs>
    <clipPath id="clip-path">
      <circle id="Elipse_5552" data-name="Elipse 5552" cx="52.5" cy="52.5" r="52.5" transform="translate(748 1014)" fill="#a7e446"/>
    </clipPath>
    <clipPath id="clip-path-2">
      <rect id="Rectángulo_90546" data-name="Rectángulo 90546" width="79" height="78.817" fill="none"/>
    </clipPath>
  </defs>
  <g id="Grupo_149773" data-name="Grupo 149773" transform="translate(-740 -1104)">
    <g id="Elipse_5543" data-name="Elipse 5543" transform="translate(740 1104)" fill="#f5feff" stroke="#0082b2" stroke-width="2">
      <circle cx="61" cy="61" r="61" stroke="none"/>
      <circle cx="61" cy="61" r="60" fill="none"/>
    </g>
    <circle id="Elipse_5551" data-name="Elipse 5551" cx="43" cy="43" r="43" transform="translate(758 1122)" fill="#dff7f9"/>
    <g id="Grupo_149708" data-name="Grupo 149708" transform="translate(760.5 1125.592)">
      <g id="Grupo_149707" data-name="Grupo 149707" clip-path="url(#clip-path-2)">
        <path id="Trazado_262571" data-name="Trazado 262571" d="M51.505,102.734c-.3.008-.6.023-.9.023H4.062c-2.657,0-4.062-1.394-4.063-4.03Q0,66.723,0,34.717c0-2.67,1.372-4.044,4.039-4.044H17.113c.036.041.1.078.1.123a12.818,12.818,0,0,1-.063,4.836,1.968,1.968,0,0,1-1.268.228c-2.823.007-5.645,0-8.468.005-1.771,0-2.213.424-2.213,2.159Q5.2,66.742,5.2,95.46c0,1.688.454,2.1,2.268,2.1q21.21.005,42.42.006a2.718,2.718,0,0,1,1.6.22.856.856,0,0,1,.236.594c.047,1.278.054,2.557,0,3.835a.739.739,0,0,1-.222.513" transform="translate(0 -23.942)" fill="#a7e446"/>
        <path id="Trazado_262572" data-name="Trazado 262572" d="M77.38,11.651q0-2.459,0-4.919c.159-1.724.607-2.135,2.329-2.136,1.59,0,3.18-.022,4.769.013a.816.816,0,0,0,.947-.629A5.991,5.991,0,0,1,91.09,0a5.908,5.908,0,0,1,5.6,3.935.873.873,0,0,0,1.01.673c1.781-.022,3.562.006,5.343.015a1.426,1.426,0,0,1,.255,1.086q.015,2.091,0,4.182c-.015,1.828-.7,2.514-2.554,2.517q-10.721.017-21.442,0a9.931,9.931,0,0,0-1.72.108c-.523-.18-.409-.514-.208-.868" transform="translate(-60.267 0)" fill="#ebb978"/>
        <path id="Trazado_262573" data-name="Trazado 262573" d="M233.676,30.69c2.272-.007,4.544-.046,6.815-.013,1.92.028,3.333,1.723,3.335,3.93q.007,10.164,0,20.329c0,1.093-.015,2.185-.024,3.278-.343-.013-.43-.314-.551-.535a19.469,19.469,0,0,0-3.948-4.751,1.39,1.39,0,0,1-.584-.854c-.1-3.251-.021-6.5-.042-9.751-.009-1.42.007-2.841,0-4.261-.013-1.708-.512-2.189-2.2-2.22a11.348,11.348,0,0,1-2.7-.112.515.515,0,0,1-.228-.212,21.066,21.066,0,0,1-.092-4.4.63.63,0,0,1,.219-.429" transform="translate(-182.17 -23.935)" fill="#85b638"/>
        <path id="Trazado_262574" data-name="Trazado 262574" d="M234.7,278.962q0-2.44,0-4.879l.105-.113a8.055,8.055,0,0,1,2.682-.156c1.691-.038,2.2-.512,2.206-2.213.011-4.4,0-8.79,0-13.185a6.561,6.561,0,0,1,.065-1.307.83.83,0,0,1,.914-.656,42.288,42.288,0,0,1,3.93,3.809.791.791,0,0,1,.232.592c-.08,4.962-.007,9.926-.042,14.889a.486.486,0,0,1-.046.156,3.445,3.445,0,0,1-3.428,3.084c-2.208.009-4.417-.012-6.625-.02" transform="translate(-183.194 -200.17)" fill="#85b638"/>
        <path id="Trazado_262575" data-name="Trazado 262575" d="M294.2,280.352a37.324,37.324,0,0,1-3.228-3c-2.292-2.143-4.519-4.357-6.767-6.546-1.09-1.061-1.146-1.653-.3-2.916.248-.739.94-1.1,1.412-1.648.265-.308.573-.581.86-.871.32-.252.528-.644.953-.767l.648-.469a1.082,1.082,0,0,1,.6.4c1.848,1.861,3.861,3.554,5.649,5.475,1.156,1.243,2.5,2.282,3.68,3.5,1.107,1.146,1.093,2.1-.021,3.264a44.158,44.158,0,0,1-3.49,3.57" transform="translate(-221.148 -206.173)" fill="#ebb978"/>
        <path id="Trazado_262576" data-name="Trazado 262576" d="M221.892,143.166l-.662.517a8.926,8.926,0,0,1-3.359,2.281,16.538,16.538,0,0,1-1.968.832,11.735,11.735,0,0,1-3.373.7c-.262-.034-.552-.008-.692-.312.159-.36.519-.374.825-.449a17.007,17.007,0,0,0,8.2-4.62,17.635,17.635,0,0,0,5.13-10.487,17.376,17.376,0,0,0-3.621-13.082,17.193,17.193,0,0,0-10.413-6.523c-.295-.063-.594-.107-.881-.2-.152-.048-.358-.094-.34-.287s.22-.216.381-.257a14.09,14.09,0,0,1,4.762.828,21.836,21.836,0,0,1,3.883,1.87,3.9,3.9,0,0,1,1.467,1.253,20.336,20.336,0,0,1,4.892,5.893,18.847,18.847,0,0,1,2.011,8.657,19.069,19.069,0,0,1-2.008,8,8.353,8.353,0,0,1-1.779,3.008,10.271,10.271,0,0,1-2.452,2.37" transform="translate(-164.488 -86.848)" fill="#cba124"/>
        <path id="Trazado_262577" data-name="Trazado 262577" d="M78.3,28.956c.115-.538.551-.354.868-.355q8.14-.014,16.28-.007,3.207,0,6.413,0c1.345,0,1.957-.61,1.961-1.945q.007-2.79,0-5.58c1.193.047,1.6.563,1.669,2.095a1.409,1.409,0,0,1,.231.93c0,1.331.03,2.662-.015,3.992.028,1.659-.631,2.4-2.278,2.4q-11.612.034-23.225.008a2.116,2.116,0,0,1-1.645-.6c-.246-.262-.49-.537-.264-.938" transform="translate(-61.048 -16.445)" fill="#e2a66f"/>
        <path id="Trazado_262578" data-name="Trazado 262578" d="M202.54,35.561q0-2.474,0-4.948l7.057.037q0,2.44,0,4.88a.881.881,0,0,1-.741.273c-1.854.028-3.708.022-5.562,0a1,1,0,0,1-.757-.245" transform="translate(-158.092 -23.895)" fill="#a7e446"/>
        <path id="Trazado_262579" data-name="Trazado 262579" d="M310.056,279.513c.017-.345.306-.5.507-.714,1.049-1.11,2.111-2.207,3.155-3.321a1.609,1.609,0,0,0-.009-2.351c-2.643-2.369-5.013-5.018-7.668-7.374-.855-.758-1.606-1.633-2.4-2.454a1.681,1.681,0,0,1,2.187.461q3.9,3.806,7.818,7.6c.568.551,1.171,1.069,1.723,1.636a1.7,1.7,0,0,1,0,2.661c-1.078,1.124-2.155,2.249-3.246,3.36a1.647,1.647,0,0,1-2.061.494" transform="translate(-237.002 -205.334)" fill="#e2a66f"/>
        <path id="Trazado_262580" data-name="Trazado 262580" d="M261.576,247.925l2.31-2.447c1.7,1.667,3.515,3.208,5.153,4.935a.8.8,0,0,1,.287.483l-2.394,2.432-.823-1-.248.123v.848q0,6.542,0,13.084a1.474,1.474,0,0,1-.126.952c-.01-4.783-.031-9.566-.018-14.348a1.9,1.9,0,0,0-.62-1.506c-1.2-1.158-2.348-2.367-3.517-3.556" transform="translate(-204.172 -191.607)" fill="#a69aa6"/>
        <path id="Trazado_262581" data-name="Trazado 262581" d="M277.544,240.471q-2.615-2.5-5.225-5a1.48,1.48,0,0,1-.215-.421,29.52,29.52,0,0,0,1.922-2.931,3.021,3.021,0,0,1,.016.649,4.328,4.328,0,0,0,1.931,4.53,28.137,28.137,0,0,1,2.4,2.315,3.254,3.254,0,0,1-.831.854" transform="translate(-212.389 -181.182)" fill="#837683"/>
        <path id="Trazado_262582" data-name="Trazado 262582" d="M61.992,53.049l7.061-.031-.017.029a1.463,1.463,0,0,1,.269,1.086q.01,5.827,0,11.655a1.37,1.37,0,0,1-.268,1.082A19.318,19.318,0,0,0,64.117,66c-3.911.224-7.7.868-10.994,3.2a2.224,2.224,0,0,1-1.2.48c-1.314.076-2.628.033-3.942.035q-8.335.009-16.669,0a4.866,4.866,0,0,0-1.546.152c-.514.169-.894.492-.839,1.064a.958.958,0,0,0,1.022.871c.328.023.656.02.985.02q8.417,0,16.833,0a4.941,4.941,0,0,1,1.306.08c.522.227.3.56.094.852-.415.6-.866,1.182-1.26,1.8a16.445,16.445,0,0,0-1.522,3.055c-.144.383-.3.766-.758.894a5.816,5.816,0,0,1-1.309.071q-6.525,0-13.05,0a4.958,4.958,0,0,0-1.465.136c-.513.156-.917.456-.88,1.032.04.611.464.889,1.058.926.328.02.656.018.984.018q6.443,0,12.886,0a2.314,2.314,0,0,1,1.357.2,1.067,1.067,0,0,1,.179.849,20.254,20.254,0,0,0,.018,4.619,1.376,1.376,0,0,1-.171,1.017,2.107,2.107,0,0,1-1.349.224q-6.486.01-12.972,0a8.913,8.913,0,0,0-1.066.033.956.956,0,0,0-.224,1.877,4.169,4.169,0,0,0,1.618.2q6.61,0,13.219,0a6.286,6.286,0,0,1,1.308.063,1,1,0,0,1,.682.746,17,17,0,0,0,2.957,4.94c.228.276.578.6.012.916a4.568,4.568,0,0,1-1.307.09q-8.583,0-17.167,0c-.356,0-.712-.007-1.067.028a.944.944,0,0,0-.952.853.978.978,0,0,0,.753,1.042,4.463,4.463,0,0,0,1.623.183q8.748,0,17.5,0c1.2,0,2.409-.042,3.612.033a2.859,2.859,0,0,1,1.337.574,17.889,17.889,0,0,0,8.2,2.56,5.773,5.773,0,0,0,2.189.048c.5-.178.985.255,1.481.012a17.463,17.463,0,0,0,3.421-.7A1.371,1.371,0,0,1,69.3,102.2q.013,5.99,0,11.981a1.463,1.463,0,0,1-.269,1.086l.017.029c-.356-.006-.712-.018-1.068-.018H24.742c-1.742,0-2.265-.514-2.266-2.223q0-28.882,0-57.763c0-1.733.515-2.253,2.233-2.254l9.947,0c.072.282-.095.6.14.86a1.587,1.587,0,0,0,1.815,1.279q11.141,0,22.283,0h.822c1.747,0,2.2-.426,2.274-2.125" transform="translate(-17.544 -41.383)" fill="#ebeef0"/>
        <path id="Trazado_262583" data-name="Trazado 262583" d="M133.349,16.709a1.571,1.571,0,0,1,1.508-1.626,1.713,1.713,0,0,1,1.63,1.638,1.707,1.707,0,0,1-1.6,1.581,1.555,1.555,0,0,1-1.541-1.593" transform="translate(-104.085 -11.773)" fill="#ebeeef"/>
        <path id="Trazado_262584" data-name="Trazado 262584" d="M234.638,66.922V53.1c1.1-.005,2.192-.017,3.288-.013a1.752,1.752,0,0,1,1.969,1.968c.011,3.391,0,6.782,0,10.173q0,2.3-.01,4.594a22.458,22.458,0,0,0-5.249-2.9" transform="translate(-183.146 -41.435)" fill="#d0d0d5"/>
        <path id="Trazado_262585" data-name="Trazado 262585" d="M234.637,276.033q0-7.074,0-14.148a22.729,22.729,0,0,0,5.25-2.9q0,7.547.006,15.094a1.753,1.753,0,0,1-1.969,1.969c-1.1,0-2.191-.008-3.287-.013" transform="translate(-183.145 -202.149)" fill="#d0d0d5"/>
        <path id="Trazado_262586" data-name="Trazado 262586" d="M125.983,123.98a23.48,23.48,0,0,1,3.466-6.234,8.25,8.25,0,0,1,2.8-2.625,32.286,32.286,0,0,1,4.382-2.34,18.345,18.345,0,0,1,5.394-1.171c.747-.034,1.492-.352,2.239,0a.212.212,0,0,0-.078.022.85.85,0,0,0-.092.1c.419.078.842.14,1.256.238a18.241,18.241,0,0,1,8.2,4.224,17.859,17.859,0,0,1,5.786,10.534,17.2,17.2,0,0,1-2.179,11.816,17.547,17.547,0,0,1-12.077,8.713,1.521,1.521,0,0,1-1.14.2c.1.094.264.013.339.143a7.86,7.86,0,0,1-3.3-.111,19.244,19.244,0,0,1-8.256-3.08,8.114,8.114,0,0,1-2.952-2.627c-.451-.608-.9-1.217-1.353-1.823a17.65,17.65,0,0,1-2.289-4.407,4.087,4.087,0,0,1-.794-2.634,29.339,29.339,0,0,1-.007-6.308,3.689,3.689,0,0,1,.659-2.626" transform="translate(-97.689 -86.988)" fill="#feca2e"/>
        <path id="Trazado_262587" data-name="Trazado 262587" d="M210.418,274.964c-.169-.059-.378.052-.525-.119l1.327-.223c.18.242.452.124.682.172-.469.277-.991.1-1.484.169" transform="translate(-163.831 -214.355)" fill="#6cbbfe"/>
        <path id="Trazado_262588" data-name="Trazado 262588" d="M70.057,90.277q-9.007,0-18.014,0a2.01,2.01,0,0,1-1.05-.113,1.267,1.267,0,0,1-.706-1.21,1.289,1.289,0,0,1,.815-1.142,2.541,2.541,0,0,1,1.047-.163q17.891.007,35.781.005c1.266,0,1.85.446,1.847,1.365a1.133,1.133,0,0,1-1.131,1.246c-.327.028-.657.014-.986.014h-17.6" transform="translate(-39.25 -68.412)" fill="#a79ba7"/>
        <path id="Trazado_262589" data-name="Trazado 262589" d="M70.082,290.182H87.85c.274,0,.55-.01.822.015a1.087,1.087,0,0,1,1.077,1.039,1.187,1.187,0,0,1-.747,1.4,3.236,3.236,0,0,1-1.21.181q-17.767-.007-35.535,0c-.165,0-.33.009-.493,0a1.452,1.452,0,0,1-1.5-1.422c.04-.75.607-1.2,1.556-1.2q9.13-.005,18.261,0" transform="translate(-39.233 -226.5)" fill="#a79ba7"/>
        <path id="Trazado_262590" data-name="Trazado 262590" d="M71.31,249.67l2.952,2.628q-11.135.012-22.27.02a2.47,2.47,0,0,1-.485-.072,1.339,1.339,0,0,1-1.244-1.369c.05-.724.606-1.179,1.488-1.18q9.245-.006,18.49,0c.356,0,.711-.015,1.067-.023" transform="translate(-39.231 -194.879)" fill="#a79ba7"/>
        <path id="Trazado_262591" data-name="Trazado 262591" d="M73.827,128.1l-2.8,2.624L52.445,130.7c-.3,0-.6.009-.9-.008a1.241,1.241,0,0,1-1.231-1.18,1.223,1.223,0,0,1,1-1.314,3.891,3.891,0,0,1,.891-.12q10.649-.009,21.3,0c.109,0,.218.017.327.026" transform="translate(-39.269 -99.966)" fill="#a79ba7"/>
        <path id="Trazado_262592" data-name="Trazado 262592" d="M66.872,209.277l.795,2.634q-7.762.007-15.523.011a3.486,3.486,0,0,1-.728-.1,1.31,1.31,0,0,1-1.152-1.357,1.284,1.284,0,0,1,1.414-1.167q7.392-.009,14.784-.005c.136,0,.273-.013.41-.02" transform="translate(-39.23 -163.351)" fill="#a79ba7"/>
        <path id="Trazado_262593" data-name="Trazado 262593" d="M67.54,168.515l-.659,2.626q-7.436-.009-14.871-.021A1.878,1.878,0,0,1,50.964,171a1.265,1.265,0,0,1-.678-1.224,1.237,1.237,0,0,1,.841-1.114,2.953,2.953,0,0,1,.966-.157q7.723,0,15.446.014" transform="translate(-39.246 -131.523)" fill="#a79ba7"/>
        <path id="Trazado_262594" data-name="Trazado 262594" d="M180.111,194.9a12.927,12.927,0,0,1-12.179,11.472,8.2,8.2,0,0,1-4.044-.754A13.028,13.028,0,0,1,156,195.762c-.066-.339-.2-.7.138-.99a16.154,16.154,0,0,1,3.843-.088c.437.014.639.377.824.722.363.675.649,1.391,1.075,2.031.3.456.617.968,1.278.857.682-.115.877-.674.986-1.265.173-.942.3-1.892.489-2.83.069-.345,0-.921.466-.917.353,0,.374.542.431.886.365,2.186.761,4.366,1.152,6.547.043.242.081.486.132.727.2.939.575,1.369,1.174,1.354s.956-.44,1.132-1.4c.133-.726.279-1.451.4-2.179.243-1.457.5-2.913.791-4.36.159-.781.259-.829.957-.449a2.544,2.544,0,0,0,1.277.229c2.166,0,4.331-.005,6.5.007.37,0,.78-.088,1.07.264" transform="translate(-121.701 -150.864)" fill="#ebeef0"/>
        <path id="Trazado_262595" data-name="Trazado 262595" d="M167.736,135.177a12.868,12.868,0,0,1,12.172,10.443c.07.4.115.805.172,1.208-.246.3-.593.25-.914.252-1.809.01-3.619.017-5.428,0-.921-.009-1.123-.171-1.391-1.077-.287-.971-.566-1.944-.868-2.91-.192-.614-.478-1.152-1.225-1.1s-.97.637-1.076,1.259c-.234,1.375-.471,2.75-.742,4.119-.07.356-.049.923-.488.931-.461.009-.431-.555-.5-.916-.457-2.364-.841-4.74-1.273-7.109-.184-1.008-.535-1.478-1.135-1.493-.623-.016-1.032.491-1.209,1.514-.373,2.157-.709,4.319-1.09,6.475-.178,1.005-.272,1.043-1.16.537a2.168,2.168,0,0,0-1.114-.219c-1.1,0-2.193,0-3.289,0a2.512,2.512,0,0,1-1.053-.119c-.33-.235-.261-.57-.218-.894a13.2,13.2,0,0,1,9.336-10.605,5.828,5.828,0,0,1,2.494-.289" transform="translate(-121.663 -105.473)" fill="#ebeef0"/>
        <path id="Trazado_262596" data-name="Trazado 262596" d="M145.565,158.788c1.424.009,2.849.038,4.273.017a2.005,2.005,0,0,1,2.015.869c.335-2,.642-3.819.945-5.64.125-.754.231-1.511.366-2.263.147-.822.654-1.341,1.326-1.324a1.331,1.331,0,0,1,1.35,1.28q.694,3.95,1.4,7.9c.036.206-.017.447.3.632.288-1.576.57-3.114.85-4.653.025-.134.029-.272.055-.406.207-1.062.638-1.594,1.37-1.574.9.025,1.23.644,1.432,1.429.279,1.083.635,2.146.943,3.222.1.35.236.555.665.549,2.246-.03,4.492-.028,6.738-.037.953.214,1.439.691,1.421,1.4-.017.66-.543,1.136-1.427,1.29l-7.394-.03c-.728,0-1.5.139-2.04-.78-.489,2.687-.928,5.149-1.389,7.607-.181.968-.61,1.379-1.339,1.375s-1.176-.475-1.337-1.395q-.671-3.828-1.341-7.657c-.041-.231-.128-.453-.235-.823-.257,1.5-.5,2.838-.713,4.183a1.327,1.327,0,0,1-1.164,1.2,1.255,1.255,0,0,1-1.333-.761c-.443-.817-.88-1.637-1.295-2.468a.723.723,0,0,0-.743-.494c-1.231.034-2.464.027-3.7.037a1.871,1.871,0,0,1-1.825,0c-.766-.1-1.288-.474-1.309-1.292-.022-.866.523-1.253,1.312-1.382a1.782,1.782,0,0,1,1.819,0" transform="translate(-111.176 -117.43)" fill="#fc4b52"/>
        <path id="Trazado_262597" data-name="Trazado 262597" d="M150.234,146.434l-1.819,0a12.813,12.813,0,0,1,6.709-10.139,13.766,13.766,0,0,1,5.93-1.648c.287-.022.605-.1.864.131a13.053,13.053,0,0,0-11.677,11.162,3.775,3.775,0,0,0-.007.491" transform="translate(-115.845 -105.077)" fill="#d0d0d5"/>
        <path id="Trazado_262598" data-name="Trazado 262598" d="M148.4,200.655l1.825,0a12.931,12.931,0,0,0,11.839,11.474,7.208,7.208,0,0,1-3.6-.229A13.1,13.1,0,0,1,148.4,200.655" transform="translate(-115.833 -156.621)" fill="#d0d0d5"/>
      </g>
    </g>
  </g>
</svg>
