<svg xmlns="http://www.w3.org/2000/svg" xmlns:xlink="http://www.w3.org/1999/xlink" width="122" height="122" viewBox="0 0 122 122">
  <defs>
    <clipPath id="clip-path">
      <rect id="Rectángulo_90549" data-name="Rectángulo 90549" width="72.745" height="72.88" fill="none"/>
    </clipPath>
  </defs>
  <g id="Grupo_149775" data-name="Grupo 149775" transform="translate(6588 10596)">
    <g id="Elipse_5544" data-name="Elipse 5544" transform="translate(-6588 -10596)" fill="#f5feff" stroke="#0082b2" stroke-width="2">
      <circle cx="61" cy="61" r="61" stroke="none"/>
      <circle cx="61" cy="61" r="60" fill="none"/>
    </g>
    <circle id="Elipse_5553" data-name="Elipse 5553" cx="43" cy="43" r="43" transform="translate(-6570 -10578)" fill="#dff7f9"/>
    <g id="Grupo_149714" data-name="Grupo 149714" transform="translate(-6563.612 -10571.439)">
      <g id="Grupo_149713" data-name="Grupo 149713" clip-path="url(#clip-path)">
        <path id="Trazado_262649" data-name="Trazado 262649" d="M23.209,261.258a22.088,22.088,0,0,1-5.276-4.906,2.412,2.412,0,0,0-2.149-1.1c-3.928.049-7.851-.121-11.77-.4A3.012,3.012,0,0,1,1.2,251.979,75.816,75.816,0,0,1,.8,241.972c.077-2.081.233-4.162.423-6.237a2.975,2.975,0,0,1,2.89-2.8c4.369-.272,8.742-.468,13.119-.389,3.192.058,6.384.157,9.569.4a3.024,3.024,0,0,1,2.806,2.73,80.753,80.753,0,0,1,.421,10.08c-.046,2.18-.205,4.354-.44,6.521a2.984,2.984,0,0,1-2.712,2.584c-1.45.133-1.955.685-1.957,2.145,0,.83-.041,1.663.011,2.489a1.634,1.634,0,0,1-1.008,1.767Z" transform="translate(-0.618 -188.378)" fill="#feca2e"/>
        <path id="Trazado_262650" data-name="Trazado 262650" d="M237.1,0a10.024,10.024,0,0,0,2.424.238c.841.117,1.7.116,2.549.168a3,3,0,0,1,2.971,2.865,80.025,80.025,0,0,1,.409,9.8c-.065,2.156-.186,4.31-.421,6.455A3.034,3.034,0,0,1,242,22.344q-5.919.366-11.848.389a1.859,1.859,0,0,0-1.628.823,24.174,24.174,0,0,1-4.918,4.8,1.335,1.335,0,0,1-1.523.2,1.37,1.37,0,0,1-.75-1.346c.006-1.02.013-2.04,0-3.06a1.686,1.686,0,0,0-1.691-1.806,3.067,3.067,0,0,1-3.016-3.059,79.779,79.779,0,0,1-.4-9.659c.039-2.206.207-4.4.438-6.6A2.958,2.958,0,0,1,219.413.416c1.582-.1,3.165-.183,4.747-.278.154-.009.341.06.438-.138h.284a1.451,1.451,0,0,0,.995,0h.284a3.885,3.885,0,0,0,1.161.073h.847A9.54,9.54,0,0,0,230,0h1.7a9.465,9.465,0,0,0,1.82.073h.847A3.926,3.926,0,0,0,235.538,0h.284a1.451,1.451,0,0,0,.995,0Z" transform="translate(-175.154)" fill="#fc4b52"/>
        <path id="Trazado_262651" data-name="Trazado 262651" d="M263.892,271.083a10,10,0,0,1-8.17,7.809c-.1.02-.181.041-.218.143H251.81a8.973,8.973,0,0,1-3.452-.882,10.3,10.3,0,0,1-5.2-6,4.917,4.917,0,0,0-.475-1.1c.079-.36.433-.314.665-.444.423-.236.875-.478.812-1.043-.06-.536-.5-.763-.971-.919a3.208,3.208,0,0,0-.91-.111c-.254-.01-.527.036-.725-.193.042-.286.283-.3.478-.3a1.142,1.142,0,0,0,.882-.483,2.439,2.439,0,0,0,1.057-3.53c-.292-.461-.83-.514-1.185-.853a1.624,1.624,0,0,1-.148-.826q-.009-3.425,0-6.85a1.593,1.593,0,0,1,.13-.758.47.47,0,0,1,.2-.177,2.7,2.7,0,0,1,.982-.1q8.018,0,16.035,0c.142,0,.284,0,.426,0,.794.036.956.187.986.97.027.71-.022,1.423.02,2.132a3.659,3.659,0,0,0,.857,2.494c.469.488,1.137.56,1.678.89a.471.471,0,0,1,.136.227c.016,1.008.021,2.016,0,3.023a7.032,7.032,0,0,0,.237,2.01,17.552,17.552,0,0,1-.113,4.164,1.273,1.273,0,0,1-.323.694" transform="translate(-195.689 -206.155)" fill="#c28859"/>
        <path id="Trazado_262652" data-name="Trazado 262652" d="M20.794,0c1.165.238,2.334.456,3.493.719a12.552,12.552,0,0,1,2.611.866c-.228.539-.725.429-1.145.45a14.213,14.213,0,0,0-6.95,2,11.367,11.367,0,0,0-5.348,8.626,13.81,13.81,0,0,0,.726,6.5c.075.215.206.44.039.675a2.363,2.363,0,0,1-1,.323c-1.551.333-3.11.624-4.682.831a.748.748,0,0,0-.76.888,18.465,18.465,0,0,1-.015,1.99c-.013.183-.022.415-.243.463-.176.039-.3-.13-.392-.264a3.392,3.392,0,0,0-1.4-.93,1.491,1.491,0,0,1-.376-.827A38.271,38.271,0,0,1,4.1,12.891C4.167,7.037,7.162,2.747,12.665.766A16.534,16.534,0,0,1,16.532,0h2.7a1.451,1.451,0,0,0,.995,0Z" transform="translate(-3.318)" fill="#975e33"/>
        <path id="Trazado_262653" data-name="Trazado 262653" d="M202.582,271.077c.271.03.376.186.455.451a10.044,10.044,0,0,0,7.649,7.332c.336.084.72-.086,1.008.2h-6.82a3.575,3.575,0,0,0-1.186-.355,9.979,9.979,0,0,1-6.924-6.9c-.144-.465-.293-.706-.869-.749a4.3,4.3,0,0,1-3.77-5.129,2.082,2.082,0,0,1,1.807-1.75c.939-.15,1.745.316,2.443,1.543v-4.609a1.97,1.97,0,0,1,.829-.382,2.522,2.522,0,0,0,1.767-2.415c.034-.924,0-1.849.015-2.774.018-.878.161-1.015,1.054-1.031q.958-.017,1.917,0c.279.006.576-.028.79.223q0,3.909,0,7.817c0,.249-.089.53.165.726-.188.506-.7.8-.834,1.359a2.557,2.557,0,0,0,.64,2.664c.1.1.211.194.182.359a.749.749,0,0,1-.981.582.491.491,0,0,0-.458.115c-.2.3-.569.31-.846.482-.821.512-.821,1.195.021,1.687a3.257,3.257,0,0,0,1.281.373c.229.028.478-.021.665.171" transform="translate(-155.573 -206.184)" fill="#b07a4a"/>
        <path id="Trazado_262654" data-name="Trazado 262654" d="M2.412,107.276c.874.126,1.119.288,1.854,1.307,0-1,.049-1.854-.017-2.7-.046-.6.22-.792.726-.853,2.007-.241,3.984-.651,5.959-1.071a.4.4,0,0,1,.134.179c.173.741-.111,1.549.331,2.251-.7.288-1.293.665-1.388,1.514a2.472,2.472,0,0,0,1.1,2.771,1.079,1.079,0,0,1-.117.865c-.411.182-.838.022-1.258.052a2.135,2.135,0,0,0-1.428.538.76.76,0,0,0,.087,1.313,2.769,2.769,0,0,0,1.816.486,1.993,1.993,0,0,1,.912-.006c.258.182.288.477.369.747a9.869,9.869,0,0,0,6.926,6.917,1.6,1.6,0,0,1,1.05.577c-1.906-.04-3.657.054-5.411-.064a10.025,10.025,0,0,1-9.378-7.343c-.08-.307-.109-.618-.593-.64A4.065,4.065,0,0,1,.252,111.25c-.057-.148-.08-.329-.252-.411v-1.993a1.987,1.987,0,0,1,1.282-1.615,1.1,1.1,0,0,1,1.131.045" transform="translate(0 -84.22)" fill="#e9ab9c"/>
        <path id="Trazado_262655" data-name="Trazado 262655" d="M299.669.14c-.614-.075-1.253.17-1.85-.14h1.847q.069.046.047.092c-.015.032-.029.048-.045.048" transform="translate(-241.271)" fill="#df707a"/>
        <path id="Trazado_262656" data-name="Trazado 262656" d="M280.733,0c-.6.31-1.236.065-1.85.14-.045-.032-.059-.063-.044-.094s.031-.046.047-.046Z" transform="translate(-225.891)" fill="#df707a"/>
        <path id="Trazado_262657" data-name="Trazado 262657" d="M312.951,0c-.348.294-.756.077-1.131.133-.05-.028-.067-.057-.052-.087S311.8,0,311.814,0Z" transform="translate(-252.567)" fill="#e99ca3"/>
        <path id="Trazado_262658" data-name="Trazado 262658" d="M269.767.133c-.376-.056-.783.162-1.131-.133h1.137q.071.047.045.09c-.017.028-.034.042-.05.042" transform="translate(-217.629)" fill="#e89ba2"/>
        <path id="Trazado_262659" data-name="Trazado 262659" d="M320.514,0a.812.812,0,0,1-.995,0Z" transform="translate(-258.851)" fill="#f3cace"/>
        <path id="Trazado_262660" data-name="Trazado 262660" d="M262.9,0a.812.812,0,0,1-.995,0Z" transform="translate(-212.173)" fill="#f3cace"/>
        <path id="Trazado_262661" data-name="Trazado 262661" d="M84.8,0a.819.819,0,0,1-.995,0Z" transform="translate(-67.895)" fill="#a0683e"/>
        <path id="Trazado_262662" data-name="Trazado 262662" d="M308.4,0q0,.067.005.133l-.855.007q0-.07,0-.14Z" transform="translate(-249.151)" fill="#e4878f"/>
        <path id="Trazado_262663" data-name="Trazado 262663" d="M274.594.133c0-.044,0-.088.005-.133h.853q0,.07,0,.14l-.855-.007" transform="translate(-222.456)" fill="#e4878f"/>
        <path id="Trazado_262664" data-name="Trazado 262664" d="M52.712,26.5a10.942,10.942,0,0,1-.973-3.309,13.06,13.06,0,0,1,.554-6.346A11.461,11.461,0,0,1,61.009,9.06a12.473,12.473,0,0,1,3.417-.449,1.473,1.473,0,0,0,.931-.263,3.013,3.013,0,0,0,1.462.053,10.416,10.416,0,0,1,7.61,2.083,9.147,9.147,0,0,1,3.153,6.1c.577,4.027-.168,7.929-1.19,11.8-.115.435-.247.865-.371,1.3-.03.064-.061.153-.118.167A3.27,3.27,0,0,0,73.9,31.244c-.036.054-.128.028-.192-.007a7.669,7.669,0,0,1-.135-2.46c-.033-1.032-.009-1.033-1.012-1.362A8.5,8.5,0,0,1,68.1,23.95a12.921,12.921,0,0,1-1.482-2.664c-.171-.455-.368-.466-.715-.181-3.692,3.037-8.128,4.358-12.645,5.494a.628.628,0,0,1-.548-.03Z" transform="translate(-41.778 -6.764)" fill="#b06e3d"/>
        <path id="Trazado_262665" data-name="Trazado 262665" d="M57.549,77.978c1.892-.507,3.8-.968,5.644-1.629a22.848,22.848,0,0,0,8.094-4.542,14.989,14.989,0,0,0,2.4,4.224,7.835,7.835,0,0,0,4.336,2.777.6.6,0,0,1,.562.715c-.028,1.042,0,2.085,0,3.127a.557.557,0,0,1,.19.439,26.662,26.662,0,0,1-.091,4.279,1.488,1.488,0,0,1-.384.809,9.732,9.732,0,0,1-4.79,6.551,10.467,10.467,0,0,1-5.285,1.344c-2.268.046-4.535.094-6.8.093-.252,0-.525.079-.75-.116h5.107a23.5,23.5,0,0,1-2.784-1.125A9.968,9.968,0,0,1,57.842,88.4c-.042-.159-.094-.315-.142-.473.045-.209.229-.281.378-.392.775-.574.742-1.173-.09-1.7-.157-.1-.343-.159-.429-.345a1.217,1.217,0,0,1,.139-.822c1.374-1.437,1.449-2.338.342-4.1a.442.442,0,0,1-.06-.2.7.7,0,0,1-.437-.768c.043-.538.009-1.082.008-1.623" transform="translate(-46.613 -58.173)" fill="#fecabd"/>
        <path id="Trazado_262666" data-name="Trazado 262666" d="M269.239,208.617c-1.9-.239-2.78-1.434-2.794-3.46,0-.663,0-1.327,0-1.99,0-.931,0-.932-.9-.932H249.082c-.283,0-.567-.014-.85-.022a1.149,1.149,0,0,1-.208-.871c0-2.907-.018-5.814,0-8.72a2.723,2.723,0,0,1,2.192-2.889c5.462-.005,10.924-.023,16.386-.007a2.735,2.735,0,0,1,2.695,2.44c.071.851.029,1.7.03,2.555q.008,6.572,0,13.144c0,.25.093.521-.089.754" transform="translate(-200.924 -153.695)" fill="#544f57"/>
        <path id="Trazado_262667" data-name="Trazado 262667" d="M223.266,189.7a6.649,6.649,0,0,0-1.266.884,2.943,2.943,0,0,0-.721,1.943q.007,4.827,0,9.654l-.134.041c-.993-.006-1.986,0-2.978-.025-.432-.013-.583.13-.57.567.026.947.014,1.895.006,2.842a2.823,2.823,0,0,1-2.829,2.993q-.013-6-.024-12c0-1.373-.009-2.746,0-4.119a2.775,2.775,0,0,1,2.776-2.8c1.913-.008,3.827.011,5.74.018" transform="translate(-173.97 -153.666)" fill="#454045"/>
        <path id="Trazado_262668" data-name="Trazado 262668" d="M359.207,312.258a23.355,23.355,0,0,0,.273-4.87.744.744,0,0,1,.148-.842,2.151,2.151,0,0,1,2.184-1.228,2.067,2.067,0,0,1,1.845,1.778,4.327,4.327,0,0,1-4.45,5.162" transform="translate(-291.003 -247.33)" fill="#b07a4a"/>
        <path id="Trazado_262669" data-name="Trazado 262669" d="M166.874,127.8a16.266,16.266,0,0,0,.281-4.33c.008-.4,0-.8,0-1.2a2.73,2.73,0,0,1,2.272-1.558c2.213.874,2.724,3.484,1.054,5.422a4.03,4.03,0,0,1-3.128,1.571,2.641,2.641,0,0,0-.485.092" transform="translate(-135.189 -97.792)" fill="#e9ab9c"/>
        <path id="Trazado_262670" data-name="Trazado 262670" d="M359.8,219.052q.02-4.255.04-8.51.015-3.972.021-7.943a.7.7,0,0,1,.088.478q.011,7.853.017,15.706a2.369,2.369,0,0,1-.033.281c-.023.073-.057.081-.1.017Z" transform="translate(-291.48 -164.13)" fill="#c28859"/>
        <path id="Trazado_262671" data-name="Trazado 262671" d="M359.886,289.332a.547.547,0,0,1,.1-.017c.009,1.214.011,2.429.031,3.643,0,.216-.109.475.146.639l-.148.842c-.2-.16-.138-.388-.138-.59,0-1.506,0-3.012.007-4.518" transform="translate(-291.54 -234.382)" fill="#d2a987"/>
        <path id="Trazado_262672" data-name="Trazado 262672" d="M37.808,280.4c-2.366,0-4.732,0-7.1,0a3.067,3.067,0,0,1-.839-.091.975.975,0,0,1-.743-1,1.011,1.011,0,0,1,.774-1.059,2.713,2.713,0,0,1,.771-.069q7.169-.006,14.338,0a3.351,3.351,0,0,1,.637.026,1.047,1.047,0,0,1,.953,1.065,1.027,1.027,0,0,1-.918,1.089,3.652,3.652,0,0,1-.705.047q-3.585,0-7.169,0" transform="translate(-23.597 -225.356)" fill="#454045"/>
        <path id="Trazado_262673" data-name="Trazado 262673" d="M35.033,301.8H30.207a1.075,1.075,0,0,1-1.072-.673,1.054,1.054,0,0,1,.171-1.134,1.142,1.142,0,0,1,.955-.375c3.217,0,6.435-.007,9.652.005a1.1,1.1,0,0,1,1.207,1.109,1.126,1.126,0,0,1-1.261,1.065c-1.609.01-3.217,0-4.826,0" transform="translate(-23.527 -242.726)" fill="#454045"/>
        <path id="Trazado_262674" data-name="Trazado 262674" d="M258.767,45.679c2.506,0,5.012,0,7.518,0a1.061,1.061,0,0,1,1.124.789,1.04,1.04,0,0,1-.423,1.19,1.134,1.134,0,0,1-.739.187q-7.518,0-15.036,0a1.1,1.1,0,0,1-1.247-1.059c-.013-.655.487-1.1,1.285-1.1,2.506-.006,5.012,0,7.518,0" transform="translate(-202.502 -37.003)" fill="#454045"/>
        <path id="Trazado_262675" data-name="Trazado 262675" d="M255.979,66.8q2.344,0,4.688,0c.648,0,1.183.207,1.342.908.172.758-.4,1.328-1.341,1.332-2.391.011-4.783,0-7.175,0-.734,0-1.468.011-2.2,0-.834-.017-1.353-.481-1.331-1.16.021-.653.517-1.072,1.331-1.078,1.563-.012,3.126,0,4.688,0" transform="translate(-202.499 -54.111)" fill="#454045"/>
        <path id="Trazado_262676" data-name="Trazado 262676" d="M22.654,137.012v-3.5h.071v3.522l-.071-.021" transform="translate(-18.353 -108.16)" fill="#eeb3a3"/>
        <path id="Trazado_262677" data-name="Trazado 262677" d="M245.269,272.923s-2.829,14.627,2.556,17.741,5.96-12.066,5.96-12.066" transform="translate(-198.098 -221.102)" fill="#c28859"/>
        <path id="Trazado_262678" data-name="Trazado 262678" d="M225.935,280.254s-1.588,13.2,4.115,17.583c0,0-7.959-1.721-9.107-8.792" transform="translate(-178.992 -227.041)" fill="#b07a4a"/>
        <path id="Trazado_262679" data-name="Trazado 262679" d="M56.044,104.308s-1.385,7.523,1.242,12.855,8.7-11.029,8.7-11.029" transform="translate(-45.107 -84.503)" fill="#fecabd"/>
        <path id="Trazado_262680" data-name="Trazado 262680" d="M29.127,119.106s1.395,11.211,8.736,13.1a29.281,29.281,0,0,1-3.876-13.472" transform="translate(-23.597 -96.186)" fill="#e9ab9c"/>
      </g>
    </g>
  </g>
</svg>
