<svg id="Grupo_149717" data-name="Grupo 149717" xmlns="http://www.w3.org/2000/svg" xmlns:xlink="http://www.w3.org/1999/xlink" width="74.462" height="79.5" viewBox="0 0 74.462 79.5">
  <defs>
    <clipPath id="clip-path">
      <rect id="Rectángulo_90552" data-name="Rectángulo 90552" width="74.463" height="79.5" fill="none"/>
    </clipPath>
  </defs>
  <g id="Grupo_149717-2" data-name="Grupo 149717" clip-path="url(#clip-path)">
    <path id="Trazado_262732" data-name="Trazado 262732" d="M50.1,67.035a1.165,1.165,0,0,1,1.161,1.347,13.044,13.044,0,0,1-.213,3.308,5.219,5.219,0,0,1-5.059,3.9,3.855,3.855,0,0,0-2.774,1c-1.18,1.015-2.435,1.943-3.658,2.909h-.775a1.528,1.528,0,0,1-.9-1.633c.035-.718.259-1.69-.1-2.095-.423-.47-1.408-.13-2.148-.142-1.548-.023-3.1,0-4.645-.008a5.355,5.355,0,0,1-5.592-5.611c-.025-3.982,0-7.964-.01-11.946a1.339,1.339,0,0,0-.112-.827c-.886.682-1.756,1.35-2.624,2.02-.981.757-1.966,1.507-2.937,2.276a1.206,1.206,0,0,1-2.058-1.01c.015-1.008,0-2.017,0-3.025,0-1.048,0-1.048-1.085-1.048-3.045,0-6.091.014-9.136,0A7.112,7.112,0,0,1,.119,50.6a6.529,6.529,0,0,1-.1-1.233C.006,45.515.017,41.662,0,37.809a1.174,1.174,0,0,1,1.135-1.366,1.09,1.09,0,0,1,1.357.88,3.954,3.954,0,0,1,.091,1.156c0,3.336.1,6.675-.029,10.006-.129,3.243,1.679,5.5,5.486,5.484,3.278-.012,6.555.025,9.833-.014,1.56-.019,2.407.012,2.388,2.407,0,.417-.23,1.017.162,1.212.322.16.675-.368,1-.607,1.1-.812,2.143-1.7,3.255-2.5.677-.486.777-1.253,1.1-1.913A5.545,5.545,0,0,1,31.094,49.6c2.061.062,1.869.185,1.871-1.871q.008-9.509,0-19.018c0-3.348-1.84-5.178-5.2-5.181H23.587c-5.438.007-10.876-.01-16.314.009a4.5,4.5,0,0,0-4.678,4.692c0,.671.008,1.343-.009,2.014a1.741,1.741,0,0,1-.431,1.212c-.279.295-.591.513-1.021.283A1.158,1.158,0,0,1,0,30.364a22.536,22.536,0,0,1,.162-3.788,7.018,7.018,0,0,1,6.727-5.592c7.252-.045,14.5-.011,21.757-.025.459,0,1.068.376,1.31.055s.1-.938.1-1.426c.009-3.724-.046-7.449.032-11.171A8.554,8.554,0,0,1,37.3.146c.1-.018.2-.024.236-.145H55.516a1.03,1.03,0,0,1,.812.944c-.018,1.226-.411,1.614-1.73,1.617-5.215.013-10.431-.016-15.647.014a6.055,6.055,0,0,0-5.8,3.674,5.137,5.137,0,0,0-.488,2.256c0,4.191.01,8.382-.007,12.573a2.032,2.032,0,0,0,.7,1.643,7.417,7.417,0,0,1,2.415,5.9c-.017,3.725-.006,7.45,0,11.176,0,1.239.163,1.448,1.367,1.767a8.567,8.567,0,0,0,2.221.279q6.468-.012,12.936,0c1.563,0,2.019.464,2.056,2.033-.032,1.077-.037,2.156,0,3.353,1.911-1.365,3.667-2.779,5.45-4.159.657-.384,1.148-1.042,1.951-1.186,1.187-.033,2.374-.056,3.559-.033A6.39,6.39,0,0,0,71.9,35.3q-.157-13.217,0-26.437a6.326,6.326,0,0,0-6.278-6.3c-.722.009-1.444-.007-2.166-.007a8.219,8.219,0,0,1-.929-.007c-1.011-.054-1.4-.453-1.48-1.5A1.047,1.047,0,0,1,61.87,0h4.959a13.221,13.221,0,0,1,3.027,1.035,8.5,8.5,0,0,1,4.585,7.727q.043,13.43,0,26.861a8.676,8.676,0,0,1-8.453,8.748,1.461,1.461,0,0,1-.309.006,7.107,7.107,0,0,0-6.211,2.1c-1.752,1.557-3.712,2.878-5.571,4.316a1.286,1.286,0,0,1-1.484.3,1.3,1.3,0,0,1-.659-1.367c.018-1.5-.027-3,.021-4.5.021-.651-.1-.875-.825-.866-3.615.045-7.232.011-10.847.025a11.592,11.592,0,0,1-4.6-.652c0,1.957,0,3.83,0,5.7,0,.493.372.333.614.334,3.151.009,6.3-.008,9.453.01a5.343,5.343,0,0,1,5.5,4.081,6.252,6.252,0,0,1,.172,1.458c.02,1.759,0,3.519.012,5.279,0,.777-.265,1.307-1.1,1.406a.986.986,0,0,1-1.353-.989c-.076-.821-.01-1.648-.031-2.472a23.306,23.306,0,0,0-.129-3.7A2.66,2.66,0,0,0,45.778,52.4c-1.157-.006-2.313-.011-3.47,0-3.739,0-7.478,0-11.217,0-2.1,0-3.075.982-3.076,3.079q0,7.131,0,14.262c0,2.261,1.042,3.291,3.328,3.3,2.269.006,4.538,0,6.808,0a4.552,4.552,0,0,1,1.078.07,1.412,1.412,0,0,1,1.156,1.363,2.588,2.588,0,0,0,.072.909,5.12,5.12,0,0,0,1.745-1.24,4.172,4.172,0,0,1,3.259-1.084,2.95,2.95,0,0,0,2.75-1.265,4.005,4.005,0,0,0,.58-2.287c.038-.514-.028-1.034.032-1.547.085-.732.508-1.031,1.274-.937" transform="translate(0 -0.001)"/>
    <path id="Trazado_262733" data-name="Trazado 262733" d="M268.682.777A2.984,2.984,0,0,0,268.047,0H274.4c-.246.292-.585.518-.652.934a.582.582,0,0,1-.553.355,32.416,32.416,0,0,1-3.7.186c-.474-.028-.789-.179-.819-.7" transform="translate(-212.531)" fill="#fefefe"/>
    <path id="Trazado_262734" data-name="Trazado 262734" d="M30.277,141.856a3.76,3.76,0,0,1-1.7,2.429c-1.408.987-2.735,2.089-4.257,3.267,0-1,0-1.838,0-2.672-.009-1.218-.359-1.573-1.575-1.575-3.639,0-7.277.008-10.916,0a4.828,4.828,0,0,1-5.039-3.723,6.056,6.056,0,0,1-.11-1.464q-.006-5.508,0-11.015c0-.995-.247-1.285-1.2-1.479q0-2.355,0-4.71c.929-.2,1.182-.484,1.2-1.4.012-.8-.011-1.6.012-2.4a4.677,4.677,0,0,1,4.53-4.607c5.574-.048,11.148-.005,16.722,0a5.038,5.038,0,0,1,2.517,4.419c.112,2.259.036,4.527.023,6.791a.863.863,0,0,1-.314.824,12.662,12.662,0,0,1-3.159.085c-.54-.014-.685-.4-.619-.872.11-.794.236-1.587.358-2.38a5.1,5.1,0,0,0,.1-.846.856.856,0,0,0-.75-.934.822.822,0,0,0-1,.64,23.935,23.935,0,0,0-.5,2.746c-.285,1.682-.277,1.683-1.943,1.682-1.542,0-1.573-.041-1.324-1.59.111-.69.259-1.374.322-2.07.084-.921-.128-1.334-.693-1.423-.621-.1-.995.268-1.154,1.16q-.246,1.375-.456,2.757c-.156,1.013-.311,1.152-1.361,1.163-.982.011-1.963,0-2.945,0a2.557,2.557,0,0,0-.844.083c-.452.157-.786.439-.74.959a.872.872,0,0,0,.889.811c.334.036.671.021,1.006.024.852.008,1.7-.015,2.557.014a.7.7,0,0,1,.776.838,10.024,10.024,0,0,1-.324,1.91c-.131.485-.513.613-.956.626-.93.028-1.859,0-2.789.015-.546.008-1.061.075-1.135.773-.059.564.273.919,1.009,1.04a19.252,19.252,0,0,0,2.4.066c.9.035,1.033.186.906,1.087-.109.769-.255,1.531-.376,2.3a4,4,0,0,0-.078.615.949.949,0,0,0,.808,1.058.882.882,0,0,0,.989-.787c.222-.958.339-1.936.507-2.905.223-1.283.311-1.363,1.587-1.37,1.9-.011,1.923.013,1.6,1.923-.109.638-.229,1.274-.313,1.915s.184,1.109.683,1.213a.949.949,0,0,0,1.107-.84c.258-1.056.368-2.141.57-3.209.167-.881.276-.977,1.169-1,1.265-.03,2.531.036,3.8-.044.207-.013.419-.014.545.206a2.678,2.678,0,0,1,.133,1.147c0,2.327,0,4.655.006,6.982a5.129,5.129,0,0,1-.237,1.754" transform="translate(-4.342 -89.177)" fill="#dff7f9"/>
    <path id="Trazado_262735" data-name="Trazado 262735" d="M196.415,251.645c1.131-.015,2.262-.057,3.392-.039A3.013,3.013,0,0,1,203,254.812c.033,1.753,0,3.507.012,5.26.007,1.023.235,1.272,1.221,1.422-.148,1.676-.032,3.354-.063,5.031-.956.214-1.137.434-1.16,1.417-.017.721.019,1.447-.056,2.161a2.823,2.823,0,0,1-2.905,2.639,5.331,5.331,0,0,0-4.3,1.58,3.814,3.814,0,0,1-1.363.961,3.892,3.892,0,0,1-.06-1,.762.762,0,0,1,.539-.836,4.151,4.151,0,0,0,2.583-4.337,39.783,39.783,0,0,1,.034-4.025,2.772,2.772,0,0,1,.423-.819,4.955,4.955,0,0,0-.085-5.993,1.723,1.723,0,0,1-.33-.609,18.137,18.137,0,0,1-.046-2.554,4.4,4.4,0,0,0-.862-2.909c-.124-.158-.263-.329-.167-.561" transform="translate(-154.074 -199.492)" fill="#85b638"/>
    <path id="Trazado_262736" data-name="Trazado 262736" d="M180.108,3.753c.184.119.131.455.449.461a22.819,22.819,0,0,0,4.618-.3c.06,1.081.375,1.385,1.444,1.4.253,0,.506.016.759.025a4.69,4.69,0,0,1,2.279,2.013,7.551,7.551,0,0,1,1.365,4.373q-.008,13.38,0,26.76a7.79,7.79,0,0,1-2.356,5.716,2.313,2.313,0,0,1-1.918.792,3.169,3.169,0,0,0-1.227.051l-1.646,1.13a6.537,6.537,0,0,1-2.527.2c-.977.022-1.978-.116-2.767.679a.367.367,0,0,1-.5.03c-.011-.128-.031-.256-.033-.384-.025-1.357-.337-1.662-1.719-1.662q-6.7,0-13.395,0a7.286,7.286,0,0,1-2.786-.547.934.934,0,0,1-.689-1.021c.03-4.034.009-8.068.019-12.1a7.113,7.113,0,0,0-2.739-5.881.964.964,0,0,1-.4-.847c.013-4.293-.017-8.585.017-12.878a6.322,6.322,0,0,1,6.5-6.442c5.239-.016,10.478,0,15.718,0,1.241,0,1.547-.311,1.54-1.551" transform="translate(-123.958 -2.976)" fill="#fc4b52"/>
    <path id="Trazado_262737" data-name="Trazado 262737" d="M148.4,251.7a4.733,4.733,0,0,1,1.25,3.746c-.053.794-.025,1.594-.034,2.391-.256.1-.448-.054-.646-.171a3.866,3.866,0,0,0-4.115-.12.9.9,0,0,1-.945.008,3.805,3.805,0,0,0-4.491.338,4.333,4.333,0,0,0-1.431,4.348A6.264,6.264,0,0,0,140.43,266a18.422,18.422,0,0,0,3.047,1.986,1.694,1.694,0,0,0,1.761.015,16.536,16.536,0,0,0,3.627-2.5c.213-.207.4-.5.769-.432,0,1.649.055,3.3-.006,4.948a3.643,3.643,0,0,1-2.087,3.363c-.955.438-1.336.972-1.168,1.961-.217-.127-.075-.331-.1-.5a4.344,4.344,0,0,1-.006-.542c-.015-1.058-.4-1.453-1.447-1.456-2.556-.006-5.112,0-7.669,0a3.061,3.061,0,0,1-3.38-3.349q-.015-7.257,0-14.513c0-1.892,1.079-3.254,2.783-3.28,3.947-.059,7.9-.007,11.845,0" transform="translate(-106.062 -199.548)" fill="#a7e446"/>
    <path id="Trazado_262738" data-name="Trazado 262738" d="M297.233,50.931c.425-.293.9-.113,1.354-.137A1.567,1.567,0,0,0,299.6,50.5,7.582,7.582,0,0,0,302.5,44.59q.015-13.5,0-27.008a7.389,7.389,0,0,0-3.13-6.092,3.177,3.177,0,0,1-.274-.266,17.716,17.716,0,0,1,3.47.095,6.231,6.231,0,0,1,5.217,6.129q.051,13.607,0,27.214a6.307,6.307,0,0,1-6.367,6.254c-1.392.025-2.785.011-4.178.014" transform="translate(-235.673 -8.87)" fill="#c93c41"/>
    <path id="Trazado_262739" data-name="Trazado 262739" d="M116.1,124.414c.233-.238.138-.538.139-.812.008-1.938-.035-3.877.015-5.813a6.047,6.047,0,0,0-2.029-4.97,3.452,3.452,0,0,1-.3-.349c1.677-.006,3.354-.059,5.029-.006a4.719,4.719,0,0,1,4.553,4.681c.034,7.057.01,14.115.023,21.172,0,.465-.128.664-.609.622-.359-.032-.723.012-1.083-.009a5.671,5.671,0,0,0-5.572,2.9q-.011-4.967-.023-9.934a.573.573,0,0,1,.174-.333c.534-.669.529-.979-.029-1.608a1.172,1.172,0,0,1-.3-.443,11.413,11.413,0,0,1-.011-2.594c.047-.09-.047,0,.023-.07a1.486,1.486,0,0,0,0-2.435" transform="translate(-90.327 -89.153)" fill="#b2c5c7"/>
    <path id="Trazado_262740" data-name="Trazado 262740" d="M261.318,209.245c1.421-1.368,3.2-.845,4.868-.927.307-.015.616.013.924.021l-5.792,4.527Z" transform="translate(-207.196 -165.147)" fill="#c93c41"/>
    <path id="Trazado_262741" data-name="Trazado 262741" d="M59.579,155.608c1.1.714,1.1,1.55,0,2.255-1.47.015-2.94.05-4.41.036-.488,0-.662.142-.726.639-.151,1.177-.369,2.346-.584,3.514A1.138,1.138,0,0,1,52.5,163.1a1.181,1.181,0,0,1-.927-1.456c.161-.994.3-1.994.516-2.976.143-.643-.046-.841-.67-.768a3.249,3.249,0,0,1-1,0c-.9-.182-1.133.291-1.218,1.069-.11,1-.3,1.99-.471,2.983-.14.831-.645,1.255-1.358,1.155-.69-.1-1.066-.672-.943-1.512.149-1.022.289-2.049.517-3.054.131-.579-.07-.654-.559-.637-.825.027-1.652.018-2.477,0-.927-.016-1.431-.431-1.44-1.155s.49-1.157,1.413-1.167c.981-.012,1.962-.018,2.942,0,.426.01.665-.071.7-.571a12.125,12.125,0,0,1,.281-1.679c.1-.47-.024-.643-.536-.626-1.134.037-2.271.019-3.406.009-.9-.008-1.418-.456-1.4-1.185.017-.686.542-1.13,1.385-1.138,1.265-.011,2.53-.036,3.793.012.553.021.7-.2.769-.685.155-1.125.335-2.248.532-3.366.146-.829.6-1.216,1.281-1.163a1.1,1.1,0,0,1,1.023,1.361c-.138,1.1-.314,2.2-.521,3.289-.088.466.04.584.487.557.718-.045,1.6.2,2.115-.13.5-.321.312-1.287.457-1.964.152-.706.226-1.429.371-2.137a1.114,1.114,0,0,1,1.344-.961,1.152,1.152,0,0,1,.93,1.379c-.163,1.046-.344,2.089-.533,3.13-.081.444-.08.722.526.688,1-.055,2.012-.023,3.019-.028,1.226.649,1.279,1.53.141,2.33a1.275,1.275,0,0,1-.88.212c-.54.007-1.081,0-1.621,0-1.4,0-1.952.652-1.77,2.043.058.446.377.433.682.44.874.019,1.749,0,2.624.01a1.479,1.479,0,0,1,.964.192" transform="translate(-33.666 -115.118)"/>
    <path id="Trazado_262742" data-name="Trazado 262742" d="M164.676,284.676a17.971,17.971,0,0,1-4.436,3.189,1.378,1.378,0,0,1-1.393.119,17.325,17.325,0,0,1-4.264-2.909,5.563,5.563,0,0,1-1.67-5.509,4.083,4.083,0,0,1,6.11-2.574c.188.109.323.3.608.117a4.132,4.132,0,0,1,5.027.335,5.147,5.147,0,0,1,.319,6.787c-.109.142-.2.3-.3.444" transform="translate(-121.103 -219.156)"/>
    <path id="Trazado_262743" data-name="Trazado 262743" d="M205.79,51.024c1.875,0,3.63,0,5.385,0A3.022,3.022,0,0,1,214.5,54.4q0,5.237,0,10.474a3.052,3.052,0,0,1-3.31,3.335c-2.581.015-5.162.019-7.743,0a20.474,20.474,0,0,1-4.857-.246,9.2,9.2,0,0,1-1.246-.4c-.574-.235-1.116-.763-1.706.009-.1.129-.438.1-.667.1q-2.9.01-5.808,0c-1,0-1.382-.392-1.383-1.421q-.009-6.789,0-13.578c0-1.018.383-1.389,1.415-1.395,1.91-.01,3.82-.005,5.73,0,.23,0,.538-.035.676.092.576.532.848.115,1.189-.285.822-.963,1.672-1.9,2.5-2.855a6.8,6.8,0,0,0,1.75-4.283,3.206,3.206,0,0,1,.213-1.213,2.335,2.335,0,0,1,2.019-1.472,2.208,2.208,0,0,1,2.251,1.205,8.918,8.918,0,0,1,.64,7.549c-.109.312-.231.619-.38,1.015" transform="translate(-148.887 -32.702)"/>
    <path id="Trazado_262744" data-name="Trazado 262744" d="M107.5,184.4c-1.286-.009-2.572-.037-3.857-.019-.552.008-.921-.037-.66-.735a4.083,4.083,0,0,0,.115-.684c.269-1.449.27-1.448,1.78-1.45.874,0,1.749-.008,2.623-.012v2.9" transform="translate(-81.582 -143.91)" fill="#dff7f9"/>
    <path id="Trazado_262745" data-name="Trazado 262745" d="M80.126,181.559c1.41,0,1.41,0,1.151,1.413-.264,1.448-.264,1.448-1.709,1.448-1.311,0-1.311,0-1.125-1.271.011-.077.02-.153.034-.23.24-1.36.24-1.36,1.649-1.36" transform="translate(-62.127 -143.956)" fill="#dff7f9"/>
    <path id="Trazado_262746" data-name="Trazado 262746" d="M172.66,289.84a3.285,3.285,0,0,1-.918,2.236,12.473,12.473,0,0,1-3.163,2.323.432.432,0,0,1-.5.011,11.528,11.528,0,0,1-3.322-2.486,3.088,3.088,0,0,1-.672-2.963,1.717,1.717,0,0,1,1.454-1.322,1.61,1.61,0,0,1,1.7.81c.592.879,1.443.948,2.028.2.774-.985,1.285-1.2,2.113-.9a2.019,2.019,0,0,1,1.28,2.089" transform="translate(-130 -228.046)" fill="#fc4b52"/>
    <path id="Trazado_262747" data-name="Trazado 262747" d="M236.239,52.5a6.608,6.608,0,0,1,.529,5.515c-.285.827-.665,1.621-.988,2.436A1.2,1.2,0,0,0,237,62.264c2.3.019,4.594.01,6.891.018.9,0,1.036.136,1.037,1.037,0,3.491-.012,6.982.01,10.473,0,.742-.3,1.022-1.012,1.019-3.536-.011-7.072,0-10.608-.011a6.034,6.034,0,0,1-3.856-1.381.9.9,0,0,1-.377-.781q.023-4.073,0-8.146a1.328,1.328,0,0,1,.421-.948c1.3-1.468,2.581-2.96,3.906-4.409a9.48,9.48,0,0,0,2.71-6.25,2.4,2.4,0,0,1,.116-.383" transform="translate(-181.639 -41.629)" fill="#fed26c"/>
    <path id="Trazado_262748" data-name="Trazado 262748" d="M198.97,106.721c0-1.757.015-3.515-.01-5.271-.006-.46.1-.64.593-.619.953.04,1.909.028,2.862,0,.379-.01.477.118.476.486q-.018,5.388,0,10.776c0,.443-.176.5-.545.492-.928-.02-1.858-.033-2.785,0-.476.019-.614-.117-.606-.6.029-1.757.012-3.514.012-5.271" transform="translate(-157.752 -79.946)" fill="#8de5f2"/>
  </g>
</svg>
