<svg id="Grupo_149716" data-name="Grupo 149716" xmlns="http://www.w3.org/2000/svg" xmlns:xlink="http://www.w3.org/1999/xlink" width="73.281" height="79.5" viewBox="0 0 73.281 79.5">
  <defs>
    <clipPath id="clip-path">
      <rect id="Rectángulo_90551" data-name="Rectángulo 90551" width="73.281" height="79.5" fill="none"/>
    </clipPath>
  </defs>
  <g id="Grupo_149716-2" data-name="Grupo 149716" clip-path="url(#clip-path)">
    <path id="Trazado_262705" data-name="Trazado 262705" d="M54.578,79.5H45.124a1.189,1.189,0,0,1-.93-1.43,1.554,1.554,0,0,1,1.722-1.135c2.35,0,4.7-.024,7.048.011.307-.011.617.009.924-.022a1.418,1.418,0,0,0,1.357-1.342c.08-1.672.029-3.347.026-5.02,0-.417-.205-.6-.617-.609-.565-.007-1.131.008-1.7-.009a6.839,6.839,0,0,1-.852.019q-20.866,0-41.732-.007a4.011,4.011,0,0,0-2.745.844,3.507,3.507,0,0,0,1.38,5.986,6.062,6.062,0,0,0,1.691.14h28.88c.361,0,.723-.012,1.084.014A1.474,1.474,0,0,1,42.2,78.19a1.192,1.192,0,0,1-.951,1.31H8.86A5.871,5.871,0,0,1,3.8,74.835a5.046,5.046,0,0,1-.11-1.388q0-7.257,0-14.514A2.567,2.567,0,0,0,3.6,57.95,1.773,1.773,0,0,0,2.779,59.3c-.255,1.181-.868,1.738-1.705,1.551S-.113,59.868.1,58.714a4.952,4.952,0,0,1,2.813-3.671,1.175,1.175,0,0,0,.783-1.258,16.312,16.312,0,0,0-.093-2.3A2.307,2.307,0,0,0,2.7,53.236a1.324,1.324,0,0,1-2.058.931,1.586,1.586,0,0,1-.606-1.585,4.724,4.724,0,0,1,2.71-3.9,1.423,1.423,0,0,0,.958-1.61c-.055-.637.009-1.282-.035-2.047A1.459,1.459,0,0,0,2.874,46c-.083.272-.12.556-.194.831a1.289,1.289,0,0,1-1.455,1.09,1.47,1.47,0,0,1-1.2-1.577,4.758,4.758,0,0,1,2.66-4.1A1.465,1.465,0,0,0,3.7,40.582c-.066-.658.014-1.328-.043-2.077a1.393,1.393,0,0,0-.738.85,2.028,2.028,0,0,0-.165.676,1.458,1.458,0,0,1-1.675,1.412,1.522,1.522,0,0,1-1.027-1.9A5.052,5.052,0,0,1,2.97,35.6a1.089,1.089,0,0,0,.723-1.138,21.07,21.07,0,0,0-.074-2.392,2.1,2.1,0,0,0-.9,1.679A1.282,1.282,0,0,1,1.6,34.954,1.4,1.4,0,0,1,.018,33.269,4.839,4.839,0,0,1,2.858,29.2a1.221,1.221,0,0,0,.84-1.367c-.06-.691.042-1.39-.062-2.159a1.09,1.09,0,0,0-.705.764,8.11,8.11,0,0,0-.251.976A1.349,1.349,0,0,1,1.232,28.54a1.526,1.526,0,0,1-1.2-1.584,4.765,4.765,0,0,1,2.712-4.142,1.408,1.408,0,0,0,.958-1.62,17.361,17.361,0,0,0-.082-2.048,1.373,1.373,0,0,0-.688.837,4.1,4.1,0,0,0-.212.825,1.418,1.418,0,0,1-1.591,1.234A1.425,1.425,0,0,1,.019,20.409a4.835,4.835,0,0,1,2.72-4.067,1.449,1.449,0,0,0,.956-1.63,9.949,9.949,0,0,0-.114-2.037A2.1,2.1,0,0,0,2.725,14.3a1.326,1.326,0,0,1-.932,1.208A1.4,1.4,0,0,1,.012,13.9,4.842,4.842,0,0,1,2.821,9.812a1.306,1.306,0,0,0,.88-1.43c-.048-.773-.011-1.552-.011-2.328A5.963,5.963,0,0,1,7.163.449,7.6,7.6,0,0,1,9.015,0h8.214a1.167,1.167,0,0,1,.911,1.3c-.3.961-.638,1.228-1.687,1.237-2.014.018-4.032.074-6.042-.012A3.6,3.6,0,0,0,6.428,6.485a14.9,14.9,0,0,1,0,2.017,1.253,1.253,0,0,0,.786,1.339A4.867,4.867,0,0,1,9.9,13.934a1.346,1.346,0,0,1-1.036,1.59,1.286,1.286,0,0,1-1.581-1,3.053,3.053,0,0,0-.831-1.8A21.2,21.2,0,0,0,6.5,15.707c.052.375.439.48.732.635a4.793,4.793,0,0,1,2.646,3.943,1.449,1.449,0,0,1-1.1,1.775c-.738.115-1.325-.359-1.57-1.282a2.788,2.788,0,0,0-.78-1.648c.017,1.048-.022,1.98.032,2.912.025.439.411.558.727.725a4.794,4.794,0,0,1,2.7,4.07,1.437,1.437,0,0,1-1.144,1.671c-.718.118-1.3-.351-1.514-1.219a2.651,2.651,0,0,0-.762-1.615c-.047,1.02-.048,1.913,0,2.806.022.44.4.562.718.731a4.956,4.956,0,0,1,2.714,4.16,1.327,1.327,0,0,1-1.3,1.591c-.693.024-1.123-.337-1.354-1.132a2.645,2.645,0,0,0-.784-1.68,27.849,27.849,0,0,0,0,2.839c.028.468.45.591.786.773a4.771,4.771,0,0,1,2.633,3.948,1.484,1.484,0,0,1-1.068,1.737A1.476,1.476,0,0,1,7.21,40.2a2.74,2.74,0,0,0-.771-1.643c0,1.042-.032,1.974.025,2.906.027.442.421.55.735.717a4.8,4.8,0,0,1,2.688,4.077,1.429,1.429,0,0,1-1.155,1.661c-.716.111-1.287-.358-1.5-1.235-.26-1.048-.26-1.048-.762-1.534-.051.95-.044,1.844-.005,2.737.019.445.4.562.715.73a4.952,4.952,0,0,1,2.719,4.156,1.327,1.327,0,0,1-1.362,1.6c-.66-.01-1.06-.362-1.285-1.125A2.76,2.76,0,0,0,6.47,51.56a19.4,19.4,0,0,0,.013,2.91c.046.454.505.545.834.734a4.749,4.749,0,0,1,2.575,3.983A1.479,1.479,0,0,1,8.829,60.86a1.48,1.48,0,0,1-1.615-1.236,2.789,2.789,0,0,0-.71-1.609,1.83,1.83,0,0,0-.065.85q-.01,4.23,0,8.46c0,.785.011.787.7.463a5.688,5.688,0,0,1,2.382-.617h42.9c.7,0,1.393-.047,2.09-.033.523.011.753-.243.744-.755,0-.232.006-.465.006-.7q0-19.436,0-38.872a1.782,1.782,0,0,0-.11-.911,11.009,11.009,0,0,0-1.974,1.668,7.558,7.558,0,0,0-1.054.9,2.368,2.368,0,0,1-2.66.454,2.276,2.276,0,0,1-1.323-2.258c.016-5.939,0-11.879.013-17.818A2.282,2.282,0,0,1,50.214,6.3c1.411.015,2.823-.023,4.235-.011.579.005.857-.2.828-.807s.011-1.235-.013-1.852c-.032-.818-.252-1.029-1.084-1.063-.462-.019-.924,0-1.387-.013-1.265.051-2.529.021-3.793.021q-13.159.005-26.318,0a8.369,8.369,0,0,1-1.16-.03,1.425,1.425,0,0,1-1.391-1.226A1.162,1.162,0,0,1,21.1,0H55.352c1.979.485,2.7,1.425,2.714,3.522,0,.646.014,1.292,0,1.937-.014.6.262.839.84.828.541-.011,1.083,0,1.624,0,3.273,0,6.547-.006,9.82,0,1.952.005,2.879.934,2.9,2.9.013,1.162.023,2.324-.007,3.486a1.533,1.533,0,0,1-1.131,1.646c-1.175,0-1.6-.388-1.643-1.536-.029-.747-.008-1.495-.009-2.242,0-1.456,0-1.456-1.491-1.456-.36,0-.72.008-1.08-.01-5.188.033-10.375.006-15.563.015-1.379,0-1.38,0-1.38,1.357q0,7.215,0,14.43a1.4,1.4,0,0,0,.085.744c1.007-.738,1.84-1.646,2.761-2.45a3.275,3.275,0,0,1,2.239-.9c3.949,0,7.9-.021,11.846.012.591-.026,1.183-.028,1.772-.006.606.023.818-.252.812-.832-.012-1.158-.028-2.318.007-3.476s.461-1.546,1.627-1.555A1.438,1.438,0,0,1,73.228,17.9c.057,1.6.087,3.208-.008,4.808a2.41,2.41,0,0,1-2.555,2.364c-2.194.03-4.388,0-6.582.011-.995,0-1.03.063-1.059,1.056A10.238,10.238,0,0,1,62.7,29.9a.737.737,0,0,0,.026.458c.6,2.373.193,4.784.268,7.177-.56.985-.011,1.959.014,2.939a41.881,41.881,0,0,1-.034,5.349,18.525,18.525,0,0,0,.011,3.411c.139,1.748.063,3.515.028,5.273a3.032,3.032,0,0,1-3.01,3.023c-1.939.07-1.939.07-1.939,2.056q0,7.953,0,15.905a3.986,3.986,0,0,1-1.954,3.561,5.019,5.019,0,0,1-1.54.45" transform="translate(0)"/>
    <path id="Trazado_262706" data-name="Trazado 262706" d="M41.553,5.485a12.9,12.9,0,0,0,2.267-.091c.187.96.5,1.211,1.549,1.211l30.116,0c.309,0,.618.017.927.026a1.1,1.1,0,0,1,.372.824c.053.852.033,1.706.015,2.559-.011.5-.226.73-.768.715a13.392,13.392,0,0,0-2.239.034,2.1,2.1,0,0,0-1.907,2.324c-.008,5.947,0,11.894-.008,17.841a2.076,2.076,0,0,0,1.263,2.114,2.1,2.1,0,0,0,2.417-.5c.321-.3.663-.571,1-.856.393.408.268.926.268,1.4q.013,12.885.006,25.77,0,5.627,0,11.255a6.425,6.425,0,0,1-.037.93c-.052.352-.211.571-.609.541-.205-.016-.413,0-.619,0q-20.879,0-41.757,0a2.982,2.982,0,0,0-.923.047,6.574,6.574,0,0,0-3.089,1.22V61.794a1.914,1.914,0,0,1,1.083,1.651,1.348,1.348,0,0,0,1.369,1.529c.786-.108,1.13-.735.95-1.879a4.551,4.551,0,0,0-2.946-3.689.7.7,0,0,1-.542-.779c.034-1.072.011-2.146.011-3.34a2.347,2.347,0,0,1,1.222,1.98,1.228,1.228,0,0,0,.684,1.13,1.168,1.168,0,0,0,1.628-1.3,4.569,4.569,0,0,0-2.923-4.123.851.851,0,0,1-.622-.968c.038-1.026.011-2.055.011-3.175a2.463,2.463,0,0,1,1.249,2.082,1.136,1.136,0,0,0,1.668.989,1.183,1.183,0,0,0,.622-1.236,4.567,4.567,0,0,0-2.9-4.141.9.9,0,0,1-.653-1.019c.033-1.005.01-2.013.01-3.164a2.264,2.264,0,0,1,1.178,1.683c.208,1.19.658,1.673,1.412,1.53s1.076-.781.879-1.934a4.507,4.507,0,0,0-2.856-3.587.838.838,0,0,1-.624-.96c.036-1.023.011-2.049.011-3.194a2.2,2.2,0,0,1,1.132,1.427,6.692,6.692,0,0,1,.114.688c.134.764.566,1.136,1.25,1.079a1.145,1.145,0,0,0,1.04-1.372,4.584,4.584,0,0,0-2.912-4.132.852.852,0,0,1-.637-.959c.043-1.03.013-2.062.013-3.18a2.1,2.1,0,0,1,1.139,1.446c.053.2.068.408.1.612.131.782.637,1.223,1.293,1.129a1.2,1.2,0,0,0,1-1.422,4.562,4.562,0,0,0-2.871-4.078.9.9,0,0,1-.672-1c.043-1.022.012-2.047.012-3.2a2.324,2.324,0,0,1,1.147,1.531c.048.2.063.409.1.613a1.161,1.161,0,0,0,1.251,1.1,1.184,1.184,0,0,0,1.041-1.386,4.608,4.608,0,0,0-2.907-4.14c-.482-.211-.665-.42-.643-.946.045-1.026.013-2.055.013-3.178a2.031,2.031,0,0,1,1.128,1.381,5.423,5.423,0,0,1,.116.688c.137.791.611,1.182,1.316,1.088a1.149,1.149,0,0,0,.979-1.351,4.522,4.522,0,0,0-2.763-4.071,1.085,1.085,0,0,1-.791-1.253c.06-.875,0-1.759.022-2.637A3.7,3.7,0,0,1,33.53,6.61c2.117-.015,4.235-.03,6.351.01a1.444,1.444,0,0,0,1.672-1.134" transform="translate(-23.544 -4.277)" fill="#a7e446"/>
    <path id="Trazado_262707" data-name="Trazado 262707" d="M67.988,345.063a7.168,7.168,0,0,0-2.279.152c-.191-.994-.5-1.239-1.6-1.239q-15.181,0-30.362,0a3.741,3.741,0,0,1-.584-7.456c.257-.02.516-.022.774-.022q21.067,0,42.135,0c.205,0,.411.023.616.035a2.941,2.941,0,0,1-.143,2.871c-8.672-.331-17.347-.071-26.021-.139-4.675-.037-9.35-.008-14.025,0a3.149,3.149,0,0,0-1.372.172.818.818,0,0,0-.574.833.848.848,0,0,0,.755.768,4.115,4.115,0,0,0,.849.054q19.526,0,39.053,0a6.886,6.886,0,0,1,1.313-.02c.125.047.251.117.276.249a3.991,3.991,0,0,1-.113,2.63c-2.391.009-4.782.035-7.173.017a1.34,1.34,0,0,0-1.521,1.1" transform="translate(-23.658 -266.804)" fill="#f8f5f8"/>
    <path id="Trazado_262708" data-name="Trazado 262708" d="M261.784,56.262c-3.873.011-7.746.039-11.618.018a3.309,3.309,0,0,0-2.506.972c-.955.939-1.977,1.812-2.972,2.714-.257-.151-.145-.381-.145-.562q-.011-8.072-.007-16.145c0-.36-.079-.686.516-.683,5.577.033,11.154.034,16.731.044a1.378,1.378,0,0,1,.248,1.024q.009,5.8,0,11.593a1.376,1.376,0,0,1-.248,1.024" transform="translate(-193.878 -33.759)" fill="#9cc5fa"/>
    <path id="Trazado_262709" data-name="Trazado 262709" d="M45.071,163.81c.3-.231.649-.121.973-.122q20.869-.009,41.737.011c.753,0,1-.144,1-.966q-.044-19.008-.021-38.016c0-.284-.012-.568-.018-.853l2.361-2.22c.3.132.184.372.184.55q.01,20.457.024,40.914c0,.715-.32.711-.837.711q-22.006-.009-44.012,0c-.464,0-.929-.006-1.393-.009" transform="translate(-35.737 -96.451)" fill="#85b638"/>
    <path id="Trazado_262710" data-name="Trazado 262710" d="M327.879,56.283V42.642c.745-.01,1.492,0,2.237-.037.4-.018.538.114.529.524-.024,1.134-.014,2.269-.006,3.4.007,1.046.323,1.371,1.362,1.435a2.694,2.694,0,0,0,0,2.367c-1.041.068-1.353.391-1.359,1.439-.007,1.316-.023,2.631.009,3.946.012.485-.14.631-.611.6-.718-.043-1.439-.029-2.159-.039" transform="translate(-259.973 -33.78)" fill="#7fb3fa"/>
    <path id="Trazado_262711" data-name="Trazado 262711" d="M255.275,343.551c0-.7.006-1.392,0-2.088,0-.248.074-.526-.194-.7a4.468,4.468,0,0,0,.024-1.829c.37-.913.081-1.866.173-2.8.817-.047,1.837-.341,2.388.1.485.385.124,1.446.145,2.208.025.9.006,1.8.006,2.7,0,2-.55,2.518-2.541,2.41" transform="translate(-202.251 -266.406)" fill="#dcd9eb"/>
    <path id="Trazado_262712" data-name="Trazado 262712" d="M279.791,153.877c0-.876.009-1.752,0-2.628-.005-.351.108-.515.485-.513,2.175.01,2.078-.191,2.058,1.861q-.018,1.855,0,3.71c.007.543-.2.787-.765.808-1.778.064-1.778.079-1.778-1.692q0-.773,0-1.546" transform="translate(-221.842 -119.516)" fill="#dff7f9"/>
    <path id="Trazado_262713" data-name="Trazado 262713" d="M279.627,195.883c0-.854.015-1.707-.006-2.56-.01-.409.078-.6.549-.6,2.249.019,2.043-.147,2.04,1.974,0,1.19-.012,2.38,0,3.569.008.582-.22.834-.821.85-1.766.048-1.765.064-1.765-1.686v-1.552" transform="translate(-221.709 -152.812)" fill="#b2e49e"/>
    <path id="Trazado_262714" data-name="Trazado 262714" d="M279.613,237.964c0-.88.021-1.76-.009-2.639-.015-.449.146-.569.581-.566,2.205.015,2.016-.137,2.012,1.924,0,1.216-.011,2.432,0,3.648.006.546-.215.791-.774.82-1.814.094-1.813.107-1.813-1.713v-1.475" transform="translate(-221.696 -186.139)" fill="#fedf7c"/>
    <path id="Trazado_262715" data-name="Trazado 262715" d="M242.619,15.407a5.906,5.906,0,0,1,2.12-.107c.491-.01.695-.144.666-.659a17.872,17.872,0,0,0-.165-3.366c.539-.009,1.079-.019,1.618-.026a.928.928,0,0,1,1.069,1.024c.009.876-.012,1.752.011,2.628.01.405-.138.533-.536.528-1.594-.022-3.188-.017-4.781-.022" transform="translate(-192.371 -8.919)" fill="#85b638"/>
    <path id="Trazado_262716" data-name="Trazado 262716" d="M279.661,121.743v-.077c0-2.123,0-2.114,2.145-1.936.338.028.443.138.439.461-.013.956-.007,1.911-.005,2.867,0,.477-.233.684-.707.722-1.872.15-1.871.158-1.871-2.036" transform="translate(-221.741 -94.875)" fill="#de72c0"/>
    <path id="Trazado_262717" data-name="Trazado 262717" d="M94.126,119.737a6.69,6.69,0,0,1-3.522-1.018,58.105,58.105,0,0,1-18.443-18.6,6.373,6.373,0,0,1,.731-7.825c1.272-1.39,2.623-2.712,3.984-4.016a2.673,2.673,0,0,1,4.092.281,26.364,26.364,0,0,0,5.249,5.228,2.721,2.721,0,0,1,.287,4.16c-.867.922-1.765,1.817-2.684,2.687a.894.894,0,0,0-.252,1.214,12.284,12.284,0,0,0,5.562,5.521.768.768,0,0,0,1.023-.188q1.317-1.368,2.68-2.691a2.744,2.744,0,0,1,4.355.315,23.867,23.867,0,0,0,4.945,4.986,2.745,2.745,0,0,1,.336,4.362c-1.208,1.239-2.437,2.459-3.668,3.676a6.591,6.591,0,0,1-4.676,1.906" transform="translate(-56.412 -69.346)"/>
    <path id="Trazado_262718" data-name="Trazado 262718" d="M92.078,28.483q6,0,12,0a2.561,2.561,0,0,1,2.872,2.859c0,.7,0,1.4,0,2.094a2.563,2.563,0,0,1-2.8,2.789c-1.471.01-2.942,0-4.413,0H80.3c-2.19,0-3.1-.916-3.1-3.109,0-.672-.009-1.345,0-2.017a2.505,2.505,0,0,1,2.645-2.615c4.077-.01,8.154,0,12.231,0" transform="translate(-61.208 -22.582)"/>
    <path id="Trazado_262719" data-name="Trazado 262719" d="M100.141,264.9q-5.458,0-10.915,0a5.578,5.578,0,0,1-.85-.031,1.031,1.031,0,0,1-.932-.982,1.086,1.086,0,0,1,.734-1.222,2.335,2.335,0,0,1,.917-.092q11.109,0,22.218,0a3.034,3.034,0,0,1,.839.083,1.141,1.141,0,0,1-.168,2.215,5.243,5.243,0,0,1-.773.028q-5.535,0-11.07,0" transform="translate(-69.326 -208.193)"/>
    <path id="Trazado_262720" data-name="Trazado 262720" d="M117.967,290.866c2.218,0,4.437,0,6.655,0,.968,0,1.484.432,1.463,1.2-.02.721-.535,1.13-1.456,1.131q-6.655,0-13.31,0c-.961,0-1.482-.437-1.461-1.2.02-.73.518-1.124,1.454-1.126,2.218,0,4.437,0,6.655,0" transform="translate(-87.106 -230.625)"/>
    <path id="Trazado_262721" data-name="Trazado 262721" d="M93.328,349.127a1.3,1.3,0,0,1-.024,1.829,2.327,2.327,0,0,1-1.2.234q-19.75,0-39.5,0a3.4,3.4,0,0,1-.617-.035,1.064,1.064,0,0,1-.941-1.064,1.048,1.048,0,0,1,.828-1.152,2.926,2.926,0,0,1,.765-.074q19.711,0,39.423-.007a2.327,2.327,0,0,1,1.263.272" transform="translate(-40.475 -276.605)" fill="#010101"/>
    <path id="Trazado_262722" data-name="Trazado 262722" d="M272.592,59.195c1.291,0,2.582-.005,3.873,0,.865,0,1.356.418,1.37,1.128.015.734-.5,1.194-1.4,1.2q-3.912.012-7.824,0c-.85,0-1.358-.443-1.374-1.142-.017-.734.5-1.178,1.4-1.182,1.317-.006,2.634,0,3.951,0" transform="translate(-211.894 -46.934)"/>
    <path id="Trazado_262723" data-name="Trazado 262723" d="M272.544,83.314c-1.317,0-2.634.006-3.951,0-.848-.005-1.35-.445-1.351-1.153s.5-1.166,1.346-1.17q3.95-.016,7.9,0c.843,0,1.348.461,1.349,1.166s-.495,1.151-1.344,1.156c-1.317.009-2.634,0-3.951,0" transform="translate(-211.895 -64.209)"/>
    <path id="Trazado_262724" data-name="Trazado 262724" d="M98.241,131.166a2.877,2.877,0,0,0,2.111-.582c.3-.245.486-.127.716.1q2.813,2.836,5.645,5.652c.247.245.294.385.028.679a4.453,4.453,0,0,1-6.121.841A55.982,55.982,0,0,1,83.283,120.3a4.414,4.414,0,0,1,1.05-5.848c.253-.2.385-.148.577.046q2.9,2.915,5.807,5.819c.172.172.235.319.048.524a3.023,3.023,0,0,0-.6,2.409,4.006,4.006,0,0,0,.535,2.058,13.453,13.453,0,0,0,5.614,5.453,4.172,4.172,0,0,0,1.925.4" transform="translate(-65.496 -90.651)" fill="#365e7d"/>
    <path id="Trazado_262725" data-name="Trazado 262725" d="M108.332,106.819c-1.037,1.2-1.038,1.2-2.151.089-1.6-1.6-3.179-3.221-4.806-4.793-.444-.429-.46-.7.017-1.055a8.373,8.373,0,0,0,.625-.565c.414-.06.607.26.786.521a22.207,22.207,0,0,0,5.007,5.014c.254.194.577.375.522.789" transform="translate(-80.112 -79.676)" fill="#9cc5f9"/>
    <path id="Trazado_262726" data-name="Trazado 262726" d="M185.866,184.707c-.956,1.11-.957,1.11-1.978.087-1.6-1.6-3.183-3.227-4.813-4.8-.467-.451-.609-.762-.013-1.17a5.888,5.888,0,0,0,.572-.507c.456-.085.646.281.845.554a22.353,22.353,0,0,0,4.953,4.971c.27.2.651.4.435.867" transform="translate(-141.664 -141.375)" fill="#9cc5fa"/>
    <path id="Trazado_262727" data-name="Trazado 262727" d="M126.543,165.33c-1.077.4-1.923-.154-2.785-.67a13.013,13.013,0,0,1-5.112-5.483,1.772,1.772,0,0,1-.178-1.759,14.067,14.067,0,0,0,7.011,7.482c.343.168.708.288,1.063.431" transform="translate(-93.797 -124.816)" fill="#2b4c65"/>
    <path id="Trazado_262728" data-name="Trazado 262728" d="M112.079,105.525a12.026,12.026,0,0,0-2.249-1.958,20.142,20.142,0,0,1-3.276-3.539,3.523,3.523,0,0,0-.79-.827c.319-.474.654-.445.969-.007a23.517,23.517,0,0,0,5.316,5.305c.45.326.549.669.03,1.026" transform="translate(-83.86 -78.382)" fill="#7fb2f9"/>
    <path id="Trazado_262729" data-name="Trazado 262729" d="M189.563,183.356c-.034-.381-.318-.572-.59-.766a20.573,20.573,0,0,1-4.869-4.884,2.346,2.346,0,0,0-.773-.741c.345-.514.687-.462,1.027.006a23.4,23.4,0,0,0,5.277,5.307c.545.392.432.751-.071,1.079" transform="translate(-145.362 -140.024)" fill="#7fb3f9"/>
    <path id="Trazado_262730" data-name="Trazado 262730" d="M88.469,42.669c-.013-.827-.022-1.654-.043-2.481-.008-.33.133-.48.461-.458.077.005.155,0,.232,0l22.392,0c.1,0,.206.016.308.025a4.316,4.316,0,0,1,.17,2.639c-.03.323-.306.366-.586.361-.464-.007-.927,0-1.391,0q-10.357,0-20.714,0a1.428,1.428,0,0,1-.829-.082" transform="translate(-70.112 -31.5)" fill="#365e7c"/>
    <path id="Trazado_262731" data-name="Trazado 262731" d="M88.635,42.65q11.323.006,22.646.023c.606,0,.751-.214.72-.768-.041-.721-.013-1.445-.015-2.168,1.71-.1,1.717-.1,1.708,1.578-.008,1.7.2,1.487-1.473,1.488q-11.438.013-22.877.006c-.239,0-.524.116-.709-.161" transform="translate(-70.278 -31.482)" fill="#2b4c65"/>
  </g>
</svg>
