<svg id="Grupo_149715" data-name="Grupo 149715" xmlns="http://www.w3.org/2000/svg" xmlns:xlink="http://www.w3.org/1999/xlink" width="74.996" height="79.5" viewBox="0 0 74.996 79.5">
  <defs>
    <clipPath id="clip-path">
      <rect id="Rectángulo_90550" data-name="Rectángulo 90550" width="74.996" height="79.5" fill="none"/>
    </clipPath>
  </defs>
  <g id="Grupo_149715-2" data-name="Grupo 149715" clip-path="url(#clip-path)">
    <path id="Trazado_262681" data-name="Trazado 262681" d="M59.232,79.5H16.538a4.972,4.972,0,0,1-4.112-5.228c-.012-10.528.009-21.057-.014-31.585a5.293,5.293,0,0,1,5.379-5.6,104.759,104.759,0,0,1,11.24.092,4.966,4.966,0,0,1,3.152,1.506c.791.782,1.573,1.573,2.361,2.358a4.56,4.56,0,0,0,.454.423c.243.183.492.474.816.322.3-.142.2-.5.2-.774.008-1.837-.007-3.673.011-5.51a1.287,1.287,0,0,0-.692-1.274A2.487,2.487,0,0,1,34.31,33.19a1.505,1.505,0,0,0-1.528-.82c-3.931.016-7.863.008-11.794.008-2.767,0-5.537-.061-8.3.018A3.935,3.935,0,0,1,8.7,28.5c-.006-.905-.023-1.811,0-2.716.018-.636-.243-.876-.871-.869-1.6.017-3.207.014-4.811,0A2.738,2.738,0,0,1,0,21.885Q-.008,12.378,0,2.872A3.383,3.383,0,0,1,.449,1.014,2.229,2.229,0,0,1,2.1,0H12.968a2.739,2.739,0,0,1,1.1.684q2.676,2.7,5.379,5.377A2.347,2.347,0,0,1,20.2,7.854c-.014,4.735,0,9.469-.013,14.2A2.554,2.554,0,0,1,17.3,24.921c-1.63.008-3.26-.006-4.889.005-.818.006-.9.087-.912.88s-.035,1.605.012,2.406c.058.99.428,1.357,1.4,1.359,6.7.012,13.4,0,20.1.011a1.271,1.271,0,0,0,1.223-.647A4.073,4.073,0,0,1,35.5,27.7a2.8,2.8,0,0,0,.384-2.574c-.211-.249-.52-.2-.8-.2-1.552-.008-3.1,0-4.656-.005-2.013-.008-3.087-1.07-3.1-3.141-.025-4.295-.007-8.59-.008-12.884q0-2.872,0-5.744a4.5,4.5,0,0,1,.4-1.959A2.149,2.149,0,0,1,29.424,0H40.447a3.456,3.456,0,0,1,1.326.908c1.619,1.636,3.241,3.269,4.883,4.881a3.261,3.261,0,0,1,1.023,2.493c-.024,4.422-.014,8.845-.007,13.267a3.813,3.813,0,0,1-.528,2.152,2.49,2.49,0,0,1-2.2,1.219c-1.629,0-3.258,0-4.887,0-1.031,0-1.031.052-1.092,1.109a1.817,1.817,0,0,0,.969,2,1.652,1.652,0,0,1,.692.72,1.622,1.622,0,0,0,1.674.837c6.49-.02,12.98-.01,19.471-.013,1.383,0,1.7-.313,1.728-1.672.012-.7.014-1.4,0-2.095-.017-.79-.1-.877-.914-.883-1.629-.013-3.258,0-4.887-.006a2.554,2.554,0,0,1-2.885-2.854q-.013-9.659,0-19.319c0-1.645.446-2.256,1.939-2.749H67.771a2.7,2.7,0,0,1,1.1.688c1.747,1.764,3.5,3.526,5.269,5.266A2.7,2.7,0,0,1,75,8.025c-.018,4.6,0,9.209-.013,13.814-.006,2.095-1.009,3.071-3.113,3.079-1.371.005-2.742,0-4.113,0-1.463,0-1.463,0-1.464,1.426,0,.7-.006,1.4,0,2.1a3.975,3.975,0,0,1-4,3.956c-6.621-.071-13.242-.014-19.864-.038a1.739,1.739,0,0,0-1.836.965c-.332.69-1.107.91-1.617,1.415a1.329,1.329,0,0,0-.17.9c0,2.378-.058,4.757.023,7.132.042,1.234.183,2.467.164,3.706a.544.544,0,0,0,.6.633c.232,0,.465.009.7.009H58.352a1.1,1.1,0,0,0,.155,0c.365-.052.881.168,1.045-.264s-.175-.833-.461-1.173a2.187,2.187,0,0,0-1.807-.717q-3.76,0-7.52,0-3.062,0-6.124,0a5.738,5.738,0,0,1-1.158-.079c-.96-.2-1.283-.592-1.309-1.6.261-.9.537-1.106,1.582-1.109,3.722-.011,7.444,0,11.166,0,1.189,0,2.378,0,3.567,0a4.97,4.97,0,0,1,4.887,3.869c.258,1.1.258,1.1,1.363,1.1,1.758,0,3.515,0,5.273,0,2.335.009,3.465,1.515,2.741,3.755-1.485,4.6-3.048,9.175-4.571,13.763q-1.771,5.336-3.557,10.668a7.825,7.825,0,0,1-1.268,2.554A4.313,4.313,0,0,1,59.232,79.5" transform="translate(0)"/>
    <path id="Trazado_262682" data-name="Trazado 262682" d="M86.253,260.012q1.484-4.519,2.97-9.037,1.52-4.59,3.061-9.174a2.6,2.6,0,0,1,2.909-2.125q20.943-.005,41.887-.009c.5,0,.762,0,.546.646q-4.04,12.03-8.042,24.073a1.148,1.148,0,0,1-.112.2,1.622,1.622,0,0,1-1.04.227c-12.228,0-24.455.035-36.682-.027a5.836,5.836,0,0,1-5.4-3.568,1.7,1.7,0,0,1-.1-1.205" transform="translate(-68.34 -190.038)" fill="#ebbc82"/>
    <path id="Trazado_262683" data-name="Trazado 262683" d="M95.207,191.615a2.22,2.22,0,0,1,1.7.792c.882.872,1.757,1.753,2.633,2.63a4.563,4.563,0,0,0,2.771,1.414c.453.049.524.256.533.652.051,2.088.06,2.088-2,2.088q-3.682,0-7.366,0c-2.815,0-4.4,1.158-5.294,3.844q-1.96,5.864-3.927,11.726c-.492-.23-.368-.693-.37-1.077-.018-2.613-.009-5.226-.009-7.838q0-6.4,0-12.805a5,5,0,0,1,.049-1.006c.056-.275.17-.48.5-.477,3.593.034,7.186-.071,10.778.056" transform="translate(-66.504 -151.884)" fill="#fedf9e"/>
    <path id="Trazado_262684" data-name="Trazado 262684" d="M288.074,11.244c1.963-.009,3.927-.009,5.89-.035.382-.005.477.125.47.487-.021,1.085-.018,2.171,0,3.257a2.39,2.39,0,0,0,2.494,2.478c1.059.012,2.119.013,3.178,0,.36-.006.556.027.553.482-.027,3.566-.026,7.132-.034,10.7-.178.373-.53.384-.864.385-2.635.013-5.272.041-7.907-.013a3.924,3.924,0,0,1-2.25-.746c-.229-.166-.52-.365-.407-.678.1-.267.43-.243.686-.246,1.6-.017,3.2,0,4.806-.009a2.4,2.4,0,0,0,.992-.1c.513-.227.917-.558.772-1.178s-.683-.74-1.218-.749c-1.862-.034-3.724-.008-5.586-.016-.524,0-.887.411-1.385.441a.655.655,0,0,1-.394-.621,26.831,26.831,0,0,1,.006-3.179.539.539,0,0,1,.252-.456c.874.921,2.013.724,3.1.729,1.186.005,2.371,0,3.557,0a4.55,4.55,0,0,0,.772-.034c.5-.087.9-.328.913-.882a.881.881,0,0,0-.947-.921c-2.035-.073-4.071-.052-6.107-.014-.569.011-.773.678-1.328.686a1.258,1.258,0,0,1-.26-1.015q-.014-3.863,0-7.726a1.316,1.316,0,0,1,.249-1.02" transform="translate(-228.218 -8.888)" fill="#ebe9eb"/>
    <path id="Trazado_262685" data-name="Trazado 262685" d="M156.125,11.235c1.936-.008,3.872,0,5.807-.035.446-.007.5.181.494.551-.019.981-.012,1.962-.005,2.943a2.459,2.459,0,0,0,2.242,2.751,26.317,26.317,0,0,0,3.323.041c.528-.006.645.17.642.666q-.029,5.036,0,10.072c0,.552-.221.758-.715.761-2.762.015-5.525.072-8.286-.033a3.61,3.61,0,0,1-1.956-.67c-.238-.167-.513-.384-.449-.673.073-.333.445-.3.722-.3,1.575-.021,3.15,0,4.725-.011a2.473,2.473,0,0,0,.992-.1c.5-.2.863-.529.756-1.108a1.042,1.042,0,0,0-1.156-.826c-1.884-.031-3.769,0-5.654-.017-.592,0-.9.609-1.477.566a.8.8,0,0,1-.233-.626c-.029-.992-.032-1.984,0-2.976a.728.728,0,0,1,.253-.612c1.042.742,2.239.56,3.4.565,1.212,0,2.424.015,3.635,0,.813-.013,1.221-.314,1.239-.867.018-.531-.442-.965-1.168-.983-1.882-.046-3.764-.012-5.646-.019-.587,0-.908.593-1.484.554a1.282,1.282,0,0,1-.257-1.017q-.014-3.785,0-7.57a1.32,1.32,0,0,1,.248-1.02" transform="translate(-123.593 -8.88)" fill="#ebe9eb"/>
    <path id="Trazado_262686" data-name="Trazado 262686" d="M24.171,11.227c1.913-.009,3.826,0,5.739-.036.436-.007.505.158.5.537-.022,1.008-.013,2.017-.006,3.026a2.447,2.447,0,0,0,2.643,2.663c1.034,0,2.069.016,3.1-.007.374-.008.483.109.48.48-.025,3.619-.033,7.239-.046,10.858a1.284,1.284,0,0,1-.949.239c-2.474,0-4.948.016-7.422,0a4.345,4.345,0,0,1-2.491-.712c-.236-.163-.51-.371-.443-.672.077-.34.441-.3.713-.3,1.546-.02,3.093,0,4.639-.011a2.4,2.4,0,0,0,.99-.1c.5-.223.936-.518.788-1.155s-.684-.78-1.26-.783c-1.777-.01-3.554.012-5.331-.012-.6-.008-1.049.4-1.62.423a.765.765,0,0,1-.247-.623c-.031-.9-.034-1.795,0-2.692a.7.7,0,0,1,.267-.609c2.39.825,4.855.283,7.285.383a.829.829,0,0,0,.917-.856c.01-.55-.354-.83-.864-.935a4.249,4.249,0,0,0-.851-.045c-.931,0-1.862,0-2.792,0a8.8,8.8,0,0,0-3.718.406,1.027,1.027,0,0,1-.265-.857q-.022-3.868,0-7.736a1.12,1.12,0,0,1,.245-.868" transform="translate(-18.965 -8.873)" fill="#e6e4e7"/>
    <path id="Trazado_262687" data-name="Trazado 262687" d="M78.781,337.913a5.533,5.533,0,0,0,3.772,4.231,4.892,4.892,0,0,0,1.888.336q18.236-.018,36.473-.008c.362,0,.724.009,1.086.014-.456,1.962-1.267,2.624-3.222,2.624q-19.921,0-39.843,0a4.942,4.942,0,0,1-1-.057c-1.168-.244-1.375-.613-1-1.732.61-1.8,1.229-3.6,1.844-5.405" transform="translate(-60.868 -267.939)" fill="#e1a875"/>
    <path id="Trazado_262688" data-name="Trazado 262688" d="M147.256,21.6a14.9,14.9,0,0,0,.007,4.186.546.546,0,0,1,.165.254c.349.957.482,1.06,1.513,1.067,1.649.012,3.3,0,4.946.008.352,0,.731-.064,1.015.243-.238.232-.537.14-.811.141-1.905.008-3.811,0-5.863,0a3.192,3.192,0,0,0,2.641,1.215c2.709.056,5.421.012,8.131.027.471,0,.551-.212.549-.614-.01-3.3-.014-6.61,0-9.914,0-.5-.144-.689-.658-.667-.824.035-1.652.015-2.478.006-.25,0-.521.078-.739-.127,1.163-.008,2.327,0,3.489-.034.426-.012.514.151.513.541q-.021,6.4-.008,12.8c0,.42-.15.52-.541.519q-7.021-.016-14.043,0c-.469,0-.548-.179-.548-.592q.015-9.428,0-18.856c0-.443.07-.67.586-.63.668.051,1.343.028,2.014.036q0,4.431,0,8.862c0,.249-.077.519.124.737a.487.487,0,0,1-.01.782" transform="translate(-114.609 -8.861)" fill="#d9d7da"/>
    <path id="Trazado_262689" data-name="Trazado 262689" d="M15.026,11.249q0,4.318,0,8.635c0,.273-.093.57.13.811a1.483,1.483,0,0,1-.014,1.09,11.9,11.9,0,0,0,.018,3.879.863.863,0,0,1,.119.364c.171.878.4,1.093,1.3,1.105,1.681.023,3.363,0,5.044.013.352,0,.736-.068,1.012.256-.245.215-.543.124-.818.125-1.852.008-3.7,0-5.722,0a3.568,3.568,0,0,0,2.9,1.23c2.814.029,5.628.01,8.442.01.011.7.007,1.394.039,2.089.016.357-.139.425-.456.425q-7.091-.011-14.183,0c-.408,0-.45-.176-.45-.511q.011-9.534,0-19.069c0-.362.092-.5.473-.487.722.033,1.445.022,2.168.029" transform="translate(-9.82 -8.895)" fill="#e1dee1"/>
    <path id="Trazado_262690" data-name="Trazado 262690" d="M279.394,11.231q0,4.47,0,8.941c0,.273-.092.57.126.812a.291.291,0,0,1,0,.471,19.018,19.018,0,0,0-.089,3.889c0,.1.146.2.224.3a.555.555,0,0,1,.123.276c.2,1.011.4,1.189,1.436,1.2,1.645.015,3.29,0,4.935.009.35,0,.73-.064,1.009.251-.241.226-.54.133-.814.134-1.9.008-3.81,0-5.843,0a3.319,3.319,0,0,0,2.643,1.215c2.735.058,5.473.019,8.209.023a1.1,1.1,0,0,0,.589-.156c.008.724-.008,1.449.032,2.17.025.437-.162.5-.541.5q-7.021-.015-14.043,0c-.416,0-.517-.128-.516-.527q.017-9.506,0-19.012c0-.384.074-.563.506-.537.67.041,1.343.027,2.015.035" transform="translate(-219.539 -8.876)" fill="#d9d7da"/>
    <path id="Trazado_262691" data-name="Trazado 262691" d="M86.157,191.561c-3.382.01-6.764.043-10.145.014-.736-.006-.954.177-.951.934.029,7.127.016,14.254.021,21.381,0,.274-.093.572.121.818l-2.6,7.906-.145-.02V221.8q0-13.577,0-27.154c0-2.207.95-3.161,3.162-3.164q4.887-.006,9.774,0c.255,0,.509.048.763.074" transform="translate(-57.453 -151.83)" fill="#f5d08f"/>
    <path id="Trazado_262692" data-name="Trazado 262692" d="M186.744,166.8c.013,2.7.051,5.4.023,8.1-.007.677.166.967.852.841.58-.106,1.232.253,1.747-.27.03,1.114.364,1.44,1.532,1.441,4.734,0,9.468,0,14.2,0a2.62,2.62,0,0,1,2.863,2.074c.1.464-.022.587-.481.586q-10.127-.016-20.255,0c-.324,0-.541-.036-.539-.449q.018-6.128.015-12.256c0-.021.027-.043.042-.064" transform="translate(-148.028 -132.26)" fill="#fedf9e"/>
    <path id="Trazado_262693" data-name="Trazado 262693" d="M177.384,144.818a1.306,1.306,0,0,1-2.611.024,1.306,1.306,0,1,1,2.611-.024" transform="translate(-138.581 -113.776)" fill="#b4afb5"/>
    <path id="Trazado_262694" data-name="Trazado 262694" d="M66.453,19.6,68.476,21.7s-.035.053-.071.054c-2.07.067-2.07.067-1.952-2.147" transform="translate(-52.659 -15.544)" fill="#d6d4d6"/>
    <path id="Trazado_262695" data-name="Trazado 262695" d="M330.964,19.42l2.218,2.2c-.724,0-1.318,0-1.912,0-.234,0-.311-.1-.309-.324.007-.58,0-1.161,0-1.873" transform="translate(-262.427 -15.399)" fill="#d7d5d8"/>
    <path id="Trazado_262696" data-name="Trazado 262696" d="M200.638,21.764c-.074.007-.148.02-.222.021-1.959.033-1.959.033-1.731-2.149.4.393.723.731,1.067,1.046s.692.593,1.04.889l-.154.193" transform="translate(-157.461 -15.57)" fill="#d9d7da"/>
    <path id="Trazado_262697" data-name="Trazado 262697" d="M241.106,320.942c-1.342,0-2.684.007-4.026,0-.91-.006-1.421-.434-1.425-1.164s.487-1.159,1.409-1.161q4.1-.007,8.206,0c.856,0,1.376.421,1.406,1.1.031.707-.524,1.211-1.39,1.219-1.393.013-2.787,0-4.18,0" transform="translate(-186.856 -252.634)"/>
    <path id="Trazado_262698" data-name="Trazado 262698" d="M229.108,342.636c1.393,0,2.787-.006,4.18,0,.838,0,1.365.452,1.376,1.14a1.2,1.2,0,0,1-1.345,1.183q-4.18.016-8.361,0a1.159,1.159,0,0,1-1.316-1.19c.012-.713.5-1.127,1.362-1.132,1.368-.008,2.735,0,4.1,0" transform="translate(-177.331 -271.682)"/>
    <path id="Trazado_262699" data-name="Trazado 262699" d="M289.65,55.41q0-.235,0-.47a1.353,1.353,0,0,1,1.441-.924c1.884.017,3.768,0,5.651.008.9,0,1.441.444,1.456,1.151s-.531,1.171-1.416,1.174c-1.91.006-3.82-.014-5.729.01a1.293,1.293,0,0,1-1.408-.949" transform="translate(-229.67 -42.83)"/>
    <path id="Trazado_262700" data-name="Trazado 262700" d="M297.449,80.389c-2.061,0-4.122,0-6.182-.012-1.207-.005-1.618-.547-1.321-1.723a1.49,1.49,0,0,1,1.347-.6q2.791.02,5.582,0c.686,0,1.256.185,1.439.9s-.216,1.172-.865,1.433" transform="translate(-229.831 -61.888)"/>
    <path id="Trazado_262701" data-name="Trazado 262701" d="M165.268,80.378c-2.078,0-4.156,0-6.234-.005-1.137,0-1.5-.419-1.406-1.567a1.449,1.449,0,0,1,1.405-.76c1.879.017,3.758.01,5.637,0,.646,0,1.191.169,1.383.854a1.166,1.166,0,0,1-.785,1.474" transform="translate(-124.975 -61.884)"/>
    <path id="Trazado_262702" data-name="Trazado 262702" d="M157.654,55.565q0-.391.01-.782a1.41,1.41,0,0,1,1.4-.768c1.881.017,3.763,0,5.645.008.9,0,1.432.443,1.441,1.156.01.729-.507,1.167-1.408,1.17-1.908.006-3.815-.011-5.722.009a1.3,1.3,0,0,1-1.364-.792" transform="translate(-125.007 -42.829)"/>
    <path id="Trazado_262703" data-name="Trazado 262703" d="M25.343,55.725a1.487,1.487,0,0,1,.014-1.089,1.52,1.52,0,0,1,1.345-.613c1.862.017,3.724,0,5.586.008.971,0,1.494.431,1.483,1.189-.011.735-.508,1.131-1.445,1.134-1.888,0-3.776-.012-5.664.009a1.413,1.413,0,0,1-1.32-.638" transform="translate(-20.018 -42.836)"/>
    <path id="Trazado_262704" data-name="Trazado 262704" d="M32.925,80.4c-2.052,0-4.1,0-6.155-.015-1.177-.006-1.614-.586-1.315-1.722a1.541,1.541,0,0,1,1.346-.6c1.88.014,3.761.009,5.641,0,.687,0,1.248.21,1.4.941a1.151,1.151,0,0,1-.913,1.4" transform="translate(-20.111 -61.894)"/>
  </g>
</svg>
