<svg id="Grupo_149719" data-name="Grupo 149719" xmlns="http://www.w3.org/2000/svg" xmlns:xlink="http://www.w3.org/1999/xlink" width="79.441" height="79.5" viewBox="0 0 79.441 79.5">
  <defs>
    <clipPath id="clip-path">
      <rect id="Rectángulo_90554" data-name="Rectángulo 90554" width="79.442" height="79.5" fill="none"/>
    </clipPath>
  </defs>
  <g id="Grupo_149719-2" data-name="Grupo 149719" clip-path="url(#clip-path)">
    <path id="Trazado_262780" data-name="Trazado 262780" d="M54.336,79.5a1.434,1.434,0,0,0-.252-.148,3.84,3.84,0,0,1-2.8-3.832q-.033-3.686,0-7.373a3.842,3.842,0,0,1,4.053-4.024c1.834,0,3.667-.02,5.5.011.517.009.7-.09.7-.661-.032-2.975-.037-5.95,0-8.925.008-.626-.208-.7-.742-.692-1.781.031-3.563.018-5.345.01A3.9,3.9,0,0,1,51.276,49.7q-.014-3.57,0-7.14a3.844,3.844,0,0,1,4.075-4.079c1.833-.011,3.666-.014,5.5.006.465.005.682-.062.676-.618q-.044-4.54,0-9.08c0-.514-.179-.579-.621-.579-1.56,0-1.573-.012-2.085-1.555-.208-.625-.486-.817-1.127-.486-1.481.767-1.492.743-2.693-.463-1.094-1.1-2.179-2.207-3.291-3.288a.66.66,0,0,1-.186-.919c.875-1.781.864-1.81-.986-2.424-.47-.156-.547-.4-.544-.835.01-1.589,0-1.589-1.6-1.589-4.751,0-9.5.011-14.253-.014-.6,0-.79.138-.773.761.03,1.1.256,2.29-.324,3.276A1.705,1.705,0,0,0,33.05,22.9a1.875,1.875,0,0,1,.282,1.032,44.818,44.818,0,0,1-.01,5.969,3.779,3.779,0,0,1-4.054,3.452c-3.512.015-7.023.018-10.535-.01-.569,0-.726.122-.724.713q.036,9.546,0,19.092c0,.559.1.755.708.738,1.506-.042,1.507-.007,1.975,1.393.306.917.426.964,1.318.524,1.313-.648,1.313-.649,2.325.365,1.168,1.171,2.323,2.355,3.512,3.5a.629.629,0,0,1,.146.927c-.192.3-.307.654-.492.963-.37.617-.143.92.484,1.13,1.554.519,1.549.534,1.549,2.175,0,1.552-.018,3.1.011,4.656a.738.738,0,0,1-.612.863c-1.845.609-2.041.3-.965,2.318a.693.693,0,0,1-.124,1q-2.1,2.014-4.106,4.116a.689.689,0,0,1-.992.121c-1.993-1.075-1.7-.859-2.337.972-.068.193-.112.395-.167.593H13.269c-.463-.261-.486-.768-.652-1.191-.284-.724-.457-.809-1.157-.52-.215.089-.421.2-.631.3a.985.985,0,0,1-1.213-.169Q7.5,75.862,5.45,73.747a.854.854,0,0,1-.173-1.064c.08-.162.156-.327.234-.49.486-1.01.442-1.114-.62-1.494s-1.137-.478-1.141-1.629q-.008-2.407,0-4.813c0-1.17.074-1.258,1.211-1.653.146-.051.293-.1.438-.155a.525.525,0,0,0,.323-.8c-.051-.119-.105-.236-.16-.353-.621-1.324-.621-1.325.436-2.386,1.114-1.117,2.241-2.22,3.337-3.354a1.205,1.205,0,0,1,1.646-.28c1.165.638,1.377.769,1.806-.729a1.2,1.2,0,0,1,1.353-.892c1.07-.008,1.074-.03,1.074-1.1q0-8.928,0-17.856c0-1.06-.035-1.094-1.082-1.095q-4.843,0-9.686,0a4.79,4.79,0,0,1-3.167-1.062,3.436,3.436,0,0,1-1.263-2.8c.009-1.863,0-3.727,0-5.59a3.435,3.435,0,0,1,.441-1.863.872.872,0,0,0-.006-1.014,3.383,3.383,0,0,1-.437-1.862q0-2.679,0-5.357a3.9,3.9,0,0,1,.438-2.021,1.015,1.015,0,0,0-.027-1.1A3.562,3.562,0,0,1,.019,9.07C.025,7.336.081,5.6,0,3.869A3.578,3.578,0,0,1,3.2,0H30.161A3.9,3.9,0,0,1,33.62,4.126c.038,1.552.021,3.1,0,4.657a4.149,4.149,0,0,1-.548,2.081,1.167,1.167,0,0,0,.012,1.37,1.573,1.573,0,0,1,.255.564c.243,1.316.6,1.113,1.632,1.114q6.857.008,13.713,0c1.071,0,1.071,0,1.1-1.07.024-.963.152-1.142,1.056-1.471.218-.08.441-.147.658-.232a.518.518,0,0,0,.315-.8c-.043-.094.024.012-.036-.068-.9-1.218-.4-2.095.6-2.973,1.047-.918,1.981-1.965,2.974-2.947.73-.721.892-.741,1.837-.287l.139.069c1.015.492,1.1.458,1.481-.625.357-1,.449-1.076,1.5-1.079,1.7-.006,3.409.014,5.113-.009a1.194,1.194,0,0,1,1.353.99,3.43,3.43,0,0,0,.15.441c.267.676.464.785,1.108.453,1.456-.751,1.39-.748,2.623.49,1.058,1.062,2.1,2.138,3.184,3.177a1.164,1.164,0,0,1,.269,1.644,3.426,3.426,0,0,0-.24.487c-.284.66-.218.909.454,1.122,1.52.48,1.456.474,1.457,2.163,0,1.475,0,2.95,0,4.425,0,1.189-.035,1.228-1.128,1.618-.17.06-.34.123-.508.19a.578.578,0,0,0-.343.874c.04.1-.026-.01.034.069.883,1.166.365,1.984-.579,2.82-1.082.958-2.052,2.04-3.084,3.056-.676.665-.868.689-1.707.29-.163-.078-.327-.155-.486-.241-.511-.276-.832-.116-1,.421-.054.173-.115.344-.175.514-.328.935-.46,1.03-1.455,1.055-1.028.026-1.031.026-1.032,1.053q0,3.843,0,7.685a1.294,1.294,0,0,0,.1.782c.3-.115.359-.415.481-.647.348-.664.653-1.352,1.012-2.01a3.873,3.873,0,0,1,3.514-2.159c1.988-.035,3.977-.013,5.965-.008a3.724,3.724,0,0,1,4.047,3.319V50.93a3.931,3.931,0,0,1-4.3,3.174c-3.25.012-6.5,0-9.749,0-1,0-1.06.057-1.061,1.042q-.007,3.837,0,7.674a1.23,1.23,0,0,0,.138.789,11.171,11.171,0,0,0,1.125-2.056A5.143,5.143,0,0,1,67.2,59.513a4.35,4.35,0,0,1,2.482-.736c1.909,0,3.817-.006,5.725,0a3.748,3.748,0,0,1,4.037,3.33V76.55a3.443,3.443,0,0,1-3.1,2.95Z" transform="translate(0)"/>
    <path id="Trazado_262781" data-name="Trazado 262781" d="M26.844,119.185q-6.159,0-12.318,0c-1.311,0-1.7-.389-1.7-1.715-.006-1.449-.009-2.9,0-4.347.008-1.177.424-1.6,1.575-1.6q12.511,0,25.022,0c1.115,0,1.533.43,1.538,1.554q.01,2.251,0,4.5c0,1.2-.419,1.606-1.645,1.607q-6.236,0-12.473,0" transform="translate(-10.164 -88.422)" fill="#fbd670"/>
    <path id="Trazado_262782" data-name="Trazado 262782" d="M26.853,20.1q-6.159,0-12.318,0c-1.313,0-1.709-.392-1.714-1.708-.006-1.475-.012-2.95,0-4.425.011-1.111.445-1.543,1.56-1.544q12.512-.008,25.024,0c1.118,0,1.545.438,1.55,1.549q.011,2.29,0,4.58c-.006,1.1-.448,1.545-1.554,1.547q-6.275.006-12.551,0" transform="translate(-10.16 -9.85)" fill="#fbd670"/>
    <path id="Trazado_262783" data-name="Trazado 262783" d="M26.9,61.977q6.159,0,12.317,0c1.367,0,1.726.369,1.727,1.758,0,1.475.008,2.949,0,4.424-.007,1.019-.455,1.485-1.455,1.485q-12.628.008-25.255,0a1.246,1.246,0,0,1-1.417-1.37c-.027-1.6-.022-3.208,0-4.812.012-1.055.459-1.481,1.539-1.482q6.275-.01,12.55,0" transform="translate(-10.144 -49.14)" fill="#fbd670"/>
    <path id="Trazado_262784" data-name="Trazado 262784" d="M47.466,290.908a1.124,1.124,0,0,1-.253-.121c-1.333-1.067-2.321.293-3.459.531-.332.07-.334.66-.445,1.022a.569.569,0,0,1-.666.477,7.812,7.812,0,0,0-1.238,0c-.984.09-1.86.05-1.969-1.244-.02-.245-.219-.317-.426-.387a4.862,4.862,0,0,1-1.076-.42,1.657,1.657,0,0,0-2.106,0c-.279.217-.505.146-.734-.1-.331-.362-.688-.7-1.034-1.048-.881-.884-.88-.883-.394-2.072.065-.16.163-.308.059-.506a21.9,21.9,0,0,1-.9-2.133c-.171-.432-.689-.4-1.062-.522a.617.617,0,0,1-.519-.709c.033-.723.034-1.449,0-2.171-.02-.437.11-.681.556-.753a1.4,1.4,0,0,0,1.311-1.278,1.394,1.394,0,0,1,.239-.567,1.522,1.522,0,0,0-.007-1.968c-.266-.34-.146-.581.14-.847.53-.492,1.047-1,1.532-1.536.29-.319.554-.426.915-.147a1.465,1.465,0,0,0,1.892.007,1.423,1.423,0,0,1,.563-.247A1.468,1.468,0,0,0,39.7,272.8c.065-.42.307-.529.705-.514.722.027,1.446.028,2.167,0,.391-.016.663.074.718.492a1.523,1.523,0,0,0,1.375,1.414,1.752,1.752,0,0,1,.706.3,1.217,1.217,0,0,0,1.61-.044c.438-.329.759-.216,1.1.189a13.742,13.742,0,0,0,1.419,1.428.6.6,0,0,1,.131.927,1.416,1.416,0,0,0-.019,1.824,1.6,1.6,0,0,1,.263.64,1.449,1.449,0,0,0,1.3,1.289c.454.075.578.334.548.763a6.91,6.91,0,0,0,0,1.317c.117.951-.043,1.675-1.18,1.787-.248.024-.382.2-.455.459a4.124,4.124,0,0,1-.418,1.078,1.673,1.673,0,0,0,.008,2.112.446.446,0,0,1-.053.678c-.6.572-1.171,1.167-1.755,1.751a.518.518,0,0,1-.415.221" transform="translate(-24.766 -215.888)" fill="#b3dc7e"/>
    <path id="Trazado_262785" data-name="Trazado 262785" d="M272.286,28.936a.794.794,0,0,1-.089.214c-1.091,1.319.212,2.335.467,3.473.088.392.646.358,1,.471.4.127.6.322.55.773a5.679,5.679,0,0,0,0,1.163c.1.991.039,1.853-1.254,1.953-.258.02-.351.265-.424.5a4.147,4.147,0,0,1-.348.942,1.762,1.762,0,0,0-.008,2.253c.2.246.092.46-.13.663-.362.332-.7.691-1.046,1.038-.9.9-.905.914-2.074.4a.733.733,0,0,0-.72.037,3.978,3.978,0,0,1-.983.447,1.663,1.663,0,0,0-1.5,1.494c-.047.372-.29.426-.611.42-.749-.015-1.5-.035-2.246.007-.452.025-.672-.136-.739-.565a1.391,1.391,0,0,0-1.222-1.276,2.055,2.055,0,0,1-.779-.328,1.33,1.33,0,0,0-1.693.045c-.422.31-.726.2-1.036-.181a11.824,11.824,0,0,0-.87-.884c-.912-.914-.913-.914-.42-2.086.069-.163.182-.306.075-.506a12.485,12.485,0,0,1-.9-2.139c-.091-.286-.392-.326-.639-.367-.781-.131-1.042-.567-.94-1.346a8.408,8.408,0,0,0,0-1.705c-.034-.453.144-.689.564-.749a1.355,1.355,0,0,0,1.266-1.227,1.638,1.638,0,0,1,.265-.64,1.453,1.453,0,0,0-.008-1.9c-.281-.363-.159-.643.168-.92s.626-.616.937-.927c.9-.9.9-.913,2.066-.415a.756.756,0,0,0,.725-.028,7.108,7.108,0,0,1,1.713-.7c.562-.128.574-.632.678-1.023.135-.513.362-.712.908-.666a15.007,15.007,0,0,0,2.013,0c.43-.022.686.089.756.545a1.453,1.453,0,0,0,1.271,1.321,1.279,1.279,0,0,1,.5.194,1.628,1.628,0,0,0,2.112-.011.437.437,0,0,1,.664.081c.567.6,1.163,1.176,1.747,1.763.108.109.238.206.22.388" transform="translate(-201.151 -19.541)" fill="#b3dc7e"/>
    <path id="Trazado_262786" data-name="Trazado 262786" d="M271.5,346.647c3.586,0,7.172.011,10.758-.012.554,0,.784.1.751.715-.053.979,0,1.964-.019,2.946-.021,1.015-.464,1.469-1.477,1.47q-10.022.013-20.045,0c-1.06,0-1.487-.456-1.495-1.523-.007-.982.035-1.966-.015-2.946-.03-.581.2-.664.708-.661,3.612.02,7.223.011,10.835.011" transform="translate(-206.118 -274.843)" fill="#e5e8ec"/>
    <path id="Trazado_262787" data-name="Trazado 262787" d="M271.462,222.723c3.562,0,7.125.025,10.687-.02.746-.009.91.23.869.91-.054.9,0,1.81-.017,2.715-.018,1.074-.45,1.525-1.5,1.526q-10.029.01-20.059,0c-1.016,0-1.45-.458-1.46-1.478s.028-2.019-.014-3.026c-.022-.523.152-.641.65-.638,3.614.02,7.228.011,10.842.011" transform="translate(-206.126 -176.579)" fill="#e5e8ec"/>
    <path id="Trazado_262788" data-name="Trazado 262788" d="M271.456,180.975c-3.562,0-7.125-.017-10.687.016-.633.006-.839-.139-.816-.8.049-1.412.4-1.81,1.789-1.811,3.2,0,6.4-.021,9.6.016a1.21,1.21,0,0,0,1.349-.808c.487-1.136,1.112-2.213,1.632-3.337a1.607,1.607,0,0,1,1.653-1.011c1.781.022,3.562,0,5.343.008,1.21,0,1.656.432,1.663,1.617.011,1.811-.017,3.621.015,5.431.01.552-.169.69-.7.687-3.614-.021-7.228-.011-10.842-.011" transform="translate(-206.112 -137.362)" fill="#fe816d"/>
    <path id="Trazado_262789" data-name="Trazado 262789" d="M271.324,304.815c-3.458,0-6.916.009-10.374-.013-.365,0-.975.279-1.069-.217a2,2,0,0,1,.344-1.975,1.808,1.808,0,0,1,1.376-.38c3.252,0,6.5-.02,9.755.018a1.076,1.076,0,0,0,1.16-.738c.524-1.15,1.138-2.258,1.672-3.4a1.567,1.567,0,0,1,1.577-1c1.832.015,3.664,0,5.5.008,1.147.008,1.579.449,1.586,1.611.011,1.81-.019,3.621.016,5.43.011.56-.176.68-.7.677-3.613-.022-7.226-.011-10.839-.011" transform="translate(-205.976 -235.568)" fill="#fe816e"/>
    <path id="Trazado_262790" data-name="Trazado 262790" d="M75.843,126.359c-1.27,0-1.27,0-1.27-1.313,0-1.278,0-1.278,1.3-1.278s1.283,0,1.283,1.305c0,1.286,0,1.286-1.311,1.286" transform="translate(-59.128 -98.134)" fill="#030301"/>
    <path id="Trazado_262791" data-name="Trazado 262791" d="M27.733,125.11c0,1.248,0,1.248-1.269,1.248-1.3,0-1.3,0-1.3-1.274,0-1.318,0-1.318,1.329-1.318,1.244,0,1.244,0,1.244,1.343" transform="translate(-19.949 -98.134)" fill="#030301"/>
    <path id="Trazado_262792" data-name="Trazado 262792" d="M49.866,125.073c0-1.305,0-1.305,1.345-1.305,1.233,0,1.233,0,1.233,1.2,0,1.39,0,1.39-1.361,1.39-1.217,0-1.217,0-1.217-1.286" transform="translate(-39.538 -98.134)" fill="#030301"/>
    <path id="Trazado_262793" data-name="Trazado 262793" d="M74.573,26.035c0-1.289,0-1.289,1.277-1.289,1.3,0,1.3,0,1.3,1.272a3.727,3.727,0,0,0,0,.54c.089.6-.133.869-.756.77a3.464,3.464,0,0,0-.539,0c-1.291,0-1.291,0-1.291-1.289" transform="translate(-59.128 -19.621)" fill="#030301"/>
    <path id="Trazado_262794" data-name="Trazado 262794" d="M51.2,24.746c1.249,0,1.249,0,1.249,1.25,0,1.328,0,1.328-1.345,1.328-1.233,0-1.233,0-1.233-1.268,0-1.31,0-1.31,1.329-1.31" transform="translate(-39.539 -19.621)" fill="#030301"/>
    <path id="Trazado_262795" data-name="Trazado 262795" d="M26.418,24.746c1.315,0,1.315,0,1.315,1.336,0,1.242,0,1.242-1.275,1.242-1.3,0-1.3,0-1.3-1.277V25.97c0-1.224,0-1.224,1.258-1.224" transform="translate(-19.949 -19.621)" fill="#030301"/>
    <path id="Trazado_262796" data-name="Trazado 262796" d="M74.573,75.531c0-1.276,0-1.276,1.3-1.276s1.285,0,1.285,1.3,0,1.289-1.309,1.289c-1.272,0-1.272,0-1.272-1.311" transform="translate(-59.128 -58.876)" fill="#030302"/>
    <path id="Trazado_262797" data-name="Trazado 262797" d="M99.28,75.52c0-1.265,0-1.265,1.232-1.265,1.352,0,1.352,0,1.352,1.387,0,1.2,0,1.2-1.166,1.2h-.077c-1.341,0-1.341,0-1.341-1.322" transform="translate(-78.718 -58.876)" fill="#030301"/>
    <path id="Trazado_262798" data-name="Trazado 262798" d="M126.575,75.493c0,1.349,0,1.349-1.326,1.349-1.26,0-1.26,0-1.26-1.251,0-1.336,0-1.336,1.318-1.336,1.269,0,1.269,0,1.269,1.238" transform="translate(-98.31 -58.876)" fill="#030301"/>
    <path id="Trazado_262799" data-name="Trazado 262799" d="M49.883,297.38a6.4,6.4,0,1,1,6.409,6.413,6.446,6.446,0,0,1-6.409-6.413" transform="translate(-39.552 -230.695)"/>
    <path id="Trazado_262800" data-name="Trazado 262800" d="M278.692,56.2a6.4,6.4,0,1,1,6.423-6.374,6.419,6.419,0,0,1-6.423,6.374" transform="translate(-215.91 -34.416)"/>
    <path id="Trazado_262801" data-name="Trazado 262801" d="M336.574,188.321c-.257,0-.516.015-.772,0-.581-.04-1.473.264-1.672-.127a5.35,5.35,0,0,1-.124-2.114c-.009-.32.216-.293.423-.293,1.415,0,2.83.006,4.245-.005.319,0,.494.082.448.431a.435.435,0,0,0,0,.077c.1,2.034.1,2.034-1.931,2.034Z" transform="translate(-264.797 -147.303)"/>
    <path id="Trazado_262802" data-name="Trazado 262802" d="M336.506,312.121c-.335,0-.671.018-1,0-.5-.034-1.27.244-1.46-.114a4.952,4.952,0,0,1-.107-2.2c0-.275.229-.226.4-.226,1.442,0,2.884,0,4.327-.007.315,0,.364.137.388.415.184,2.135.19,2.134-1.924,2.134Z" transform="translate(-264.716 -245.456)"/>
    <path id="Trazado_262803" data-name="Trazado 262803" d="M66.157,311.116a3.832,3.832,0,1,1,3.818-3.844,3.812,3.812,0,0,1-3.818,3.844" transform="translate(-49.414 -240.605)" fill="#fefefe"/>
    <path id="Trazado_262804" data-name="Trazado 262804" d="M284.758,59.515a3.826,3.826,0,1,1,3.807,3.873,3.85,3.85,0,0,1-3.807-3.873" transform="translate(-225.782 -44.147)" fill="#fefefe"/>
  </g>
</svg>
