<svg id="Grupo_149718" data-name="Grupo 149718" xmlns="http://www.w3.org/2000/svg" xmlns:xlink="http://www.w3.org/1999/xlink" width="79.479" height="66.714" viewBox="0 0 79.479 66.714">
  <defs>
    <clipPath id="clip-path">
      <rect id="Rectángulo_90553" data-name="Rectángulo 90553" width="79.479" height="66.714" fill="none"/>
    </clipPath>
  </defs>
  <g id="Grupo_149718-2" data-name="Grupo 149718" clip-path="url(#clip-path)">
    <path id="Trazado_262749" data-name="Trazado 262749" d="M21.533,56.745H20a3.412,3.412,0,0,0-2.235-.555c-2.686.022-5.372.008-8.057.008a3,3,0,0,1-2.4-.979,2.579,2.579,0,0,1-.689-1.64c-.006-.158-.011-.316-.011-.474Q6.6,31.184,6.6,9.263a2.805,2.805,0,0,1,1.014-2.37,2.706,2.706,0,0,1,1.656-.656c.369-.011.737-.01,1.106-.01q34.522,0,69.044-.029c2.521-.005,3.915.965,3.9,3.861-.075,14.114-.034,28.228-.034,42.343,0,.369.01.738-.011,1.106A2.784,2.784,0,0,1,80.8,56.16a10.954,10.954,0,0,1-1.42.039q-26.227,0-52.455-.007a3.416,3.416,0,0,0-2.233.552l-1.53,0c-.821-.666-.821-.666-1.631,0" transform="translate(-5.205 -4.889)" fill="#aeaeae"/>
    <path id="Trazado_262750" data-name="Trazado 262750" d="M19.489,51.855c.145-.691.632-.8,1.248-.795q10.625.016,21.249.007h32.7c2.3,0,3.2-.9,3.2-3.2q0-21.565.006-43.129a2.958,2.958,0,0,0-.944-2.557,2.491,2.491,0,0,0-1.511-.6c-.21-.007-.421-.006-.632-.006q-35.072,0-70.145-.008a3.043,3.043,0,0,0-2.321.764,2.914,2.914,0,0,0-.762,2.244q.014,7.662,0,15.324,0,13.982,0,27.963c0,2.3.9,3.2,3.2,3.2,2.949,0,5.9.008,8.847-.006.6,0,1.036.148,1.163.8-.1.607-.487.8-1.07.8-3.213-.014-6.426.014-9.638-.02a4.087,4.087,0,0,1-4.062-3.84C.006,48.533,0,48.269,0,48.005Q0,26.32,0,4.635C0,2.207,1.2.555,3.313.091A5.507,5.507,0,0,1,4.489,0Q39.723,0,74.956,0a4.161,4.161,0,0,1,4.518,4.524q.01,21.8,0,43.608a4.165,4.165,0,0,1-4.531,4.513q-14.022.007-28.045-.015c-.761,0-.883.162-.755.909.351,2.047.61,4.11.861,6.173.069.571.219.825.859.788,1.05-.061,2.106-.039,3.159-.006a3.079,3.079,0,0,1,3.133,3.164c.017.658.012,1.317,0,1.975-.012.882-.2,1.074-1.073,1.076-2.66.006-5.319,0-7.979,0H26.621c-1.184,0-1.3-.12-1.3-1.322,0-.58-.012-1.159,0-1.738A3.085,3.085,0,0,1,28.462,60.5c1.105-.033,2.212-.029,3.318,0,.432.011.6-.133.661-.554.3-2.268.615-4.535.957-6.8.088-.582-.245-.5-.589-.5-4.029,0-8.058-.005-12.087.008-.614,0-1.105-.094-1.233-.8" transform="translate(0 0)"/>
    <path id="Trazado_262751" data-name="Trazado 262751" d="M77.31,242.64c.1-.439.332-.778.818-.776s.722.328.813.777c-.087.452-.309.778-.814.778s-.719-.337-.818-.78" transform="translate(-60.983 -190.784)" fill="#040404"/>
    <path id="Trazado_262752" data-name="Trazado 262752" d="M84.378,26.163h1.532a3.337,3.337,0,0,0,2.234.557c2.054-.024,4.109-.014,6.163-.006,1.384.005,1.52.143,1.52,1.556q0,15.8,0,31.6c0,1.453-.192,1.643-1.642,1.644q-14.775.006-29.551,0H30.262c-1.864,0-1.955-.091-1.955-1.967q0-15.487,0-30.973c0-1.822.045-1.868,1.845-1.868q24.415,0,48.829.008a3.441,3.441,0,0,0,2.235-.558h1.531c.806.682.806.682,1.63,0" transform="translate(-22.328 -20.638)" fill="#efbf20"/>
    <path id="Trazado_262753" data-name="Trazado 262753" d="M76.5,23.181c-.14.7-.64.8-1.249.794Q68.774,23.96,62.3,23.97q-18.719,0-37.439-.016c-.725,0-.973.12-.971.922q.046,16.231.005,32.463c0,.705.156.923.9.922q32.542-.032,65.084,0c.686,0,.937-.124.935-.888q-.041-16.271,0-32.542c0-.681-.141-.89-.858-.876-2.527.05-5.055.011-7.582.026-.6,0-1.032-.162-1.177-.794.112-.6.482-.8,1.072-.8q4.542.022,9.085,0a.884.884,0,0,1,1.023,1c0,.158,0,.316,0,.474q0,20.1,0,40.209c0,1.382-.118,1.5-1.463,1.5H23.763c-1.3,0-1.435-.133-1.435-1.453q0-20.144,0-40.288c0-1.312.129-1.439,1.445-1.439q25.674,0,51.348,0c.624,0,1.254-.052,1.379.795" transform="translate(-17.612 -17.656)"/>
    <path id="Trazado_262754" data-name="Trazado 262754" d="M287.713,23.238a.824.824,0,0,1-.773.769c-.5.023-.747-.315-.857-.769.1-.444.3-.784.82-.784s.728.328.811.784" transform="translate(-225.664 -17.712)" fill="#050402"/>
    <path id="Trazado_262755" data-name="Trazado 262755" d="M140.119,296.95c-4.029,0-8.058-.016-12.087.016-.644.005-.848-.2-.753-.793a1.065,1.065,0,0,0,0-.158c0-1.653.465-2.128,2.1-2.129q5.333,0,10.665,0,5.451,0,10.9,0a2.008,2.008,0,0,1,2.008,2.84c-.135.377-.441.212-.665.214-2.475.014-4.951.008-7.426.008h-4.74" transform="translate(-100.381 -231.818)" fill="#aeaeae"/>
    <path id="Trazado_262756" data-name="Trazado 262756" d="M171.761,258.917c.228,1.636.44,3.275.694,4.906.075.478-.074.58-.52.578q-5.2-.021-10.4,0c-.448,0-.594-.1-.52-.579.254-1.632.466-3.271.695-4.906.2-.4.591-.4.957-.405q4.067-.022,8.133,0c.366,0,.753,0,.956.406" transform="translate(-126.999 -203.906)" fill="#aeaeae"/>
    <path id="Trazado_262757" data-name="Trazado 262757" d="M174.423,251.625a1.132,1.132,0,0,0-.747-.168q-4.276,0-8.552,0a1.142,1.142,0,0,0-.748.167c.089-.621.211-1.239.254-1.863.03-.427.222-.507.6-.506q4.171.017,8.341,0c.378,0,.568.08.6.507.044.624.166,1.242.254,1.863" transform="translate(-129.662 -196.614)" fill="#868686"/>
    <path id="Trazado_262758" data-name="Trazado 262758" d="M179.287,94.557a.8.8,0,0,1,.993-.8c2.257.353,4.512.718,6.762,1.112.88.154,1.063.811.488,1.5-.309.369-.972.612-.883,1.09.071.385.609.686.942,1.021.537.542,1.078,1.079,1.613,1.622a.8.8,0,0,1,.011,1.247q-1.132,1.155-2.285,2.289a.82.82,0,0,1-1.306-.021c-.76-.765-1.541-1.51-2.279-2.3-.31-.331-.516-.346-.793.01a8.179,8.179,0,0,1-.609.617.9.9,0,0,1-.991.3.877.877,0,0,1-.54-.805c-.284-1.71-.555-3.422-.832-5.132-.092-.57-.189-1.14-.291-1.75" transform="translate(-141.423 -73.94)"/>
    <path id="Trazado_262759" data-name="Trazado 262759" d="M330.191,54.428q0-7.026,0-14.052c0-.237,0-.474.008-.71a.683.683,0,0,1,.6-.72.749.749,0,0,1,.872.511,2.241,2.241,0,0,1,.1.933q0,13.974,0,27.947a3.074,3.074,0,0,1-.111,1.014.716.716,0,0,1-.842.544.68.68,0,0,1-.618-.7c-.011-.236-.01-.473-.01-.71q0-7.026,0-14.052" transform="translate(-260.457 -30.708)" fill="#f8e4ad"/>
    <path id="Trazado_262760" data-name="Trazado 262760" d="M45.161,82.518c-2.72,0-2.963-.316-3.056-3.02-.1-2.867.748-3.2,3.163-3.2,2.242,0,3.221.36,3.038,3.068-.027.392,0,.788-.005,1.182a1.8,1.8,0,0,1-1.958,1.965c-.394.011-.788,0-1.182,0" transform="translate(-33.207 -60.186)"/>
    <path id="Trazado_262761" data-name="Trazado 262761" d="M45.206,38.792c2.774,0,3,.294,3.085,3.066S47.6,45,45.163,45.006c-2.47.006-3.114-.514-3.1-3.113s.529-3.26,3.147-3.1" transform="translate(-33.176 -30.582)"/>
    <path id="Trazado_262762" data-name="Trazado 262762" d="M92.794,117.278c0,2.661-.381,3.04-3.054,3.04-2.808,0-3.155-.35-3.155-3.181,0-2.654.386-3.038,3.059-3.038,2.823,0,3.15.331,3.15,3.179" transform="translate(-68.299 -90.002)"/>
    <path id="Trazado_262763" data-name="Trazado 262763" d="M45.219,151.812c2.577-.163,3.085.53,3.092,3.073.007,2.653-.6,3.135-3.152,3.136-2.5,0-3.106-.536-3.094-3.119.012-2.528.456-3.259,3.155-3.09" transform="translate(-33.18 -119.732)"/>
    <path id="Trazado_262764" data-name="Trazado 262764" d="M89.651,38.782c2.818-.189,3.112.818,3.064,3.1-.057,2.743-.358,3.012-3.085,3.108-2.957.1-3.171-.947-3.162-3.131.009-2.151.159-3.284,3.183-3.072" transform="translate(-68.206 -30.572)"/>
    <path id="Trazado_262765" data-name="Trazado 262765" d="M89.674,151.811c2.879-.2,3.147.914,3.046,3.02-.024.5.008,1-.044,1.494a1.749,1.749,0,0,1-1.777,1.652c-.839.029-1.681.026-2.521,0a1.8,1.8,0,0,1-1.849-1.767,21.719,21.719,0,0,1,0-2.6,1.8,1.8,0,0,1,1.966-1.8c.394-.006.788,0,1.182,0" transform="translate(-68.223 -119.731)"/>
    <path id="Trazado_262766" data-name="Trazado 262766" d="M48.363,117.242c.2,2.893-.954,3.168-3.1,3.058-.5-.026-1,.017-1.493-.054a1.754,1.754,0,0,1-1.574-1.774c-.025-.866-.028-1.734,0-2.6a1.7,1.7,0,0,1,1.6-1.734,19.752,19.752,0,0,1,2.752-.031,1.777,1.777,0,0,1,1.812,1.952c.008.394,0,.788,0,1.182" transform="translate(-33.268 -89.983)"/>
    <path id="Trazado_262767" data-name="Trazado 262767" d="M89.679,82.583c-.341,0-.683,0-1.024,0a1.869,1.869,0,0,1-2.113-2.068c-.015-.735-.028-1.472.005-2.206A1.848,1.848,0,0,1,88.51,76.4c.787-.019,1.577-.026,2.363,0a1.773,1.773,0,0,1,1.844,1.763c.054.784.044,1.575.025,2.362-.035,1.405-.7,2.035-2.118,2.055-.315,0-.63,0-.946,0" transform="translate(-68.253 -60.251)"/>
    <path id="Trazado_262768" data-name="Trazado 262768" d="M120.646,203.794c-8.585,0-17.171-.012-25.756.02-.79,0-.983-.223-.927-.964a26.17,26.17,0,0,0,.008-2.685c-.011-.412.127-.586.541-.54a4.324,4.324,0,0,0,.474,0q25.638,0,51.276,0c1.181,0,1.017-.158,1.029,1.065.008.843-.02,1.686.01,2.528.016.45-.134.592-.582.58-1.053-.029-2.107-.009-3.16-.009H120.646" transform="translate(-74.111 -157.46)" fill="#a7e446"/>
    <path id="Trazado_262769" data-name="Trazado 262769" d="M35.882,199.619c1.761,0,3.523.018,5.283-.012.493-.008.631.141.614.622-.035,1-.033,2,0,3,.015.457-.14.571-.581.569q-5.441-.024-10.882,0c-.406,0-.555-.115-.545-.534.024-1.024.028-2.05,0-3.075-.013-.461.156-.578.592-.574,1.84.019,3.68.008,5.52.008" transform="translate(-23.482 -157.452)" fill="#a7e446"/>
    <path id="Trazado_262770" data-name="Trazado 262770" d="M188.5,106.523c-.22-1.372-.42-2.64-.629-3.906-.04-.24-.075-.414.282-.354,1.29.22,2.583.42,3.861.626.02.3-.174.378-.294.5a.874.874,0,0,0,0,1.427c.734.718,1.433,1.473,2.187,2.168.376.347.435.6,0,.907a1.564,1.564,0,0,0-.332.337c-.355.48-.657.528-1.08.024-.506-.6-1.105-1.127-1.662-1.687-1.075-1.08-1.075-1.081-2.339-.038" transform="translate(-148.177 -80.656)" fill="#fefefe"/>
    <path id="Trazado_262771" data-name="Trazado 262771" d="M49.711,85.445c0-1.524,0-1.524,1.526-1.524,1.491,0,1.491,0,1.491,1.479,0,1.551,0,1.551-1.564,1.551-1.453,0-1.453,0-1.453-1.506" transform="translate(-39.212 -66.197)" fill="#fefefe"/>
    <path id="Trazado_262772" data-name="Trazado 262772" d="M51.223,49.374c-1.511,0-1.511,0-1.511-1.529,0-1.488,0-1.488,1.467-1.488,1.55,0,1.55,0,1.55,1.561,0,1.456,0,1.456-1.505,1.456" transform="translate(-39.213 -36.567)" fill="#fefefe"/>
    <path id="Trazado_262773" data-name="Trazado 262773" d="M95.57,121.594c1.537,0,1.537,0,1.537,1.529s0,1.536-1.542,1.524c-1.744-.014-1.479.239-1.5-1.49,0-.026,0-.052,0-.079,0-1.485,0-1.485,1.508-1.485" transform="translate(-74.195 -95.914)" fill="#fafafa"/>
    <path id="Trazado_262774" data-name="Trazado 262774" d="M52.728,160.912c0,1.484,0,1.484-1.477,1.484-1.54,0-1.54,0-1.54-1.579,0-1.436,0-1.436,1.438-1.436h.079c1.5,0,1.5,0,1.5,1.531" transform="translate(-39.213 -125.721)" fill="#fefefe"/>
    <path id="Trazado_262775" data-name="Trazado 262775" d="M95.606,46.354c1.509,0,1.509,0,1.509,1.536,0,1.482,0,1.482-1.487,1.482-1.557,0-1.557,0-1.557-1.578,0-1.439,0-1.439,1.535-1.439" transform="translate(-74.204 -36.564)" fill="#fcfcfc"/>
    <path id="Trazado_262776" data-name="Trazado 262776" d="M95.586,159.378c1.529,0,1.529,0,1.529,1.513s0,1.5-1.467,1.5c-1.577,0-1.577,0-1.577-1.558,0-1.457,0-1.457,1.515-1.457" transform="translate(-74.204 -125.718)" fill="#fcfcfc"/>
    <path id="Trazado_262777" data-name="Trazado 262777" d="M52.727,123.164c0,1.489,0,1.489-1.49,1.489-1.528,0-1.528,0-1.528-1.531s0-1.523,1.53-1.523c1.488,0,1.488,0,1.488,1.565" transform="translate(-39.211 -95.918)" fill="#fcfcfc"/>
    <path id="Trazado_262778" data-name="Trazado 262778" d="M97.115,85.479c0,1.471,0,1.471-1.5,1.471-1.542,0-1.542,0-1.542-1.515s0-1.516,1.547-1.516c1.5,0,1.5,0,1.5,1.559" transform="translate(-74.205 -66.197)" fill="#fdfdfd"/>
    <path id="Trazado_262779" data-name="Trazado 262779" d="M297.257,207.368c-1.155,0-2.309-.007-3.464,0-.584,0-1.1-.114-1.086-.82.009-.659.491-.77,1.049-.767q3.542.015,7.085,0c.562,0,1.048.128,1.053.769.006.686-.507.825-1.1.819-1.181-.011-2.362,0-3.542,0" transform="translate(-230.889 -162.323)"/>
  </g>
</svg>
