<svg xmlns="http://www.w3.org/2000/svg" xmlns:xlink="http://www.w3.org/1999/xlink" width="610" height="498" viewBox="0 0 610 498">
  <defs>
    <clipPath id="clip-path">
      <rect id="Rectángulo_90077" data-name="Rectángulo 90077" width="82.232" height="78.298" fill="#fff"/>
    </clipPath>
    <clipPath id="clip-path-2">
      <rect id="Rectángulo_90075" data-name="Rectángulo 90075" width="482.199" height="497.869" fill="none"/>
    </clipPath>
    <clipPath id="clip-path-3">
      <rect id="Rectángulo_90074" data-name="Rectángulo 90074" width="482.2" height="497.864" fill="none"/>
    </clipPath>
    <clipPath id="clip-path-4">
      <rect id="Rectángulo_90067" data-name="Rectángulo 90067" width="151.924" height="151.938" fill="none"/>
    </clipPath>
    <clipPath id="clip-path-6">
      <rect id="Rectángulo_90069" data-name="Rectángulo 90069" width="151.925" height="151.939" fill="none"/>
    </clipPath>
    <clipPath id="clip-path-8">
      <rect id="Rectángulo_90071" data-name="Rectángulo 90071" width="151.936" height="151.923" fill="none"/>
    </clipPath>
    <clipPath id="clip-path-10">
      <rect id="Rectángulo_90073" data-name="Rectángulo 90073" width="151.93" height="151.923" fill="none"/>
    </clipPath>
    <filter id="Trazado_249143">
      <feOffset dy="3" input="SourceAlpha"/>
      <feGaussianBlur stdDeviation="3" result="blur"/>
      <feFlood flood-opacity="0.161" result="color"/>
      <feComposite operator="out" in="SourceGraphic" in2="blur"/>
      <feComposite operator="in" in="color"/>
      <feComposite operator="in" in2="SourceGraphic"/>
    </filter>
    <filter id="Trazado_249144">
      <feOffset dy="3" input="SourceAlpha"/>
      <feGaussianBlur stdDeviation="3" result="blur-2"/>
      <feFlood flood-opacity="0.161" result="color-2"/>
      <feComposite operator="out" in="SourceGraphic" in2="blur-2"/>
      <feComposite operator="in" in="color-2"/>
      <feComposite operator="in" in2="SourceGraphic"/>
    </filter>
    <filter id="Trazado_249145">
      <feOffset dy="3" input="SourceAlpha"/>
      <feGaussianBlur stdDeviation="3" result="blur-3"/>
      <feFlood flood-opacity="0.161" result="color-3"/>
      <feComposite operator="out" in="SourceGraphic" in2="blur-3"/>
      <feComposite operator="in" in="color-3"/>
      <feComposite operator="in" in2="SourceGraphic"/>
    </filter>
    <filter id="Trazado_249146">
      <feOffset dy="3" input="SourceAlpha"/>
      <feGaussianBlur stdDeviation="3" result="blur-4"/>
      <feFlood flood-opacity="0.161" result="color-4"/>
      <feComposite operator="out" in="SourceGraphic" in2="blur-4"/>
      <feComposite operator="in" in="color-4"/>
      <feComposite operator="in" in2="SourceGraphic"/>
    </filter>
    <filter id="Trazado_249147" x="101.823" y="318.367" width="133.981" height="141.272" filterUnits="userSpaceOnUse">
      <feOffset dy="3" input="SourceAlpha"/>
      <feGaussianBlur stdDeviation="3" result="blur-5"/>
      <feFlood flood-opacity="0.161"/>
      <feComposite operator="in" in2="blur-5"/>
      <feComposite in="SourceGraphic"/>
    </filter>
    <filter id="Trazado_249147-2" x="101.823" y="318.367" width="133.981" height="141.272" filterUnits="userSpaceOnUse">
      <feOffset dy="3" input="SourceAlpha"/>
      <feGaussianBlur stdDeviation="3" result="blur-6"/>
      <feFlood flood-opacity="0.161" result="color-5"/>
      <feComposite operator="out" in="SourceGraphic" in2="blur-6"/>
      <feComposite operator="in" in="color-5"/>
      <feComposite operator="in" in2="SourceGraphic"/>
    </filter>
    <filter id="Trazado_249148" x="362.378" y="47.062" width="154.052" height="139.102" filterUnits="userSpaceOnUse">
      <feOffset dy="3" input="SourceAlpha"/>
      <feGaussianBlur stdDeviation="3" result="blur-7"/>
      <feFlood flood-opacity="0.161"/>
      <feComposite operator="in" in2="blur-7"/>
      <feComposite in="SourceGraphic"/>
    </filter>
    <filter id="Trazado_249148-2" x="362.378" y="47.062" width="154.052" height="139.102" filterUnits="userSpaceOnUse">
      <feOffset dy="3" input="SourceAlpha"/>
      <feGaussianBlur stdDeviation="3" result="blur-8"/>
      <feFlood flood-opacity="0.161" result="color-6"/>
      <feComposite operator="out" in="SourceGraphic" in2="blur-8"/>
      <feComposite operator="in" in="color-6"/>
      <feComposite operator="in" in2="SourceGraphic"/>
    </filter>
    <filter id="Trazado_249149" x="101.832" y="53.076" width="143.049" height="138.688" filterUnits="userSpaceOnUse">
      <feOffset dy="3" input="SourceAlpha"/>
      <feGaussianBlur stdDeviation="3" result="blur-9"/>
      <feFlood flood-opacity="0.161"/>
      <feComposite operator="in" in2="blur-9"/>
      <feComposite in="SourceGraphic"/>
    </filter>
    <filter id="Trazado_249149-2" x="101.832" y="53.076" width="143.049" height="138.688" filterUnits="userSpaceOnUse">
      <feOffset dy="3" input="SourceAlpha"/>
      <feGaussianBlur stdDeviation="3" result="blur-10"/>
      <feFlood flood-opacity="0.161" result="color-7"/>
      <feComposite operator="out" in="SourceGraphic" in2="blur-10"/>
      <feComposite operator="in" in="color-7"/>
      <feComposite operator="in" in2="SourceGraphic"/>
    </filter>
    <filter id="Trazado_249150" x="370.957" y="323.977" width="145.473" height="141.864" filterUnits="userSpaceOnUse">
      <feOffset dy="3" input="SourceAlpha"/>
      <feGaussianBlur stdDeviation="3" result="blur-11"/>
      <feFlood flood-opacity="0.161"/>
      <feComposite operator="in" in2="blur-11"/>
      <feComposite in="SourceGraphic"/>
    </filter>
    <filter id="Trazado_249150-2" x="370.957" y="323.977" width="145.473" height="141.864" filterUnits="userSpaceOnUse">
      <feOffset dy="3" input="SourceAlpha"/>
      <feGaussianBlur stdDeviation="3" result="blur-12"/>
      <feFlood flood-opacity="0.161" result="color-8"/>
      <feComposite operator="out" in="SourceGraphic" in2="blur-12"/>
      <feComposite operator="in" in="color-8"/>
      <feComposite operator="in" in2="SourceGraphic"/>
    </filter>
    <clipPath id="clip-path-12">
      <rect id="Rectángulo_90078" data-name="Rectángulo 90078" width="62.849" height="81.616" fill="#fff"/>
    </clipPath>
    <clipPath id="clip-path-13">
      <rect id="Rectángulo_90079" data-name="Rectángulo 90079" width="75.012" height="75.015" fill="#fff"/>
    </clipPath>
    <clipPath id="clip-path-14">
      <rect id="Rectángulo_90085" data-name="Rectángulo 90085" width="75.445" height="80.443" fill="#fff"/>
    </clipPath>
  </defs>
  <g id="Grupo_149774" data-name="Grupo 149774" transform="translate(-495 -7079.113)">
    <g id="Grupo_148885" data-name="Grupo 148885" transform="translate(758.884 7109.711)">
      <g id="Grupo_148884" data-name="Grupo 148884" clip-path="url(#clip-path)">
        <path id="Trazado_249151" data-name="Trazado 249151" d="M0,61.475a1.862,1.862,0,0,1,1.771-.842c2.676.027,5.352.01,8.028.01h.938c.017-.349.042-.633.044-.917q.157-22.559.31-45.118c.012-1.732.38-2.1,2.139-2.1q15.7,0,31.391.015a1.1,1.1,0,0,0,1.21-.814A18.911,18.911,0,1,1,66.543,37.56c-1.363.23-2.756.279-4.26.423v.847q0,14.411,0,28.822a10.4,10.4,0,0,1-8.562,10.435,17.7,17.7,0,0,1-3.274.2q-19.87.019-39.74.006A10.52,10.52,0,0,1,.15,69.548c-.034-.178-.1-.351-.15-.526V61.475M46,26.49a19.331,19.331,0,0,1-1.267-11.235H13.759c-.1,15.144-.2,30.222-.3,45.388H41.791c1.979,0,2.178.2,2.179,2.221,0,1.659-.024,3.318.008,4.976a7.816,7.816,0,0,0,7.85,7.77,7.723,7.723,0,0,0,7.753-7.758c.038-9.9.01-19.8.024-29.7,0-.486-.134-.678-.631-.8a18.521,18.521,0,0,1-11.168-7.676,1.038,1.038,0,0,0-.979-.507c-3.692.015-7.384.009-11.077.008-.776,0-1.553.028-2.327-.015A1.309,1.309,0,0,1,32.1,27.829,1.33,1.33,0,0,1,33.432,26.5c.213-.019.428-.007.642-.007H46Zm33.542-7.538a16.241,16.241,0,1,0-16.217,16.24,16.228,16.228,0,0,0,16.217-16.24M41.283,63.332H2.674c0,1.407-.007,2.765,0,4.123a7.806,7.806,0,0,0,8.186,8.156q16.491,0,32.982,0h.844a1.8,1.8,0,0,0-.171-.278,10.54,10.54,0,0,1-3.237-8.011c.015-1.308,0-2.617,0-3.991" transform="translate(0 0)" fill="#fff"/>
        <path id="Trazado_249152" data-name="Trazado 249152" d="M202.263,299.855c-2.89,0-5.78,0-8.67,0-.651,0-1.256-.208-1.385-.846a2.235,2.235,0,0,1,.332-1.44,1.328,1.328,0,0,1,1-.37q8.75-.032,17.5-.008a1.334,1.334,0,1,1-.025,2.656c-2.917.012-5.833,0-8.75,0" transform="translate(-159.976 -247.379)" fill="#fff"/>
        <path id="Trazado_249153" data-name="Trazado 249153" d="M201.755,227.758q4.294,0,8.589,0c1.013,0,1.592.463,1.623,1.265.032.831-.572,1.369-1.606,1.371q-8.588.012-17.177,0c-1.062,0-1.632-.5-1.613-1.355.019-.826.571-1.28,1.6-1.281q4.294-.008,8.588,0" transform="translate(-159.463 -189.586)" fill="#fff"/>
        <path id="Trazado_249154" data-name="Trazado 249154" d="M131.431,146.049a4.206,4.206,0,0,1-4.247,4.118,4.138,4.138,0,1,1,.037-8.27,4.2,4.2,0,0,1,4.209,4.153m-4.232,1.431a1.457,1.457,0,1,0-.028-2.9,1.456,1.456,0,1,0,.028,2.9" transform="translate(-102.315 -118.115)" fill="#fff"/>
        <path id="Trazado_249155" data-name="Trazado 249155" d="M131.427,215.249a4.259,4.259,0,1,1-4.2-4.236,4.207,4.207,0,0,1,4.2,4.236m-4.26,1.335a1.53,1.53,0,0,0,1.616-1.428,1.557,1.557,0,0,0-1.584-1.472,1.53,1.53,0,0,0-1.6,1.441,1.5,1.5,0,0,0,1.571,1.46" transform="translate(-102.314 -175.648)" fill="#fff"/>
        <path id="Trazado_249156" data-name="Trazado 249156" d="M131.43,284.393a4.259,4.259,0,1,1-4.133-4.207,4.145,4.145,0,0,1,4.133,4.207m-4.215,1.346a1.52,1.52,0,0,0,1.57-1.471,1.58,1.58,0,0,0-1.629-1.432,1.534,1.534,0,0,0-1.558,1.49,1.514,1.514,0,0,0,1.617,1.413" transform="translate(-102.316 -233.227)" fill="#fff"/>
        <path id="Trazado_249157" data-name="Trazado 249157" d="M350.566,61.305c0,.507.025.962-.006,1.413a1.254,1.254,0,0,1-1.3,1.247,1.165,1.165,0,0,1-1.282-1.232c.136-1.152-.369-1.616-1.345-2.114a5.156,5.156,0,0,1-2.864-4.608c-.046-.95.419-1.521,1.217-1.565s1.3.434,1.409,1.392a2.979,2.979,0,0,0,5.815.8,2.945,2.945,0,0,0-2.321-3.8c-.658-.107-1.338-.118-1.979-.284a5.6,5.6,0,0,1-.861-10.519,1.215,1.215,0,0,0,.9-1.4c-.05-.99.408-1.536,1.182-1.6a1.2,1.2,0,0,1,1.4,1.276c-.1,1.017.337,1.373,1.212,1.751a5.354,5.354,0,0,1,3.259,4.7,1.391,1.391,0,0,1-1.2,1.689c-.8.08-1.363-.476-1.473-1.444a2.93,2.93,0,0,0-3.152-2.826,2.982,2.982,0,0,0-2.789,2.973,3.024,3.024,0,0,0,2.985,2.965,5.635,5.635,0,0,1,1.568,11.05l-.383.135" transform="translate(-286.153 -32.493)" fill="#fff"/>
      </g>
    </g>
    <g id="Grupo_149773" data-name="Grupo 149773">
      <path id="Trazado_263860" data-name="Trazado 263860" d="M-46.619,0h-4.395V-21.328h4.395Zm7.69-15.85.132,1.831a5.534,5.534,0,0,1,4.556-2.124,4.6,4.6,0,0,1,3.75,1.479,6.9,6.9,0,0,1,1.26,4.424V0h-4.233V-10.137a2.746,2.746,0,0,0-.586-1.956A2.623,2.623,0,0,0-36-12.7a2.912,2.912,0,0,0-2.681,1.523V0h-4.233V-15.85ZM-24.866,0V-12.744h-2.358V-15.85h2.358V-17.2a5.472,5.472,0,0,1,1.531-4.138,5.928,5.928,0,0,1,4.285-1.472,9.9,9.9,0,0,1,2.153.293l-.044,3.281a5.4,5.4,0,0,0-1.289-.132q-2.388,0-2.388,2.241v1.274h3.149v3.105h-3.149V0Zm8.936-8.071a9.4,9.4,0,0,1,.908-4.2,6.649,6.649,0,0,1,2.615-2.856,7.628,7.628,0,0,1,3.962-1.011A7.217,7.217,0,0,1-3.208-14.18,7.878,7.878,0,0,1-.945-8.848l.029,1.084A8.284,8.284,0,0,1-2.952-1.912,7.078,7.078,0,0,1-8.416.293a7.113,7.113,0,0,1-5.471-2.2A8.43,8.43,0,0,1-15.93-7.881Zm4.233.3a5.925,5.925,0,0,0,.85,3.455,2.8,2.8,0,0,0,2.432,1.2A2.809,2.809,0,0,0-6.013-4.3a6.483,6.483,0,0,0,.864-3.778,5.865,5.865,0,0,0-.864-3.433,2.809,2.809,0,0,0-2.432-1.218,2.764,2.764,0,0,0-2.4,1.21A6.592,6.592,0,0,0-11.7-7.771ZM10.6-11.88A11.5,11.5,0,0,0,9.075-12q-2.4,0-3.149,1.626V0H1.692V-15.85h4l.117,1.89a3.923,3.923,0,0,1,3.53-2.183,4.436,4.436,0,0,1,1.318.19ZM16.6-15.85l.132,1.772a5.57,5.57,0,0,1,4.556-2.065,4.227,4.227,0,0,1,4.2,2.417,5.442,5.442,0,0,1,4.761-2.417,4.727,4.727,0,0,1,3.838,1.5,6.9,6.9,0,0,1,1.26,4.519V0H31.106V-10.107a3.018,3.018,0,0,0-.527-1.97,2.337,2.337,0,0,0-1.86-.623,2.642,2.642,0,0,0-2.637,1.816L26.1,0H21.863V-10.093a2.981,2.981,0,0,0-.542-1.992,2.36,2.36,0,0,0-1.846-.615,2.743,2.743,0,0,0-2.607,1.494V0H12.634V-15.85ZM45.9.293a7.781,7.781,0,0,1-5.676-2.139,7.6,7.6,0,0,1-2.19-5.7v-.41a9.575,9.575,0,0,1,.923-4.27,6.773,6.773,0,0,1,2.615-2.9,7.339,7.339,0,0,1,3.86-1.018,6.578,6.578,0,0,1,5.12,2.051,8.333,8.333,0,0,1,1.868,5.815v1.729H42.327a3.933,3.933,0,0,0,1.238,2.49,3.742,3.742,0,0,0,2.615.938A4.569,4.569,0,0,0,50-4.893l2.08,2.329A6.355,6.355,0,0,1,49.5-.461,8.458,8.458,0,0,1,45.9.293Zm-.483-13.022a2.645,2.645,0,0,0-2.043.853,4.419,4.419,0,0,0-1,2.443h5.889v-.339a3.152,3.152,0,0,0-.762-2.185A2.729,2.729,0,0,0,45.417-12.729ZM-26.895,35V22.256h-2.358V19.15h2.358v-.732a5.944,5.944,0,0,1,1.838-4.607,7.4,7.4,0,0,1,5.1-1.619,16.933,16.933,0,0,1,4.8.864l-.615,3.5a18.746,18.746,0,0,0-2.227-.549,10.94,10.94,0,0,0-1.7-.125q-2.959,0-2.959,2.622v.645h3.12v3.105h-3.12V35Zm13.726,0h-4.248V19.15h4.248Zm7.4-15.85.132,1.831a5.534,5.534,0,0,1,4.556-2.124,4.6,4.6,0,0,1,3.75,1.479,6.9,6.9,0,0,1,1.26,4.424V35H-.308V24.863a2.746,2.746,0,0,0-.586-1.956A2.623,2.623,0,0,0-2.842,22.3a2.912,2.912,0,0,0-2.681,1.523V35H-9.756V19.15ZM16.318,35a4.7,4.7,0,0,1-.425-1.421,5.122,5.122,0,0,1-4,1.714,5.627,5.627,0,0,1-3.86-1.348,4.334,4.334,0,0,1-1.531-3.4A4.479,4.479,0,0,1,8.372,26.68a9.216,9.216,0,0,1,5.4-1.362h1.948v-.908a2.612,2.612,0,0,0-.564-1.758,2.219,2.219,0,0,0-1.78-.659A2.522,2.522,0,0,0,11.7,22.5a1.742,1.742,0,0,0-.608,1.406H6.855a4.252,4.252,0,0,1,.85-2.549,5.616,5.616,0,0,1,2.4-1.838,8.755,8.755,0,0,1,3.486-.667,6.917,6.917,0,0,1,4.651,1.472,5.15,5.15,0,0,1,1.721,4.138v6.87a7.577,7.577,0,0,0,.63,3.413V35Zm-3.5-2.944a3.646,3.646,0,0,0,1.729-.417,2.742,2.742,0,0,0,1.172-1.121V27.793H14.136q-3.179,0-3.384,2.2l-.015.249a1.7,1.7,0,0,0,.557,1.3A2.162,2.162,0,0,0,12.817,32.056ZM27.686,35H23.438V12.5h4.248Z" transform="translate(800 7322.113)" fill="#12263f"/>
      <g id="Grupo_148901" data-name="Grupo 148901" transform="translate(0 -51.887)">
        <g id="Grupo_148883" data-name="Grupo 148883" transform="translate(559 7131)">
          <g id="Grupo_148882" data-name="Grupo 148882" clip-path="url(#clip-path-2)">
            <g id="Grupo_148881" data-name="Grupo 148881" transform="translate(0 0.005)">
              <g id="Grupo_148880" data-name="Grupo 148880" clip-path="url(#clip-path-3)">
                <g id="Grupo_148861" data-name="Grupo 148861" transform="translate(163.073 345.926)" opacity="0.15" style="mix-blend-mode: multiply;isolation: isolate">
                  <g id="Grupo_148860" data-name="Grupo 148860">
                    <g id="Grupo_148859" data-name="Grupo 148859" clip-path="url(#clip-path-4)">
                      <g id="Grupo_148858" data-name="Grupo 148858">
                        <g id="Grupo_148857" data-name="Grupo 148857">
                          <g id="Grupo_148856" data-name="Grupo 148856" clip-path="url(#clip-path-4)">
                            <path id="Trazado_249139" data-name="Trazado 249139" d="M74.74,186.44A75.964,75.964,0,1,0,19.676,94.223,76.052,76.052,0,0,0,74.74,186.44" transform="translate(-17.353 -36.819)" fill-rule="evenodd"/>
                          </g>
                        </g>
                      </g>
                    </g>
                  </g>
                </g>
                <g id="Grupo_148867" data-name="Grupo 148867" transform="translate(160.991 0.275)" opacity="0.15" style="mix-blend-mode: multiply;isolation: isolate">
                  <g id="Grupo_148866" data-name="Grupo 148866">
                    <g id="Grupo_148865" data-name="Grupo 148865" clip-path="url(#clip-path-6)">
                      <g id="Grupo_148864" data-name="Grupo 148864">
                        <g id="Grupo_148863" data-name="Grupo 148863">
                          <g id="Grupo_148862" data-name="Grupo 148862" clip-path="url(#clip-path-6)">
                            <path id="Trazado_249140" data-name="Trazado 249140" d="M111.666,2.337a75.963,75.963,0,1,0,55.073,92.236A76.054,76.054,0,0,0,111.666,2.337" transform="translate(-17.128 -0.033)" fill-rule="evenodd"/>
                          </g>
                        </g>
                      </g>
                    </g>
                  </g>
                </g>
                <g id="Grupo_148873" data-name="Grupo 148873" transform="translate(0.091 175.73)" opacity="0.15" style="mix-blend-mode: multiply;isolation: isolate">
                  <g id="Grupo_148872" data-name="Grupo 148872">
                    <g id="Grupo_148871" data-name="Grupo 148871" clip-path="url(#clip-path-8)">
                      <g id="Grupo_148870" data-name="Grupo 148870">
                        <g id="Grupo_148869" data-name="Grupo 148869">
                          <g id="Grupo_148868" data-name="Grupo 148868" clip-path="url(#clip-path-8)">
                            <path id="Trazado_249141" data-name="Trazado 249141" d="M1.462,79.9A75.961,75.961,0,1,0,90.738,20.164,76.055,76.055,0,0,0,1.462,79.9" transform="translate(-0.012 -18.699)" fill-rule="evenodd"/>
                          </g>
                        </g>
                      </g>
                    </g>
                  </g>
                </g>
                <g id="Grupo_148879" data-name="Grupo 148879" transform="translate(329.997 175.73)" opacity="0.15" style="mix-blend-mode: multiply;isolation: isolate">
                  <g id="Grupo_148878" data-name="Grupo 148878">
                    <g id="Grupo_148877" data-name="Grupo 148877" clip-path="url(#clip-path-10)">
                      <g id="Grupo_148876" data-name="Grupo 148876">
                        <g id="Grupo_148875" data-name="Grupo 148875">
                          <g id="Grupo_148874" data-name="Grupo 148874" clip-path="url(#clip-path-10)">
                            <path id="Trazado_249142" data-name="Trazado 249142" d="M185.594,79.9A75.957,75.957,0,1,1,96.309,20.164,76.055,76.055,0,0,1,185.594,79.9" transform="translate(-35.121 -18.699)" fill-rule="evenodd"/>
                          </g>
                        </g>
                      </g>
                    </g>
                  </g>
                </g>
                <g data-type="innerShadowGroup">
                  <path id="Trazado_249143-2" data-name="Trazado 249143" d="M169.508,76.112A76.107,76.107,0,1,1,93.4,0a76.106,76.106,0,0,1,76.112,76.112" transform="translate(145.209 -0.005)" fill="#85b638"/>
                  <g transform="matrix(1, 0, 0, 1, -64, 0)" filter="url(#Trazado_249143)">
                    <path id="Trazado_249143-3" data-name="Trazado 249143" d="M169.508,76.112A76.107,76.107,0,1,1,93.4,0a76.106,76.106,0,0,1,76.112,76.112" transform="translate(209.21)" fill="#fff"/>
                  </g>
                </g>
                <g data-type="innerShadowGroup">
                  <path id="Trazado_249144-2" data-name="Trazado 249144" d="M169.508,112.824A76.107,76.107,0,1,1,93.4,36.712a76.118,76.118,0,0,1,76.112,76.112" transform="translate(145.209 308.248)" fill="#85b638"/>
                  <g transform="matrix(1, 0, 0, 1, -64, 0)" filter="url(#Trazado_249144)">
                    <path id="Trazado_249144-3" data-name="Trazado 249144" d="M169.508,112.824A76.107,76.107,0,1,1,93.4,36.712a76.118,76.118,0,0,1,76.112,76.112" transform="translate(209.21 308.25)" fill="#fff"/>
                  </g>
                </g>
                <g data-type="innerShadowGroup">
                  <path id="Trazado_249145-2" data-name="Trazado 249145" d="M152.214,94.875A76.107,76.107,0,1,1,76.1,18.763a76.112,76.112,0,0,1,76.112,76.112" transform="translate(0 157.539)" fill="#85b638"/>
                  <g transform="matrix(1, 0, 0, 1, -64, 0)" filter="url(#Trazado_249145)">
                    <path id="Trazado_249145-3" data-name="Trazado 249145" d="M152.214,94.875A76.107,76.107,0,1,1,76.1,18.763a76.112,76.112,0,0,1,76.112,76.112" transform="translate(64 157.54)" fill="#fff"/>
                  </g>
                </g>
                <g data-type="innerShadowGroup">
                  <path id="Trazado_249146-2" data-name="Trazado 249146" d="M187.323,94.875a76.1,76.1,0,1,1-76.1-76.112,76.11,76.11,0,0,1,76.1,76.112" transform="translate(294.877 157.539)" fill="#85b638"/>
                  <g transform="matrix(1, 0, 0, 1, -64, 0)" filter="url(#Trazado_249146)">
                    <path id="Trazado_249146-3" data-name="Trazado 249146" d="M187.323,94.875a76.1,76.1,0,1,1-76.1-76.112,76.11,76.11,0,0,1,76.1,76.112" transform="translate(358.88 157.54)" fill="#fff"/>
                  </g>
                </g>
                <g data-type="innerShadowGroup">
                  <g transform="matrix(1, 0, 0, 1, -64, 0)" filter="url(#Trazado_249147)">
                    <path id="Trazado_249147-3" data-name="Trazado 249147" d="M120.964,77.5A141.722,141.722,0,0,1,81.038,34.52,88.13,88.13,0,0,1,29.9,50.795a88.649,88.649,0,0,1-24.92-3.58A215.39,215.39,0,0,0,113.607,157.793,88.615,88.615,0,0,1,120.964,77.5" transform="translate(105.84 289.85)" fill="#a7e446"/>
                  </g>
                  <g transform="matrix(1, 0, 0, 1, -64, 0)" filter="url(#Trazado_249147-2)">
                    <path id="Trazado_249147-4" data-name="Trazado 249147" d="M120.964,77.5A141.722,141.722,0,0,1,81.038,34.52,88.13,88.13,0,0,1,29.9,50.795a88.649,88.649,0,0,1-24.92-3.58A215.39,215.39,0,0,0,113.607,157.793,88.615,88.615,0,0,1,120.964,77.5" transform="translate(105.84 289.85)" fill="#fff"/>
                  </g>
                </g>
                <g data-type="innerShadowGroup">
                  <g transform="matrix(1, 0, 0, 1, -64, 0)" filter="url(#Trazado_249148)">
                    <path id="Trazado_249148-3" data-name="Trazado 249148" d="M32.712,78.78a141.479,141.479,0,0,1,54.02,47.969,88.625,88.625,0,0,1,82.031-1.2A215.228,215.228,0,0,0,49.626,5.647a88.405,88.405,0,0,1,1.964,18.52A88.167,88.167,0,0,1,32.712,78.78" transform="translate(338.67 47.42)" fill="#a7e446"/>
                  </g>
                  <g transform="matrix(1, 0, 0, 1, -64, 0)" filter="url(#Trazado_249148-2)">
                    <path id="Trazado_249148-4" data-name="Trazado 249148" d="M32.712,78.78a141.479,141.479,0,0,1,54.02,47.969,88.625,88.625,0,0,1,82.031-1.2A215.228,215.228,0,0,0,49.626,5.647a88.405,88.405,0,0,1,1.964,18.52A88.167,88.167,0,0,1,32.712,78.78" transform="translate(338.67 47.42)" fill="#fff"/>
                  </g>
                </g>
                <g data-type="innerShadowGroup">
                  <g transform="matrix(1, 0, 0, 1, -64, 0)" filter="url(#Trazado_249149)">
                    <path id="Trazado_249149-3" data-name="Trazado 249149" d="M81.03,126.976a141.659,141.659,0,0,1,49-48.89,88.221,88.221,0,0,1-22.787-59.3,90.048,90.048,0,0,1,.893-12.5A215.419,215.419,0,0,0,4.984,114.272a88.536,88.536,0,0,1,76.046,12.7" transform="translate(105.85 52.79)" fill="#a7e446"/>
                  </g>
                  <g transform="matrix(1, 0, 0, 1, -64, 0)" filter="url(#Trazado_249149-2)">
                    <path id="Trazado_249149-4" data-name="Trazado 249149" d="M81.03,126.976a141.659,141.659,0,0,1,49-48.89,88.221,88.221,0,0,1-22.787-59.3,90.048,90.048,0,0,1,.893-12.5A215.419,215.419,0,0,0,4.984,114.272a88.536,88.536,0,0,1,76.046,12.7" transform="translate(105.85 52.79)" fill="#fff"/>
                  </g>
                </g>
                <g data-type="innerShadowGroup">
                  <g transform="matrix(1, 0, 0, 1, -64, 0)" filter="url(#Trazado_249150)">
                    <path id="Trazado_249150-3" data-name="Trazado 249150" d="M79.066,35.117A141.6,141.6,0,0,1,33.625,78.378a88.167,88.167,0,0,1,10.3,41.439,88.349,88.349,0,0,1-9.133,39.165A215.213,215.213,0,0,0,161.1,36.31a88.015,88.015,0,0,1-39.832,9.472,88.391,88.391,0,0,1-42.2-10.665" transform="translate(346.33 294.86)" fill="#a7e446"/>
                  </g>
                  <g transform="matrix(1, 0, 0, 1, -64, 0)" filter="url(#Trazado_249150-2)">
                    <path id="Trazado_249150-4" data-name="Trazado 249150" d="M79.066,35.117A141.6,141.6,0,0,1,33.625,78.378a88.167,88.167,0,0,1,10.3,41.439,88.349,88.349,0,0,1-9.133,39.165A215.213,215.213,0,0,0,161.1,36.31a88.015,88.015,0,0,1-39.832,9.472,88.391,88.391,0,0,1-42.2-10.665" transform="translate(346.33 294.86)" fill="#fff"/>
                  </g>
                </g>
              </g>
            </g>
          </g>
        </g>
        <rect id="Rectángulo_90076" data-name="Rectángulo 90076" width="610" height="498" transform="translate(495 7131)" fill="none"/>
      </g>
      <g id="Grupo_148887" data-name="Grupo 148887" transform="translate(937.151 7276.239)">
        <g id="Grupo_148886" data-name="Grupo 148886" clip-path="url(#clip-path-12)">
          <path id="Trazado_249158" data-name="Trazado 249158" d="M19.349,2.494C19.593,0,19.593,0,21.981,0H41.272c1.857,0,2.071.2,2.129,2.029,0,.112.025.224.052.465h.992q6.6,0,13.2,0c3.371.005,5.168,1.819,5.168,5.2,0,22.891-.027,45.783.033,68.674a4.972,4.972,0,0,1-5.211,5.242c-17.49-.045-34.98-.021-52.47-.023-2.662,0-4.51-1.317-5.047-3.612A6.016,6.016,0,0,1,0,76.622Q0,42.027,0,7.433A4.584,4.584,0,0,1,4.921,2.5c4.458-.022,8.917-.006,13.375-.006h1.054M9.975,71.6h42.88V12.434H9.975ZM19.369,4.9h-.9q-6.6,0-13.205,0C3.109,4.9,2.4,5.615,2.4,7.784q0,34.256,0,68.513c0,2.124.767,2.9,2.881,2.9q26.11,0,52.221,0c2.135,0,2.911-.764,2.911-2.866q0-34.3,0-68.6c0-2.1-.732-2.83-2.838-2.831q-6.6-.005-13.205,0c-.3,0-.605.026-.905.04V9.983h9.752c1.887,0,2.094.211,2.095,2.132q0,2.572,0,5.145,0,27.482,0,54.965c0,1.546-.3,1.845-1.853,1.845H9.211c-1.336,0-1.7-.346-1.7-1.647q0-30.4,0-60.8c0-1.268.37-1.637,1.637-1.64,3.087-.007,6.174,0,9.261,0h.965Zm2.5,5.041H40.945V2.477H21.869Z" transform="translate(0)" fill="#fff"/>
          <path id="Trazado_249159" data-name="Trazado 249159" d="M114.133,24.193c1.769,0,3.537.007,5.306,0,.934-.005,1.486-.44,1.511-1.15.027-.746-.554-1.241-1.52-1.243q-5.306-.013-10.612,0c-.939,0-1.479.442-1.507,1.166-.029.746.542,1.222,1.516,1.228,1.768.01,3.537,0,5.306,0" transform="translate(-82.723 -16.797)" fill="#fff"/>
          <path id="Trazado_249160" data-name="Trazado 249160" d="M142.522,77c2.311,0,4.622,0,6.933,0,.971,0,1.549.47,1.538,1.216s-.582,1.181-1.569,1.182q-6.933,0-13.866,0c-1,0-1.529-.435-1.52-1.213s.537-1.182,1.551-1.185c2.311-.005,4.622,0,6.933,0" transform="translate(-103.326 -59.357)" fill="#fff"/>
          <path id="Trazado_249161" data-name="Trazado 249161" d="M142.586,135.949c2.282,0,4.564,0,6.846,0,.992,0,1.56.447,1.561,1.185s-.571,1.209-1.553,1.21q-6.932.01-13.863,0c-1,0-1.538-.435-1.541-1.2s.5-1.188,1.534-1.191c2.339-.008,4.678,0,7.017,0" transform="translate(-103.325 -104.798)" fill="#fff"/>
          <path id="Trazado_249162" data-name="Trazado 249162" d="M142.48,197.107c-2.31,0-4.621,0-6.931,0-1.023,0-1.529-.418-1.514-1.206.014-.738.532-1.185,1.476-1.187q6.974-.016,13.949,0c.974,0,1.549.49,1.534,1.234s-.575,1.158-1.582,1.16c-2.31.005-4.621,0-6.931,0" transform="translate(-103.324 -150.093)" fill="#fff"/>
          <path id="Trazado_249163" data-name="Trazado 249163" d="M142.434,256.058q-3.424,0-6.848,0c-1.017,0-1.541-.408-1.549-1.182s.525-1.214,1.522-1.215q6.933-.007,13.867,0c.985,0,1.557.445,1.567,1.188s-.564,1.207-1.54,1.21c-2.34.005-4.679,0-7.019,0" transform="translate(-103.327 -195.537)" fill="#fff"/>
          <path id="Trazado_249164" data-name="Trazado 249164" d="M70.4,141.367c1.587-1.587,3.1-3.1,4.609-4.608a4.513,4.513,0,0,1,.627-.58,1.123,1.123,0,0,1,1.553.129,1.09,1.09,0,0,1,.08,1.551,10.251,10.251,0,0,1-.889.925q-2.391,2.394-4.785,4.784c-.9.891-1.4.884-2.309-.02-.891-.885-1.784-1.769-2.663-2.667-.661-.675-.709-1.341-.164-1.875.512-.5,1.236-.438,1.882.208.685.686,1.343,1.4,2.06,2.152" transform="translate(-50.947 -104.784)" fill="#fff"/>
          <path id="Trazado_249165" data-name="Trazado 249165" d="M70.391,200.606c1.713-1.712,3.28-3.332,4.922-4.874a1.854,1.854,0,0,1,1.417-.442c.921.189,1.077,1.273.328,2.041-1.455,1.493-2.942,2.955-4.416,4.428-.424.424-.835.863-1.278,1.266a1.171,1.171,0,0,1-1.817.011q-1.543-1.484-3.03-3.028a1.162,1.162,0,0,1-.085-1.75,1.179,1.179,0,0,1,1.812.112c.711.7,1.384,1.438,2.147,2.236" transform="translate(-50.935 -150.529)" fill="#fff"/>
          <path id="Trazado_249166" data-name="Trazado 249166" d="M70.414,82.411l4.453-4.454c.2-.2.4-.412.61-.6a1.118,1.118,0,0,1,1.68-.021,1.1,1.1,0,0,1,.025,1.676c-.478.529-1,1.018-1.5,1.523-1.371,1.374-2.738,2.752-4.117,4.118-.823.815-1.388.818-2.189.028-.935-.922-1.866-1.848-2.784-2.786-.627-.642-.666-1.272-.151-1.807a1.19,1.19,0,0,1,1.813.089c.714.7,1.39,1.432,2.166,2.235" transform="translate(-50.94 -59.331)" fill="#fff"/>
          <path id="Trazado_249167" data-name="Trazado 249167" d="M70.4,259.163l4.263-4.274c.222-.222.439-.45.667-.665.676-.639,1.349-.687,1.872-.14a1.2,1.2,0,0,1-.162,1.811c-.977,1-1.974,1.982-2.963,2.971-.868.868-1.727,1.745-2.607,2.6a1.237,1.237,0,0,1-2,.024q-1.469-1.437-2.9-2.908a1.2,1.2,0,1,1,1.663-1.708c.731.719,1.415,1.484,2.177,2.291" transform="translate(-50.948 -195.576)" fill="#fff"/>
          <path id="Trazado_249168" data-name="Trazado 249168" d="M138.851,164c-1.14,0-2.279.011-3.419,0-.881-.011-1.377-.439-1.4-1.162-.02-.757.5-1.227,1.412-1.232q3.419-.015,6.837,0c.882,0,1.373.434,1.391,1.162.019.772-.476,1.22-1.408,1.232-1.139.014-2.279,0-3.419,0" transform="translate(-103.325 -124.573)" fill="#fff"/>
          <path id="Trazado_249169" data-name="Trazado 249169" d="M138.805,105.086c-1.115,0-2.23.015-3.344,0-.955-.016-1.444-.452-1.426-1.22.017-.717.517-1.162,1.4-1.168q3.43-.023,6.86,0c.889.007,1.374.456,1.381,1.187s-.468,1.182-1.357,1.2c-1.171.022-2.344.006-3.516.006" transform="translate(-103.324 -79.155)" fill="#fff"/>
          <path id="Trazado_249170" data-name="Trazado 249170" d="M138.868,220.579c1.168,0,2.335-.013,3.5,0,.83.013,1.29.437,1.305,1.147a1.164,1.164,0,0,1-1.245,1.231q-3.588.045-7.176,0a1.162,1.162,0,0,1-1.222-1.254c.028-.7.491-1.111,1.332-1.122,1.168-.016,2.335,0,3.5,0" transform="translate(-103.322 -170.036)" fill="#fff"/>
          <path id="Trazado_249171" data-name="Trazado 249171" d="M138.82,281.741c-1.143,0-2.287.017-3.43-.006-.893-.018-1.365-.461-1.356-1.2.009-.722.5-1.177,1.387-1.184q3.43-.026,6.86,0c.894.007,1.381.447,1.395,1.173.015.764-.478,1.2-1.427,1.216-1.143.017-2.287,0-3.43,0" transform="translate(-103.324 -215.334)" fill="#fff"/>
          <path id="Trazado_249172" data-name="Trazado 249172" d="M114.133,24.193c-1.769,0-3.537.007-5.306,0-.974-.006-1.545-.481-1.516-1.228.028-.724.568-1.164,1.507-1.166q5.306-.013,10.612,0c.966,0,1.546.5,1.52,1.243-.025.711-.578,1.145-1.511,1.15-1.769.01-3.537,0-5.306,0" transform="translate(-82.723 -16.797)" fill="#fff"/>
        </g>
      </g>
      <g id="Grupo_148889" data-name="Grupo 148889" transform="translate(762.494 7460.922)">
        <g id="Grupo_148888" data-name="Grupo 148888" clip-path="url(#clip-path-13)">
          <path id="Trazado_249173" data-name="Trazado 249173" d="M245.579,106.5l-.135-.139a3.157,3.157,0,0,0-.072-.357,1.252,1.252,0,0,0-1.855-.705q-5.525,2.406-11.011,4.9a1.225,1.225,0,0,0-.671,1.705,1.263,1.263,0,0,0,1.811.5c3.651-1.618,7.3-3.231,10.934-4.893.4-.185.669-.669,1-1.015m-.142-22.358a1.317,1.317,0,0,0-1.922-1.354c-3.684,1.6-7.348,3.251-11.006,4.912a1.242,1.242,0,1,0,1.075,2.229c3.675-1.622,7.351-3.244,11-4.914.4-.184.665-.677.849-.873m.08,14.934a7.145,7.145,0,0,0-.2-.693c-.3-.707-.945-.96-1.857-.562q-5.489,2.393-10.941,4.871a1.238,1.238,0,0,0-.663,1.763,1.268,1.268,0,0,0,1.779.456c3.651-1.616,7.3-3.228,10.934-4.888.4-.185.675-.666.946-.946m-.085-22.411a1.312,1.312,0,0,0-1.894-1.38c-3.684,1.6-7.35,3.244-11.009,4.9a1.235,1.235,0,0,0-.672,1.758,1.3,1.3,0,0,0,1.842.441c3.627-1.611,7.258-3.212,10.866-4.863.406-.186.679-.664.867-.857M232.74,97.692c.488-.171.819-.256,1.122-.4,1.675-.788,3.328-1.627,5.019-2.378,1.824-.81,3.681-1.546,5.525-2.31.831-.344,1.194-.95.959-1.625-.254-.733-.92-1-1.8-.726a4.252,4.252,0,0,0-.481.173q-5.262,2.366-10.521,4.741c-.175.079-.422.182-.468.327a2.593,2.593,0,0,0-.231,1.332c.1.354.589.6.879.866" transform="translate(-189.187 -61.354)" fill="#fff"/>
          <path id="Trazado_249174" data-name="Trazado 249174" d="M75.013,69.444a6.924,6.924,0,0,1-1.9,3.786,6.628,6.628,0,0,1-4.807,1.786q-24.539-.01-49.079,0c-4.224,0-8.448.011-12.672,0A6.04,6.04,0,0,1,.663,71.426a7.248,7.248,0,0,1-.634-2.965Q-.028,44.435,0,20.408a2.754,2.754,0,0,1,.05-.654,1.2,1.2,0,0,1,1.205-.985,1.232,1.232,0,0,1,1.21,1.068,6.018,6.018,0,0,1,.028.877q0,23.7,0,47.394c0,2.951,1.456,4.408,4.4,4.408H36.243c0-.93.024-1.82-.023-2.706-.008-.154-.3-.351-.5-.428a26.065,26.065,0,0,0-9.565-1.858A81.593,81.593,0,0,0,7.023,69.86c-1.414.35-2.029-.133-2.029-1.6q0-27.03,0-54.06c0-1.158.262-1.475,1.416-1.771A81.1,81.1,0,0,1,26.2,10.013a28.718,28.718,0,0,1,11.248,2.322A1.938,1.938,0,0,1,38.778,14.4q-.034,23.038-.016,46.075v1.087c.346-.183.593-.31.836-.443a136.163,136.163,0,0,1,19.851-9.289.714.714,0,0,0,.581-.774q-.02-23.734-.012-47.467c0-.12-.019-.24-.039-.458-.283.1-.526.182-.761.28a132.111,132.111,0,0,0-16.535,8.442,8.094,8.094,0,0,1-.895.494,1.211,1.211,0,0,1-1.593-.475,1.173,1.173,0,0,1,.361-1.619c.7-.484,1.448-.9,2.186-1.331A125.8,125.8,0,0,1,60.383.256,2.706,2.706,0,0,0,60.8,0h.879a1.893,1.893,0,0,1,.851,1.8q-.02,25.089-.011,50.178c0,1.18-.187,1.484-1.252,1.858A138.427,138.427,0,0,0,38.627,64.556a3.509,3.509,0,0,1-1,.429,1.146,1.146,0,0,1-1.3-.921,5.469,5.469,0,0,1-.072-1.092q0-23.734.016-47.468a1.144,1.144,0,0,0-.9-1.3A28.836,28.836,0,0,0,24.96,12.518,89.965,89.965,0,0,0,8.344,14.509c-.679.145-.872.395-.871,1.093q.034,25.309.018,50.618v.91c.889-.177,1.71-.344,2.532-.5a77.462,77.462,0,0,1,17.9-1.544,26.846,26.846,0,0,1,8.942,2.057,1.814,1.814,0,0,0,1.39.044,39.43,39.43,0,0,1,16-2.056,80.381,80.381,0,0,1,13.234,1.959c.014-.289.037-.541.037-.794q0-25.345.016-50.691c0-.673-.172-.982-.866-1a2.851,2.851,0,0,1-.986-.248A1.121,1.121,0,0,1,64.949,13a1.079,1.079,0,0,1,1.188-.972,17.555,17.555,0,0,1,3.071.618c.34.106.577.649.782,1.034a1.685,1.685,0,0,1,.032.723q0,26.847,0,53.694c0,.171.008.343,0,.513a1.284,1.284,0,0,1-1.736,1.3c-1.83-.413-3.645-.9-5.488-1.247A63.8,63.8,0,0,0,48.66,67.569a33.864,33.864,0,0,0-9.5,1.952.694.694,0,0,0-.38.5c-.041.8-.018,1.6-.018,2.493h.848q14.321,0,28.642,0c2.749,0,4.262-1.511,4.262-4.256q0-23.734,0-47.468c0-.22,0-.439,0-.659a1.239,1.239,0,0,1,.946-1.314,1.193,1.193,0,0,1,1.376.585c.054.079.114.153.172.23Z" transform="translate(0)" fill="#fff"/>
          <path id="Trazado_249175" data-name="Trazado 249175" d="M85.617,248.419c-1.5-.154-3-.356-4.5-.451a38.065,38.065,0,0,0-10.673.969c-.214.048-.428.1-.644.136a1.23,1.23,0,0,1-1.48-.867,1.2,1.2,0,0,1,.884-1.53c1.085-.277,2.183-.519,3.289-.7a38.134,38.134,0,0,1,12.094-.2,11.415,11.415,0,0,1,1.5.32,1.2,1.2,0,0,1,.868,1.419,1.114,1.114,0,0,1-1.332.9" transform="translate(-55.74 -200.36)" fill="#fff"/>
          <path id="Trazado_249176" data-name="Trazado 249176" d="M79.625,285.427c2.1.27,4.2.511,6.3.824a1.2,1.2,0,0,1,1.044,1.494,1.25,1.25,0,0,1-1.511.942A36.484,36.484,0,0,0,70,289.231c-.919.2-1.591-.2-1.7-1.005-.093-.712.3-1.211,1.155-1.422a40.559,40.559,0,0,1,8.754-1.177c.463-.011.927,0,1.391,0q.01-.1.021-.2" transform="translate(-55.76 -233.054)" fill="#fff"/>
          <path id="Trazado_249177" data-name="Trazado 249177" d="M79.787,122.2c1.691.207,3.819.443,5.938.74a1.239,1.239,0,0,1,1.176,1.473,1.255,1.255,0,0,1-1.614.975,36.283,36.283,0,0,0-15.3.557,1.374,1.374,0,0,1-1.474-.362,1.25,1.25,0,0,1,.83-2.049c1.621-.337,3.249-.669,4.889-.879,1.69-.217,3.4-.285,5.56-.454" transform="translate(-55.688 -99.778)" fill="#fff"/>
          <path id="Trazado_249178" data-name="Trazado 249178" d="M79.739,203.982c1.57.182,3.7.423,5.822.682a2.437,2.437,0,0,1,.763.238,1.12,1.12,0,0,1,.622,1.346,1.107,1.107,0,0,1-1.077.93,3.069,3.069,0,0,1-.8-.064,33.011,33.011,0,0,0-11.568-.052c-1.252.187-2.486.482-3.734.7a1.19,1.19,0,0,1-1.448-.9,1.225,1.225,0,0,1,.862-1.487,1.6,1.6,0,0,1,.28-.085c1.775-.312,3.542-.677,5.327-.915,1.447-.193,2.915-.234,4.952-.386" transform="translate(-55.752 -166.553)" fill="#fff"/>
          <path id="Trazado_249179" data-name="Trazado 249179" d="M79.6,162.933c1.894.228,4,.468,6.095.741a1.263,1.263,0,0,1,1.264,1.193c.069.929-.65,1.429-1.756,1.265s-2.214-.347-3.327-.448a37.949,37.949,0,0,0-11.616.964c-.119.026-.236.062-.356.08a1.254,1.254,0,0,1-1.6-.895,1.24,1.24,0,0,1,1.072-1.547c1.26-.28,2.524-.573,3.8-.732,2.054-.255,4.12-.406,6.419-.622" transform="translate(-55.744 -133.036)" fill="#fff"/>
          <path id="Trazado_249180" data-name="Trazado 249180" d="M245.583,239.958c-.33.346-.6.83-1,1.015-3.631,1.662-7.284,3.275-10.934,4.893a1.262,1.262,0,0,1-1.811-.5,1.225,1.225,0,0,1,.671-1.706q5.49-2.485,11.011-4.9a1.252,1.252,0,0,1,1.855.705,3.115,3.115,0,0,1,.072.357l.136.139" transform="translate(-189.191 -194.815)" fill="#fff"/>
          <path id="Trazado_249181" data-name="Trazado 249181" d="M245.44,117.5c-.184.2-.446.689-.849.873-3.653,1.67-7.329,3.292-11,4.914a1.242,1.242,0,1,1-1.075-2.229c3.658-1.661,7.322-3.309,11.006-4.912a1.317,1.317,0,0,1,1.922,1.354" transform="translate(-189.191 -94.715)" fill="#fff"/>
          <path id="Trazado_249182" data-name="Trazado 249182" d="M245.517,199.137c-.272.281-.541.761-.946.946-3.631,1.66-7.283,3.272-10.934,4.888a1.268,1.268,0,0,1-1.779-.456,1.238,1.238,0,0,1,.663-1.763q5.455-2.47,10.941-4.871c.912-.4,1.553-.145,1.857.562a7.133,7.133,0,0,1,.2.693" transform="translate(-189.188 -161.419)" fill="#fff"/>
          <path id="Trazado_249183" data-name="Trazado 249183" d="M245.431,76.662c-.189.193-.461.671-.867.857-3.609,1.651-7.24,3.252-10.866,4.863a1.3,1.3,0,0,1-1.842-.441,1.236,1.236,0,0,1,.672-1.759c3.659-1.657,7.325-3.3,11.009-4.9a1.312,1.312,0,0,1,1.894,1.38" transform="translate(-189.187 -61.355)" fill="#fff"/>
          <path id="Trazado_249184" data-name="Trazado 249184" d="M233.3,164.464c-.291-.268-.778-.512-.879-.866a2.593,2.593,0,0,1,.231-1.332c.046-.145.293-.248.468-.327q5.258-2.377,10.521-4.741a4.254,4.254,0,0,1,.481-.173c.884-.276,1.55-.007,1.8.726.234.675-.128,1.282-.959,1.625-1.844.764-3.7,1.5-5.525,2.31-1.691.752-3.344,1.59-5.019,2.378-.3.143-.634.228-1.122.4" transform="translate(-189.747 -128.126)" fill="#fff"/>
        </g>
      </g>
      <g id="Grupo_148891" data-name="Grupo 148891" transform="translate(600 7291.113)">
        <g id="Grupo_148890" data-name="Grupo 148890" clip-path="url(#clip-path-14)">
          <path id="Trazado_249185" data-name="Trazado 249185" d="M15.884,80.444c-.288-.261-.588-.51-.863-.785Q7.908,72.552.791,65.448A2.4,2.4,0,0,1,0,63.6Q.03,32.762.016,1.929C.016.32.334,0,1.936,0H63.447c1.607,0,1.929.321,1.929,1.921q0,27.456,0,54.912v.923h-2.5V2.556H2.589v60.29h13.08c1.62,0,1.943.317,1.943,1.907q0,6.128,0,12.255v.9H62.862v2.534ZM4.726,65.405,15.052,75.73V65.405Z" transform="translate(0 0)" fill="#fff"/>
          <path id="Trazado_249186" data-name="Trazado 249186" d="M91.161,123.08q-4.255-4.229-8.508-8.459-2.644-2.633-5.276-5.276c-1.117-1.117-1.122-1.565-.032-2.667.164-.165.32-.338.419-.443L72.7,101.186a26.5,26.5,0,1,1,4.386-4.376c.842.809,1.714,1.623,2.559,2.464s1.636,1.682,2.667,2.746a8.882,8.882,0,0,1,.81-1.1,1.227,1.227,0,0,1,1.932-.01c.74.7,1.45,1.438,2.172,2.16q5.61,5.609,11.219,11.219c.987.988.987,1.515,0,2.5q-2.775,2.779-5.555,5.553c-.255.254-.525.492-.788.737ZM56.449,104.223a23.88,23.88,0,1,0-23.892-23.63,23.89,23.89,0,0,0,23.892,23.63m27.142,7.486,8.025,8.014,4.236-4.242-8-8.023-4.262,4.251m-2.085-1.934,4.36-4.365-1.712-1.783-4.423,4.435,1.774,1.713M74.893,99.222l4.956,4.949.4-.427-4.917-4.993-.444.471" transform="translate(-23.743 -42.636)" fill="#fff"/>
          <path id="Trazado_249187" data-name="Trazado 249187" d="M30.25,34c-1.571,0-3.142.007-4.713,0-1.07-.006-1.515-.458-1.518-1.541q-.011-3.5,0-6.991c0-1.072.454-1.516,1.54-1.518q4.752-.009,9.5,0c1.072,0,1.517.455,1.52,1.54q.011,3.5,0,6.991c0,1.07-.459,1.515-1.541,1.52-1.6.008-3.194,0-4.792,0m-3.682-2.566h7.444V26.5H26.568Z" transform="translate(-18.972 -18.917)" fill="#fff"/>
          <rect id="Rectángulo_90080" data-name="Rectángulo 90080" width="33.837" height="2.418" transform="translate(25.219 5.083)" fill="#fff"/>
          <rect id="Rectángulo_90081" data-name="Rectángulo 90081" width="22.553" height="2.415" transform="translate(20.161 67.917)" fill="#fff"/>
          <rect id="Rectángulo_90082" data-name="Rectángulo 90082" width="22.525" height="2.42" transform="translate(25.218 72.956)" fill="#fff"/>
          <path id="Trazado_249188" data-name="Trazado 249188" d="M30.26,83.836v2.473H26.544v7.57c-.466,0-.851.017-1.233,0a1.226,1.226,0,0,1-1.286-1.289c-.02-2.485-.015-4.97,0-7.454a1.148,1.148,0,0,1,1.121-1.276c1.691-.059,3.385-.019,5.117-.019" transform="translate(-18.971 -66.229)" fill="#fff"/>
          <rect id="Rectángulo_90083" data-name="Rectángulo 90083" width="2.441" height="2.399" transform="translate(20.184 5.078)" fill="#fff"/>
          <rect id="Rectángulo_90084" data-name="Rectángulo 90084" width="2.426" height="2.412" transform="translate(20.177 72.946)" fill="#fff"/>
          <path id="Trazado_249189" data-name="Trazado 249189" d="M59.959,103.889a20.11,20.11,0,1,1,20.011,20.169,20.123,20.123,0,0,1-20.011-20.169M80.081,86.351A17.594,17.594,0,1,0,97.665,104.1,17.622,17.622,0,0,0,80.081,86.351" transform="translate(-47.374 -66.24)" fill="#fff"/>
          <path id="Trazado_249190" data-name="Trazado 249190" d="M109.35,141.342c.782-.821,1.418-1.514,2.081-2.18q3.434-3.451,6.885-6.886a1.306,1.306,0,0,1,2.164-.04q1.736,1.706,3.442,3.443a1.287,1.287,0,0,1-.024,2.109q-6.739,6.754-13.494,13.492a1.282,1.282,0,0,1-2.107-.024q-2.981-2.961-5.941-5.942a1.282,1.282,0,0,1,0-2.106q1.708-1.734,3.443-3.443a1.283,1.283,0,0,1,2.106.01c.463.457.885.957,1.444,1.566m9.932-6.631a7.481,7.481,0,0,1-.55.7q-3.77,3.785-7.551,7.557c-1.762,1.761-1.883,1.77-3.6.014a2.71,2.71,0,0,1-.417-.758l-2.095,1.955,4.331,4.33,11.87-11.858-1.986-1.94" transform="translate(-80.436 -104.041)" fill="#fff"/>
        </g>
      </g>
    </g>
    <g id="Grupo_148903" data-name="Grupo 148903" transform="translate(758.884 7112.598)">
      <g id="Grupo_148884-2" data-name="Grupo 148884" clip-path="url(#clip-path)">
        <path id="Trazado_249151-2" data-name="Trazado 249151" d="M0,61.475a1.862,1.862,0,0,1,1.771-.842c2.676.027,5.352.01,8.028.01h.938c.017-.349.042-.633.044-.917q.157-22.559.31-45.118c.012-1.732.38-2.1,2.139-2.1q15.7,0,31.391.015a1.1,1.1,0,0,0,1.21-.814A18.911,18.911,0,1,1,66.543,37.56c-1.363.23-2.756.279-4.26.423v.847q0,14.411,0,28.822a10.4,10.4,0,0,1-8.562,10.435,17.7,17.7,0,0,1-3.274.2q-19.87.019-39.74.006A10.52,10.52,0,0,1,.15,69.548c-.034-.178-.1-.351-.15-.526V61.475M46,26.49a19.331,19.331,0,0,1-1.267-11.235H13.759c-.1,15.144-.2,30.222-.3,45.388H41.791c1.979,0,2.178.2,2.179,2.221,0,1.659-.024,3.318.008,4.976a7.816,7.816,0,0,0,7.85,7.77,7.723,7.723,0,0,0,7.753-7.758c.038-9.9.01-19.8.024-29.7,0-.486-.134-.678-.631-.8a18.521,18.521,0,0,1-11.168-7.676,1.038,1.038,0,0,0-.979-.507c-3.692.015-7.384.009-11.077.008-.776,0-1.553.028-2.327-.015A1.309,1.309,0,0,1,32.1,27.829,1.33,1.33,0,0,1,33.432,26.5c.213-.019.428-.007.642-.007H46Zm33.542-7.538a16.241,16.241,0,1,0-16.217,16.24,16.228,16.228,0,0,0,16.217-16.24M41.283,63.332H2.674c0,1.407-.007,2.765,0,4.123a7.806,7.806,0,0,0,8.186,8.156q16.491,0,32.982,0h.844a1.8,1.8,0,0,0-.171-.278,10.54,10.54,0,0,1-3.237-8.011c.015-1.308,0-2.617,0-3.991" transform="translate(0 0)" fill="#fff"/>
        <path id="Trazado_249152-2" data-name="Trazado 249152" d="M202.263,299.855c-2.89,0-5.78,0-8.67,0-.651,0-1.256-.208-1.385-.846a2.235,2.235,0,0,1,.332-1.44,1.328,1.328,0,0,1,1-.37q8.75-.032,17.5-.008a1.334,1.334,0,1,1-.025,2.656c-2.917.012-5.833,0-8.75,0" transform="translate(-159.976 -247.379)" fill="#fff"/>
        <path id="Trazado_249153-2" data-name="Trazado 249153" d="M201.755,227.758q4.294,0,8.589,0c1.013,0,1.592.463,1.623,1.265.032.831-.572,1.369-1.606,1.371q-8.588.012-17.177,0c-1.062,0-1.632-.5-1.613-1.355.019-.826.571-1.28,1.6-1.281q4.294-.008,8.588,0" transform="translate(-159.463 -189.586)" fill="#fff"/>
        <path id="Trazado_249154-2" data-name="Trazado 249154" d="M131.431,146.049a4.206,4.206,0,0,1-4.247,4.118,4.138,4.138,0,1,1,.037-8.27,4.2,4.2,0,0,1,4.209,4.153m-4.232,1.431a1.457,1.457,0,1,0-.028-2.9,1.456,1.456,0,1,0,.028,2.9" transform="translate(-102.315 -118.115)" fill="#fff"/>
        <path id="Trazado_249155-2" data-name="Trazado 249155" d="M131.427,215.249a4.259,4.259,0,1,1-4.2-4.236,4.207,4.207,0,0,1,4.2,4.236m-4.26,1.335a1.53,1.53,0,0,0,1.616-1.428,1.557,1.557,0,0,0-1.584-1.472,1.53,1.53,0,0,0-1.6,1.441,1.5,1.5,0,0,0,1.571,1.46" transform="translate(-102.314 -175.648)" fill="#fff"/>
        <path id="Trazado_249156-2" data-name="Trazado 249156" d="M131.43,284.393a4.259,4.259,0,1,1-4.133-4.207,4.145,4.145,0,0,1,4.133,4.207m-4.215,1.346a1.52,1.52,0,0,0,1.57-1.471,1.58,1.58,0,0,0-1.629-1.432,1.534,1.534,0,0,0-1.558,1.49,1.514,1.514,0,0,0,1.617,1.413" transform="translate(-102.316 -233.227)" fill="#fff"/>
        <path id="Trazado_249157-2" data-name="Trazado 249157" d="M350.566,61.305c0,.507.025.962-.006,1.413a1.254,1.254,0,0,1-1.3,1.247,1.165,1.165,0,0,1-1.282-1.232c.136-1.152-.369-1.616-1.345-2.114a5.156,5.156,0,0,1-2.864-4.608c-.046-.95.419-1.521,1.217-1.565s1.3.434,1.409,1.392a2.979,2.979,0,0,0,5.815.8,2.945,2.945,0,0,0-2.321-3.8c-.658-.107-1.338-.118-1.979-.284a5.6,5.6,0,0,1-.861-10.519,1.215,1.215,0,0,0,.9-1.4c-.05-.99.408-1.536,1.182-1.6a1.2,1.2,0,0,1,1.4,1.276c-.1,1.017.337,1.373,1.212,1.751a5.354,5.354,0,0,1,3.259,4.7,1.391,1.391,0,0,1-1.2,1.689c-.8.08-1.363-.476-1.473-1.444a2.93,2.93,0,0,0-3.152-2.826,2.982,2.982,0,0,0-2.789,2.973,3.024,3.024,0,0,0,2.985,2.965,5.635,5.635,0,0,1,1.568,11.05l-.383.135" transform="translate(-286.153 -32.493)" fill="#fff"/>
      </g>
    </g>
  </g>
</svg>
