<svg id="Grupo_149723" data-name="Grupo 149723" xmlns="http://www.w3.org/2000/svg" xmlns:xlink="http://www.w3.org/1999/xlink" width="79.151" height="79.141" viewBox="0 0 79.151 79.141">
  <defs>
    <clipPath id="clip-path">
      <rect id="Rectángulo_90557" data-name="Rectángulo 90557" width="79.151" height="79.141" fill="none"/>
    </clipPath>
  </defs>
  <g id="Grupo_149722" data-name="Grupo 149722" clip-path="url(#clip-path)">
    <path id="Trazado_262882" data-name="Trazado 262882" d="M0,34a9.8,9.8,0,0,0,.493-2.209,17.326,17.326,0,0,1,13.941-12.9c.522-.086.738-.261.847-.765a8.381,8.381,0,0,1,6.755-6.776,7.256,7.256,0,0,1,4.178.245c.46.167.641.043.858-.382A19.49,19.49,0,0,1,42.729.143c.1-.014.2-.023.237-.143h3.709c.94.191,1.892.334,2.817.579C57.071,2.593,61.89,7.43,64.06,14.932a12.9,12.9,0,0,1,.525,3.268.7.7,0,0,0,.68.8A16.991,16.991,0,0,1,75.38,25.173,17.275,17.275,0,0,1,61.616,53.166c-6.231.02-12.462.018-18.693.025a1.857,1.857,0,0,1-1.261.212c-.744.009-1.489.025-2.233-.01-1.052.019-2.1.027-3.156,0-6.437-.007-12.874.026-19.312-.011a16.946,16.946,0,0,1-10.5-3.762,17.382,17.382,0,0,1-6.1-9.25c-.234-.825-.15-1.681-.362-2.5Z"/>
    <path id="Trazado_262883" data-name="Trazado 262883" d="M42.919,309.422c.308.011.616.031.924.031q17.228,0,34.455-.014c.651,0,.859.112.853.823-.039,4.583-.03,9.167-.007,13.751a1.575,1.575,0,0,1-.541,1.269c-.935.885-1.838,1.8-2.733,2.729a1.275,1.275,0,0,1-1,.428q-35.305-.016-70.61,0a1.333,1.333,0,0,1-1-.435A36.532,36.532,0,0,0,0,324.874V309.419a1.3,1.3,0,0,1,.946-.248q17.506-.005,35.012,0c.051,0,.1.01.153.014,1.1-.022,2.191-.029,3.286,0,.889-.033,1.779-.016,2.669-.009a1.057,1.057,0,0,1,.853.24" transform="translate(0 -249.298)"/>
    <path id="Trazado_262884" data-name="Trazado 262884" d="M206.027,281.624h-3.532a1.4,1.4,0,0,1-.055-1.375.359.359,0,0,1,.113-.1c1.132-.441,1.132-.441,1.132-1.7a2.223,2.223,0,0,1,0-.23c.1-.985.084-1.891-1.232-2.006a1.553,1.553,0,0,1,.045-1.521h3.533c-.216.913.278,1.165,1.066,1.143-.338.461-.839.282-1.271.287-.558.006-.783.226-.763.78.023.637.036,1.278,0,1.913-.049.8-.023,1.529.97,1.733l0,1.075" transform="translate(-163.108 -221.5)" fill="#57a3fe"/>
    <path id="Trazado_262885" data-name="Trazado 262885" d="M216.629,285.271c-1.193-.063-1.193-.063-1.193-1.32,0-.925.033-1.853-.013-2.776-.027-.536.18-.654.659-.623.536.035,1.076.006,1.614.005.134,1.423.013,2.85.064,4.274.012.347-.124.444-.445.418a5.8,5.8,0,0,0-.686.022" transform="translate(-173.707 -226.222)"/>
    <path id="Trazado_262886" data-name="Trazado 262886" d="M387.021,294.815c0,1.175,0,1.175-1.444,1.174-.873,0-.873,0-.873-1.442,0-.878.008-.789,1.444-.907,1.111-.091.867.575.873,1.174" transform="translate(-310.209 -236.773)" fill="#010101"/>
    <path id="Trazado_262887" data-name="Trazado 262887" d="M387.023,275.085c0,1.106,0,1.106-1.44,1.105-.879,0-.879,0-.879-1.436,0-.884,0-.884,1.44-.884.879,0,.879,0,.879,1.214" transform="translate(-310.209 -220.838)" fill="#010101"/>
    <path id="Trazado_262888" data-name="Trazado 262888" d="M384.629,255.113c0-1.2,0-1.2,1.4-1.2.919,0,.919,0,.918,1.483,0,.837-.008.747-1.476.865-1.159.094-.8-.638-.843-1.153" transform="translate(-310.134 -204.749)" fill="#010101"/>
    <path id="Trazado_262889" data-name="Trazado 262889" d="M38.732,30.719a4.428,4.428,0,0,1,1.6-.169c2.032,0,4.065,0,6.1.007a7.864,7.864,0,0,0,.1-2.041c.021-.275-.142-.352-.387-.346-.309.007-.618,0-.926,0-.766-.008-.906-.178-.676-.933A7,7,0,0,1,46.5,23.967c.407-.367.715-.908,1.387-.839A5.711,5.711,0,0,1,50.946,24.2c.483.3.74.345.929-.308a18.675,18.675,0,0,1,.81-1.974c.691-.279,1.3.081,1.915.279.96.31.966.342,1.377-.6a18.862,18.862,0,0,1,6.349-7.681,13.851,13.851,0,0,1,3.28-1.784,15.681,15.681,0,0,1,8.122.568A17.241,17.241,0,0,1,85.641,26.167a15.546,15.546,0,0,1,.285,3.61c-.012.574.168.74.723.789A14.667,14.667,0,0,1,97.119,36.1,14.985,14.985,0,0,1,89.2,59.914a15.519,15.519,0,0,1-3.818.486q-22.252,0-44.5,0a7.159,7.159,0,0,1-1.995-.175,10.188,10.188,0,0,1-3.442-1.959c-.28-.219-.563-.531.115-.618a26.016,26.016,0,0,0,3.818.927,7.475,7.475,0,0,0,.768.07.468.468,0,0,0,.538-.509c.008-.232,0-.464.008-.695.026-.484-.189-.667-.677-.715a11.185,11.185,0,0,1-5.663-2.067,11.346,11.346,0,0,1-4.762-8.314,2.262,2.262,0,0,0-.216-.893,8.431,8.431,0,0,1,.325-3.961,15.964,15.964,0,0,1,8.12-10.4c.3-.161.628-.213.919-.373" transform="translate(-23.584 -9.55)" fill="#d0e6f7"/>
    <path id="Trazado_262890" data-name="Trazado 262890" d="M21.478,136.373c-.4.094-.137.2-.006.3a27.21,27.21,0,0,0,3.414,2.146,13.865,13.865,0,0,1-8.811-4.457,14.8,14.8,0,0,1,.66-21.272,13.51,13.51,0,0,1,8-3.772c-1.235.856-2.575,1.543-3.736,2.529a15.8,15.8,0,0,0-4.454,6.241,13.709,13.709,0,0,0-1.087,5.912c-.3.291-.678.215-1.022.194-.614-.036-.847.22-.778.816a13.558,13.558,0,0,0,2.991,7.375,13.139,13.139,0,0,0,4.418,3.516c.192.091.463.145.411.466" transform="translate(-9.586 -88.153)" fill="#b2d7f3"/>
    <path id="Trazado_262891" data-name="Trazado 262891" d="M163.2,13.335a21.413,21.413,0,0,1-2.612,1.565,19.5,19.5,0,0,0-6.06,6.412,24.049,24.049,0,0,0-1.106,2.276c-.169.376-.293.465-.657.262a7.452,7.452,0,0,0-2.486-.73A17.223,17.223,0,0,1,163.2,13.335" transform="translate(-121.183 -10.753)" fill="#b2d7f3"/>
    <path id="Trazado_262892" data-name="Trazado 262892" d="M97.454,69.792a7.282,7.282,0,0,0-3.249,4.47c-.11.383.1.474.451.5,1.539.114,1.545.123,1.523,1.692,0,.261.131.574-.185.767.02-.563.016-1.128.067-1.688.045-.492-.1-.659-.624-.646-1.437.035-2.876.008-4.314.008-.264,0-.469.055-.394-.389a6.251,6.251,0,0,1,6.724-4.714" transform="translate(-73.148 -56.215)" fill="#b2d7f3"/>
    <path id="Trazado_262893" data-name="Trazado 262893" d="M186.225,274.694q0,.749,0,1.5c-.807.229-.925.824-.847,1.547a4.367,4.367,0,0,1,0,1,1.2,1.2,0,0,0,.842,1.487q0,.7,0,1.4l-3.187,0q0-.535,0-1.07c.973-.2,1.045-.9.984-1.713a15.913,15.913,0,0,1,0-1.91c.027-.6-.243-.808-.818-.808-.377,0-.828.15-1.1-.293.946-.042.946-.042.938-1.134h3.192" transform="translate(-146.834 -221.502)" fill="#006cee"/>
    <path id="Trazado_262894" data-name="Trazado 262894" d="M100.147,322.851q.012,5.715.03,11.43a.95.95,0,0,1-.316.745q-.861.832-1.692,1.694a.9.9,0,0,1-.811.342,2.318,2.318,0,0,0-.309,0H31.707c-.257,0-.514-.016-.771-.024-1.185-.692-2.106-1.526-1.937-3.093.079-.735,0-1.486.018-2.23.005-.3-.032-.625.247-.851.378.02.394.359.5.6a4.371,4.371,0,0,0,6.664,2.008,2.2,2.2,0,0,1,.478-.249,3.62,3.62,0,0,0,2.732-1.5c.13-.193.3-.366.575-.267.37.359.548.851.882,1.243a4.346,4.346,0,0,0,5.74.9,2.783,2.783,0,0,1,.747-.384,3.628,3.628,0,0,0,2.608-1.389c.137-.174.275-.373.534-.394.356.079.435.408.587.665a4.378,4.378,0,0,0,6.2,1.472,1.951,1.951,0,0,1,.745-.383,3.262,3.262,0,0,0,3.107-2.72,3.173,3.173,0,0,0-2.082-3.593c-.388-.133-.793-.208-1.188-.321a6.112,6.112,0,0,0-2.924-1.043,4.414,4.414,0,0,0-3.881,2.212c-.161.257-.25.568-.544.726a.25.25,0,0,1-.274-.089,4.011,4.011,0,0,0-3.05-1.813,5.3,5.3,0,0,0-2.912-1.031,4.354,4.354,0,0,0-3.729,2.046,3.119,3.119,0,0,1-.539.739.417.417,0,0,1-.54-.166,4.315,4.315,0,0,0-2.818-1.572,7.267,7.267,0,0,0-2.542-1.021,4.468,4.468,0,0,0-4.56,2.7c-.114.241-.064.817-.651.523a4.05,4.05,0,0,1-.149-1.679c-.009-1.159-.015-2.318.005-3.476.01-.582.212-.948.881-.836a2.374,2.374,0,0,0,.386,0q34.493,0,68.985,0a1.659,1.659,0,0,1,.906.081" transform="translate(-23.359 -260.246)" fill="#78767f"/>
    <path id="Trazado_262895" data-name="Trazado 262895" d="M15.605,330.529a19.56,19.56,0,0,0-.083,4.274c.012.448.575.69.878,1.032.254.287.525.561.788.84l-2.47.024a.72.72,0,0,1-.576-.156q-1.034-1.041-2.072-2.077c-.188-.188-.139-.431-.139-.658,0-3.6.008-7.208-.012-10.811,0-.5.141-.672.652-.661,1.209.027,2.419-.006,3.629-.006q34.635,0,69.27.007c.308,0,.665-.159.93.155q-13.861,0-27.721-.009-21.119,0-42.239-.019c-.784,0-1.017.192-.981.981.067,1.438.015,2.882.023,4.323,0,.247-.087.52.133.732a2.9,2.9,0,0,1-.009,2.028" transform="translate(-9.611 -259.887)" fill="#57565c"/>
    <path id="Trazado_262896" data-name="Trazado 262896" d="M181.279,280.527a10.643,10.643,0,0,0,1.368.007c.662-.078.817.187.787.809-.052,1.044-.052,2.095,0,3.139.031.612-.162.838-.76.745a2.193,2.193,0,0,0-.456.024c-1.116-.068-1.116-.068-1.116-1.213,0-.942-.008-1.884.006-2.826,0-.233-.125-.518.171-.685" transform="translate(-146.018 -226.2)"/>
    <path id="Trazado_262897" data-name="Trazado 262897" d="M14.289,294.816c0,1.171,0,1.171-1.451,1.171-.868,0-.868,0-.868-1.447,0-.873.008-.782,1.449-.9,1.124-.093.846.595.869,1.178" transform="translate(-9.653 -236.771)" fill="#010101"/>
    <path id="Trazado_262898" data-name="Trazado 262898" d="M14.29,274.945c0,1.121,0,1.121-1.425,1.12-.894,0-.894,0-.894-1.421,0-.9.005-.824,1.5-.924,1.162-.077.753.683.819,1.224" transform="translate(-9.653 -220.713)" fill="#010101"/>
    <path id="Trazado_262899" data-name="Trazado 262899" d="M14.29,255.116c0,1.121,0,1.121-1.424,1.121-.895,0-.895,0-.894-1.42,0-.9,0-.9,1.5-.9.817,0,.817,0,.817,1.2" transform="translate(-9.653 -204.748)" fill="#010101"/>
    <path id="Trazado_262900" data-name="Trazado 262900" d="M199.1,286.368c-.843.109-1.1-.268-1.007-1.084a7.68,7.68,0,0,0,0-1.907c-.114-.848.2-1.16,1.015-1.046,1.341.061,1.341.061,1.341,1.392,0,.588-.041,1.179.011,1.762.058.649-.113.978-.825.855a2.363,2.363,0,0,0-.533.027" transform="translate(-159.712 -227.642)" fill="#010102"/>
    <path id="Trazado_262901" data-name="Trazado 262901" d="M28,197.517a14.328,14.328,0,0,1-5.521-4.538,13.594,13.594,0,0,1-2.5-7.161c-.031-.508.1-.688.617-.645a13.133,13.133,0,0,0,1.382-.023c.4.024.309.327.326.567a11.057,11.057,0,0,0,10.519,10.537c.492.03.578.186.579.634,0,1.828.023,1.807-1.784,1.586A17.625,17.625,0,0,1,28,197.517" transform="translate(-16.108 -149.297)"/>
    <path id="Trazado_262902" data-name="Trazado 262902" d="M275.379,45.674c-1.242-.01-1.056.124-1.135-1.111a13.082,13.082,0,0,0-2.754-7.139,12.381,12.381,0,0,0-3.509-3.192c-.375-.225-.382-.45-.2-.817.769-1.588.786-1.631,2.16-.646a15.589,15.589,0,0,1,6.488,10.345c.1.586.116,1.17.162,1.756.052.654-.187.9-.823.807a2.638,2.638,0,0,0-.386,0" transform="translate(-215.833 -25.892)" fill="#fefefe"/>
    <path id="Trazado_262903" data-name="Trazado 262903" d="M319.257,225.535c0-.232.012-.464,0-.694-.022-.368.151-.478.505-.5a11.11,11.11,0,0,0,8.135-4.108c.306-.362.507-.339.809-.1.06.048.113.106.174.153,1.32,1.018,1.328,1.094.112,2.252a14.837,14.837,0,0,1-4.767,3.179,14.455,14.455,0,0,1-3.869.934c-1.094.11-1.1.078-1.1-1.12" transform="translate(-257.433 -177.365)" fill="#fefefe"/>
    <path id="Trazado_262904" data-name="Trazado 262904" d="M231.437,20.978c.035-.538-.25-1.211.8-1.145,1.417.089,1.811.183,1.632.776-.174.576.312,1.617-.718,1.678-1.654.1-1.713-.026-1.713-1.308" transform="translate(-186.613 -15.988)" fill="#fdfefe"/>
    <path id="Trazado_262905" data-name="Trazado 262905" d="M377.34,185.167c.406.1,1.263-.313,1.047.7-.128.6.339,1.6-.652,1.729-1.124.147-1.8-.279-1.79-.795.027-1.594.063-1.638,1.4-1.638" transform="translate(-303.146 -149.308)" fill="#fefefe"/>
    <path id="Trazado_262906" data-name="Trazado 262906" d="M370.9,203.588c.668.2,1.232.365,1.793.539.17.053.254.162.166.349a3.072,3.072,0,0,0-.122.282c-.825,2.3-.577,1.873-2.447.859-.156-.085-.361-.151-.259-.389.21-.494.435-.983.659-1.471a.264.264,0,0,1,.211-.167" transform="translate(-298.353 -164.165)" fill="#fefefe"/>
    <path id="Trazado_262907" data-name="Trazado 262907" d="M251.3,23.306c.583,0,1.966.7,1.943.978-.041.508-.79,1.757-1.059,1.763-.434.01-1.694-.66-1.691-.9.01-.763.482-1.842.806-1.842" transform="translate(-201.986 -18.793)" fill="#fefefe"/>
    <path id="Trazado_262908" data-name="Trazado 262908" d="M170.652,243.862c0,1.1,0,1.1-1.45,1.1-.87,0-.87,0-.869-1.446,0-.874,0-.874,1.443-.874.876,0,.876,0,.876,1.217" transform="translate(-135.737 -195.66)" fill="#010101"/>
    <path id="Trazado_262909" data-name="Trazado 262909" d="M189.411,244.965c-1.126,0-1.126,0-1.125-1.42,0-.9,0-.9,1.418-.9.9,0,.9,0,.9,1.5,0,.82,0,.82-1.194.82" transform="translate(-151.826 -195.66)" fill="#010101"/>
    <path id="Trazado_262910" data-name="Trazado 262910" d="M209.4,244.964c-1.161,0-1.161,0-1.161-1.385,0-.935,0-.935,1.459-.934.861,0,.77.008.889,1.461.094,1.144-.618.822-1.188.858" transform="translate(-167.915 -195.659)" fill="#010101"/>
    <path id="Trazado_262911" data-name="Trazado 262911" d="M230.513,243.862c0,1.1,0,1.1-1.45,1.1-.87,0-.87,0-.869-1.446,0-.874,0-.874,1.443-.874.876,0,.876,0,.876,1.217" transform="translate(-184.006 -195.66)" fill="#010101"/>
    <path id="Trazado_262912" data-name="Trazado 262912" d="M147.1,344.015a4.713,4.713,0,0,1-7.511-1.848,3.033,3.033,0,0,1-.034-3.076,4.666,4.666,0,0,1,4.833-3.076,4.785,4.785,0,0,1,2.586,1.08c1.248.507,2.143,2.7,1.633,4.611a3.243,3.243,0,0,1-1.507,2.309" transform="translate(-112.205 -270.94)"/>
    <path id="Trazado_262913" data-name="Trazado 262913" d="M84.628,338.85c1.49-3.064,4.561-3.842,7.3-1.85a1.976,1.976,0,0,1,.97.827,4.819,4.819,0,0,1-.186,5.613,1.578,1.578,0,0,1-.663.5,4.655,4.655,0,0,1-5.436.526,4.431,4.431,0,0,1-2-2.348,2.778,2.778,0,0,1,.011-3.272" transform="translate(-67.806 -270.857)"/>
    <path id="Trazado_262914" data-name="Trazado 262914" d="M30.649,341.519a6.784,6.784,0,0,1,.009-2.028,4.645,4.645,0,0,1,7.562-2.437,3.831,3.831,0,0,1,1.719,3.684,4.572,4.572,0,0,1-.735,2.39,2.14,2.14,0,0,1-.959.847,4.669,4.669,0,0,1-6.708-.6,5.336,5.336,0,0,1-.889-1.854" transform="translate(-24.655 -270.878)"/>
    <path id="Trazado_262915" data-name="Trazado 262915" d="M287.8,332.856c-1.725,0-3.451-.02-5.176.012-.527.01-.646-.175-.65-.664-.013-1.668-.03-1.668,1.655-1.668,3.116,0,6.232.012,9.348-.011.572,0,.821.1.81.753-.027,1.577.007,1.577-1.584,1.577h-4.4" transform="translate(-227.371 -266.522)" fill="#fefefe"/>
    <path id="Trazado_262916" data-name="Trazado 262916" d="M337.679,379.006c-1.208,0-2.417-.018-3.624.009-.477.011-.669-.1-.672-.628-.008-1.7-.032-1.7,1.675-1.7,2.082,0,4.164.011,6.247-.009.448,0,.622.094.629.589.023,1.738.044,1.737-1.709,1.737h-2.545" transform="translate(-268.825 -303.739)"/>
    <path id="Trazado_262917" data-name="Trazado 262917" d="M179.666,348.555a4.662,4.662,0,0,0,.7-5.917c-.243-.357-.552-.67-.83-1,2.092.307,3,1.067,3.423,2.871a3.378,3.378,0,0,1-3.3,4.049" transform="translate(-144.774 -275.48)" fill="#57565c"/>
    <path id="Trazado_262918" data-name="Trazado 262918" d="M124.683,348.516a4.694,4.694,0,0,0-.121-6.944,3.8,3.8,0,0,1,3.227,2.009,6.232,6.232,0,0,0,.034,3.076c-.816,1.009-1.691,1.918-3.14,1.859" transform="translate(-100.442 -275.43)" fill="#57565b"/>
    <path id="Trazado_262919" data-name="Trazado 262919" d="M70.082,348.669a4.691,4.691,0,0,0,1.238-5.01,5.384,5.384,0,0,0-1.264-1.911,3.816,3.816,0,0,1,3,1.691c.048.069.172.084.26.125a4.656,4.656,0,0,0-.011,3.272c-.565.269-.7.963-1.281,1.246a3.724,3.724,0,0,1-1.939.586" transform="translate(-56.49 -275.572)" fill="#57565c"/>
    <path id="Trazado_262920" data-name="Trazado 262920" d="M371.794,332.866c-1.174,0-1.18,0-1.171-1.26.008-1.282-.12-1.049,1.381-1.059,1.134-.008.977-.125.978,1.308,0,1.192.119.992-1.188,1.012" transform="translate(-298.854 -266.531)" fill="#fbfbfb"/>
    <path id="Trazado_262921" data-name="Trazado 262921" d="M351.847,332.866c-1.377-.024-1.188.2-1.191-1.238,0-1.3-.13-1.072,1.357-1.081,1.169-.007,1-.135,1,1.362,0,1.128.108.939-1.166.957" transform="translate(-282.749 -266.53)" fill="#fbfbfb"/>
    <path id="Trazado_262922" data-name="Trazado 262922" d="M207.988,355.957c-1.223,0-1.223,0-1.223-1.213,0-1.108,0-1.108,1.33-1.107.991,0,1,0,.987,1.369-.009,1.1.146.934-1.094.951" transform="translate(-166.727 -285.158)" fill="#010101"/>
    <path id="Trazado_262923" data-name="Trazado 262923" d="M227.812,355.957c-1.094,0-1.094,0-1.094-1.265,0-1.056,0-1.056,1.3-1.055,1.015,0,1.015,0,1.015,1.344,0,.976,0,.976-1.226.976" transform="translate(-182.816 -285.158)" fill="#010101"/>
    <path id="Trazado_262924" data-name="Trazado 262924" d="M248.992,354.8c0,1.158,0,1.158-1.276,1.158-1.045,0-1.045,0-1.044-1.314,0-1.006,0-1.014,1.355-1,1.124.009.947-.155.965,1.16" transform="translate(-198.907 -285.158)" fill="#010101"/>
    <path id="Trazado_262925" data-name="Trazado 262925" d="M162.365,348.514a2.15,2.15,0,0,1,1.563,2.325,2.173,2.173,0,0,1-1.861,2.011c-1.167-.784-1.252-3.109-.314-4.146a.512.512,0,0,1,.611-.19" transform="translate(-129.915 -280.994)" fill="#90db5a"/>
    <path id="Trazado_262926" data-name="Trazado 262926" d="M155.176,348.16a2.393,2.393,0,0,0-1.05,2.429,4.529,4.529,0,0,0,.752,1.908,2.173,2.173,0,0,1-2.37-1.036,2.345,2.345,0,0,1,.137-2.544,2.2,2.2,0,0,1,2.53-.757" transform="translate(-122.727 -280.64)" fill="#64c27c"/>
    <path id="Trazado_262927" data-name="Trazado 262927" d="M107.548,348.5a2.163,2.163,0,0,1,1.573,2.344,2.135,2.135,0,0,1-1.9,2c-1.1-.634-1.161-3.095-.346-4.113a.56.56,0,0,1,.671-.23" transform="translate(-85.734 -280.98)" fill="#fee376"/>
    <path id="Trazado_262928" data-name="Trazado 262928" d="M100.259,348.143a2.527,2.527,0,0,0-1.042,2.341,5.266,5.266,0,0,0,.717,2,2.162,2.162,0,0,1-2.342-1.059,2.289,2.289,0,0,1,.2-2.586,2.177,2.177,0,0,1,2.468-.7" transform="translate(-78.445 -280.629)" fill="#fdb555"/>
    <path id="Trazado_262929" data-name="Trazado 262929" d="M52.666,348.483a2.23,2.23,0,0,1-.186,4.347c-1.206-.532-1.282-3.171-.422-4.137a.538.538,0,0,1,.608-.21" transform="translate(-41.514 -280.979)" fill="#fd7855"/>
    <path id="Trazado_262930" data-name="Trazado 262930" d="M45.309,348.163c-.705.275-.84.927-.937,1.545a3.405,3.405,0,0,0,.751,2.8,2.235,2.235,0,0,1-2.436-1.027,2.265,2.265,0,0,1,.167-2.586,2.2,2.2,0,0,1,2.455-.734" transform="translate(-34.156 -280.658)" fill="#fd3f61"/>
  </g>
</svg>
