<svg xmlns="http://www.w3.org/2000/svg" xmlns:xlink="http://www.w3.org/1999/xlink" width="525" height="232" viewBox="0 0 525 232">
  <defs>
    <clipPath id="clip-path">
      <rect id="Rectángulo_90544" data-name="Rectángulo 90544" width="83.135" height="107.901" fill="none"/>
    </clipPath>
  </defs>
  <g id="Grupo_149775" data-name="Grupo 149775" transform="translate(-790 -659)">
    <rect id="Image_Place_Holder" data-name="Image Place Holder" width="525" height="232" transform="translate(790 659)" fill="#d9eaea"/>
    <g id="Grupo_149705" data-name="Grupo 149705" transform="translate(1144.865 723)">
      <g id="Grupo_149705-2" data-name="Grupo 149705" clip-path="url(#clip-path)">
        <path id="Trazado_262529" data-name="Trazado 262529" d="M4.945,102.126a28.691,28.691,0,0,0-.008-5.318c1.274-.943,1.371-2.266,1.37-3.724Q6.266,59.3,6.288,25.507c0-.491-.008-.983.005-1.474.065-2.4,1.276-3.627,3.67-3.637,5.443-.022,10.886-.007,16.329-.006.642,0,1.285-.012,1.927.029a1.151,1.151,0,0,1,1.22,1.209c.07,1.586.056,3.173.008,4.76a1.188,1.188,0,0,1-1.271,1.284c-.794.042-1.587.025-2.381.026q-4.536.005-9.071,0a6.991,6.991,0,0,0-1.581.107,1.457,1.457,0,0,0-1.3,1.481c-.012.416-.021.831-.021,1.247q0,39.231,0,78.462c0,2.673.129,2.8,2.831,2.8h56.7c2.68,0,2.8-.121,2.8-2.822q0-39.174,0-78.348c0-2.632-.28-2.918-2.919-2.923-3.515-.008-7.03.005-10.545-.005-1.992-.006-2.175-.2-2.185-2.23-.005-1.1-.02-2.192.007-3.288.036-1.505.291-1.774,1.823-1.781,4.951-.023,9.9-.007,14.855-.009.945,0,1.89-.01,2.835,0,2.389.033,3.617,1.233,3.655,3.65.045,2.8.052,5.594,0,8.39-.029,1.442.051,2.784,1.267,3.779a51.829,51.829,0,0,0,.113,5.55c-1.53.816-1.428,2.237-1.439,3.673-.01,1.408-.056,2.772,1.321,3.654q0,2.075,0,4.15c0,.371-.054.752.3,1.019-1.477.769-1.564,2.089-1.562,3.559.027,18.927-.03,37.853.058,56.779.018,3.829-1.855,4.767-4.746,4.761q-34-.067-68-.025c-.34,0-.68,0-1.02-.011A3.432,3.432,0,0,1,6.3,115.594c-.039-3.286-.05-6.574.008-9.859.025-1.425-.115-2.705-1.365-3.609" transform="translate(-3.44 -14.205)" fill="#fc646f"/>
        <path id="Trazado_262530" data-name="Trazado 262530" d="M81.5,22.006a1.825,1.825,0,0,1-1.6-2.1c.023-3.364.017-6.729,0-10.093C79.9,7.62,78.825,6.5,76.655,6.488c-6.125-.022-12.249,0-18.374-.023-.7,0-.91.189-.889.89.05,1.662.053,3.327,0,4.989-.024.732.246.872.911.868,4.158-.026,8.317-.015,12.476-.012,1.959,0,2.379.428,2.379,2.412q0,39.976,0,79.953c0,1.989-.4,2.393-2.375,2.393H12.258c-1.893,0-2.317-.424-2.317-2.336q0-40.033,0-80.066c0-1.907.438-2.352,2.322-2.355,4.159,0,8.317-.017,12.476.013.711,0,1-.147.969-.925-.059-1.661-.044-3.326-.005-4.989.015-.64-.186-.833-.829-.831-6.162.021-12.325,0-18.487.022-2.181.009-3.2,1.157-3.2,3.488q0,29.2,0,58.405,0,6.067,0,12.134C3.18,81.9,2.8,82.355,1.5,82.6.17,82.4,0,81.483,0,80.355Q.02,50.932.01,21.509c0-3.893-.008-7.786,0-11.679.011-4,2.484-6.506,6.5-6.524q9.014-.041,18.029.017c.946.007,1.217-.229,1.177-1.173C25.647.532,26.236,0,27.892,0Q41.5,0,55.106,0c1.8,0,2.34.488,2.277,2.276-.031.888.26,1.045,1.08,1.04,5.9-.035,11.8.1,17.688-.058a6.436,6.436,0,0,1,6.974,6.928c-.171,3.241-.059,6.5-.023,9.749a1.77,1.77,0,0,1-1.6,2.069" transform="translate(0 0)"/>
        <path id="Trazado_262531" data-name="Trazado 262531" d="M1.506,179.989c1.3.253,1.674.7,1.677,2.1.008,3.7,0,7.406,0,11.109,0,2.5,1.088,3.6,3.577,3.6q34.748,0,69.5,0c2.577,0,3.654-1.069,3.654-3.634q0-29.36,0-58.721c0-1.744.384-2.211,1.88-2.315,1.183.281,1.3,1.159,1.3,2.183q-.018,26.532-.008,53.064c0,2.116.02,4.233-.005,6.349a6.077,6.077,0,0,1-6.234,6.239q-35.322.027-70.644,0a6.048,6.048,0,0,1-6.189-6.162c-.033-3.968,0-7.937-.016-11.905a1.641,1.641,0,0,1,1.5-1.9" transform="translate(-0.002 -92.068)"/>
        <path id="Trazado_262532" data-name="Trazado 262532" d="M265.158,98.225A1.905,1.905,0,0,1,263.565,96c.047-1.051,0-2.106.014-3.159.022-1.266.418-1.705,1.7-1.943a1.636,1.636,0,0,1,1.481,1.9c-.026,1.086-.054,2.175.007,3.258a1.843,1.843,0,0,1-1.607,2.174" transform="translate(-183.663 -63.342)" fill="#010001"/>
        <path id="Trazado_262533" data-name="Trazado 262533" d="M43.2,93.125q0-18.934-.022-37.869c0-1.013.221-1.317,1.287-1.314q27.213.054,54.426.005c.915,0,1.209.193,1.207,1.16q-.04,38.1,0,76.191c0,.906-.253,1.093-1.116,1.092q-27.327-.038-54.653.005c-.963,0-1.155-.251-1.152-1.176q.05-19.048.022-38.1" transform="translate(-30.086 -37.589)" fill="#def5fc"/>
        <path id="Trazado_262534" data-name="Trazado 262534" d="M107.848,10.437c3.852,0,7.7.021,11.557-.017.831-.008,1.187.124,1.159,1.085-.075,2.641-.05,5.287-.01,7.93.011.741-.115,1.051-.965,1.047q-11.727-.05-23.454-.008c-.688,0-1-.109-.984-.912.053-2.756.046-5.514,0-8.27-.012-.73.242-.873.91-.868,3.928.028,7.856.014,11.784.014" transform="translate(-66.306 -7.261)" fill="#f9d107"/>
        <path id="Trazado_262535" data-name="Trazado 262535" d="M145.148,80.147q-4.531,0-9.063,0c-1.36,0-2.047-.519-2.075-1.539-.029-1.069.683-1.633,2.092-1.634q9.12-.005,18.239,0c1.314,0,2.068.561,2.1,1.537.035,1.015-.757,1.633-2.118,1.635q-4.588.007-9.176,0" transform="translate(-93.384 -53.637)"/>
        <path id="Trazado_262536" data-name="Trazado 262536" d="M145.209,135.885c3.021,0,6.041-.005,9.061,0,1.324,0,2.073.563,2.1,1.534.026,1.021-.757,1.636-2.133,1.638q-9.118.008-18.236,0c-1.577,0-2.475-1.034-1.955-2.222a1.679,1.679,0,0,1,1.764-.956c3.134.012,6.268,0,9.4,0" transform="translate(-93.306 -94.689)" fill="#010101"/>
        <path id="Trazado_262537" data-name="Trazado 262537" d="M145.131,197.8c-3.058,0-6.116.006-9.174,0-1.294,0-1.934-.521-1.954-1.528-.02-1.023.69-1.638,2-1.64q9.231-.017,18.462,0c1.227,0,1.952.612,1.979,1.567.028.985-.728,1.6-2.021,1.6-3.1.008-6.192,0-9.288,0" transform="translate(-93.38 -135.618)" fill="#010101"/>
        <path id="Trazado_262538" data-name="Trazado 262538" d="M145.261,253.544q4.7,0,9.4,0a1.593,1.593,0,0,1,1.706,1.2,1.487,1.487,0,0,1-.713,1.745,1.821,1.821,0,0,1-1.087.236q-9.346,0-18.693-.005c-1.22,0-1.894-.611-1.867-1.626.025-.954.69-1.535,1.847-1.541,3.134-.014,6.269,0,9.4,0" transform="translate(-93.385 -176.68)"/>
        <path id="Trazado_262539" data-name="Trazado 262539" d="M81.24,137.354a1.929,1.929,0,0,1-.676,1.474c-2.458,2.45-4.9,4.913-7.369,7.356a1.6,1.6,0,0,1-2.638.031c-1.269-1.238-2.519-2.5-3.762-3.76-.872-.888-.937-1.771-.222-2.478.675-.666,1.626-.575,2.487.261.731.709,1.479,1.405,2.154,2.166.475.537.764.561,1.287.018,1.91-1.984,3.867-3.922,5.83-5.854.969-.954,2.2-.827,2.729.239a3.442,3.442,0,0,1,.18.547" transform="translate(-46.05 -94.719)"/>
        <path id="Trazado_262540" data-name="Trazado 262540" d="M67.6,198.307a1.946,1.946,0,0,1,1.339.621c.769.778,1.584,1.515,2.311,2.33.464.52.731.511,1.219.006,1.915-1.98,3.886-3.9,5.825-5.86a1.642,1.642,0,0,1,2.221-.419,1.509,1.509,0,0,1,.23,2.439q-3.836,3.927-7.76,7.767a1.475,1.475,0,0,1-2.228.013c-1.44-1.387-2.846-2.81-4.238-4.246a1.422,1.422,0,0,1-.286-1.672,1.7,1.7,0,0,1,1.368-.979" transform="translate(-46.05 -135.685)"/>
        <path id="Trazado_262541" data-name="Trazado 262541" d="M71.951,87.931a1.589,1.589,0,0,1-1.292-.5c-1.329-1.337-2.678-2.654-3.993-4a1.516,1.516,0,0,1-.137-2.3,1.581,1.581,0,0,1,2.4.086c.768.724,1.537,1.454,2.23,2.247.512.585.825.615,1.39.024,1.85-1.934,3.769-3.8,5.66-5.7a2.03,2.03,0,0,1,1.333-.772,1.531,1.531,0,0,1,1.485.843,1.463,1.463,0,0,1-.284,1.863c-1.128,1.164-2.286,2.3-3.432,3.447L73.23,87.244a1.672,1.672,0,0,1-1.279.686" transform="translate(-46.036 -53.664)"/>
        <path id="Trazado_262542" data-name="Trazado 262542" d="M71.82,264.487a1.619,1.619,0,0,1-1.249-.6c-1.275-1.284-2.566-2.553-3.832-3.847-.827-.845-.877-1.674-.192-2.382a1.583,1.583,0,0,1,2.4.11c.793.752,1.588,1.509,2.31,2.327.473.536.747.49,1.227-.005,1.916-1.976,3.883-3.9,5.823-5.854a1.611,1.611,0,0,1,2.217-.4,1.479,1.479,0,0,1,.278,2.349c-2.607,2.671-5.266,5.291-7.908,7.928a1.4,1.4,0,0,1-1.071.375" transform="translate(-46.043 -176.684)"/>
        <path id="Trazado_262543" data-name="Trazado 262543" d="M140.379,164.711c-1.509,0-3.018.013-4.527,0-1.162-.013-1.817-.58-1.841-1.54-.025-1.01.653-1.623,1.867-1.628q4.527-.018,9.054,0c1.163,0,1.813.574,1.836,1.54.024,1.023-.633,1.614-1.861,1.627-1.509.017-3.018,0-4.527,0" transform="translate(-93.385 -112.562)"/>
        <path id="Trazado_262544" data-name="Trazado 262544" d="M140.359,105.819c-1.508,0-3.017.019-4.525-.006-1.192-.02-1.815-.573-1.832-1.544-.017-.993.668-1.612,1.886-1.62q4.468-.026,8.936,0c1.262.006,1.923.563,1.94,1.562.017,1.017-.625,1.586-1.881,1.6-1.508.022-3.016.005-4.525,0" transform="translate(-93.379 -71.523)" fill="#010101"/>
        <path id="Trazado_262545" data-name="Trazado 262545" d="M140.338,223.659c-1.471,0-2.942.017-4.412-.005-1.224-.019-1.913-.617-1.917-1.6,0-1.024.63-1.562,1.908-1.566q4.469-.015,8.938,0c1.273,0,1.914.541,1.914,1.557,0,1-.677,1.592-1.906,1.61-1.508.023-3.017.005-4.525.005" transform="translate(-93.384 -153.641)" fill="#010101"/>
        <path id="Trazado_262546" data-name="Trazado 262546" d="M140.386,282.391c-1.508,0-3.017.017-4.525-.005-1.2-.018-1.826-.552-1.856-1.518-.031-1,.649-1.637,1.86-1.645q4.525-.031,9.049,0c1.214.008,1.885.642,1.853,1.649-.031.967-.652,1.5-1.857,1.515-1.508.022-3.016.005-4.525.005" transform="translate(-93.381 -194.565)" fill="#010101"/>
        <path id="Trazado_262547" data-name="Trazado 262547" d="M116.3,24.956c-2.341,0-4.681.008-7.022,0-1.234-.006-1.962-.578-2-1.521-.037-.989.729-1.644,2.006-1.647q7.022-.016,14.043,0c1.272,0,2.042.667,2,1.656-.039.938-.772,1.506-2.008,1.512-2.341.012-4.681,0-7.022,0" transform="translate(-74.759 -15.174)" fill="#010100"/>
      </g>
    </g>
  </g>
</svg>
