<svg xmlns="http://www.w3.org/2000/svg" width="1240" height="194" viewBox="0 0 1240 194">
  <g id="Grupo_149771" data-name="Grupo 149771" transform="translate(-180 -744)">
    <g id="Trazado_263858" data-name="Trazado 263858" transform="translate(223 744)" fill="#f2fbe3">
      <path d="M 95 192.5 C 88.65724945068359 192.5 82.31887817382812 191.8476257324219 76.16097259521484 190.5610046386719 C 70.16002655029297 189.3071746826172 64.25717163085938 187.4362487792969 58.61642456054688 185.0001983642578 C 53.07720184326172 182.6079711914062 47.734375 179.6468963623047 42.73632431030273 176.1992034912109 C 37.7848014831543 172.7835693359375 33.12839889526367 168.8607940673828 28.89649963378906 164.539794921875 C 24.66407585144043 160.2182769775391 20.82150077819824 155.4629516601562 17.4754753112793 150.4059295654297 C 14.09722518920898 145.3001708984375 11.19565010070801 139.8419036865234 8.851374626159668 134.1827239990234 C 6.463675022125244 128.418701171875 4.629849910736084 122.3866729736328 3.400825023651123 116.2541275024414 C 2.139524936676025 109.9606018066406 1.5 103.4825744628906 1.5 97 C 1.5 90.51742553710938 2.139524936676025 84.03939819335938 3.400825023651123 77.74587249755859 C 4.629849910736084 71.61332702636719 6.463675022125244 65.581298828125 8.851374626159668 59.81727600097656 C 11.19565010070801 54.15810012817383 14.09722518920898 48.69982528686523 17.4754753112793 43.59407424926758 C 20.82150077819824 38.53704833984375 24.66407585144043 33.7817268371582 28.89649963378906 29.4601993560791 C 33.12839889526367 25.13920021057129 37.7848014831543 21.2164249420166 42.73632431030273 17.80080032348633 C 47.734375 14.35309982299805 53.07720184326172 11.39202499389648 58.61642456054688 8.999799728393555 C 64.25717163085938 6.56374979019165 70.16002655029297 4.692824840545654 76.16097259521484 3.438999891281128 C 82.31887817382812 2.152374982833862 88.65724945068359 1.5 95 1.5 C 101.3427505493164 1.5 107.6811218261719 2.152374982833862 113.8390274047852 3.438999891281128 C 119.839973449707 4.692824840545654 125.7428283691406 6.56374979019165 131.3835754394531 8.999799728393555 C 136.9228057861328 11.39202499389648 142.265625 14.35309982299805 147.263671875 17.80080032348633 C 152.2151947021484 21.2164249420166 156.8715972900391 25.13920021057129 161.1035003662109 29.4601993560791 C 165.3359222412109 33.7817268371582 169.1784973144531 38.53704833984375 172.5245208740234 43.59407424926758 C 175.9027709960938 48.69982528686523 178.8043518066406 54.15810012817383 181.1486206054688 59.81727600097656 C 183.5363311767578 65.581298828125 185.3701477050781 71.61332702636719 186.5991821289062 77.74587249755859 C 187.8604736328125 84.03939819335938 188.5 90.51742553710938 188.5 97 C 188.5 103.4825744628906 187.8604736328125 109.9606018066406 186.5991821289062 116.2541275024414 C 185.3701477050781 122.3866729736328 183.5363311767578 128.418701171875 181.1486206054688 134.1827239990234 C 178.8043518066406 139.8419036865234 175.9027709960938 145.3001708984375 172.5245208740234 150.4059295654297 C 169.1784973144531 155.4629516601562 165.3359222412109 160.2182769775391 161.1035003662109 164.539794921875 C 156.8715972900391 168.8607940673828 152.2151947021484 172.7835693359375 147.263671875 176.1992034912109 C 142.265625 179.6468963623047 136.9228057861328 182.6079711914062 131.3835754394531 185.0001983642578 C 125.7428283691406 187.4362487792969 119.839973449707 189.3071746826172 113.8390274047852 190.5610046386719 C 107.6811218261719 191.8476257324219 101.3427505493164 192.5 95 192.5 Z" stroke="none"/>
      <path d="M 95 3 C 88.76010894775391 3 82.52497100830078 3.641708374023438 76.46773529052734 4.90728759765625 C 70.56539154052734 6.1405029296875 64.75942230224609 7.980743408203125 59.21113586425781 10.37686157226562 C 53.7618408203125 12.73027038574219 48.50547790527344 15.64344787597656 43.58805847167969 19.0355224609375 C 38.71539306640625 22.39674377441406 34.13299560546875 26.25721740722656 29.96815490722656 30.50973510742188 C 25.80226135253906 34.76333618164062 22.02000427246094 39.44403076171875 18.72642517089844 44.42178344726562 C 15.40103149414062 49.44767761230469 12.54481506347656 54.82060241699219 10.2371826171875 60.39134216308594 C 7.886703491210938 66.06544494628906 6.081466674804688 72.00350189208984 4.87158203125 78.04063415527344 C 3.629684448242188 84.23731231689453 3 90.61618041992188 3 97 C 3 103.3838195800781 3.629684448242188 109.7626876831055 4.87158203125 115.9593658447266 C 6.081466674804688 121.9964981079102 7.886703491210938 127.9345550537109 10.2371826171875 133.6086578369141 C 12.54481506347656 139.1793975830078 15.40103149414062 144.5523071289062 18.72642517089844 149.5782165527344 C 22.02000427246094 154.5559692382812 25.80226135253906 159.2366638183594 29.96815490722656 163.4902648925781 C 34.13299560546875 167.7427978515625 38.71539306640625 171.603271484375 43.58805847167969 174.9644775390625 C 48.50547790527344 178.3565521240234 53.7618408203125 181.2697448730469 59.21113586425781 183.6231384277344 C 64.75942230224609 186.0192565917969 70.56539154052734 187.8594970703125 76.46773529052734 189.0927124023438 C 82.52497100830078 190.3582916259766 88.76010894775391 191 95 191 C 101.2398910522461 191 107.4750289916992 190.3582916259766 113.5322341918945 189.0927124023438 C 119.4346084594727 187.8594970703125 125.2405548095703 186.0192565917969 130.7888488769531 183.6231384277344 C 136.2381591796875 181.2697448730469 141.4945220947266 178.3565521240234 146.4119567871094 174.9644775390625 C 151.2846069335938 171.603271484375 155.8670043945312 167.7427978515625 160.0318450927734 163.4902648925781 C 164.1977386474609 159.2366638183594 167.9799957275391 154.5559387207031 171.2735595703125 149.5782165527344 C 174.5989685058594 144.5523071289062 177.4551849365234 139.1793975830078 179.7628173828125 133.6086578369141 C 182.1132659912109 127.9345550537109 183.9185333251953 121.9964981079102 185.12841796875 115.9593658447266 C 186.3703155517578 109.7626876831055 187 103.3838195800781 187 97 C 187 90.61618041992188 186.3703155517578 84.23731231689453 185.12841796875 78.04063415527344 C 183.9185333251953 72.00350189208984 182.1132659912109 66.06544494628906 179.7628173828125 60.39134216308594 C 177.4551849365234 54.82060241699219 174.5989685058594 49.44767761230469 171.2735595703125 44.42178344726562 C 167.9799957275391 39.44404602050781 164.1977386474609 34.76333618164062 160.0318450927734 30.50973510742188 C 155.8670043945312 26.25721740722656 151.2846069335938 22.39674377441406 146.4119567871094 19.0355224609375 C 141.4945220947266 15.64344787597656 136.2381591796875 12.73027038574219 130.7888488769531 10.37686157226562 C 125.2405548095703 7.980743408203125 119.4346084594727 6.1405029296875 113.5322341918945 4.90728759765625 C 107.4750289916992 3.641708374023438 101.2398910522461 3 95 3 M 95 0 C 147.4670257568359 0 190 43.42837524414062 190 97 C 190 150.5716247558594 147.4670257568359 194 95 194 C 42.53294372558594 194 0 150.5716247558594 0 97 C 0 43.42837524414062 42.53294372558594 0 95 0 Z" stroke="none" fill="#a7e446"/>
    </g>
    <g id="Trazado_263856" data-name="Trazado 263856" transform="translate(538 744)" fill="#f2fbe3">
      <path d="M 95 192.5 C 88.65724945068359 192.5 82.31887817382812 191.8476257324219 76.16097259521484 190.5610046386719 C 70.16002655029297 189.3071746826172 64.25717163085938 187.4362487792969 58.61642456054688 185.0001983642578 C 53.07720184326172 182.6079711914062 47.734375 179.6468963623047 42.73632431030273 176.1992034912109 C 37.7848014831543 172.7835693359375 33.12839889526367 168.8607940673828 28.89649963378906 164.539794921875 C 24.66407585144043 160.2182769775391 20.82150077819824 155.4629516601562 17.4754753112793 150.4059295654297 C 14.09722518920898 145.3001708984375 11.19565010070801 139.8419036865234 8.851374626159668 134.1827239990234 C 6.463675022125244 128.418701171875 4.629849910736084 122.3866729736328 3.400825023651123 116.2541275024414 C 2.139524936676025 109.9606018066406 1.5 103.4825744628906 1.5 97 C 1.5 90.51742553710938 2.139524936676025 84.03939819335938 3.400825023651123 77.74587249755859 C 4.629849910736084 71.61332702636719 6.463675022125244 65.581298828125 8.851374626159668 59.81727600097656 C 11.19565010070801 54.15810012817383 14.09722518920898 48.69982528686523 17.4754753112793 43.59407424926758 C 20.82150077819824 38.53704833984375 24.66407585144043 33.7817268371582 28.89649963378906 29.4601993560791 C 33.12839889526367 25.13920021057129 37.7848014831543 21.2164249420166 42.73632431030273 17.80080032348633 C 47.734375 14.35309982299805 53.07720184326172 11.39202499389648 58.61642456054688 8.999799728393555 C 64.25717163085938 6.56374979019165 70.16002655029297 4.692824840545654 76.16097259521484 3.438999891281128 C 82.31887817382812 2.152374982833862 88.65724945068359 1.5 95 1.5 C 101.3427505493164 1.5 107.6811218261719 2.152374982833862 113.8390274047852 3.438999891281128 C 119.839973449707 4.692824840545654 125.7428283691406 6.56374979019165 131.3835754394531 8.999799728393555 C 136.9228057861328 11.39202499389648 142.265625 14.35309982299805 147.263671875 17.80080032348633 C 152.2151947021484 21.2164249420166 156.8715972900391 25.13920021057129 161.1035003662109 29.4601993560791 C 165.3359222412109 33.7817268371582 169.1784973144531 38.53704833984375 172.5245208740234 43.59407424926758 C 175.9027709960938 48.69982528686523 178.8043518066406 54.15810012817383 181.1486206054688 59.81727600097656 C 183.5363311767578 65.581298828125 185.3701477050781 71.61332702636719 186.5991821289062 77.74587249755859 C 187.8604736328125 84.03939819335938 188.5 90.51742553710938 188.5 97 C 188.5 103.4825744628906 187.8604736328125 109.9606018066406 186.5991821289062 116.2541275024414 C 185.3701477050781 122.3866729736328 183.5363311767578 128.418701171875 181.1486206054688 134.1827239990234 C 178.8043518066406 139.8419036865234 175.9027709960938 145.3001708984375 172.5245208740234 150.4059295654297 C 169.1784973144531 155.4629516601562 165.3359222412109 160.2182769775391 161.1035003662109 164.539794921875 C 156.8715972900391 168.8607940673828 152.2151947021484 172.7835693359375 147.263671875 176.1992034912109 C 142.265625 179.6468963623047 136.9228057861328 182.6079711914062 131.3835754394531 185.0001983642578 C 125.7428283691406 187.4362487792969 119.839973449707 189.3071746826172 113.8390274047852 190.5610046386719 C 107.6811218261719 191.8476257324219 101.3427505493164 192.5 95 192.5 Z" stroke="none"/>
      <path d="M 95 3 C 88.76010894775391 3 82.52497100830078 3.641708374023438 76.46773529052734 4.90728759765625 C 70.56539154052734 6.1405029296875 64.75942230224609 7.980743408203125 59.21113586425781 10.37686157226562 C 53.7618408203125 12.73027038574219 48.50547790527344 15.64344787597656 43.58805847167969 19.0355224609375 C 38.71539306640625 22.39674377441406 34.13299560546875 26.25721740722656 29.96815490722656 30.50973510742188 C 25.80226135253906 34.76333618164062 22.02000427246094 39.44403076171875 18.72642517089844 44.42178344726562 C 15.40103149414062 49.44767761230469 12.54481506347656 54.82060241699219 10.2371826171875 60.39134216308594 C 7.886703491210938 66.06544494628906 6.081466674804688 72.00350189208984 4.87158203125 78.04063415527344 C 3.629684448242188 84.23731231689453 3 90.61618041992188 3 97 C 3 103.3838195800781 3.629684448242188 109.7626876831055 4.87158203125 115.9593658447266 C 6.081466674804688 121.9964981079102 7.886703491210938 127.9345550537109 10.2371826171875 133.6086578369141 C 12.54481506347656 139.1793975830078 15.40103149414062 144.5523071289062 18.72642517089844 149.5782165527344 C 22.02000427246094 154.5559692382812 25.80226135253906 159.2366638183594 29.96815490722656 163.4902648925781 C 34.13299560546875 167.7427978515625 38.71539306640625 171.603271484375 43.58805847167969 174.9644775390625 C 48.50547790527344 178.3565521240234 53.7618408203125 181.2697448730469 59.21113586425781 183.6231384277344 C 64.75942230224609 186.0192565917969 70.56539154052734 187.8594970703125 76.46773529052734 189.0927124023438 C 82.52497100830078 190.3582916259766 88.76010894775391 191 95 191 C 101.2398910522461 191 107.4750289916992 190.3582916259766 113.5322341918945 189.0927124023438 C 119.4346084594727 187.8594970703125 125.2405548095703 186.0192565917969 130.7888488769531 183.6231384277344 C 136.2381591796875 181.2697448730469 141.4945220947266 178.3565521240234 146.4119567871094 174.9644775390625 C 151.2846069335938 171.603271484375 155.8670043945312 167.7427978515625 160.0318450927734 163.4902648925781 C 164.1977386474609 159.2366638183594 167.9799957275391 154.5559387207031 171.2735595703125 149.5782165527344 C 174.5989685058594 144.5523071289062 177.4551849365234 139.1793975830078 179.7628173828125 133.6086578369141 C 182.1132659912109 127.9345550537109 183.9185333251953 121.9964981079102 185.12841796875 115.9593658447266 C 186.3703155517578 109.7626876831055 187 103.3838195800781 187 97 C 187 90.61618041992188 186.3703155517578 84.23731231689453 185.12841796875 78.04063415527344 C 183.9185333251953 72.00350189208984 182.1132659912109 66.06544494628906 179.7628173828125 60.39134216308594 C 177.4551849365234 54.82060241699219 174.5989685058594 49.44767761230469 171.2735595703125 44.42178344726562 C 167.9799957275391 39.44404602050781 164.1977386474609 34.76333618164062 160.0318450927734 30.50973510742188 C 155.8670043945312 26.25721740722656 151.2846069335938 22.39674377441406 146.4119567871094 19.0355224609375 C 141.4945220947266 15.64344787597656 136.2381591796875 12.73027038574219 130.7888488769531 10.37686157226562 C 125.2405548095703 7.980743408203125 119.4346084594727 6.1405029296875 113.5322341918945 4.90728759765625 C 107.4750289916992 3.641708374023438 101.2398910522461 3 95 3 M 95 0 C 147.4670257568359 0 190 43.42837524414062 190 97 C 190 150.5716247558594 147.4670257568359 194 95 194 C 42.53294372558594 194 0 150.5716247558594 0 97 C 0 43.42837524414062 42.53294372558594 0 95 0 Z" stroke="none" fill="#a7e446"/>
    </g>
    <g id="Trazado_263853" data-name="Trazado 263853" transform="translate(853 744)" fill="#f2fbe3">
      <path d="M 95 192.5 C 88.65724945068359 192.5 82.31887817382812 191.8476257324219 76.16097259521484 190.5610046386719 C 70.16002655029297 189.3071746826172 64.25717163085938 187.4362487792969 58.61642456054688 185.0001983642578 C 53.07720184326172 182.6079711914062 47.734375 179.6468963623047 42.73632431030273 176.1992034912109 C 37.7848014831543 172.7835693359375 33.12839889526367 168.8607940673828 28.89649963378906 164.539794921875 C 24.66407585144043 160.2182769775391 20.82150077819824 155.4629516601562 17.4754753112793 150.4059295654297 C 14.09722518920898 145.3001708984375 11.19565010070801 139.8419036865234 8.851374626159668 134.1827239990234 C 6.463675022125244 128.418701171875 4.629849910736084 122.3866729736328 3.400825023651123 116.2541275024414 C 2.139524936676025 109.9606018066406 1.5 103.4825744628906 1.5 97 C 1.5 90.51742553710938 2.139524936676025 84.03939819335938 3.400825023651123 77.74587249755859 C 4.629849910736084 71.61332702636719 6.463675022125244 65.581298828125 8.851374626159668 59.81727600097656 C 11.19565010070801 54.15810012817383 14.09722518920898 48.69982528686523 17.4754753112793 43.59407424926758 C 20.82150077819824 38.53704833984375 24.66407585144043 33.7817268371582 28.89649963378906 29.4601993560791 C 33.12839889526367 25.13920021057129 37.7848014831543 21.2164249420166 42.73632431030273 17.80080032348633 C 47.734375 14.35309982299805 53.07720184326172 11.39202499389648 58.61642456054688 8.999799728393555 C 64.25717163085938 6.56374979019165 70.16002655029297 4.692824840545654 76.16097259521484 3.438999891281128 C 82.31887817382812 2.152374982833862 88.65724945068359 1.5 95 1.5 C 101.3427505493164 1.5 107.6811218261719 2.152374982833862 113.8390274047852 3.438999891281128 C 119.839973449707 4.692824840545654 125.7428283691406 6.56374979019165 131.3835754394531 8.999799728393555 C 136.9228057861328 11.39202499389648 142.265625 14.35309982299805 147.263671875 17.80080032348633 C 152.2151947021484 21.2164249420166 156.8715972900391 25.13920021057129 161.1035003662109 29.4601993560791 C 165.3359222412109 33.7817268371582 169.1784973144531 38.53704833984375 172.5245208740234 43.59407424926758 C 175.9027709960938 48.69982528686523 178.8043518066406 54.15810012817383 181.1486206054688 59.81727600097656 C 183.5363311767578 65.581298828125 185.3701477050781 71.61332702636719 186.5991821289062 77.74587249755859 C 187.8604736328125 84.03939819335938 188.5 90.51742553710938 188.5 97 C 188.5 103.4825744628906 187.8604736328125 109.9606018066406 186.5991821289062 116.2541275024414 C 185.3701477050781 122.3866729736328 183.5363311767578 128.418701171875 181.1486206054688 134.1827239990234 C 178.8043518066406 139.8419036865234 175.9027709960938 145.3001708984375 172.5245208740234 150.4059295654297 C 169.1784973144531 155.4629516601562 165.3359222412109 160.2182769775391 161.1035003662109 164.539794921875 C 156.8715972900391 168.8607940673828 152.2151947021484 172.7835693359375 147.263671875 176.1992034912109 C 142.265625 179.6468963623047 136.9228057861328 182.6079711914062 131.3835754394531 185.0001983642578 C 125.7428283691406 187.4362487792969 119.839973449707 189.3071746826172 113.8390274047852 190.5610046386719 C 107.6811218261719 191.8476257324219 101.3427505493164 192.5 95 192.5 Z" stroke="none"/>
      <path d="M 95 3 C 88.76010894775391 3 82.52497100830078 3.641708374023438 76.46773529052734 4.90728759765625 C 70.56539154052734 6.1405029296875 64.75942230224609 7.980743408203125 59.21113586425781 10.37686157226562 C 53.7618408203125 12.73027038574219 48.50547790527344 15.64344787597656 43.58805847167969 19.0355224609375 C 38.71539306640625 22.39674377441406 34.13299560546875 26.25721740722656 29.96815490722656 30.50973510742188 C 25.80226135253906 34.76333618164062 22.02000427246094 39.44403076171875 18.72642517089844 44.42178344726562 C 15.40103149414062 49.44767761230469 12.54481506347656 54.82060241699219 10.2371826171875 60.39134216308594 C 7.886703491210938 66.06544494628906 6.081466674804688 72.00350189208984 4.87158203125 78.04063415527344 C 3.629684448242188 84.23731231689453 3 90.61618041992188 3 97 C 3 103.3838195800781 3.629684448242188 109.7626876831055 4.87158203125 115.9593658447266 C 6.081466674804688 121.9964981079102 7.886703491210938 127.9345550537109 10.2371826171875 133.6086578369141 C 12.54481506347656 139.1793975830078 15.40103149414062 144.5523071289062 18.72642517089844 149.5782165527344 C 22.02000427246094 154.5559692382812 25.80226135253906 159.2366638183594 29.96815490722656 163.4902648925781 C 34.13299560546875 167.7427978515625 38.71539306640625 171.603271484375 43.58805847167969 174.9644775390625 C 48.50547790527344 178.3565521240234 53.7618408203125 181.2697448730469 59.21113586425781 183.6231384277344 C 64.75942230224609 186.0192565917969 70.56539154052734 187.8594970703125 76.46773529052734 189.0927124023438 C 82.52497100830078 190.3582916259766 88.76010894775391 191 95 191 C 101.2398910522461 191 107.4750289916992 190.3582916259766 113.5322341918945 189.0927124023438 C 119.4346084594727 187.8594970703125 125.2405548095703 186.0192565917969 130.7888488769531 183.6231384277344 C 136.2381591796875 181.2697448730469 141.4945220947266 178.3565521240234 146.4119567871094 174.9644775390625 C 151.2846069335938 171.603271484375 155.8670043945312 167.7427978515625 160.0318450927734 163.4902648925781 C 164.1977386474609 159.2366638183594 167.9799957275391 154.5559387207031 171.2735595703125 149.5782165527344 C 174.5989685058594 144.5523071289062 177.4551849365234 139.1793975830078 179.7628173828125 133.6086578369141 C 182.1132659912109 127.9345550537109 183.9185333251953 121.9964981079102 185.12841796875 115.9593658447266 C 186.3703155517578 109.7626876831055 187 103.3838195800781 187 97 C 187 90.61618041992188 186.3703155517578 84.23731231689453 185.12841796875 78.04063415527344 C 183.9185333251953 72.00350189208984 182.1132659912109 66.06544494628906 179.7628173828125 60.39134216308594 C 177.4551849365234 54.82060241699219 174.5989685058594 49.44767761230469 171.2735595703125 44.42178344726562 C 167.9799957275391 39.44404602050781 164.1977386474609 34.76333618164062 160.0318450927734 30.50973510742188 C 155.8670043945312 26.25721740722656 151.2846069335938 22.39674377441406 146.4119567871094 19.0355224609375 C 141.4945220947266 15.64344787597656 136.2381591796875 12.73027038574219 130.7888488769531 10.37686157226562 C 125.2405548095703 7.980743408203125 119.4346084594727 6.1405029296875 113.5322341918945 4.90728759765625 C 107.4750289916992 3.641708374023438 101.2398910522461 3 95 3 M 95 0 C 147.4670257568359 0 190 43.42837524414062 190 97 C 190 150.5716247558594 147.4670257568359 194 95 194 C 42.53294372558594 194 0 150.5716247558594 0 97 C 0 43.42837524414062 42.53294372558594 0 95 0 Z" stroke="none" fill="#a7e446"/>
    </g>
    <g id="Trazado_263851" data-name="Trazado 263851" transform="translate(1188 744)" fill="#f2fbe3">
      <path d="M 95 192.5 C 88.65724945068359 192.5 82.31887817382812 191.8476257324219 76.16097259521484 190.5610046386719 C 70.16002655029297 189.3071746826172 64.25717163085938 187.4362487792969 58.61642456054688 185.0001983642578 C 53.07720184326172 182.6079711914062 47.734375 179.6468963623047 42.73632431030273 176.1992034912109 C 37.7848014831543 172.7835693359375 33.12839889526367 168.8607940673828 28.89649963378906 164.539794921875 C 24.66407585144043 160.2182769775391 20.82150077819824 155.4629516601562 17.4754753112793 150.4059295654297 C 14.09722518920898 145.3001708984375 11.19565010070801 139.8419036865234 8.851374626159668 134.1827239990234 C 6.463675022125244 128.418701171875 4.629849910736084 122.3866729736328 3.400825023651123 116.2541275024414 C 2.139524936676025 109.9606018066406 1.5 103.4825744628906 1.5 97 C 1.5 90.51742553710938 2.139524936676025 84.03939819335938 3.400825023651123 77.74587249755859 C 4.629849910736084 71.61332702636719 6.463675022125244 65.581298828125 8.851374626159668 59.81727600097656 C 11.19565010070801 54.15810012817383 14.09722518920898 48.69982528686523 17.4754753112793 43.59407424926758 C 20.82150077819824 38.53704833984375 24.66407585144043 33.7817268371582 28.89649963378906 29.4601993560791 C 33.12839889526367 25.13920021057129 37.7848014831543 21.2164249420166 42.73632431030273 17.80080032348633 C 47.734375 14.35309982299805 53.07720184326172 11.39202499389648 58.61642456054688 8.999799728393555 C 64.25717163085938 6.56374979019165 70.16002655029297 4.692824840545654 76.16097259521484 3.438999891281128 C 82.31887817382812 2.152374982833862 88.65724945068359 1.5 95 1.5 C 101.3427505493164 1.5 107.6811218261719 2.152374982833862 113.8390274047852 3.438999891281128 C 119.839973449707 4.692824840545654 125.7428283691406 6.56374979019165 131.3835754394531 8.999799728393555 C 136.9228057861328 11.39202499389648 142.265625 14.35309982299805 147.263671875 17.80080032348633 C 152.2151947021484 21.2164249420166 156.8715972900391 25.13920021057129 161.1035003662109 29.4601993560791 C 165.3359222412109 33.7817268371582 169.1784973144531 38.53704833984375 172.5245208740234 43.59407424926758 C 175.9027709960938 48.69982528686523 178.8043518066406 54.15810012817383 181.1486206054688 59.81727600097656 C 183.5363311767578 65.581298828125 185.3701477050781 71.61332702636719 186.5991821289062 77.74587249755859 C 187.8604736328125 84.03939819335938 188.5 90.51742553710938 188.5 97 C 188.5 103.4825744628906 187.8604736328125 109.9606018066406 186.5991821289062 116.2541275024414 C 185.3701477050781 122.3866729736328 183.5363311767578 128.418701171875 181.1486206054688 134.1827239990234 C 178.8043518066406 139.8419036865234 175.9027709960938 145.3001708984375 172.5245208740234 150.4059295654297 C 169.1784973144531 155.4629516601562 165.3359222412109 160.2182769775391 161.1035003662109 164.539794921875 C 156.8715972900391 168.8607940673828 152.2151947021484 172.7835693359375 147.263671875 176.1992034912109 C 142.265625 179.6468963623047 136.9228057861328 182.6079711914062 131.3835754394531 185.0001983642578 C 125.7428283691406 187.4362487792969 119.839973449707 189.3071746826172 113.8390274047852 190.5610046386719 C 107.6811218261719 191.8476257324219 101.3427505493164 192.5 95 192.5 Z" stroke="none"/>
      <path d="M 95 3 C 88.76010894775391 3 82.52497100830078 3.641708374023438 76.46773529052734 4.90728759765625 C 70.56539154052734 6.1405029296875 64.75942230224609 7.980743408203125 59.21113586425781 10.37686157226562 C 53.7618408203125 12.73027038574219 48.50547790527344 15.64344787597656 43.58805847167969 19.0355224609375 C 38.71539306640625 22.39674377441406 34.13299560546875 26.25721740722656 29.96815490722656 30.50973510742188 C 25.80226135253906 34.76333618164062 22.02000427246094 39.44403076171875 18.72642517089844 44.42178344726562 C 15.40103149414062 49.44767761230469 12.54481506347656 54.82060241699219 10.2371826171875 60.39134216308594 C 7.886703491210938 66.06544494628906 6.081466674804688 72.00350189208984 4.87158203125 78.04063415527344 C 3.629684448242188 84.23731231689453 3 90.61618041992188 3 97 C 3 103.3838195800781 3.629684448242188 109.7626876831055 4.87158203125 115.9593658447266 C 6.081466674804688 121.9964981079102 7.886703491210938 127.9345550537109 10.2371826171875 133.6086578369141 C 12.54481506347656 139.1793975830078 15.40103149414062 144.5523071289062 18.72642517089844 149.5782165527344 C 22.02000427246094 154.5559692382812 25.80226135253906 159.2366638183594 29.96815490722656 163.4902648925781 C 34.13299560546875 167.7427978515625 38.71539306640625 171.603271484375 43.58805847167969 174.9644775390625 C 48.50547790527344 178.3565521240234 53.7618408203125 181.2697448730469 59.21113586425781 183.6231384277344 C 64.75942230224609 186.0192565917969 70.56539154052734 187.8594970703125 76.46773529052734 189.0927124023438 C 82.52497100830078 190.3582916259766 88.76010894775391 191 95 191 C 101.2398910522461 191 107.4750289916992 190.3582916259766 113.5322341918945 189.0927124023438 C 119.4346084594727 187.8594970703125 125.2405548095703 186.0192565917969 130.7888488769531 183.6231384277344 C 136.2381591796875 181.2697448730469 141.4945220947266 178.3565521240234 146.4119567871094 174.9644775390625 C 151.2846069335938 171.603271484375 155.8670043945312 167.7427978515625 160.0318450927734 163.4902648925781 C 164.1977386474609 159.2366638183594 167.9799957275391 154.5559387207031 171.2735595703125 149.5782165527344 C 174.5989685058594 144.5523071289062 177.4551849365234 139.1793975830078 179.7628173828125 133.6086578369141 C 182.1132659912109 127.9345550537109 183.9185333251953 121.9964981079102 185.12841796875 115.9593658447266 C 186.3703155517578 109.7626876831055 187 103.3838195800781 187 97 C 187 90.61618041992188 186.3703155517578 84.23731231689453 185.12841796875 78.04063415527344 C 183.9185333251953 72.00350189208984 182.1132659912109 66.06544494628906 179.7628173828125 60.39134216308594 C 177.4551849365234 54.82060241699219 174.5989685058594 49.44767761230469 171.2735595703125 44.42178344726562 C 167.9799957275391 39.44404602050781 164.1977386474609 34.76333618164062 160.0318450927734 30.50973510742188 C 155.8670043945312 26.25721740722656 151.2846069335938 22.39674377441406 146.4119567871094 19.0355224609375 C 141.4945220947266 15.64344787597656 136.2381591796875 12.73027038574219 130.7888488769531 10.37686157226562 C 125.2405548095703 7.980743408203125 119.4346084594727 6.1405029296875 113.5322341918945 4.90728759765625 C 107.4750289916992 3.641708374023438 101.2398910522461 3 95 3 M 95 0 C 147.4670257568359 0 190 43.42837524414062 190 97 C 190 150.5716247558594 147.4670257568359 194 95 194 C 42.53294372558594 194 0 150.5716247558594 0 97 C 0 43.42837524414062 42.53294372558594 0 95 0 Z" stroke="none" fill="#a7e446"/>
    </g>
    <g id="Grupo_138597" data-name="Grupo 138597" transform="translate(-224.5 -269.5)">
      <rect id="Rectángulo_88702" data-name="Rectángulo 88702" width="20" height="75" transform="translate(685 1073)" fill="#85b638"/>
      <rect id="Rectángulo_88703" data-name="Rectángulo 88703" width="20" height="75" transform="translate(657.5 1120.5) rotate(-90)" fill="#85b638"/>
    </g>
    <g id="Grupo_138598" data-name="Grupo 138598" transform="translate(90.5 -269.5)">
      <rect id="Rectángulo_88702-2" data-name="Rectángulo 88702" width="20" height="75" transform="translate(685 1073)" fill="#85b638"/>
      <rect id="Rectángulo_88703-2" data-name="Rectángulo 88703" width="20" height="75" transform="translate(657.5 1120.5) rotate(-90)" fill="#85b638"/>
    </g>
    <g id="Grupo_138599" data-name="Grupo 138599" transform="translate(43 -84)">
      <rect id="Rectángulo_88704" data-name="Rectángulo 88704" width="20" height="105" transform="translate(1020 921) rotate(-90)" fill="#85b638"/>
      <rect id="Rectángulo_88705" data-name="Rectángulo 88705" width="20" height="105" transform="translate(1020 949) rotate(-90)" fill="#85b638"/>
    </g>
    <path id="Trazado_263852" data-name="Trazado 263852" d="M0,0H1240V194H0Z" transform="translate(180 744)" fill="none"/>
    <path id="Trazado_263859" data-name="Trazado 263859" d="M-44.377,0h-3.369V-16.352h3.369Zm5.9-12.151.1,1.4a4.242,4.242,0,0,1,3.493-1.628,3.526,3.526,0,0,1,2.875,1.134,5.292,5.292,0,0,1,.966,3.392V0h-3.246V-7.771a2.106,2.106,0,0,0-.449-1.5,2.011,2.011,0,0,0-1.494-.466A2.233,2.233,0,0,0-38.29-8.569V0h-3.246V-12.151ZM-27.7,0V-9.771h-1.808v-2.381H-27.7v-1.033a4.2,4.2,0,0,1,1.174-3.173,4.545,4.545,0,0,1,3.285-1.129,7.587,7.587,0,0,1,1.651.225l-.034,2.516a4.138,4.138,0,0,0-.988-.1q-1.831,0-1.831,1.718v.977h2.415v2.381h-2.415V0Zm6.851-6.188a7.206,7.206,0,0,1,.7-3.223,5.1,5.1,0,0,1,2-2.19,5.849,5.849,0,0,1,3.038-.775,5.533,5.533,0,0,1,4.015,1.5A6.04,6.04,0,0,1-9.361-6.783l.022.831A6.351,6.351,0,0,1-10.9-1.466,5.426,5.426,0,0,1-15.088.225,5.453,5.453,0,0,1-19.283-1.46a6.463,6.463,0,0,1-1.567-4.582Zm3.246.23a4.542,4.542,0,0,0,.651,2.649,2.149,2.149,0,0,0,1.864.917A2.154,2.154,0,0,0-13.246-3.3a4.97,4.97,0,0,0,.663-2.9,4.5,4.5,0,0,0-.663-2.632,2.154,2.154,0,0,0-1.864-.934,2.119,2.119,0,0,0-1.842.928A5.054,5.054,0,0,0-17.6-5.958ZM-.511-9.108A8.818,8.818,0,0,0-1.679-9.2,2.377,2.377,0,0,0-4.094-7.951V0H-7.339V-12.151h3.066l.09,1.449a3.007,3.007,0,0,1,2.707-1.673,3.4,3.4,0,0,1,1.011.146Zm4.6-3.043.1,1.359a4.27,4.27,0,0,1,3.493-1.583,3.241,3.241,0,0,1,3.223,1.853,4.172,4.172,0,0,1,3.65-1.853A3.624,3.624,0,0,1,17.5-11.225a5.291,5.291,0,0,1,.966,3.465V0H15.212V-7.749a2.314,2.314,0,0,0-.4-1.51,1.792,1.792,0,0,0-1.426-.477A2.026,2.026,0,0,0,11.36-8.344L11.371,0H8.125V-7.738A2.286,2.286,0,0,0,7.71-9.265a1.809,1.809,0,0,0-1.415-.472,2.1,2.1,0,0,0-2,1.146V0H1.05V-12.151ZM26.554.225A5.965,5.965,0,0,1,22.2-1.415a5.828,5.828,0,0,1-1.679-4.369V-6.1a7.341,7.341,0,0,1,.708-3.274,5.192,5.192,0,0,1,2-2.224,5.627,5.627,0,0,1,2.959-.781A5.043,5.043,0,0,1,30.12-10.8a6.389,6.389,0,0,1,1.432,4.458V-5.02H23.814a3.015,3.015,0,0,0,.949,1.909,2.869,2.869,0,0,0,2,.719A3.5,3.5,0,0,0,29.7-3.751l1.595,1.786A4.872,4.872,0,0,1,29.317-.354,6.485,6.485,0,0,1,26.554.225Zm-.371-9.984a2.028,2.028,0,0,0-1.567.654,3.388,3.388,0,0,0-.769,1.873h4.515v-.26a2.416,2.416,0,0,0-.584-1.675A2.092,2.092,0,0,0,26.184-9.759ZM43.658-4.593,45.9-12.151h3.481L44.5,1.887l-.27.64a3.7,3.7,0,0,1-3.594,2.381A5.107,5.107,0,0,1,39.2,4.694V2.235l.494.011a2.67,2.67,0,0,0,1.376-.281,1.844,1.844,0,0,0,.713-.932l.382-1L37.908-12.151H41.4ZM-48.836,30.225a5.965,5.965,0,0,1-4.352-1.64,5.828,5.828,0,0,1-1.679-4.369V23.9a7.341,7.341,0,0,1,.708-3.274,5.192,5.192,0,0,1,2-2.224,5.627,5.627,0,0,1,2.959-.781A5.043,5.043,0,0,1-45.27,19.2a6.389,6.389,0,0,1,1.432,4.458V24.98h-7.738a3.015,3.015,0,0,0,.949,1.909,2.869,2.869,0,0,0,2,.719,3.5,3.5,0,0,0,2.931-1.359l1.595,1.786a4.872,4.872,0,0,1-1.977,1.612A6.485,6.485,0,0,1-48.836,30.225Zm-.371-9.984a2.028,2.028,0,0,0-1.567.654,3.388,3.388,0,0,0-.769,1.873h4.515v-.26a2.416,2.416,0,0,0-.584-1.675A2.092,2.092,0,0,0-49.206,20.241Zm11.612,5.795,2.257-8.187h3.392L-36.044,30h-3.1l-4.1-12.151h3.392ZM-23.646,30a3.6,3.6,0,0,1-.326-1.089,3.927,3.927,0,0,1-3.066,1.314A4.314,4.314,0,0,1-30,29.191a3.323,3.323,0,0,1-1.174-2.605,3.434,3.434,0,0,1,1.432-2.965A7.065,7.065,0,0,1-25.6,22.577h1.494v-.7a2,2,0,0,0-.432-1.348,1.7,1.7,0,0,0-1.365-.505,1.934,1.934,0,0,0-1.286.393,1.335,1.335,0,0,0-.466,1.078H-30.9a3.26,3.26,0,0,1,.651-1.954,4.306,4.306,0,0,1,1.842-1.409,6.712,6.712,0,0,1,2.673-.511,5.3,5.3,0,0,1,3.566,1.129,3.948,3.948,0,0,1,1.32,3.173v5.267a5.809,5.809,0,0,0,.483,2.617V30Zm-2.684-2.257A2.8,2.8,0,0,0-25,27.423a2.1,2.1,0,0,0,.9-.859V24.475h-1.213q-2.437,0-2.594,1.685l-.011.191a1.3,1.3,0,0,0,.427,1A1.658,1.658,0,0,0-26.33,27.743ZM-14.931,30h-3.257V12.75h3.257Zm9.95-1.235A4.07,4.07,0,0,1-8.3,30.225,3.839,3.839,0,0,1-11.287,29.1a4.794,4.794,0,0,1-1.05-3.291V17.849h3.246v7.859q0,1.9,1.729,1.9a2.343,2.343,0,0,0,2.269-1.147V17.849h3.257V30H-4.891ZM7.654,30a3.6,3.6,0,0,1-.326-1.089,3.927,3.927,0,0,1-3.066,1.314A4.314,4.314,0,0,1,1.3,29.191,3.323,3.323,0,0,1,.129,26.586a3.434,3.434,0,0,1,1.432-2.965A7.065,7.065,0,0,1,5.7,22.577H7.193v-.7a2,2,0,0,0-.432-1.348A1.7,1.7,0,0,0,5.4,20.027a1.934,1.934,0,0,0-1.286.393A1.335,1.335,0,0,0,3.644,21.5H.4a3.26,3.26,0,0,1,.651-1.954,4.306,4.306,0,0,1,1.842-1.409,6.712,6.712,0,0,1,2.673-.511A5.3,5.3,0,0,1,9.13,18.753a3.948,3.948,0,0,1,1.32,3.173v5.267a5.809,5.809,0,0,0,.483,2.617V30ZM4.969,27.743a2.8,2.8,0,0,0,1.325-.32,2.1,2.1,0,0,0,.9-.859V24.475H5.98q-2.437,0-2.594,1.685l-.011.191a1.3,1.3,0,0,0,.427,1A1.658,1.658,0,0,0,4.969,27.743ZM18,27.608a2.129,2.129,0,0,0,1.46-.494,1.731,1.731,0,0,0,.584-1.314h3.043a4.163,4.163,0,0,1-.674,2.263A4.446,4.446,0,0,1,20.6,29.657a5.676,5.676,0,0,1-2.544.567,5.275,5.275,0,0,1-4.11-1.656,6.555,6.555,0,0,1-1.5-4.576v-.213A6.48,6.48,0,0,1,13.931,19.3a5.214,5.214,0,0,1,4.1-1.673,5.111,5.111,0,0,1,3.656,1.3,4.593,4.593,0,0,1,1.4,3.453H20.041a2.23,2.23,0,0,0-.584-1.541,1.947,1.947,0,0,0-1.482-.593,1.955,1.955,0,0,0-1.713.827,4.791,4.791,0,0,0-.578,2.683v.337a4.852,4.852,0,0,0,.573,2.7A1.979,1.979,0,0,0,18,27.608ZM28.363,30H25.106V17.849h3.257ZM24.915,14.7a1.6,1.6,0,0,1,.489-1.2,2.105,2.105,0,0,1,2.656,0,1.715,1.715,0,0,1-.006,2.415,2.082,2.082,0,0,1-2.639,0A1.593,1.593,0,0,1,24.915,14.7Zm5.615,9.108a7.206,7.206,0,0,1,.7-3.223,5.1,5.1,0,0,1,2-2.19,5.849,5.849,0,0,1,3.038-.775,5.533,5.533,0,0,1,4.015,1.5,6.04,6.04,0,0,1,1.735,4.088l.022.831a6.351,6.351,0,0,1-1.561,4.487,5.426,5.426,0,0,1-4.189,1.69A5.453,5.453,0,0,1,32.1,28.54a6.463,6.463,0,0,1-1.567-4.582Zm3.246.23a4.542,4.542,0,0,0,.651,2.649,2.34,2.34,0,0,0,3.706.011,4.97,4.97,0,0,0,.663-2.9,4.5,4.5,0,0,0-.663-2.632,2.154,2.154,0,0,0-1.864-.934,2.119,2.119,0,0,0-1.842.928A5.054,5.054,0,0,0,33.776,24.042ZM36.909,12.75h3.538l-3.111,3.481H34.7Zm10.119,5.1.1,1.4a4.242,4.242,0,0,1,3.493-1.628A3.526,3.526,0,0,1,53.5,18.758a5.292,5.292,0,0,1,.966,3.392V30H51.217V22.229a2.106,2.106,0,0,0-.449-1.5,2.011,2.011,0,0,0-1.494-.466,2.233,2.233,0,0,0-2.055,1.168V30H43.973V17.849ZM-49.465,60V50.229h-1.808V47.849h1.808v-.562a4.557,4.557,0,0,1,1.409-3.532,5.671,5.671,0,0,1,3.914-1.241,12.982,12.982,0,0,1,3.684.663l-.472,2.684a14.372,14.372,0,0,0-1.707-.421,8.387,8.387,0,0,0-1.3-.1q-2.269,0-2.269,2.01v.494h2.392v2.381h-2.392V60Zm10.523,0H-42.2V47.849h3.257Zm5.671-12.151.1,1.4a4.242,4.242,0,0,1,3.493-1.628A3.526,3.526,0,0,1-26.8,48.758a5.292,5.292,0,0,1,.966,3.392V60h-3.246V52.229a2.106,2.106,0,0,0-.449-1.5,2.011,2.011,0,0,0-1.494-.466,2.233,2.233,0,0,0-2.055,1.168V60h-3.246V47.849ZM-16.335,60a3.6,3.6,0,0,1-.326-1.089,3.927,3.927,0,0,1-3.066,1.314,4.314,4.314,0,0,1-2.959-1.033,3.323,3.323,0,0,1-1.174-2.605,3.434,3.434,0,0,1,1.432-2.965,7.065,7.065,0,0,1,4.138-1.044H-16.8v-.7a2,2,0,0,0-.432-1.348,1.7,1.7,0,0,0-1.365-.505,1.934,1.934,0,0,0-1.286.393,1.335,1.335,0,0,0-.466,1.078H-23.59a3.26,3.26,0,0,1,.651-1.954A4.306,4.306,0,0,1-21.1,48.135a6.712,6.712,0,0,1,2.673-.511,5.3,5.3,0,0,1,3.566,1.129,3.948,3.948,0,0,1,1.32,3.173v5.267a5.809,5.809,0,0,0,.483,2.617V60Zm-2.684-2.257a2.8,2.8,0,0,0,1.325-.32,2.1,2.1,0,0,0,.9-.859V54.475h-1.213q-2.437,0-2.594,1.685l-.011.191a1.3,1.3,0,0,0,.427,1A1.658,1.658,0,0,0-19.019,57.743Zm10.961-9.894.1,1.4a4.242,4.242,0,0,1,3.493-1.628,3.526,3.526,0,0,1,2.875,1.134A5.292,5.292,0,0,1-.623,52.15V60H-3.869V52.229a2.106,2.106,0,0,0-.449-1.5,2.011,2.011,0,0,0-1.494-.466,2.233,2.233,0,0,0-2.055,1.168V60h-3.246V47.849ZM6.89,57.608a2.129,2.129,0,0,0,1.46-.494A1.731,1.731,0,0,0,8.934,55.8h3.043a4.163,4.163,0,0,1-.674,2.263A4.446,4.446,0,0,1,9.49,59.657a5.676,5.676,0,0,1-2.544.567,5.275,5.275,0,0,1-4.11-1.656,6.555,6.555,0,0,1-1.5-4.576v-.213A6.48,6.48,0,0,1,2.824,49.3a5.214,5.214,0,0,1,4.1-1.673,5.111,5.111,0,0,1,3.656,1.3,4.593,4.593,0,0,1,1.4,3.453H8.934a2.23,2.23,0,0,0-.584-1.541,1.947,1.947,0,0,0-1.482-.593,1.955,1.955,0,0,0-1.713.827,4.791,4.791,0,0,0-.578,2.683v.337a4.852,4.852,0,0,0,.573,2.7A1.979,1.979,0,0,0,6.89,57.608ZM17.256,60H14V47.849h3.257ZM13.808,44.7a1.6,1.6,0,0,1,.489-1.2,1.835,1.835,0,0,1,1.331-.472,1.839,1.839,0,0,1,1.325.472,1.715,1.715,0,0,1-.006,2.415,1.844,1.844,0,0,1-1.32.472,1.844,1.844,0,0,1-1.32-.472A1.593,1.593,0,0,1,13.808,44.7ZM25.521,60.225a5.965,5.965,0,0,1-4.352-1.64,5.828,5.828,0,0,1-1.679-4.369V53.9a7.341,7.341,0,0,1,.708-3.274,5.192,5.192,0,0,1,2-2.224,5.627,5.627,0,0,1,2.959-.781A5.043,5.043,0,0,1,29.087,49.2a6.389,6.389,0,0,1,1.432,4.458V54.98H22.781a3.015,3.015,0,0,0,.949,1.909,2.869,2.869,0,0,0,2,.719,3.5,3.5,0,0,0,2.931-1.359l1.595,1.786a4.872,4.872,0,0,1-1.977,1.612A6.485,6.485,0,0,1,25.521,60.225Zm-.371-9.984a2.028,2.028,0,0,0-1.567.654,3.388,3.388,0,0,0-.769,1.873h4.515v-.26a2.416,2.416,0,0,0-.584-1.675A2.092,2.092,0,0,0,25.151,50.241Zm14.038.651a8.818,8.818,0,0,0-1.168-.09,2.377,2.377,0,0,0-2.415,1.247V60H32.361V47.849h3.066l.09,1.449a3.007,3.007,0,0,1,2.707-1.673,3.4,3.4,0,0,1,1.011.146ZM47.454,60a3.6,3.6,0,0,1-.326-1.089,3.927,3.927,0,0,1-3.066,1.314A4.314,4.314,0,0,1,41.1,59.191a3.323,3.323,0,0,1-1.174-2.605,3.434,3.434,0,0,1,1.432-2.965A7.065,7.065,0,0,1,45.5,52.577h1.494v-.7a2,2,0,0,0-.432-1.348,1.7,1.7,0,0,0-1.365-.505,1.934,1.934,0,0,0-1.286.393,1.335,1.335,0,0,0-.466,1.078H40.2a3.26,3.26,0,0,1,.651-1.954,4.306,4.306,0,0,1,1.842-1.409,6.712,6.712,0,0,1,2.673-.511,5.3,5.3,0,0,1,3.566,1.129,3.948,3.948,0,0,1,1.32,3.173v5.267a5.809,5.809,0,0,0,.483,2.617V60ZM44.77,57.743a2.8,2.8,0,0,0,1.325-.32,2.1,2.1,0,0,0,.9-.859V54.475H45.781q-2.437,0-2.594,1.685l-.011.191a1.3,1.3,0,0,0,.427,1A1.658,1.658,0,0,0,44.77,57.743Z" transform="translate(318 820)" fill="#12263f"/>
    <path id="Trazado_263857" data-name="Trazado 263857" d="M-44.377,0h-3.369V-16.352h3.369Zm5.9-12.151.1,1.4a4.242,4.242,0,0,1,3.493-1.628,3.526,3.526,0,0,1,2.875,1.134,5.292,5.292,0,0,1,.966,3.392V0h-3.246V-7.771a2.106,2.106,0,0,0-.449-1.5,2.011,2.011,0,0,0-1.494-.466A2.233,2.233,0,0,0-38.29-8.569V0h-3.246V-12.151ZM-27.7,0V-9.771h-1.808v-2.381H-27.7v-1.033a4.2,4.2,0,0,1,1.174-3.173,4.545,4.545,0,0,1,3.285-1.129,7.587,7.587,0,0,1,1.651.225l-.034,2.516a4.138,4.138,0,0,0-.988-.1q-1.831,0-1.831,1.718v.977h2.415v2.381h-2.415V0Zm6.851-6.188a7.206,7.206,0,0,1,.7-3.223,5.1,5.1,0,0,1,2-2.19,5.849,5.849,0,0,1,3.038-.775,5.533,5.533,0,0,1,4.015,1.5A6.04,6.04,0,0,1-9.361-6.783l.022.831A6.351,6.351,0,0,1-10.9-1.466,5.426,5.426,0,0,1-15.088.225,5.453,5.453,0,0,1-19.283-1.46a6.463,6.463,0,0,1-1.567-4.582Zm3.246.23a4.542,4.542,0,0,0,.651,2.649,2.149,2.149,0,0,0,1.864.917A2.154,2.154,0,0,0-13.246-3.3a4.97,4.97,0,0,0,.663-2.9,4.5,4.5,0,0,0-.663-2.632,2.154,2.154,0,0,0-1.864-.934,2.119,2.119,0,0,0-1.842.928A5.054,5.054,0,0,0-17.6-5.958ZM-.511-9.108A8.818,8.818,0,0,0-1.679-9.2,2.377,2.377,0,0,0-4.094-7.951V0H-7.339V-12.151h3.066l.09,1.449a3.007,3.007,0,0,1,2.707-1.673,3.4,3.4,0,0,1,1.011.146Zm4.6-3.043.1,1.359a4.27,4.27,0,0,1,3.493-1.583,3.241,3.241,0,0,1,3.223,1.853,4.172,4.172,0,0,1,3.65-1.853A3.624,3.624,0,0,1,17.5-11.225a5.291,5.291,0,0,1,.966,3.465V0H15.212V-7.749a2.314,2.314,0,0,0-.4-1.51,1.792,1.792,0,0,0-1.426-.477A2.026,2.026,0,0,0,11.36-8.344L11.371,0H8.125V-7.738A2.286,2.286,0,0,0,7.71-9.265a1.809,1.809,0,0,0-1.415-.472,2.1,2.1,0,0,0-2,1.146V0H1.05V-12.151ZM26.554.225A5.965,5.965,0,0,1,22.2-1.415a5.828,5.828,0,0,1-1.679-4.369V-6.1a7.341,7.341,0,0,1,.708-3.274,5.192,5.192,0,0,1,2-2.224,5.627,5.627,0,0,1,2.959-.781A5.043,5.043,0,0,1,30.12-10.8a6.389,6.389,0,0,1,1.432,4.458V-5.02H23.814a3.015,3.015,0,0,0,.949,1.909,2.869,2.869,0,0,0,2,.719A3.5,3.5,0,0,0,29.7-3.751l1.595,1.786A4.872,4.872,0,0,1,29.317-.354,6.485,6.485,0,0,1,26.554.225Zm-.371-9.984a2.028,2.028,0,0,0-1.567.654,3.388,3.388,0,0,0-.769,1.873h4.515v-.26a2.416,2.416,0,0,0-.584-1.675A2.092,2.092,0,0,0,26.184-9.759ZM43.658-4.593,45.9-12.151h3.481L44.5,1.887l-.27.64a3.7,3.7,0,0,1-3.594,2.381A5.107,5.107,0,0,1,39.2,4.694V2.235l.494.011a2.67,2.67,0,0,0,1.376-.281,1.844,1.844,0,0,0,.713-.932l.382-1L37.908-12.151H41.4ZM-48.836,30.225a5.965,5.965,0,0,1-4.352-1.64,5.828,5.828,0,0,1-1.679-4.369V23.9a7.341,7.341,0,0,1,.708-3.274,5.192,5.192,0,0,1,2-2.224,5.627,5.627,0,0,1,2.959-.781A5.043,5.043,0,0,1-45.27,19.2a6.389,6.389,0,0,1,1.432,4.458V24.98h-7.738a3.015,3.015,0,0,0,.949,1.909,2.869,2.869,0,0,0,2,.719,3.5,3.5,0,0,0,2.931-1.359l1.595,1.786a4.872,4.872,0,0,1-1.977,1.612A6.485,6.485,0,0,1-48.836,30.225Zm-.371-9.984a2.028,2.028,0,0,0-1.567.654,3.388,3.388,0,0,0-.769,1.873h4.515v-.26a2.416,2.416,0,0,0-.584-1.675A2.092,2.092,0,0,0-49.206,20.241Zm11.612,5.795,2.257-8.187h3.392L-36.044,30h-3.1l-4.1-12.151h3.392ZM-23.646,30a3.6,3.6,0,0,1-.326-1.089,3.927,3.927,0,0,1-3.066,1.314A4.314,4.314,0,0,1-30,29.191a3.323,3.323,0,0,1-1.174-2.605,3.434,3.434,0,0,1,1.432-2.965A7.065,7.065,0,0,1-25.6,22.577h1.494v-.7a2,2,0,0,0-.432-1.348,1.7,1.7,0,0,0-1.365-.505,1.934,1.934,0,0,0-1.286.393,1.335,1.335,0,0,0-.466,1.078H-30.9a3.26,3.26,0,0,1,.651-1.954,4.306,4.306,0,0,1,1.842-1.409,6.712,6.712,0,0,1,2.673-.511,5.3,5.3,0,0,1,3.566,1.129,3.948,3.948,0,0,1,1.32,3.173v5.267a5.809,5.809,0,0,0,.483,2.617V30Zm-2.684-2.257A2.8,2.8,0,0,0-25,27.423a2.1,2.1,0,0,0,.9-.859V24.475h-1.213q-2.437,0-2.594,1.685l-.011.191a1.3,1.3,0,0,0,.427,1A1.658,1.658,0,0,0-26.33,27.743ZM-14.931,30h-3.257V12.75h3.257Zm9.95-1.235A4.07,4.07,0,0,1-8.3,30.225,3.839,3.839,0,0,1-11.287,29.1a4.794,4.794,0,0,1-1.05-3.291V17.849h3.246v7.859q0,1.9,1.729,1.9a2.343,2.343,0,0,0,2.269-1.147V17.849h3.257V30H-4.891ZM7.654,30a3.6,3.6,0,0,1-.326-1.089,3.927,3.927,0,0,1-3.066,1.314A4.314,4.314,0,0,1,1.3,29.191,3.323,3.323,0,0,1,.129,26.586a3.434,3.434,0,0,1,1.432-2.965A7.065,7.065,0,0,1,5.7,22.577H7.193v-.7a2,2,0,0,0-.432-1.348A1.7,1.7,0,0,0,5.4,20.027a1.934,1.934,0,0,0-1.286.393A1.335,1.335,0,0,0,3.644,21.5H.4a3.26,3.26,0,0,1,.651-1.954,4.306,4.306,0,0,1,1.842-1.409,6.712,6.712,0,0,1,2.673-.511A5.3,5.3,0,0,1,9.13,18.753a3.948,3.948,0,0,1,1.32,3.173v5.267a5.809,5.809,0,0,0,.483,2.617V30ZM4.969,27.743a2.8,2.8,0,0,0,1.325-.32,2.1,2.1,0,0,0,.9-.859V24.475H5.98q-2.437,0-2.594,1.685l-.011.191a1.3,1.3,0,0,0,.427,1A1.658,1.658,0,0,0,4.969,27.743ZM18,27.608a2.129,2.129,0,0,0,1.46-.494,1.731,1.731,0,0,0,.584-1.314h3.043a4.163,4.163,0,0,1-.674,2.263A4.446,4.446,0,0,1,20.6,29.657a5.676,5.676,0,0,1-2.544.567,5.275,5.275,0,0,1-4.11-1.656,6.555,6.555,0,0,1-1.5-4.576v-.213A6.48,6.48,0,0,1,13.931,19.3a5.214,5.214,0,0,1,4.1-1.673,5.111,5.111,0,0,1,3.656,1.3,4.593,4.593,0,0,1,1.4,3.453H20.041a2.23,2.23,0,0,0-.584-1.541,1.947,1.947,0,0,0-1.482-.593,1.955,1.955,0,0,0-1.713.827,4.791,4.791,0,0,0-.578,2.683v.337a4.852,4.852,0,0,0,.573,2.7A1.979,1.979,0,0,0,18,27.608ZM28.363,30H25.106V17.849h3.257ZM24.915,14.7a1.6,1.6,0,0,1,.489-1.2,2.105,2.105,0,0,1,2.656,0,1.715,1.715,0,0,1-.006,2.415,2.082,2.082,0,0,1-2.639,0A1.593,1.593,0,0,1,24.915,14.7Zm5.615,9.108a7.206,7.206,0,0,1,.7-3.223,5.1,5.1,0,0,1,2-2.19,5.849,5.849,0,0,1,3.038-.775,5.533,5.533,0,0,1,4.015,1.5,6.04,6.04,0,0,1,1.735,4.088l.022.831a6.351,6.351,0,0,1-1.561,4.487,5.426,5.426,0,0,1-4.189,1.69A5.453,5.453,0,0,1,32.1,28.54a6.463,6.463,0,0,1-1.567-4.582Zm3.246.23a4.542,4.542,0,0,0,.651,2.649,2.34,2.34,0,0,0,3.706.011,4.97,4.97,0,0,0,.663-2.9,4.5,4.5,0,0,0-.663-2.632,2.154,2.154,0,0,0-1.864-.934,2.119,2.119,0,0,0-1.842.928A5.054,5.054,0,0,0,33.776,24.042ZM36.909,12.75h3.538l-3.111,3.481H34.7Zm10.119,5.1.1,1.4a4.242,4.242,0,0,1,3.493-1.628A3.526,3.526,0,0,1,53.5,18.758a5.292,5.292,0,0,1,.966,3.392V30H51.217V22.229a2.106,2.106,0,0,0-.449-1.5,2.011,2.011,0,0,0-1.494-.466,2.233,2.233,0,0,0-2.055,1.168V30H43.973V17.849Zm-94.5,35.963a7.206,7.206,0,0,1,.7-3.223,5.1,5.1,0,0,1,2-2.19,5.849,5.849,0,0,1,3.038-.775,5.533,5.533,0,0,1,4.015,1.5,6.04,6.04,0,0,1,1.735,4.088l.022.831a6.351,6.351,0,0,1-1.561,4.487,5.426,5.426,0,0,1-4.189,1.69A5.453,5.453,0,0,1-45.9,58.54a6.463,6.463,0,0,1-1.567-4.582Zm3.246.23a4.542,4.542,0,0,0,.651,2.649,2.149,2.149,0,0,0,1.864.917,2.154,2.154,0,0,0,1.842-.905,4.97,4.97,0,0,0,.663-2.9,4.5,4.5,0,0,0-.663-2.632,2.154,2.154,0,0,0-1.864-.934,2.119,2.119,0,0,0-1.842.928A5.054,5.054,0,0,0-44.226,54.042Zm21.2-.006a7.288,7.288,0,0,1-1.275,4.5,4.087,4.087,0,0,1-3.442,1.69,3.786,3.786,0,0,1-2.976-1.28v5.728h-3.246V47.849h3.01l.112,1.19a3.815,3.815,0,0,1,3.077-1.415,4.115,4.115,0,0,1,3.493,1.662,7.485,7.485,0,0,1,1.247,4.582Zm-3.246-.236a4.782,4.782,0,0,0-.6-2.617,1.957,1.957,0,0,0-1.746-.921,2.125,2.125,0,0,0-2.1,1.168v4.975a2.161,2.161,0,0,0,2.123,1.2Q-26.268,57.608-26.268,53.8Zm10.849,6.424a5.965,5.965,0,0,1-4.352-1.64,5.828,5.828,0,0,1-1.679-4.369V53.9a7.341,7.341,0,0,1,.708-3.274,5.192,5.192,0,0,1,2-2.224,5.627,5.627,0,0,1,2.959-.781A5.043,5.043,0,0,1-11.854,49.2a6.389,6.389,0,0,1,1.432,4.458V54.98H-18.16a3.015,3.015,0,0,0,.949,1.909,2.869,2.869,0,0,0,2,.719,3.5,3.5,0,0,0,2.931-1.359l1.595,1.786a4.872,4.872,0,0,1-1.977,1.612A6.485,6.485,0,0,1-15.419,60.225Zm-.371-9.984a2.028,2.028,0,0,0-1.567.654,3.388,3.388,0,0,0-.769,1.873h4.515v-.26a2.416,2.416,0,0,0-.584-1.675A2.092,2.092,0,0,0-15.79,50.241Zm14.038.651A8.818,8.818,0,0,0-2.92,50.8a2.377,2.377,0,0,0-2.415,1.247V60H-8.58V47.849h3.066l.09,1.449a3.007,3.007,0,0,1,2.707-1.673,3.4,3.4,0,0,1,1.011.146ZM6.514,60a3.6,3.6,0,0,1-.326-1.089,3.927,3.927,0,0,1-3.066,1.314A4.314,4.314,0,0,1,.163,59.191a3.323,3.323,0,0,1-1.174-2.605A3.434,3.434,0,0,1,.421,53.621,7.065,7.065,0,0,1,4.56,52.577H6.053v-.7a2,2,0,0,0-.432-1.348,1.7,1.7,0,0,0-1.365-.505,1.934,1.934,0,0,0-1.286.393A1.335,1.335,0,0,0,2.5,51.5H-.741A3.26,3.26,0,0,1-.09,49.544a4.306,4.306,0,0,1,1.842-1.409,6.712,6.712,0,0,1,2.673-.511A5.3,5.3,0,0,1,7.99,48.753a3.948,3.948,0,0,1,1.32,3.173v5.267a5.809,5.809,0,0,0,.483,2.617V60ZM3.83,57.743a2.8,2.8,0,0,0,1.325-.32,2.1,2.1,0,0,0,.9-.859V54.475H4.84q-2.437,0-2.594,1.685l-.011.191a1.3,1.3,0,0,0,.427,1A1.658,1.658,0,0,0,3.83,57.743ZM15.689,44.861v2.987h2.078v2.381H15.689v6.064a1.448,1.448,0,0,0,.258.966,1.3,1.3,0,0,0,.988.292,5.176,5.176,0,0,0,.955-.079v2.459a6.682,6.682,0,0,1-1.965.292q-3.414,0-3.481-3.448V50.229H10.669V47.849h1.774V44.861ZM23,60H19.743V47.849H23ZM19.552,44.7a1.6,1.6,0,0,1,.489-1.2,2.105,2.105,0,0,1,2.656,0,1.715,1.715,0,0,1-.006,2.415,2.082,2.082,0,0,1-2.639,0A1.593,1.593,0,0,1,19.552,44.7ZM30.221,56.036l2.257-8.187H35.87L31.771,60h-3.1l-4.1-12.151h3.392ZM44.169,60a3.6,3.6,0,0,1-.326-1.089,3.927,3.927,0,0,1-3.066,1.314,4.314,4.314,0,0,1-2.959-1.033,3.323,3.323,0,0,1-1.174-2.605,3.434,3.434,0,0,1,1.432-2.965,7.065,7.065,0,0,1,4.138-1.044h1.494v-.7a2,2,0,0,0-.432-1.348,1.7,1.7,0,0,0-1.365-.505,1.934,1.934,0,0,0-1.286.393A1.335,1.335,0,0,0,40.16,51.5H36.915a3.26,3.26,0,0,1,.651-1.954,4.306,4.306,0,0,1,1.842-1.409,6.712,6.712,0,0,1,2.673-.511,5.3,5.3,0,0,1,3.566,1.129,3.948,3.948,0,0,1,1.32,3.173v5.267a5.809,5.809,0,0,0,.483,2.617V60Zm-2.684-2.257a2.8,2.8,0,0,0,1.325-.32,2.1,2.1,0,0,0,.9-.859V54.475H42.5q-2.437,0-2.594,1.685l-.011.191a1.3,1.3,0,0,0,.427,1A1.658,1.658,0,0,0,41.485,57.743Z" transform="translate(633 820)" fill="#12263f"/>
    <path id="Trazado_263854" data-name="Trazado 263854" d="M-44.377,0h-3.369V-16.352h3.369Zm5.9-12.151.1,1.4a4.242,4.242,0,0,1,3.493-1.628,3.526,3.526,0,0,1,2.875,1.134,5.292,5.292,0,0,1,.966,3.392V0h-3.246V-7.771a2.106,2.106,0,0,0-.449-1.5,2.011,2.011,0,0,0-1.494-.466A2.233,2.233,0,0,0-38.29-8.569V0h-3.246V-12.151ZM-27.7,0V-9.771h-1.808v-2.381H-27.7v-1.033a4.2,4.2,0,0,1,1.174-3.173,4.545,4.545,0,0,1,3.285-1.129,7.587,7.587,0,0,1,1.651.225l-.034,2.516a4.138,4.138,0,0,0-.988-.1q-1.831,0-1.831,1.718v.977h2.415v2.381h-2.415V0Zm6.851-6.188a7.206,7.206,0,0,1,.7-3.223,5.1,5.1,0,0,1,2-2.19,5.849,5.849,0,0,1,3.038-.775,5.533,5.533,0,0,1,4.015,1.5A6.04,6.04,0,0,1-9.361-6.783l.022.831A6.351,6.351,0,0,1-10.9-1.466,5.426,5.426,0,0,1-15.088.225,5.453,5.453,0,0,1-19.283-1.46a6.463,6.463,0,0,1-1.567-4.582Zm3.246.23a4.542,4.542,0,0,0,.651,2.649,2.149,2.149,0,0,0,1.864.917A2.154,2.154,0,0,0-13.246-3.3a4.97,4.97,0,0,0,.663-2.9,4.5,4.5,0,0,0-.663-2.632,2.154,2.154,0,0,0-1.864-.934,2.119,2.119,0,0,0-1.842.928A5.054,5.054,0,0,0-17.6-5.958ZM-.511-9.108A8.818,8.818,0,0,0-1.679-9.2,2.377,2.377,0,0,0-4.094-7.951V0H-7.339V-12.151h3.066l.09,1.449a3.007,3.007,0,0,1,2.707-1.673,3.4,3.4,0,0,1,1.011.146Zm4.6-3.043.1,1.359a4.27,4.27,0,0,1,3.493-1.583,3.241,3.241,0,0,1,3.223,1.853,4.172,4.172,0,0,1,3.65-1.853A3.624,3.624,0,0,1,17.5-11.225a5.291,5.291,0,0,1,.966,3.465V0H15.212V-7.749a2.314,2.314,0,0,0-.4-1.51,1.792,1.792,0,0,0-1.426-.477A2.026,2.026,0,0,0,11.36-8.344L11.371,0H8.125V-7.738A2.286,2.286,0,0,0,7.71-9.265a1.809,1.809,0,0,0-1.415-.472,2.1,2.1,0,0,0-2,1.146V0H1.05V-12.151ZM26.554.225A5.965,5.965,0,0,1,22.2-1.415a5.828,5.828,0,0,1-1.679-4.369V-6.1a7.341,7.341,0,0,1,.708-3.274,5.192,5.192,0,0,1,2-2.224,5.627,5.627,0,0,1,2.959-.781A5.043,5.043,0,0,1,30.12-10.8a6.389,6.389,0,0,1,1.432,4.458V-5.02H23.814a3.015,3.015,0,0,0,.949,1.909,2.869,2.869,0,0,0,2,.719A3.5,3.5,0,0,0,29.7-3.751l1.595,1.786A4.872,4.872,0,0,1,29.317-.354,6.485,6.485,0,0,1,26.554.225Zm-.371-9.984a2.028,2.028,0,0,0-1.567.654,3.388,3.388,0,0,0-.769,1.873h4.515v-.26a2.416,2.416,0,0,0-.584-1.675A2.092,2.092,0,0,0,26.184-9.759ZM43.658-4.593,45.9-12.151h3.481L44.5,1.887l-.27.64a3.7,3.7,0,0,1-3.594,2.381A5.107,5.107,0,0,1,39.2,4.694V2.235l.494.011a2.67,2.67,0,0,0,1.376-.281,1.844,1.844,0,0,0,.713-.932l.382-1L37.908-12.151H41.4ZM-48.836,30.225a5.965,5.965,0,0,1-4.352-1.64,5.828,5.828,0,0,1-1.679-4.369V23.9a7.341,7.341,0,0,1,.708-3.274,5.192,5.192,0,0,1,2-2.224,5.627,5.627,0,0,1,2.959-.781A5.043,5.043,0,0,1-45.27,19.2a6.389,6.389,0,0,1,1.432,4.458V24.98h-7.738a3.015,3.015,0,0,0,.949,1.909,2.869,2.869,0,0,0,2,.719,3.5,3.5,0,0,0,2.931-1.359l1.595,1.786a4.872,4.872,0,0,1-1.977,1.612A6.485,6.485,0,0,1-48.836,30.225Zm-.371-9.984a2.028,2.028,0,0,0-1.567.654,3.388,3.388,0,0,0-.769,1.873h4.515v-.26a2.416,2.416,0,0,0-.584-1.675A2.092,2.092,0,0,0-49.206,20.241Zm11.612,5.795,2.257-8.187h3.392L-36.044,30h-3.1l-4.1-12.151h3.392ZM-23.646,30a3.6,3.6,0,0,1-.326-1.089,3.927,3.927,0,0,1-3.066,1.314A4.314,4.314,0,0,1-30,29.191a3.323,3.323,0,0,1-1.174-2.605,3.434,3.434,0,0,1,1.432-2.965A7.065,7.065,0,0,1-25.6,22.577h1.494v-.7a2,2,0,0,0-.432-1.348,1.7,1.7,0,0,0-1.365-.505,1.934,1.934,0,0,0-1.286.393,1.335,1.335,0,0,0-.466,1.078H-30.9a3.26,3.26,0,0,1,.651-1.954,4.306,4.306,0,0,1,1.842-1.409,6.712,6.712,0,0,1,2.673-.511,5.3,5.3,0,0,1,3.566,1.129,3.948,3.948,0,0,1,1.32,3.173v5.267a5.809,5.809,0,0,0,.483,2.617V30Zm-2.684-2.257A2.8,2.8,0,0,0-25,27.423a2.1,2.1,0,0,0,.9-.859V24.475h-1.213q-2.437,0-2.594,1.685l-.011.191a1.3,1.3,0,0,0,.427,1A1.658,1.658,0,0,0-26.33,27.743ZM-14.931,30h-3.257V12.75h3.257Zm9.95-1.235A4.07,4.07,0,0,1-8.3,30.225,3.839,3.839,0,0,1-11.287,29.1a4.794,4.794,0,0,1-1.05-3.291V17.849h3.246v7.859q0,1.9,1.729,1.9a2.343,2.343,0,0,0,2.269-1.147V17.849h3.257V30H-4.891ZM7.654,30a3.6,3.6,0,0,1-.326-1.089,3.927,3.927,0,0,1-3.066,1.314A4.314,4.314,0,0,1,1.3,29.191,3.323,3.323,0,0,1,.129,26.586a3.434,3.434,0,0,1,1.432-2.965A7.065,7.065,0,0,1,5.7,22.577H7.193v-.7a2,2,0,0,0-.432-1.348A1.7,1.7,0,0,0,5.4,20.027a1.934,1.934,0,0,0-1.286.393A1.335,1.335,0,0,0,3.644,21.5H.4a3.26,3.26,0,0,1,.651-1.954,4.306,4.306,0,0,1,1.842-1.409,6.712,6.712,0,0,1,2.673-.511A5.3,5.3,0,0,1,9.13,18.753a3.948,3.948,0,0,1,1.32,3.173v5.267a5.809,5.809,0,0,0,.483,2.617V30ZM4.969,27.743a2.8,2.8,0,0,0,1.325-.32,2.1,2.1,0,0,0,.9-.859V24.475H5.98q-2.437,0-2.594,1.685l-.011.191a1.3,1.3,0,0,0,.427,1A1.658,1.658,0,0,0,4.969,27.743ZM18,27.608a2.129,2.129,0,0,0,1.46-.494,1.731,1.731,0,0,0,.584-1.314h3.043a4.163,4.163,0,0,1-.674,2.263A4.446,4.446,0,0,1,20.6,29.657a5.676,5.676,0,0,1-2.544.567,5.275,5.275,0,0,1-4.11-1.656,6.555,6.555,0,0,1-1.5-4.576v-.213A6.48,6.48,0,0,1,13.931,19.3a5.214,5.214,0,0,1,4.1-1.673,5.111,5.111,0,0,1,3.656,1.3,4.593,4.593,0,0,1,1.4,3.453H20.041a2.23,2.23,0,0,0-.584-1.541,1.947,1.947,0,0,0-1.482-.593,1.955,1.955,0,0,0-1.713.827,4.791,4.791,0,0,0-.578,2.683v.337a4.852,4.852,0,0,0,.573,2.7A1.979,1.979,0,0,0,18,27.608ZM28.363,30H25.106V17.849h3.257ZM24.915,14.7a1.6,1.6,0,0,1,.489-1.2,2.105,2.105,0,0,1,2.656,0,1.715,1.715,0,0,1-.006,2.415,2.082,2.082,0,0,1-2.639,0A1.593,1.593,0,0,1,24.915,14.7Zm5.615,9.108a7.206,7.206,0,0,1,.7-3.223,5.1,5.1,0,0,1,2-2.19,5.849,5.849,0,0,1,3.038-.775,5.533,5.533,0,0,1,4.015,1.5,6.04,6.04,0,0,1,1.735,4.088l.022.831a6.351,6.351,0,0,1-1.561,4.487,5.426,5.426,0,0,1-4.189,1.69A5.453,5.453,0,0,1,32.1,28.54a6.463,6.463,0,0,1-1.567-4.582Zm3.246.23a4.542,4.542,0,0,0,.651,2.649,2.34,2.34,0,0,0,3.706.011,4.97,4.97,0,0,0,.663-2.9,4.5,4.5,0,0,0-.663-2.632,2.154,2.154,0,0,0-1.864-.934,2.119,2.119,0,0,0-1.842.928A5.054,5.054,0,0,0,33.776,24.042ZM36.909,12.75h3.538l-3.111,3.481H34.7Zm10.119,5.1.1,1.4a4.242,4.242,0,0,1,3.493-1.628A3.526,3.526,0,0,1,53.5,18.758a5.292,5.292,0,0,1,.966,3.392V30H51.217V22.229a2.106,2.106,0,0,0-.449-1.5,2.011,2.011,0,0,0-1.494-.466,2.233,2.233,0,0,0-2.055,1.168V30H43.973V17.849ZM-65.67,60A3.6,3.6,0,0,1-66,58.911a3.927,3.927,0,0,1-3.066,1.314,4.314,4.314,0,0,1-2.959-1.033,3.323,3.323,0,0,1-1.174-2.605,3.434,3.434,0,0,1,1.432-2.965,7.065,7.065,0,0,1,4.138-1.044h1.494v-.7a2,2,0,0,0-.432-1.348,1.7,1.7,0,0,0-1.365-.505,1.934,1.934,0,0,0-1.286.393,1.335,1.335,0,0,0-.466,1.078h-3.246a3.26,3.26,0,0,1,.651-1.954,4.306,4.306,0,0,1,1.842-1.409,6.712,6.712,0,0,1,2.673-.511,5.3,5.3,0,0,1,3.566,1.129,3.948,3.948,0,0,1,1.32,3.173v5.267a5.809,5.809,0,0,0,.483,2.617V60Zm-2.684-2.257a2.8,2.8,0,0,0,1.325-.32,2.1,2.1,0,0,0,.9-.859V54.475h-1.213q-2.437,0-2.594,1.685l-.011.191a1.3,1.3,0,0,0,.427,1A1.658,1.658,0,0,0-68.354,57.743Zm7.468-3.908a7.323,7.323,0,0,1,1.275-4.526,4.136,4.136,0,0,1,3.487-1.685,3.722,3.722,0,0,1,2.931,1.325v-6.2h3.257V60h-2.931l-.157-1.292a3.819,3.819,0,0,1-3.122,1.516,4.125,4.125,0,0,1-3.442-1.69A7.559,7.559,0,0,1-60.886,53.834Zm3.246.242a4.8,4.8,0,0,0,.6,2.621,1.939,1.939,0,0,0,1.729.911,2.172,2.172,0,0,0,2.123-1.271v-4.8a2.141,2.141,0,0,0-2.1-1.271Q-57.64,50.263-57.64,54.076Zm13.263-6.227.1,1.359a4.27,4.27,0,0,1,3.493-1.583,3.241,3.241,0,0,1,3.223,1.853,4.172,4.172,0,0,1,3.65-1.853,3.624,3.624,0,0,1,2.942,1.151A5.291,5.291,0,0,1-30,52.24V60h-3.257V52.251a2.314,2.314,0,0,0-.4-1.51,1.792,1.792,0,0,0-1.426-.477,2.026,2.026,0,0,0-2.021,1.393L-37.1,60h-3.246V52.262a2.286,2.286,0,0,0-.416-1.527,1.809,1.809,0,0,0-1.415-.472,2.1,2.1,0,0,0-2,1.146V60h-3.246V47.849ZM-24.084,60h-3.257V47.849h3.257Zm-3.448-15.3a1.6,1.6,0,0,1,.489-1.2,1.835,1.835,0,0,1,1.331-.472,1.839,1.839,0,0,1,1.325.472,1.589,1.589,0,0,1,.494,1.2,1.593,1.593,0,0,1-.5,1.213,1.844,1.844,0,0,1-1.32.472,1.844,1.844,0,0,1-1.32-.472A1.593,1.593,0,0,1-27.531,44.7Zm9.108,3.145.1,1.4a4.242,4.242,0,0,1,3.493-1.628,3.526,3.526,0,0,1,2.875,1.134,5.292,5.292,0,0,1,.966,3.392V60h-3.246V52.229a2.106,2.106,0,0,0-.449-1.5,2.011,2.011,0,0,0-1.494-.466,2.233,2.233,0,0,0-2.055,1.168V60h-3.246V47.849ZM-5.1,60H-8.361V47.849H-5.1ZM-8.552,44.7a1.6,1.6,0,0,1,.489-1.2,1.835,1.835,0,0,1,1.331-.472,1.839,1.839,0,0,1,1.325.472,1.589,1.589,0,0,1,.494,1.2,1.593,1.593,0,0,1-.5,1.213,1.844,1.844,0,0,1-1.32.472,1.844,1.844,0,0,1-1.32-.472A1.593,1.593,0,0,1-8.552,44.7ZM4.15,56.642a1.046,1.046,0,0,0-.59-.938,6.7,6.7,0,0,0-1.892-.612q-4.335-.91-4.335-3.684a3.339,3.339,0,0,1,1.342-2.7,5.414,5.414,0,0,1,3.51-1.084,5.827,5.827,0,0,1,3.7,1.089,3.433,3.433,0,0,1,1.387,2.83H4.026a1.57,1.57,0,0,0-.449-1.151,1.9,1.9,0,0,0-1.4-.455A1.943,1.943,0,0,0,.9,50.308a1.17,1.17,0,0,0-.449.943,1,1,0,0,0,.511.87,5.257,5.257,0,0,0,1.724.573,14.08,14.08,0,0,1,2.044.545,3.358,3.358,0,0,1,2.572,3.268A3.17,3.17,0,0,1,5.879,59.2,6.153,6.153,0,0,1,2.2,60.225,6.426,6.426,0,0,1-.517,59.68a4.551,4.551,0,0,1-1.859-1.494,3.471,3.471,0,0,1-.674-2.05H.028a1.694,1.694,0,0,0,.64,1.325,2.539,2.539,0,0,0,1.595.46,2.35,2.35,0,0,0,1.409-.354A1.1,1.1,0,0,0,4.15,56.642Zm9.13-11.781v2.987h2.078v2.381H13.28v6.064a1.448,1.448,0,0,0,.258.966,1.3,1.3,0,0,0,.988.292,5.176,5.176,0,0,0,.955-.079v2.459a6.682,6.682,0,0,1-1.965.292q-3.414,0-3.481-3.448V50.229H8.26V47.849h1.774V44.861Zm10.714,6.031a8.818,8.818,0,0,0-1.168-.09,2.377,2.377,0,0,0-2.415,1.247V60H17.166V47.849h3.066l.09,1.449a3.007,3.007,0,0,1,2.707-1.673,3.4,3.4,0,0,1,1.011.146ZM32.26,60a3.6,3.6,0,0,1-.326-1.089,3.927,3.927,0,0,1-3.066,1.314,4.314,4.314,0,0,1-2.959-1.033,3.323,3.323,0,0,1-1.174-2.605,3.434,3.434,0,0,1,1.432-2.965,7.065,7.065,0,0,1,4.138-1.044H31.8v-.7a2,2,0,0,0-.432-1.348A1.7,1.7,0,0,0,30,50.027a1.934,1.934,0,0,0-1.286.393A1.335,1.335,0,0,0,28.25,51.5H25a3.26,3.26,0,0,1,.651-1.954A4.306,4.306,0,0,1,27.5,48.135a6.712,6.712,0,0,1,2.673-.511,5.3,5.3,0,0,1,3.566,1.129,3.948,3.948,0,0,1,1.32,3.173v5.267a5.809,5.809,0,0,0,.483,2.617V60Zm-2.684-2.257a2.8,2.8,0,0,0,1.325-.32,2.1,2.1,0,0,0,.9-.859V54.475H30.586q-2.437,0-2.594,1.685l-.011.191a1.3,1.3,0,0,0,.427,1A1.658,1.658,0,0,0,29.575,57.743ZM41.435,44.861v2.987h2.078v2.381H41.435v6.064a1.448,1.448,0,0,0,.258.966,1.3,1.3,0,0,0,.988.292,5.176,5.176,0,0,0,.955-.079v2.459a6.682,6.682,0,0,1-1.965.292q-3.414,0-3.481-3.448V50.229H36.415V47.849h1.774V44.861ZM48.746,60H45.489V47.849h3.257ZM45.3,44.7a1.6,1.6,0,0,1,.489-1.2,2.105,2.105,0,0,1,2.656,0,1.715,1.715,0,0,1-.006,2.415,2.082,2.082,0,0,1-2.639,0A1.593,1.593,0,0,1,45.3,44.7ZM55.967,56.036l2.257-8.187h3.392L57.517,60h-3.1l-4.1-12.151H53.71ZM69.915,60a3.6,3.6,0,0,1-.326-1.089,3.927,3.927,0,0,1-3.066,1.314,4.314,4.314,0,0,1-2.959-1.033,3.323,3.323,0,0,1-1.174-2.605,3.434,3.434,0,0,1,1.432-2.965,7.065,7.065,0,0,1,4.138-1.044h1.494v-.7a2,2,0,0,0-.432-1.348,1.7,1.7,0,0,0-1.365-.505,1.934,1.934,0,0,0-1.286.393,1.335,1.335,0,0,0-.466,1.078H62.66a3.26,3.26,0,0,1,.651-1.954,4.306,4.306,0,0,1,1.842-1.409,6.712,6.712,0,0,1,2.673-.511,5.3,5.3,0,0,1,3.566,1.129,3.948,3.948,0,0,1,1.32,3.173v5.267a5.809,5.809,0,0,0,.483,2.617V60Zm-2.684-2.257a2.8,2.8,0,0,0,1.325-.32,2.1,2.1,0,0,0,.9-.859V54.475H68.242q-2.437,0-2.594,1.685l-.011.191a1.3,1.3,0,0,0,.427,1A1.658,1.658,0,0,0,67.231,57.743Z" transform="translate(948 812)" fill="#12263f"/>
    <path id="Trazado_263855" data-name="Trazado 263855" d="M-35.707-5.447a5.786,5.786,0,0,1-1.948,4.155A6.843,6.843,0,0,1-42.288.225a6.153,6.153,0,0,1-4.947-2.117,8.68,8.68,0,0,1-1.8-5.812v-1a9.8,9.8,0,0,1,.831-4.155,6.228,6.228,0,0,1,2.375-2.757,6.654,6.654,0,0,1,3.588-.96,6.666,6.666,0,0,1,4.56,1.516,6.218,6.218,0,0,1,2,4.256h-3.369a3.415,3.415,0,0,0-.882-2.3,3.265,3.265,0,0,0-2.308-.713,2.863,2.863,0,0,0-2.521,1.207,6.766,6.766,0,0,0-.859,3.745v1.235a7.242,7.242,0,0,0,.8,3.875,2.81,2.81,0,0,0,2.532,1.224,3.326,3.326,0,0,0,2.33-.713,3.221,3.221,0,0,0,.882-2.207ZM-30.283,0H-33.54V-12.151h3.257Zm-3.448-15.3a1.6,1.6,0,0,1,.489-1.2,1.835,1.835,0,0,1,1.331-.472,1.839,1.839,0,0,1,1.325.472,1.589,1.589,0,0,1,.494,1.2,1.593,1.593,0,0,1-.5,1.213,1.844,1.844,0,0,1-1.32.472,1.844,1.844,0,0,1-1.32-.472A1.593,1.593,0,0,1-33.731-15.3ZM-22.017.225a5.965,5.965,0,0,1-4.352-1.64,5.828,5.828,0,0,1-1.679-4.369V-6.1a7.341,7.341,0,0,1,.708-3.274,5.192,5.192,0,0,1,2-2.224,5.627,5.627,0,0,1,2.959-.781A5.043,5.043,0,0,1-18.452-10.8,6.389,6.389,0,0,1-17.02-6.345V-5.02h-7.738a3.015,3.015,0,0,0,.949,1.909,2.869,2.869,0,0,0,2,.719,3.5,3.5,0,0,0,2.931-1.359l1.595,1.786A4.872,4.872,0,0,1-19.255-.354,6.485,6.485,0,0,1-22.017.225Zm-.371-9.984a2.028,2.028,0,0,0-1.567.654,3.388,3.388,0,0,0-.769,1.873h4.515v-.26a2.416,2.416,0,0,0-.584-1.675A2.092,2.092,0,0,0-22.388-9.759Zm14.038.651A8.818,8.818,0,0,0-9.518-9.2a2.377,2.377,0,0,0-2.415,1.247V0h-3.246V-12.151h3.066l.09,1.449a3.007,3.007,0,0,1,2.707-1.673A3.4,3.4,0,0,1-8.3-12.23Zm8.389,0A8.818,8.818,0,0,0-1.129-9.2,2.377,2.377,0,0,0-3.543-7.951V0H-6.789V-12.151h3.066l.09,1.449A3.007,3.007,0,0,1-.927-12.376a3.4,3.4,0,0,1,1.011.146ZM7.193.225a5.965,5.965,0,0,1-4.352-1.64A5.828,5.828,0,0,1,1.162-5.784V-6.1A7.341,7.341,0,0,1,1.87-9.372a5.192,5.192,0,0,1,2-2.224,5.627,5.627,0,0,1,2.959-.781A5.043,5.043,0,0,1,10.759-10.8a6.389,6.389,0,0,1,1.432,4.458V-5.02H4.453A3.015,3.015,0,0,0,5.4-3.111a2.869,2.869,0,0,0,2,.719,3.5,3.5,0,0,0,2.931-1.359l1.595,1.786A4.872,4.872,0,0,1,9.956-.354,6.485,6.485,0,0,1,7.193.225ZM6.823-9.759a2.028,2.028,0,0,0-1.567.654,3.388,3.388,0,0,0-.769,1.873H9v-.26a2.416,2.416,0,0,0-.584-1.675A2.092,2.092,0,0,0,6.823-9.759ZM19.255-6.166a7.323,7.323,0,0,1,1.275-4.526,4.136,4.136,0,0,1,3.487-1.685,3.722,3.722,0,0,1,2.931,1.325v-6.2H30.2V0H27.273l-.157-1.292A3.819,3.819,0,0,1,23.994.225a4.125,4.125,0,0,1-3.442-1.69A7.559,7.559,0,0,1,19.255-6.166Zm3.246.242A4.8,4.8,0,0,0,23.1-3.3a1.939,1.939,0,0,0,1.729.911,2.172,2.172,0,0,0,2.123-1.271v-4.8a2.141,2.141,0,0,0-2.1-1.271Q22.5-9.737,22.5-5.924ZM38.313.225a5.965,5.965,0,0,1-4.352-1.64,5.828,5.828,0,0,1-1.679-4.369V-6.1a7.341,7.341,0,0,1,.708-3.274,5.192,5.192,0,0,1,2-2.224,5.627,5.627,0,0,1,2.959-.781A5.043,5.043,0,0,1,41.878-10.8,6.389,6.389,0,0,1,43.31-6.345V-5.02H35.573a3.015,3.015,0,0,0,.949,1.909,2.869,2.869,0,0,0,2,.719,3.5,3.5,0,0,0,2.931-1.359l1.595,1.786A4.872,4.872,0,0,1,41.075-.354,6.485,6.485,0,0,1,38.313.225Zm-.371-9.984a2.028,2.028,0,0,0-1.567.654,3.388,3.388,0,0,0-.769,1.873h4.515v-.26a2.416,2.416,0,0,0-.584-1.675A2.092,2.092,0,0,0,37.942-9.759ZM48.577,0H45.321V-17.25h3.257ZM-27.992,30.225a5.965,5.965,0,0,1-4.352-1.64,5.828,5.828,0,0,1-1.679-4.369V23.9a7.341,7.341,0,0,1,.708-3.274,5.192,5.192,0,0,1,2-2.224,5.627,5.627,0,0,1,2.959-.781A5.043,5.043,0,0,1-24.426,19.2a6.389,6.389,0,0,1,1.432,4.458V24.98h-7.738a3.015,3.015,0,0,0,.949,1.909,2.869,2.869,0,0,0,2,.719,3.5,3.5,0,0,0,2.931-1.359l1.595,1.786a4.872,4.872,0,0,1-1.977,1.612A6.485,6.485,0,0,1-27.992,30.225Zm-.371-9.984a2.028,2.028,0,0,0-1.567.654,3.388,3.388,0,0,0-.769,1.873h4.515v-.26a2.416,2.416,0,0,0-.584-1.675A2.092,2.092,0,0,0-28.363,20.241Zm11.612,5.795,2.257-8.187H-11.1L-15.2,30h-3.1l-4.1-12.151h3.392Zm12.668,4.189a5.965,5.965,0,0,1-4.352-1.64,5.828,5.828,0,0,1-1.679-4.369V23.9a7.341,7.341,0,0,1,.708-3.274,5.192,5.192,0,0,1,2-2.224,5.627,5.627,0,0,1,2.959-.781A5.043,5.043,0,0,1-.517,19.2,6.389,6.389,0,0,1,.915,23.655V24.98H-6.823a3.015,3.015,0,0,0,.949,1.909,2.869,2.869,0,0,0,2,.719A3.5,3.5,0,0,0-.938,26.249L.657,28.035A4.872,4.872,0,0,1-1.32,29.646,6.485,6.485,0,0,1-4.082,30.225Zm-.371-9.984a2.028,2.028,0,0,0-1.567.654,3.388,3.388,0,0,0-.769,1.873h4.515v-.26a2.416,2.416,0,0,0-.584-1.675A2.092,2.092,0,0,0-4.453,20.241Zm10.2-2.392.1,1.4a4.242,4.242,0,0,1,3.493-1.628,3.526,3.526,0,0,1,2.875,1.134,5.292,5.292,0,0,1,.966,3.392V30H9.933V22.229a2.106,2.106,0,0,0-.449-1.5,2.011,2.011,0,0,0-1.494-.466,2.233,2.233,0,0,0-2.055,1.168V30H2.69V17.849Zm13.78-2.987v2.987H21.6v2.381H19.524v6.064a1.448,1.448,0,0,0,.258.966,1.3,1.3,0,0,0,.988.292,5.176,5.176,0,0,0,.955-.079v2.459a6.681,6.681,0,0,1-1.965.292q-3.414,0-3.481-3.448V20.229H14.5V17.849h1.774V14.861Zm3.043,8.951a7.206,7.206,0,0,1,.7-3.223,5.1,5.1,0,0,1,2-2.19,5.849,5.849,0,0,1,3.038-.775,5.533,5.533,0,0,1,4.015,1.5,6.04,6.04,0,0,1,1.735,4.088l.022.831a6.351,6.351,0,0,1-1.561,4.487,5.426,5.426,0,0,1-4.189,1.69,5.453,5.453,0,0,1-4.195-1.685,6.463,6.463,0,0,1-1.567-4.582Zm3.246.23a4.542,4.542,0,0,0,.651,2.649,2.34,2.34,0,0,0,3.706.011,4.97,4.97,0,0,0,.663-2.9,4.5,4.5,0,0,0-.663-2.632,2.154,2.154,0,0,0-1.864-.934,2.119,2.119,0,0,0-1.842.928A5.054,5.054,0,0,0,25.813,24.042Z" transform="translate(1283 835)" fill="#12263f"/>
  </g>
</svg>
