<svg xmlns="http://www.w3.org/2000/svg" xmlns:xlink="http://www.w3.org/1999/xlink" width="1240" height="415.531" viewBox="0 0 1240 415.531">
  <defs>
    <clipPath id="clip-path">
      <path id="Trazado_249299" data-name="Trazado 249299" d="M0,0H1240V406.795L0,415.531Z" fill="none"/>
    </clipPath>
    <clipPath id="clip-path-2">
      <rect id="Rectángulo_90145" data-name="Rectángulo 90145" width="1239.882" height="410.288" fill="none"/>
    </clipPath>
    <clipPath id="clip-path-3">
      <rect id="Rectángulo_90136" data-name="Rectángulo 90136" width="93.757" height="111.796" fill="none"/>
    </clipPath>
    <clipPath id="clip-path-4">
      <rect id="Rectángulo_90137" data-name="Rectángulo 90137" width="93.756" height="111.796" fill="none"/>
    </clipPath>
    <clipPath id="clip-path-9">
      <rect id="Rectángulo_90142" data-name="Rectángulo 90142" width="92.981" height="111.796" fill="none"/>
    </clipPath>
    <clipPath id="clip-path-12">
      <rect id="Rectángulo_90495" data-name="Rectángulo 90495" width="63.65" height="61.486" fill="#fc4b52"/>
    </clipPath>
    <clipPath id="clip-path-13">
      <rect id="Rectángulo_90496" data-name="Rectángulo 90496" width="54.957" height="54.986" fill="#64892a"/>
    </clipPath>
    <clipPath id="clip-path-14">
      <rect id="Rectángulo_90497" data-name="Rectángulo 90497" width="60.529" height="61.253" fill="#85b638"/>
    </clipPath>
    <clipPath id="clip-path-15">
      <rect id="Rectángulo_90498" data-name="Rectángulo 90498" width="56.281" height="64.019" fill="#64892a"/>
    </clipPath>
    <clipPath id="clip-path-16">
      <rect id="Rectángulo_90507" data-name="Rectángulo 90507" width="61.476" height="61.479" fill="#85b638"/>
    </clipPath>
    <clipPath id="clip-path-17">
      <rect id="Rectángulo_90516" data-name="Rectángulo 90516" width="61.47" height="61.479" fill="#64892a"/>
    </clipPath>
    <clipPath id="clip-path-18">
      <rect id="Rectángulo_90517" data-name="Rectángulo 90517" width="59.656" height="59.67" fill="#85b638"/>
    </clipPath>
    <clipPath id="clip-path-19">
      <rect id="Rectángulo_90518" data-name="Rectángulo 90518" width="47.137" height="58.952" fill="#64892a"/>
    </clipPath>
    <clipPath id="clip-path-20">
      <rect id="Rectángulo_90519" data-name="Rectángulo 90519" width="61.342" height="61.492" fill="#85b638"/>
    </clipPath>
  </defs>
  <g id="Grupo_149776" data-name="Grupo 149776" transform="translate(-180 -1748.396)">
    <g id="Grupo_149074" data-name="Grupo 149074" transform="translate(180 1748.396)">
      <g id="Enmascarar_grupo_117530" data-name="Enmascarar grupo 117530" transform="translate(0 0)" clip-path="url(#clip-path)">
        <g id="Grupo_149072" data-name="Grupo 149072" transform="translate(0.118 -5.937)">
          <g id="Grupo_149071" data-name="Grupo 149071" clip-path="url(#clip-path-2)">
            <path id="Trazado_249263" data-name="Trazado 249263" d="M204.937,181.5H114.609a23,23,0,0,1-22.937-22.937V68.1a68.1,68.1,0,0,1,136.2,0v90.459A23,23,0,0,1,204.937,181.5" transform="translate(186.985 7.916)" fill="#f2fbe3" stroke="#a7e446" stroke-width="4"/>
            <path id="Trazado_249264" data-name="Trazado 249264" d="M91.651,79.359v78.705l68.162,39.356,68.162-39.356V79.359L159.813,40.006Z" transform="translate(186.944 86.926)" fill="#a7e446"/>
            <g id="Grupo_149046" data-name="Grupo 149046" transform="translate(299.879 155.877)" style="mix-blend-mode: hard-light;isolation: isolate">
              <g id="Grupo_149045" data-name="Grupo 149045">
                <g id="Grupo_149044" data-name="Grupo 149044" clip-path="url(#clip-path-3)">
                  <path id="Trazado_249265" data-name="Trazado 249265" d="M98.805,77.685v55.9l46.879,27.947,46.876-27.947v-55.9l-46.876-27.95Z" transform="translate(-98.805 -49.736)" fill="#696969"/>
                </g>
              </g>
            </g>
            <path id="Trazado_249266" data-name="Trazado 249266" d="M98.522,75.493v55.1l47.724,27.554L193.967,130.6v-55.1L146.246,47.939Z" transform="translate(200.512 102.593)" fill="#fff"/>
            <path id="Trazado_249267" data-name="Trazado 249267" d="M160.447,71.917h90.328a23,23,0,0,1,22.937,22.937v90.459a68.1,68.1,0,0,1-136.2,0V94.854a23,23,0,0,1,22.937-22.937" transform="translate(277.513 149.949)" fill="#f2fbe3" stroke="#85b638" stroke-width="4"/>
            <path id="Trazado_249268" data-name="Trazado 249268" d="M137.49,79.359v78.705l68.162,39.356,68.162-39.356V79.359L205.652,40.006Z" transform="translate(277.472 86.926)" fill="#85b638"/>
            <g id="Grupo_149049" data-name="Grupo 149049" transform="translate(436.246 155.877)" style="mix-blend-mode: hard-light;isolation: isolate">
              <g id="Grupo_149048" data-name="Grupo 149048">
                <g id="Grupo_149047" data-name="Grupo 149047" clip-path="url(#clip-path-4)">
                  <path id="Trazado_249269" data-name="Trazado 249269" d="M144.644,77.685v55.9l46.879,27.947L238.4,133.584v-55.9l-46.876-27.95Z" transform="translate(-144.645 -49.736)" fill="#696969"/>
                </g>
              </g>
            </g>
            <path id="Trazado_249270" data-name="Trazado 249270" d="M144.36,75.493v55.1l47.724,27.554L239.805,130.6v-55.1L192.084,47.939Z" transform="translate(291.04 102.593)" fill="#fff"/>
            <path id="Trazado_249271" data-name="Trazado 249271" d="M68.783,71.917h90.328a23,23,0,0,1,22.937,22.937v90.459a68.1,68.1,0,0,1-136.2,0V94.854A23,23,0,0,1,68.783,71.917" transform="translate(96.481 149.949)" fill="#f2fbe3" stroke="#85b638" stroke-width="4"/>
            <path id="Trazado_249272" data-name="Trazado 249272" d="M45.826,79.359v78.705l68.162,39.356,68.162-39.356V79.359L113.988,40.006Z" transform="translate(96.44 86.926)" fill="#85b638"/>
            <g id="Grupo_149052" data-name="Grupo 149052" transform="translate(163.549 155.877)" style="mix-blend-mode: hard-light;isolation: isolate">
              <g id="Grupo_149051" data-name="Grupo 149051">
                <g id="Grupo_149050" data-name="Grupo 149050" clip-path="url(#clip-path-3)">
                  <path id="Trazado_249273" data-name="Trazado 249273" d="M52.98,77.685v55.9l46.879,27.947,46.879-27.947v-55.9L99.859,49.735Z" transform="translate(-52.98 -49.736)" fill="#696969"/>
                </g>
              </g>
            </g>
            <path id="Trazado_249274" data-name="Trazado 249274" d="M52.7,75.493v55.1l47.724,27.554L148.144,130.6v-55.1L100.42,47.939Z" transform="translate(110.008 102.593)" fill="#fff"/>
            <path id="Trazado_249275" data-name="Trazado 249275" d="M388.25,181.5H297.922a23,23,0,0,1-22.937-22.937V68.1a68.1,68.1,0,0,1,136.2,0v90.459A23,23,0,0,1,388.25,181.5" transform="translate(549.019 7.916)" fill="#f2fbe3" stroke="#a7e446" stroke-width="4"/>
            <path id="Trazado_249276" data-name="Trazado 249276" d="M274.964,79.359v78.705l68.162,39.356,68.162-39.356V79.359L343.126,40.006Z" transform="translate(548.978 86.926)" fill="#a7e446"/>
            <g id="Grupo_149055" data-name="Grupo 149055" transform="translate(845.227 155.877)" style="mix-blend-mode: hard-light;isolation: isolate">
              <g id="Grupo_149054" data-name="Grupo 149054">
                <g id="Grupo_149053" data-name="Grupo 149053" clip-path="url(#clip-path-4)">
                  <path id="Trazado_249277" data-name="Trazado 249277" d="M282.119,77.685v55.9L329,161.531l46.876-27.947v-55.9L329,49.735Z" transform="translate(-282.12 -49.736)" fill="#696969"/>
                </g>
              </g>
            </g>
            <path id="Trazado_249278" data-name="Trazado 249278" d="M281.835,75.493v55.1l47.724,27.554L377.28,130.6v-55.1L329.559,47.939Z" transform="translate(562.546 102.593)" fill="#fff"/>
            <path id="Trazado_249279" data-name="Trazado 249279" d="M343.76,71.917h90.328a23,23,0,0,1,22.937,22.937v90.459a68.1,68.1,0,0,1-136.2,0V94.854A23,23,0,0,1,343.76,71.917" transform="translate(639.547 149.949)" fill="#f2fbe3" stroke="#85b638" stroke-width="4"/>
            <path id="Trazado_249280" data-name="Trazado 249280" d="M320.8,79.359v78.705l68.162,39.356,68.162-39.356V79.359L388.965,40.006Z" transform="translate(639.506 86.926)" fill="#85b638"/>
            <g id="Grupo_149058" data-name="Grupo 149058" transform="translate(981.593 155.877)" style="mix-blend-mode: hard-light;isolation: isolate">
              <g id="Grupo_149057" data-name="Grupo 149057">
                <g id="Grupo_149056" data-name="Grupo 149056" clip-path="url(#clip-path-4)">
                  <path id="Trazado_249281" data-name="Trazado 249281" d="M327.957,77.685v55.9l46.879,27.947,46.876-27.947v-55.9l-46.876-27.95Z" transform="translate(-327.958 -49.736)" fill="#696969"/>
                </g>
              </g>
            </g>
            <path id="Trazado_249282" data-name="Trazado 249282" d="M327.673,75.493v55.1L375.4,158.152,423.118,130.6v-55.1L375.4,47.939Z" transform="translate(653.075 102.593)" fill="#fff"/>
            <path id="Trazado_249283" data-name="Trazado 249283" d="M252.1,71.917h90.328a23,23,0,0,1,22.937,22.937v90.459a68.1,68.1,0,0,1-136.2,0V94.854A23,23,0,0,1,252.1,71.917" transform="translate(458.515 149.949)" fill="#f2fbe3" stroke="#85b638" stroke-width="4"/>
            <path id="Trazado_249284" data-name="Trazado 249284" d="M229.139,79.359v78.705L297.3,197.42l68.162-39.356V79.359L297.3,40.006Z" transform="translate(458.474 86.926)" fill="#85b638"/>
            <g id="Grupo_149061" data-name="Grupo 149061" transform="translate(708.897 155.877)" style="mix-blend-mode: hard-light;isolation: isolate">
              <g id="Grupo_149060" data-name="Grupo 149060">
                <g id="Grupo_149059" data-name="Grupo 149059" clip-path="url(#clip-path-4)">
                  <path id="Trazado_249285" data-name="Trazado 249285" d="M236.293,77.685v55.9l46.879,27.947,46.879-27.947v-55.9l-46.879-27.95Z" transform="translate(-236.294 -49.736)" fill="#696969"/>
                </g>
              </g>
            </g>
            <path id="Trazado_249286" data-name="Trazado 249286" d="M236.009,75.493v55.1l47.724,27.554L331.457,130.6v-55.1L283.733,47.939Z" transform="translate(472.042 102.593)" fill="#fff"/>
            <path id="Trazado_249287" data-name="Trazado 249287" d="M113.285,181.5H22.957A23,23,0,0,1,.02,158.559V68.1a68.1,68.1,0,0,1,136.2,0v90.459A23,23,0,0,1,113.285,181.5" transform="translate(5.977 7.916)" fill="#f2fbe3" stroke="#a7e446" stroke-width="4"/>
            <path id="Trazado_249288" data-name="Trazado 249288" d="M0,79.359v78.705L68.162,197.42l68.162-39.356V79.359L68.162,40.006Z" transform="translate(5.937 86.926)" fill="#a7e446"/>
            <g id="Grupo_149064" data-name="Grupo 149064" transform="translate(27.608 155.877)" style="mix-blend-mode: hard-light;isolation: isolate">
              <g id="Grupo_149063" data-name="Grupo 149063">
                <g id="Grupo_149062" data-name="Grupo 149062" clip-path="url(#clip-path-9)">
                  <path id="Trazado_249289" data-name="Trazado 249289" d="M7.285,77.685v55.9l46.49,27.947,46.493-27.947v-55.9L53.774,49.735Z" transform="translate(-7.285 -49.736)" fill="#5e5e5e"/>
                </g>
              </g>
            </g>
            <path id="Trazado_249290" data-name="Trazado 249290" d="M6.87,75.493v55.1l47.724,27.554L102.315,130.6v-55.1L54.594,47.939Z" transform="translate(19.505 102.593)" fill="#fff"/>
            <path id="Trazado_249291" data-name="Trazado 249291" d="M296.6,181.5H206.272a23,23,0,0,1-22.937-22.937V68.1A68.3,68.3,0,0,1,251.435,0h0a68.3,68.3,0,0,1,68.1,68.1v90.459A23,23,0,0,1,296.6,181.5" transform="translate(368.015 7.916)" fill="#f2fbe3" stroke="#a7e446" stroke-width="4"/>
            <path id="Trazado_249292" data-name="Trazado 249292" d="M183.315,79.359v78.705l68.162,39.356,68.162-39.356V79.359L251.477,40.006Z" transform="translate(367.975 86.926)" fill="#a7e446"/>
            <g id="Grupo_149067" data-name="Grupo 149067" transform="translate(572.573 155.877)" style="mix-blend-mode: hard-light;isolation: isolate">
              <g id="Grupo_149066" data-name="Grupo 149066">
                <g id="Grupo_149065" data-name="Grupo 149065" clip-path="url(#clip-path-4)">
                  <path id="Trazado_249293" data-name="Trazado 249293" d="M190.469,77.685v55.9l46.879,27.947,46.876-27.947v-55.9l-46.876-27.95Z" transform="translate(-190.469 -49.736)" fill="#696969"/>
                </g>
              </g>
            </g>
            <path id="Trazado_249294" data-name="Trazado 249294" d="M190.185,75.493v55.1l47.724,27.554L285.63,130.6v-55.1L237.909,47.939Z" transform="translate(381.543 102.593)" fill="#fff"/>
            <path id="Trazado_249295" data-name="Trazado 249295" d="M479.912,181.5H389.584a23,23,0,0,1-22.937-22.937V68.1a68.1,68.1,0,0,1,136.2,0v90.459A23,23,0,0,1,479.912,181.5" transform="translate(730.047 7.916)" fill="#f2fbe3" stroke="#a7e446" stroke-width="4"/>
            <path id="Trazado_249296" data-name="Trazado 249296" d="M366.626,79.359v78.705l68.162,39.356,68.162-39.356V79.359L434.788,40.006Z" transform="translate(730.006 86.926)" fill="#a7e446"/>
            <g id="Grupo_149070" data-name="Grupo 149070" transform="translate(1117.917 155.877)" style="mix-blend-mode: hard-light;isolation: isolate">
              <g id="Grupo_149069" data-name="Grupo 149069">
                <g id="Grupo_149068" data-name="Grupo 149068" clip-path="url(#clip-path-4)">
                  <path id="Trazado_249297" data-name="Trazado 249297" d="M373.781,77.685v55.9l46.879,27.947,46.876-27.947v-55.9L420.66,49.735Z" transform="translate(-373.782 -49.736)" fill="#696969"/>
                </g>
              </g>
            </g>
            <path id="Trazado_249298" data-name="Trazado 249298" d="M373.5,75.493v55.1l47.724,27.554L468.942,130.6v-55.1L421.221,47.939Z" transform="translate(743.574 102.593)" fill="#fff"/>
          </g>
        </g>
      </g>
    </g>
    <path id="Trazado_263869" data-name="Trazado 263869" d="M8.418,15.99V21H5.488V6.781h5.547a6.417,6.417,0,0,1,2.817.586,4.318,4.318,0,0,1,1.87,1.665,4.643,4.643,0,0,1,.654,2.456,4.083,4.083,0,0,1-1.431,3.3,5.959,5.959,0,0,1-3.96,1.206Zm0-2.373h2.617a2.573,2.573,0,0,0,1.772-.547,1.989,1.989,0,0,0,.61-1.562A2.345,2.345,0,0,0,12.8,9.818a2.3,2.3,0,0,0-1.7-.664H8.418ZM24.219,21a3.134,3.134,0,0,1-.283-.947A3.415,3.415,0,0,1,21.27,21.2a3.752,3.752,0,0,1-2.573-.9,2.89,2.89,0,0,1-1.021-2.266,2.986,2.986,0,0,1,1.245-2.578,6.144,6.144,0,0,1,3.6-.908h1.3v-.605a1.741,1.741,0,0,0-.376-1.172,1.479,1.479,0,0,0-1.187-.439,1.682,1.682,0,0,0-1.118.342,1.161,1.161,0,0,0-.405.938H17.91a2.835,2.835,0,0,1,.566-1.7,3.744,3.744,0,0,1,1.6-1.226,5.837,5.837,0,0,1,2.324-.444,4.611,4.611,0,0,1,3.1.981,3.433,3.433,0,0,1,1.147,2.759v4.58a5.052,5.052,0,0,0,.42,2.275V21Zm-2.334-1.963a2.431,2.431,0,0,0,1.152-.278,1.828,1.828,0,0,0,.781-.747V16.2H22.764q-2.119,0-2.256,1.465l-.01.166a1.13,1.13,0,0,0,.371.869A1.441,1.441,0,0,0,21.885,19.037Zm12.656-.957a.909.909,0,0,0-.513-.815,5.824,5.824,0,0,0-1.646-.532q-3.77-.791-3.77-3.2a2.9,2.9,0,0,1,1.167-2.349,4.708,4.708,0,0,1,3.052-.942,5.067,5.067,0,0,1,3.218.947,2.985,2.985,0,0,1,1.206,2.461H34.434a1.366,1.366,0,0,0-.391-1,1.653,1.653,0,0,0-1.221-.4,1.689,1.689,0,0,0-1.1.322,1.017,1.017,0,0,0-.391.82.87.87,0,0,0,.444.757,4.571,4.571,0,0,0,1.5.5,12.244,12.244,0,0,1,1.777.474,2.92,2.92,0,0,1,2.236,2.842,2.756,2.756,0,0,1-1.24,2.339,5.35,5.35,0,0,1-3.2.894,5.588,5.588,0,0,1-2.358-.474,3.957,3.957,0,0,1-1.616-1.3,3.018,3.018,0,0,1-.586-1.782h2.676a1.473,1.473,0,0,0,.557,1.152,2.208,2.208,0,0,0,1.387.4,2.044,2.044,0,0,0,1.226-.308A.957.957,0,0,0,34.541,18.08Zm4.121-2.461a6.267,6.267,0,0,1,.605-2.8,4.432,4.432,0,0,1,1.743-1.9,5.086,5.086,0,0,1,2.642-.674,4.812,4.812,0,0,1,3.491,1.309A5.252,5.252,0,0,1,48.652,15.1l.02.723a5.523,5.523,0,0,1-1.357,3.9,5.261,5.261,0,0,1-7.29,0,5.62,5.62,0,0,1-1.362-3.984Zm2.822.2a3.95,3.95,0,0,0,.566,2.3,2.035,2.035,0,0,0,3.223.01,4.322,4.322,0,0,0,.576-2.518,3.91,3.91,0,0,0-.576-2.289,1.873,1.873,0,0,0-1.621-.812,1.842,1.842,0,0,0-1.6.807A4.395,4.395,0,0,0,41.484,15.819ZM62.129,21H59.307V10.121l-3.369,1.045V8.871l5.889-2.109h.3Z" transform="translate(220 1810)" fill="#12263f"/>
    <path id="Trazado_263867" data-name="Trazado 263867" d="M8.418,15.99V21H5.488V6.781h5.547a6.417,6.417,0,0,1,2.817.586,4.318,4.318,0,0,1,1.87,1.665,4.643,4.643,0,0,1,.654,2.456,4.083,4.083,0,0,1-1.431,3.3,5.959,5.959,0,0,1-3.96,1.206Zm0-2.373h2.617a2.573,2.573,0,0,0,1.772-.547,1.989,1.989,0,0,0,.61-1.562A2.345,2.345,0,0,0,12.8,9.818a2.3,2.3,0,0,0-1.7-.664H8.418ZM24.219,21a3.134,3.134,0,0,1-.283-.947A3.415,3.415,0,0,1,21.27,21.2a3.752,3.752,0,0,1-2.573-.9,2.89,2.89,0,0,1-1.021-2.266,2.986,2.986,0,0,1,1.245-2.578,6.144,6.144,0,0,1,3.6-.908h1.3v-.605a1.741,1.741,0,0,0-.376-1.172,1.479,1.479,0,0,0-1.187-.439,1.682,1.682,0,0,0-1.118.342,1.161,1.161,0,0,0-.405.938H17.91a2.835,2.835,0,0,1,.566-1.7,3.744,3.744,0,0,1,1.6-1.226,5.837,5.837,0,0,1,2.324-.444,4.611,4.611,0,0,1,3.1.981,3.433,3.433,0,0,1,1.147,2.759v4.58a5.052,5.052,0,0,0,.42,2.275V21Zm-2.334-1.963a2.431,2.431,0,0,0,1.152-.278,1.828,1.828,0,0,0,.781-.747V16.2H22.764q-2.119,0-2.256,1.465l-.01.166a1.13,1.13,0,0,0,.371.869A1.441,1.441,0,0,0,21.885,19.037Zm12.656-.957a.909.909,0,0,0-.513-.815,5.824,5.824,0,0,0-1.646-.532q-3.77-.791-3.77-3.2a2.9,2.9,0,0,1,1.167-2.349,4.708,4.708,0,0,1,3.052-.942,5.067,5.067,0,0,1,3.218.947,2.985,2.985,0,0,1,1.206,2.461H34.434a1.366,1.366,0,0,0-.391-1,1.653,1.653,0,0,0-1.221-.4,1.689,1.689,0,0,0-1.1.322,1.017,1.017,0,0,0-.391.82.87.87,0,0,0,.444.757,4.571,4.571,0,0,0,1.5.5,12.244,12.244,0,0,1,1.777.474,2.92,2.92,0,0,1,2.236,2.842,2.756,2.756,0,0,1-1.24,2.339,5.35,5.35,0,0,1-3.2.894,5.588,5.588,0,0,1-2.358-.474,3.957,3.957,0,0,1-1.616-1.3,3.018,3.018,0,0,1-.586-1.782h2.676a1.473,1.473,0,0,0,.557,1.152,2.208,2.208,0,0,0,1.387.4,2.044,2.044,0,0,0,1.226-.308A.957.957,0,0,0,34.541,18.08Zm4.121-2.461a6.267,6.267,0,0,1,.605-2.8,4.432,4.432,0,0,1,1.743-1.9,5.086,5.086,0,0,1,2.642-.674,4.812,4.812,0,0,1,3.491,1.309A5.252,5.252,0,0,1,48.652,15.1l.02.723a5.523,5.523,0,0,1-1.357,3.9,5.261,5.261,0,0,1-7.29,0,5.62,5.62,0,0,1-1.362-3.984Zm2.822.2a3.95,3.95,0,0,0,.566,2.3,2.035,2.035,0,0,0,3.223.01,4.322,4.322,0,0,0,.576-2.518,3.91,3.91,0,0,0-.576-2.289,1.873,1.873,0,0,0-1.621-.812,1.842,1.842,0,0,0-1.6.807A4.395,4.395,0,0,0,41.484,15.819Zm16.66-3.179h1.5A2.119,2.119,0,0,0,61.24,12.1a1.968,1.968,0,0,0,.518-1.426,1.74,1.74,0,0,0-.513-1.338,1.987,1.987,0,0,0-1.411-.479,2.083,2.083,0,0,0-1.357.444,1.421,1.421,0,0,0-.547,1.157H55.107a3.471,3.471,0,0,1,.6-2,4,4,0,0,1,1.68-1.382,5.606,5.606,0,0,1,2.378-.5A5.316,5.316,0,0,1,63.3,7.665a3.682,3.682,0,0,1,1.279,2.974,2.992,2.992,0,0,1-.6,1.8,3.87,3.87,0,0,1-1.562,1.26,3.533,3.533,0,0,1,1.792,1.289,3.5,3.5,0,0,1,.591,2.031,3.743,3.743,0,0,1-1.382,3.037A5.556,5.556,0,0,1,59.766,21.2a5.268,5.268,0,0,1-3.481-1.123A3.668,3.668,0,0,1,54.932,17.1h2.822a1.635,1.635,0,0,0,.6,1.309,2.505,2.505,0,0,0,3.057-.024,1.837,1.837,0,0,0,.571-1.411q0-2.129-2.344-2.129H58.145Z" transform="translate(494 1810)" fill="#12263f"/>
    <path id="Trazado_263863" data-name="Trazado 263863" d="M8.418,15.99V21H5.488V6.781h5.547a6.417,6.417,0,0,1,2.817.586,4.318,4.318,0,0,1,1.87,1.665,4.643,4.643,0,0,1,.654,2.456,4.083,4.083,0,0,1-1.431,3.3,5.959,5.959,0,0,1-3.96,1.206Zm0-2.373h2.617a2.573,2.573,0,0,0,1.772-.547,1.989,1.989,0,0,0,.61-1.562A2.345,2.345,0,0,0,12.8,9.818a2.3,2.3,0,0,0-1.7-.664H8.418ZM24.219,21a3.134,3.134,0,0,1-.283-.947A3.415,3.415,0,0,1,21.27,21.2a3.752,3.752,0,0,1-2.573-.9,2.89,2.89,0,0,1-1.021-2.266,2.986,2.986,0,0,1,1.245-2.578,6.144,6.144,0,0,1,3.6-.908h1.3v-.605a1.741,1.741,0,0,0-.376-1.172,1.479,1.479,0,0,0-1.187-.439,1.682,1.682,0,0,0-1.118.342,1.161,1.161,0,0,0-.405.938H17.91a2.835,2.835,0,0,1,.566-1.7,3.744,3.744,0,0,1,1.6-1.226,5.837,5.837,0,0,1,2.324-.444,4.611,4.611,0,0,1,3.1.981,3.433,3.433,0,0,1,1.147,2.759v4.58a5.052,5.052,0,0,0,.42,2.275V21Zm-2.334-1.963a2.431,2.431,0,0,0,1.152-.278,1.828,1.828,0,0,0,.781-.747V16.2H22.764q-2.119,0-2.256,1.465l-.01.166a1.13,1.13,0,0,0,.371.869A1.441,1.441,0,0,0,21.885,19.037Zm12.656-.957a.909.909,0,0,0-.513-.815,5.824,5.824,0,0,0-1.646-.532q-3.77-.791-3.77-3.2a2.9,2.9,0,0,1,1.167-2.349,4.708,4.708,0,0,1,3.052-.942,5.067,5.067,0,0,1,3.218.947,2.985,2.985,0,0,1,1.206,2.461H34.434a1.366,1.366,0,0,0-.391-1,1.653,1.653,0,0,0-1.221-.4,1.689,1.689,0,0,0-1.1.322,1.017,1.017,0,0,0-.391.82.87.87,0,0,0,.444.757,4.571,4.571,0,0,0,1.5.5,12.244,12.244,0,0,1,1.777.474,2.92,2.92,0,0,1,2.236,2.842,2.756,2.756,0,0,1-1.24,2.339,5.35,5.35,0,0,1-3.2.894,5.588,5.588,0,0,1-2.358-.474,3.957,3.957,0,0,1-1.616-1.3,3.018,3.018,0,0,1-.586-1.782h2.676a1.473,1.473,0,0,0,.557,1.152,2.208,2.208,0,0,0,1.387.4,2.044,2.044,0,0,0,1.226-.308A.957.957,0,0,0,34.541,18.08Zm4.121-2.461a6.267,6.267,0,0,1,.605-2.8,4.432,4.432,0,0,1,1.743-1.9,5.086,5.086,0,0,1,2.642-.674,4.812,4.812,0,0,1,3.491,1.309A5.252,5.252,0,0,1,48.652,15.1l.02.723a5.523,5.523,0,0,1-1.357,3.9,5.261,5.261,0,0,1-7.29,0,5.62,5.62,0,0,1-1.362-3.984Zm2.822.2a3.95,3.95,0,0,0,.566,2.3,2.035,2.035,0,0,0,3.223.01,4.322,4.322,0,0,0,.576-2.518,3.91,3.91,0,0,0-.576-2.289,1.873,1.873,0,0,0-1.621-.812,1.842,1.842,0,0,0-1.6.807A4.395,4.395,0,0,0,41.484,15.819Zm14.209-1.812.82-7.227h7.969V9.135H58.828l-.352,3.057a4.475,4.475,0,0,1,2.139-.537,4.1,4.1,0,0,1,3.184,1.26,5.032,5.032,0,0,1,1.152,3.525,5.155,5.155,0,0,1-.581,2.466,4.1,4.1,0,0,1-1.665,1.689,5.2,5.2,0,0,1-2.559.6,5.52,5.52,0,0,1-2.393-.522,4.244,4.244,0,0,1-1.743-1.47,4.006,4.006,0,0,1-.679-2.158h2.793a2.086,2.086,0,0,0,.62,1.382,1.966,1.966,0,0,0,1.392.493,1.735,1.735,0,0,0,1.475-.688,3.189,3.189,0,0,0,.518-1.948,2.637,2.637,0,0,0-.6-1.855,2.186,2.186,0,0,0-1.689-.645,2.443,2.443,0,0,0-1.631.527l-.273.254Z" transform="translate(768 1810)" fill="#12263f"/>
    <path id="Trazado_263862" data-name="Trazado 263862" d="M8.418,15.99V21H5.488V6.781h5.547a6.417,6.417,0,0,1,2.817.586,4.318,4.318,0,0,1,1.87,1.665,4.643,4.643,0,0,1,.654,2.456,4.083,4.083,0,0,1-1.431,3.3,5.959,5.959,0,0,1-3.96,1.206Zm0-2.373h2.617a2.573,2.573,0,0,0,1.772-.547,1.989,1.989,0,0,0,.61-1.562A2.345,2.345,0,0,0,12.8,9.818a2.3,2.3,0,0,0-1.7-.664H8.418ZM24.219,21a3.134,3.134,0,0,1-.283-.947A3.415,3.415,0,0,1,21.27,21.2a3.752,3.752,0,0,1-2.573-.9,2.89,2.89,0,0,1-1.021-2.266,2.986,2.986,0,0,1,1.245-2.578,6.144,6.144,0,0,1,3.6-.908h1.3v-.605a1.741,1.741,0,0,0-.376-1.172,1.479,1.479,0,0,0-1.187-.439,1.682,1.682,0,0,0-1.118.342,1.161,1.161,0,0,0-.405.938H17.91a2.835,2.835,0,0,1,.566-1.7,3.744,3.744,0,0,1,1.6-1.226,5.837,5.837,0,0,1,2.324-.444,4.611,4.611,0,0,1,3.1.981,3.433,3.433,0,0,1,1.147,2.759v4.58a5.052,5.052,0,0,0,.42,2.275V21Zm-2.334-1.963a2.431,2.431,0,0,0,1.152-.278,1.828,1.828,0,0,0,.781-.747V16.2H22.764q-2.119,0-2.256,1.465l-.01.166a1.13,1.13,0,0,0,.371.869A1.441,1.441,0,0,0,21.885,19.037Zm12.656-.957a.909.909,0,0,0-.513-.815,5.824,5.824,0,0,0-1.646-.532q-3.77-.791-3.77-3.2a2.9,2.9,0,0,1,1.167-2.349,4.708,4.708,0,0,1,3.052-.942,5.067,5.067,0,0,1,3.218.947,2.985,2.985,0,0,1,1.206,2.461H34.434a1.366,1.366,0,0,0-.391-1,1.653,1.653,0,0,0-1.221-.4,1.689,1.689,0,0,0-1.1.322,1.017,1.017,0,0,0-.391.82.87.87,0,0,0,.444.757,4.571,4.571,0,0,0,1.5.5,12.244,12.244,0,0,1,1.777.474,2.92,2.92,0,0,1,2.236,2.842,2.756,2.756,0,0,1-1.24,2.339,5.35,5.35,0,0,1-3.2.894,5.588,5.588,0,0,1-2.358-.474,3.957,3.957,0,0,1-1.616-1.3,3.018,3.018,0,0,1-.586-1.782h2.676a1.473,1.473,0,0,0,.557,1.152,2.208,2.208,0,0,0,1.387.4,2.044,2.044,0,0,0,1.226-.308A.957.957,0,0,0,34.541,18.08Zm4.121-2.461a6.267,6.267,0,0,1,.605-2.8,4.432,4.432,0,0,1,1.743-1.9,5.086,5.086,0,0,1,2.642-.674,4.812,4.812,0,0,1,3.491,1.309A5.252,5.252,0,0,1,48.652,15.1l.02.723a5.523,5.523,0,0,1-1.357,3.9,5.261,5.261,0,0,1-7.29,0,5.62,5.62,0,0,1-1.362-3.984Zm2.822.2a3.95,3.95,0,0,0,.566,2.3,2.035,2.035,0,0,0,3.223.01,4.322,4.322,0,0,0,.576-2.518,3.91,3.91,0,0,0-.576-2.289,1.873,1.873,0,0,0-1.621-.812,1.842,1.842,0,0,0-1.6.807A4.395,4.395,0,0,0,41.484,15.819ZM64.941,8.357,59.443,21H56.465L61.973,9.057H54.9V6.781H64.941Z" transform="translate(1042 1810)" fill="#12263f"/>
    <path id="Trazado_263861" data-name="Trazado 263861" d="M8.418,15.99V21H5.488V6.781h5.547a6.417,6.417,0,0,1,2.817.586,4.318,4.318,0,0,1,1.87,1.665,4.643,4.643,0,0,1,.654,2.456,4.083,4.083,0,0,1-1.431,3.3,5.959,5.959,0,0,1-3.96,1.206Zm0-2.373h2.617a2.573,2.573,0,0,0,1.772-.547,1.989,1.989,0,0,0,.61-1.562A2.345,2.345,0,0,0,12.8,9.818a2.3,2.3,0,0,0-1.7-.664H8.418ZM24.219,21a3.134,3.134,0,0,1-.283-.947A3.415,3.415,0,0,1,21.27,21.2a3.752,3.752,0,0,1-2.573-.9,2.89,2.89,0,0,1-1.021-2.266,2.986,2.986,0,0,1,1.245-2.578,6.144,6.144,0,0,1,3.6-.908h1.3v-.605a1.741,1.741,0,0,0-.376-1.172,1.479,1.479,0,0,0-1.187-.439,1.682,1.682,0,0,0-1.118.342,1.161,1.161,0,0,0-.405.938H17.91a2.835,2.835,0,0,1,.566-1.7,3.744,3.744,0,0,1,1.6-1.226,5.837,5.837,0,0,1,2.324-.444,4.611,4.611,0,0,1,3.1.981,3.433,3.433,0,0,1,1.147,2.759v4.58a5.052,5.052,0,0,0,.42,2.275V21Zm-2.334-1.963a2.431,2.431,0,0,0,1.152-.278,1.828,1.828,0,0,0,.781-.747V16.2H22.764q-2.119,0-2.256,1.465l-.01.166a1.13,1.13,0,0,0,.371.869A1.441,1.441,0,0,0,21.885,19.037Zm12.656-.957a.909.909,0,0,0-.513-.815,5.824,5.824,0,0,0-1.646-.532q-3.77-.791-3.77-3.2a2.9,2.9,0,0,1,1.167-2.349,4.708,4.708,0,0,1,3.052-.942,5.067,5.067,0,0,1,3.218.947,2.985,2.985,0,0,1,1.206,2.461H34.434a1.366,1.366,0,0,0-.391-1,1.653,1.653,0,0,0-1.221-.4,1.689,1.689,0,0,0-1.1.322,1.017,1.017,0,0,0-.391.82.87.87,0,0,0,.444.757,4.571,4.571,0,0,0,1.5.5,12.244,12.244,0,0,1,1.777.474,2.92,2.92,0,0,1,2.236,2.842,2.756,2.756,0,0,1-1.24,2.339,5.35,5.35,0,0,1-3.2.894,5.588,5.588,0,0,1-2.358-.474,3.957,3.957,0,0,1-1.616-1.3,3.018,3.018,0,0,1-.586-1.782h2.676a1.473,1.473,0,0,0,.557,1.152,2.208,2.208,0,0,0,1.387.4,2.044,2.044,0,0,0,1.226-.308A.957.957,0,0,0,34.541,18.08Zm4.121-2.461a6.267,6.267,0,0,1,.605-2.8,4.432,4.432,0,0,1,1.743-1.9,5.086,5.086,0,0,1,2.642-.674,4.812,4.812,0,0,1,3.491,1.309A5.252,5.252,0,0,1,48.652,15.1l.02.723a5.523,5.523,0,0,1-1.357,3.9,5.261,5.261,0,0,1-7.29,0,5.62,5.62,0,0,1-1.362-3.984Zm2.822.2a3.95,3.95,0,0,0,.566,2.3,2.035,2.035,0,0,0,3.223.01,4.322,4.322,0,0,0,.576-2.518,3.91,3.91,0,0,0-.576-2.289,1.873,1.873,0,0,0-1.621-.812,1.842,1.842,0,0,0-1.6.807A4.395,4.395,0,0,0,41.484,15.819Zm20.391-.5A3.564,3.564,0,0,1,59.3,16.4a3.811,3.811,0,0,1-3.018-1.294,5.114,5.114,0,0,1-1.133-3.491,5.447,5.447,0,0,1,.61-2.563,4.477,4.477,0,0,1,1.7-1.816,4.728,4.728,0,0,1,2.461-.649,4.522,4.522,0,0,1,2.5.7,4.623,4.623,0,0,1,1.7,2.021,7.258,7.258,0,0,1,.615,3.018v1.045a8.224,8.224,0,0,1-1.768,5.586,6.683,6.683,0,0,1-5.01,2.168l-.693.01V18.783l.625-.01Q61.572,18.607,61.875,15.316ZM59.99,14.242a1.974,1.974,0,0,0,1.177-.352,2.349,2.349,0,0,0,.747-.85V11.879a3.881,3.881,0,0,0-.547-2.227A1.7,1.7,0,0,0,59.9,8.861a1.648,1.648,0,0,0-1.4.776,3.3,3.3,0,0,0-.547,1.948,3.212,3.212,0,0,0,.532,1.909A1.734,1.734,0,0,0,59.99,14.242Z" transform="translate(1316 1810)" fill="#12263f"/>
    <path id="Trazado_263868" data-name="Trazado 263868" d="M8.418,15.99V21H5.488V6.781h5.547a6.417,6.417,0,0,1,2.817.586,4.318,4.318,0,0,1,1.87,1.665,4.643,4.643,0,0,1,.654,2.456,4.083,4.083,0,0,1-1.431,3.3,5.959,5.959,0,0,1-3.96,1.206Zm0-2.373h2.617a2.573,2.573,0,0,0,1.772-.547,1.989,1.989,0,0,0,.61-1.562A2.345,2.345,0,0,0,12.8,9.818a2.3,2.3,0,0,0-1.7-.664H8.418ZM24.219,21a3.134,3.134,0,0,1-.283-.947A3.415,3.415,0,0,1,21.27,21.2a3.752,3.752,0,0,1-2.573-.9,2.89,2.89,0,0,1-1.021-2.266,2.986,2.986,0,0,1,1.245-2.578,6.144,6.144,0,0,1,3.6-.908h1.3v-.605a1.741,1.741,0,0,0-.376-1.172,1.479,1.479,0,0,0-1.187-.439,1.682,1.682,0,0,0-1.118.342,1.161,1.161,0,0,0-.405.938H17.91a2.835,2.835,0,0,1,.566-1.7,3.744,3.744,0,0,1,1.6-1.226,5.837,5.837,0,0,1,2.324-.444,4.611,4.611,0,0,1,3.1.981,3.433,3.433,0,0,1,1.147,2.759v4.58a5.052,5.052,0,0,0,.42,2.275V21Zm-2.334-1.963a2.431,2.431,0,0,0,1.152-.278,1.828,1.828,0,0,0,.781-.747V16.2H22.764q-2.119,0-2.256,1.465l-.01.166a1.13,1.13,0,0,0,.371.869A1.441,1.441,0,0,0,21.885,19.037Zm12.656-.957a.909.909,0,0,0-.513-.815,5.824,5.824,0,0,0-1.646-.532q-3.77-.791-3.77-3.2a2.9,2.9,0,0,1,1.167-2.349,4.708,4.708,0,0,1,3.052-.942,5.067,5.067,0,0,1,3.218.947,2.985,2.985,0,0,1,1.206,2.461H34.434a1.366,1.366,0,0,0-.391-1,1.653,1.653,0,0,0-1.221-.4,1.689,1.689,0,0,0-1.1.322,1.017,1.017,0,0,0-.391.82.87.87,0,0,0,.444.757,4.571,4.571,0,0,0,1.5.5,12.244,12.244,0,0,1,1.777.474,2.92,2.92,0,0,1,2.236,2.842,2.756,2.756,0,0,1-1.24,2.339,5.35,5.35,0,0,1-3.2.894,5.588,5.588,0,0,1-2.358-.474,3.957,3.957,0,0,1-1.616-1.3,3.018,3.018,0,0,1-.586-1.782h2.676a1.473,1.473,0,0,0,.557,1.152,2.208,2.208,0,0,0,1.387.4,2.044,2.044,0,0,0,1.226-.308A.957.957,0,0,0,34.541,18.08Zm4.121-2.461a6.267,6.267,0,0,1,.605-2.8,4.432,4.432,0,0,1,1.743-1.9,5.086,5.086,0,0,1,2.642-.674,4.812,4.812,0,0,1,3.491,1.309A5.252,5.252,0,0,1,48.652,15.1l.02.723a5.523,5.523,0,0,1-1.357,3.9,5.261,5.261,0,0,1-7.29,0,5.62,5.62,0,0,1-1.362-3.984Zm2.822.2a3.95,3.95,0,0,0,.566,2.3,2.035,2.035,0,0,0,3.223.01,4.322,4.322,0,0,0,.576-2.518,3.91,3.91,0,0,0-.576-2.289,1.873,1.873,0,0,0-1.621-.812,1.842,1.842,0,0,0-1.6.807A4.395,4.395,0,0,0,41.484,15.819ZM65.02,21H55.273V19.066l4.6-4.9a11.347,11.347,0,0,0,1.4-1.807,2.9,2.9,0,0,0,.454-1.465A2.172,2.172,0,0,0,61.25,9.4a1.727,1.727,0,0,0-1.367-.542,1.863,1.863,0,0,0-1.509.659,2.611,2.611,0,0,0-.552,1.733H54.99a4.661,4.661,0,0,1,.62-2.373A4.371,4.371,0,0,1,57.363,7.2a5.328,5.328,0,0,1,2.568-.61,5.045,5.045,0,0,1,3.413,1.055,3.731,3.731,0,0,1,1.216,2.979,4.781,4.781,0,0,1-.547,2.148,11.939,11.939,0,0,1-1.875,2.549l-3.232,3.408H65.02Z" transform="translate(354 2058)" fill="#12263f"/>
    <path id="Trazado_263866" data-name="Trazado 263866" d="M8.418,15.99V21H5.488V6.781h5.547a6.417,6.417,0,0,1,2.817.586,4.318,4.318,0,0,1,1.87,1.665,4.643,4.643,0,0,1,.654,2.456,4.083,4.083,0,0,1-1.431,3.3,5.959,5.959,0,0,1-3.96,1.206Zm0-2.373h2.617a2.573,2.573,0,0,0,1.772-.547,1.989,1.989,0,0,0,.61-1.562A2.345,2.345,0,0,0,12.8,9.818a2.3,2.3,0,0,0-1.7-.664H8.418ZM24.219,21a3.134,3.134,0,0,1-.283-.947A3.415,3.415,0,0,1,21.27,21.2a3.752,3.752,0,0,1-2.573-.9,2.89,2.89,0,0,1-1.021-2.266,2.986,2.986,0,0,1,1.245-2.578,6.144,6.144,0,0,1,3.6-.908h1.3v-.605a1.741,1.741,0,0,0-.376-1.172,1.479,1.479,0,0,0-1.187-.439,1.682,1.682,0,0,0-1.118.342,1.161,1.161,0,0,0-.405.938H17.91a2.835,2.835,0,0,1,.566-1.7,3.744,3.744,0,0,1,1.6-1.226,5.837,5.837,0,0,1,2.324-.444,4.611,4.611,0,0,1,3.1.981,3.433,3.433,0,0,1,1.147,2.759v4.58a5.052,5.052,0,0,0,.42,2.275V21Zm-2.334-1.963a2.431,2.431,0,0,0,1.152-.278,1.828,1.828,0,0,0,.781-.747V16.2H22.764q-2.119,0-2.256,1.465l-.01.166a1.13,1.13,0,0,0,.371.869A1.441,1.441,0,0,0,21.885,19.037Zm12.656-.957a.909.909,0,0,0-.513-.815,5.824,5.824,0,0,0-1.646-.532q-3.77-.791-3.77-3.2a2.9,2.9,0,0,1,1.167-2.349,4.708,4.708,0,0,1,3.052-.942,5.067,5.067,0,0,1,3.218.947,2.985,2.985,0,0,1,1.206,2.461H34.434a1.366,1.366,0,0,0-.391-1,1.653,1.653,0,0,0-1.221-.4,1.689,1.689,0,0,0-1.1.322,1.017,1.017,0,0,0-.391.82.87.87,0,0,0,.444.757,4.571,4.571,0,0,0,1.5.5,12.244,12.244,0,0,1,1.777.474,2.92,2.92,0,0,1,2.236,2.842,2.756,2.756,0,0,1-1.24,2.339,5.35,5.35,0,0,1-3.2.894,5.588,5.588,0,0,1-2.358-.474,3.957,3.957,0,0,1-1.616-1.3,3.018,3.018,0,0,1-.586-1.782h2.676a1.473,1.473,0,0,0,.557,1.152,2.208,2.208,0,0,0,1.387.4,2.044,2.044,0,0,0,1.226-.308A.957.957,0,0,0,34.541,18.08Zm4.121-2.461a6.267,6.267,0,0,1,.605-2.8,4.432,4.432,0,0,1,1.743-1.9,5.086,5.086,0,0,1,2.642-.674,4.812,4.812,0,0,1,3.491,1.309A5.252,5.252,0,0,1,48.652,15.1l.02.723a5.523,5.523,0,0,1-1.357,3.9,5.261,5.261,0,0,1-7.29,0,5.62,5.62,0,0,1-1.362-3.984Zm2.822.2a3.95,3.95,0,0,0,.566,2.3,2.035,2.035,0,0,0,3.223.01,4.322,4.322,0,0,0,.576-2.518,3.91,3.91,0,0,0-.576-2.289,1.873,1.873,0,0,0-1.621-.812,1.842,1.842,0,0,0-1.6.807A4.395,4.395,0,0,0,41.484,15.819Zm22.139-.171h1.611v2.275H63.623V21H60.8V17.924h-5.83l-.127-1.777,5.928-9.365h2.852Zm-5.967,0H60.8v-5.02l-.186.322Z" transform="translate(628 2058)" fill="#12263f"/>
    <path id="Trazado_263864" data-name="Trazado 263864" d="M8.418,15.99V21H5.488V6.781h5.547a6.417,6.417,0,0,1,2.817.586,4.318,4.318,0,0,1,1.87,1.665,4.643,4.643,0,0,1,.654,2.456,4.083,4.083,0,0,1-1.431,3.3,5.959,5.959,0,0,1-3.96,1.206Zm0-2.373h2.617a2.573,2.573,0,0,0,1.772-.547,1.989,1.989,0,0,0,.61-1.562A2.345,2.345,0,0,0,12.8,9.818a2.3,2.3,0,0,0-1.7-.664H8.418ZM24.219,21a3.134,3.134,0,0,1-.283-.947A3.415,3.415,0,0,1,21.27,21.2a3.752,3.752,0,0,1-2.573-.9,2.89,2.89,0,0,1-1.021-2.266,2.986,2.986,0,0,1,1.245-2.578,6.144,6.144,0,0,1,3.6-.908h1.3v-.605a1.741,1.741,0,0,0-.376-1.172,1.479,1.479,0,0,0-1.187-.439,1.682,1.682,0,0,0-1.118.342,1.161,1.161,0,0,0-.405.938H17.91a2.835,2.835,0,0,1,.566-1.7,3.744,3.744,0,0,1,1.6-1.226,5.837,5.837,0,0,1,2.324-.444,4.611,4.611,0,0,1,3.1.981,3.433,3.433,0,0,1,1.147,2.759v4.58a5.052,5.052,0,0,0,.42,2.275V21Zm-2.334-1.963a2.431,2.431,0,0,0,1.152-.278,1.828,1.828,0,0,0,.781-.747V16.2H22.764q-2.119,0-2.256,1.465l-.01.166a1.13,1.13,0,0,0,.371.869A1.441,1.441,0,0,0,21.885,19.037Zm12.656-.957a.909.909,0,0,0-.513-.815,5.824,5.824,0,0,0-1.646-.532q-3.77-.791-3.77-3.2a2.9,2.9,0,0,1,1.167-2.349,4.708,4.708,0,0,1,3.052-.942,5.067,5.067,0,0,1,3.218.947,2.985,2.985,0,0,1,1.206,2.461H34.434a1.366,1.366,0,0,0-.391-1,1.653,1.653,0,0,0-1.221-.4,1.689,1.689,0,0,0-1.1.322,1.017,1.017,0,0,0-.391.82.87.87,0,0,0,.444.757,4.571,4.571,0,0,0,1.5.5,12.244,12.244,0,0,1,1.777.474,2.92,2.92,0,0,1,2.236,2.842,2.756,2.756,0,0,1-1.24,2.339,5.35,5.35,0,0,1-3.2.894,5.588,5.588,0,0,1-2.358-.474,3.957,3.957,0,0,1-1.616-1.3,3.018,3.018,0,0,1-.586-1.782h2.676a1.473,1.473,0,0,0,.557,1.152,2.208,2.208,0,0,0,1.387.4,2.044,2.044,0,0,0,1.226-.308A.957.957,0,0,0,34.541,18.08Zm4.121-2.461a6.267,6.267,0,0,1,.605-2.8,4.432,4.432,0,0,1,1.743-1.9,5.086,5.086,0,0,1,2.642-.674,4.812,4.812,0,0,1,3.491,1.309A5.252,5.252,0,0,1,48.652,15.1l.02.723a5.523,5.523,0,0,1-1.357,3.9,5.261,5.261,0,0,1-7.29,0,5.62,5.62,0,0,1-1.362-3.984Zm2.822.2a3.95,3.95,0,0,0,.566,2.3,2.035,2.035,0,0,0,3.223.01,4.322,4.322,0,0,0,.576-2.518,3.91,3.91,0,0,0-.576-2.289,1.873,1.873,0,0,0-1.621-.812,1.842,1.842,0,0,0-1.6.807A4.395,4.395,0,0,0,41.484,15.819ZM62.93,6.635V8.959h-.273a4.8,4.8,0,0,0-3.081,1,4.047,4.047,0,0,0-1.4,2.686,3.844,3.844,0,0,1,2.861-1.152,3.622,3.622,0,0,1,2.949,1.328,5.324,5.324,0,0,1,1.094,3.5,5.237,5.237,0,0,1-.6,2.51,4.307,4.307,0,0,1-1.7,1.748,4.937,4.937,0,0,1-2.485.625,4.611,4.611,0,0,1-3.628-1.562,6.065,6.065,0,0,1-1.382-4.17V14.447a9.128,9.128,0,0,1,.874-4.087,6.409,6.409,0,0,1,2.51-2.744,7.354,7.354,0,0,1,3.794-.981Zm-2.754,7.129a2.255,2.255,0,0,0-1.24.356,2.143,2.143,0,0,0-.82.941v.858a3.8,3.8,0,0,0,.557,2.208,1.8,1.8,0,0,0,1.563.794A1.779,1.779,0,0,0,61.7,18.2a2.922,2.922,0,0,0,.562-1.857,2.916,2.916,0,0,0-.566-1.871A1.846,1.846,0,0,0,60.176,13.764Z" transform="translate(902 2058)" fill="#12263f"/>
    <path id="Trazado_263865" data-name="Trazado 263865" d="M8.418,15.99V21H5.488V6.781h5.547a6.417,6.417,0,0,1,2.817.586,4.318,4.318,0,0,1,1.87,1.665,4.643,4.643,0,0,1,.654,2.456,4.083,4.083,0,0,1-1.431,3.3,5.959,5.959,0,0,1-3.96,1.206Zm0-2.373h2.617a2.573,2.573,0,0,0,1.772-.547,1.989,1.989,0,0,0,.61-1.562A2.345,2.345,0,0,0,12.8,9.818a2.3,2.3,0,0,0-1.7-.664H8.418ZM24.219,21a3.134,3.134,0,0,1-.283-.947A3.415,3.415,0,0,1,21.27,21.2a3.752,3.752,0,0,1-2.573-.9,2.89,2.89,0,0,1-1.021-2.266,2.986,2.986,0,0,1,1.245-2.578,6.144,6.144,0,0,1,3.6-.908h1.3v-.605a1.741,1.741,0,0,0-.376-1.172,1.479,1.479,0,0,0-1.187-.439,1.682,1.682,0,0,0-1.118.342,1.161,1.161,0,0,0-.405.938H17.91a2.835,2.835,0,0,1,.566-1.7,3.744,3.744,0,0,1,1.6-1.226,5.837,5.837,0,0,1,2.324-.444,4.611,4.611,0,0,1,3.1.981,3.433,3.433,0,0,1,1.147,2.759v4.58a5.052,5.052,0,0,0,.42,2.275V21Zm-2.334-1.963a2.431,2.431,0,0,0,1.152-.278,1.828,1.828,0,0,0,.781-.747V16.2H22.764q-2.119,0-2.256,1.465l-.01.166a1.13,1.13,0,0,0,.371.869A1.441,1.441,0,0,0,21.885,19.037Zm12.656-.957a.909.909,0,0,0-.513-.815,5.824,5.824,0,0,0-1.646-.532q-3.77-.791-3.77-3.2a2.9,2.9,0,0,1,1.167-2.349,4.708,4.708,0,0,1,3.052-.942,5.067,5.067,0,0,1,3.218.947,2.985,2.985,0,0,1,1.206,2.461H34.434a1.366,1.366,0,0,0-.391-1,1.653,1.653,0,0,0-1.221-.4,1.689,1.689,0,0,0-1.1.322,1.017,1.017,0,0,0-.391.82.87.87,0,0,0,.444.757,4.571,4.571,0,0,0,1.5.5,12.244,12.244,0,0,1,1.777.474,2.92,2.92,0,0,1,2.236,2.842,2.756,2.756,0,0,1-1.24,2.339,5.35,5.35,0,0,1-3.2.894,5.588,5.588,0,0,1-2.358-.474,3.957,3.957,0,0,1-1.616-1.3,3.018,3.018,0,0,1-.586-1.782h2.676a1.473,1.473,0,0,0,.557,1.152,2.208,2.208,0,0,0,1.387.4,2.044,2.044,0,0,0,1.226-.308A.957.957,0,0,0,34.541,18.08Zm4.121-2.461a6.267,6.267,0,0,1,.605-2.8,4.432,4.432,0,0,1,1.743-1.9,5.086,5.086,0,0,1,2.642-.674,4.812,4.812,0,0,1,3.491,1.309A5.252,5.252,0,0,1,48.652,15.1l.02.723a5.523,5.523,0,0,1-1.357,3.9,5.261,5.261,0,0,1-7.29,0,5.62,5.62,0,0,1-1.362-3.984Zm2.822.2a3.95,3.95,0,0,0,.566,2.3,2.035,2.035,0,0,0,3.223.01,4.322,4.322,0,0,0,.576-2.518,3.91,3.91,0,0,0-.576-2.289,1.873,1.873,0,0,0-1.621-.812,1.842,1.842,0,0,0-1.6.807A4.395,4.395,0,0,0,41.484,15.819Zm23.057-5.259a3.307,3.307,0,0,1-.518,1.836A3.725,3.725,0,0,1,62.6,13.676a4.123,4.123,0,0,1,1.641,1.372,3.52,3.52,0,0,1,.605,2.056A3.727,3.727,0,0,1,63.555,20.1a6.147,6.147,0,0,1-7.021,0,3.718,3.718,0,0,1-1.3-2.988,3.542,3.542,0,0,1,.605-2.061,4.049,4.049,0,0,1,1.631-1.367A3.687,3.687,0,0,1,56.05,12.4a3.331,3.331,0,0,1-.513-1.836,3.685,3.685,0,0,1,1.211-2.9,5.571,5.571,0,0,1,6.577-.01A3.671,3.671,0,0,1,64.541,10.561ZM62.012,16.9a2.047,2.047,0,0,0-.537-1.484,2.149,2.149,0,0,0-2.881,0,2.044,2.044,0,0,0-.537,1.489,2.042,2.042,0,0,0,.527,1.465,2.2,2.2,0,0,0,2.905.02A2.039,2.039,0,0,0,62.012,16.9Zm-.293-6.2a1.953,1.953,0,0,0-.439-1.333,1.788,1.788,0,0,0-2.471-.015,1.942,1.942,0,0,0-.439,1.348,2.041,2.041,0,0,0,.439,1.367,1.739,1.739,0,0,0,2.476,0A2.056,2.056,0,0,0,61.719,10.7Z" transform="translate(1177 2058)" fill="#12263f"/>
    <g id="Grupo_149076" data-name="Grupo 149076" transform="translate(222.668 1914.917)">
      <g id="Grupo_149620" data-name="Grupo 149620" transform="translate(0 0)" clip-path="url(#clip-path-12)">
        <path id="Trazado_262419" data-name="Trazado 262419" d="M31.545,61.486H31.3c-.079-.083-.184-.056-.282-.062h-.227c-.121.014-.255-.04-.361.062h-.745a1.313,1.313,0,0,0-.869,0h-.621c-.137-.114-.3-.04-.452-.062-.1.007-.211-.026-.293.062h-.621a32,32,0,0,1-4.452-.637A29.4,29.4,0,0,1,10.047,54.7,27.991,27.991,0,0,1,.413,38.834C.188,37.8.171,36.746,0,35.708v-.6c.081-.072.059-.167.064-.257v-.207c0-.089.017-.185-.064-.256V32.83c.13-.193.035-.409.064-.612-.032-.235.07-.481-.064-.706v-.839a26.936,26.936,0,0,1,.8-4.706,27.757,27.757,0,0,1,6.161-11.3,29.167,29.167,0,0,1,9.287-6.99,30.6,30.6,0,0,1,26.178.031,22.85,22.85,0,0,1,3.734,2.137c.2.146.423.424.7.226.259-.184.1-.482.042-.728-.214-.977-.406-1.959-.641-2.932A1.555,1.555,0,0,1,46.7,4.861c1.241-1.232,2.48-2.467,3.78-3.64C52.6-.685,56.6-.4,58.144,2.359a4.776,4.776,0,0,1,.583,1.758.667.667,0,0,0,.69.67A4.892,4.892,0,0,1,63.01,7a4.85,4.85,0,0,1,.622,3.115,4.345,4.345,0,0,1-1.458,2.9c-1.095,1.09-2.224,2.148-3.331,3.227a1.949,1.949,0,0,1-1.97.564c-.981-.249-1.986-.4-2.974-.616-.217-.048-.477-.149-.638.06-.2.253.054.445.188.632a27.269,27.269,0,0,1,5.173,13.45,27.1,27.1,0,0,1-6.568,20.939,29.174,29.174,0,0,1-17.686,9.971c-.933.164-1.887.111-2.823.252" transform="translate(0 -0.001)" fill="#85b638"/>
        <path id="Trazado_262420" data-name="Trazado 262420" d="M173.585,382.965a.738.738,0,0,1,.869,0Z" transform="translate(-144.772 -321.479)" fill="#0e0e0e"/>
        <path id="Trazado_262421" data-name="Trazado 262421" d="M0,196.646c.25.206.076.473.11.71q-.047.093-.11.009Z" transform="translate(0 -165.135)" fill="#414141"/>
        <path id="Trazado_262422" data-name="Trazado 262422" d="M0,201.086q.055,0,.11-.009c0,.208.089.433-.11.609Z" transform="translate(0 -168.856)" fill="#242424"/>
        <path id="Trazado_262423" data-name="Trazado 262423" d="M166.616,382.961c.177,0,.369-.076.5.1h-.5q-.058-.031-.042-.068c.011-.025.022-.037.034-.037" transform="translate(-138.929 -321.58)" fill="#4c4c4c"/>
        <path id="Trazado_262424" data-name="Trazado 262424" d="M183.312,383.1c.092-.157.24-.115.38-.1q.052.037.031.07c-.013.021-.026.031-.039.031Z" transform="translate(-152.885 -321.611)" fill="#474747"/>
        <path id="Trazado_262425" data-name="Trazado 262425" d="M0,214.6c.115.051.122.144.1.247-.038.047-.073.042-.1-.008Z" transform="translate(0 -180.216)" fill="#434343"/>
        <path id="Trazado_262426" data-name="Trazado 262426" d="M0,216.1l.1.008q0,.119,0,.239-.058.07-.105-.007Z" transform="translate(0 -181.472)" fill="#5f5f5f"/>
        <path id="Trazado_262427" data-name="Trazado 262427" d="M0,217.6l.105.007c.014.1.049.206-.105.233Z" transform="translate(0 -182.728)" fill="#848484"/>
        <path id="Trazado_262428" data-name="Trazado 262428" d="M165.594,383.008a.446.446,0,0,1,.008.1h-.248c.031-.141.139-.115.241-.1" transform="translate(-137.907 -321.628)" fill="#787878"/>
        <path id="Trazado_262429" data-name="Trazado 262429" d="M185.556,383.175c0-.034,0-.067.008-.1h.247c.035.025.046.048.033.07s-.026.032-.039.032Z" transform="translate(-154.756 -321.69)" fill="#666"/>
        <path id="Trazado_262430" data-name="Trazado 262430" d="M187.053,383.1a.691.691,0,0,1,.006-.1c.1-.014.214-.049.242.1Z" transform="translate(-156.005 -321.617)" fill="#8a8a8a"/>
        <path id="Trazado_262431" data-name="Trazado 262431" d="M30.935,87.405c-.352.919-.166,1.383.743,1.858C44.06,95.722,59.647,88.8,62.613,75.495A19.6,19.6,0,0,0,59.859,60.15a.54.54,0,0,1,.1-.844q1.61-1.5,3.162-3.049c.288-.287.422-.3.671.049a25.15,25.15,0,0,1,4.548,11.453,24.438,24.438,0,0,1-4.862,18.45A26.185,26.185,0,0,1,45.1,96.748c-13.384,1.645-25.922-6.589-29.308-19.186a25.59,25.59,0,0,1,16.061-30.51c8.726-3.294,17.1-2.34,24.968,2.6.677.425.666.44.108.979-1.01.975-2.031,1.939-3.022,2.931-.273.274-.453.268-.778.075-12.351-7.365-28.242-1.322-32.009,12.2A19.465,19.465,0,0,0,22.959,80.86c.456.836.954,1,1.888.666a14.829,14.829,0,0,1,1.859,2.386,1.028,1.028,0,0,1-.144.506.971.971,0,0,0,.229,1.145,1.056,1.056,0,0,0,1.139.194,1.244,1.244,0,0,1,.524-.145,14.5,14.5,0,0,1,2.48,1.794" transform="translate(-12.451 -37.89)" fill="#fff"/>
        <path id="Trazado_262432" data-name="Trazado 262432" d="M70.909,127.61a18.223,18.223,0,0,1-2.485-1.733c-.106-.187.03-.346.067-.516.2-.932-.374-1.485-1.341-1.29-.176.035-.341.167-.534.06a17.119,17.119,0,0,1-1.794-2.4,1.265,1.265,0,0,0,.259-1.868,17.8,17.8,0,0,1,7.49-24.477c6.172-3.279,12.449-3.133,18.643.126.44.231.487.375.1.729-1.107,1.021-2.183,2.074-3.25,3.135a.6.6,0,0,1-.792.128c-8.087-3.537-17.417,1.328-18.8,9.8a13.06,13.06,0,0,0,11.713,14.831c8.28.889,15.321-5.469,14.945-13.513a11.663,11.663,0,0,0-1.192-4.675.546.546,0,0,1,.13-.768q1.672-1.563,3.293-3.178c.318-.317.441-.314.678.081a17.18,17.18,0,0,1,2.536,10.2,17.356,17.356,0,0,1-7.966,13.838c-6.207,4.147-12.81,4.481-19.6,1.314-1.069-.5-1.389-.5-2.1.172" transform="translate(-52.425 -78.095)" fill="#fff"/>
        <path id="Trazado_262433" data-name="Trazado 262433" d="M131.75,147.88a10.271,10.271,0,0,1-3.78,12.559,11.2,11.2,0,0,1-13.9-1.015A10.255,10.255,0,0,1,112.559,146a11.126,11.126,0,0,1,13.235-3.909c-.518.481-.976.961-1.494,1.372a2.189,2.189,0,0,0-.9,2.1,8.132,8.132,0,0,1-.033,1.189c-.379-.057-.757-.124-1.138-.168a5.457,5.457,0,0,0-6,4.616,5.433,5.433,0,1,0,10.729-.649c-.027-.115-.054-.229-.094-.4.629,0,1.225-.013,1.82,0a1.634,1.634,0,0,0,1.272-.508c.584-.589,1.182-1.164,1.8-1.766" transform="translate(-92.348 -118.648)" fill="#fff"/>
        <path id="Trazado_262434" data-name="Trazado 262434" d="M241.9,80.844c-.046,1.553.757,2.3,2.316,2.268-.027.288-.2.376-.325.491q-4.25,4.112-8.5,8.224c-.286.278-.448.357-.761.026-.6-.634-1.246-1.223-1.878-1.828-.156-.15-.276-.254-.049-.472q4.513-4.322,9.009-8.66a.985.985,0,0,1,.188-.049" transform="translate(-193.977 -67.889)" fill="#fff"/>
        <path id="Trazado_262435" data-name="Trazado 262435" d="M312.24,51.332c1.869-1.8,3.628-3.518,5.414-5.209a2.291,2.291,0,0,1,3.181-.011,2.108,2.108,0,0,1,.049,3.071c-1.012,1.027-2.07,2.012-3.105,3.017a.472.472,0,0,1-.483.166c-1.649-.349-3.3-.678-5.055-1.034" transform="translate(-260.412 -38.188)" fill="#fff"/>
        <path id="Trazado_262436" data-name="Trazado 262436" d="M296.2,24.495c-.377-1.722-.725-3.333-1.086-4.941-.045-.2.06-.3.177-.409,1.055-1.015,2.088-2.051,3.171-3.038a2.276,2.276,0,0,1,3.088.028,2.119,2.119,0,0,1,.212,2.933,5.857,5.857,0,0,1-.465.481c-1.673,1.625-3.347,3.248-5.1,4.946" transform="translate(-246.117 -13.03)" fill="#fff"/>
        <path id="Trazado_262437" data-name="Trazado 262437" d="M162.651,189.555c-.489.465-.92.86-1.332,1.271a1.187,1.187,0,0,0-.113,1.8,1.29,1.29,0,0,0,1.866-.1c.427-.4.833-.816,1.274-1.249a2.762,2.762,0,0,1-1.087,3.361,3.044,3.044,0,0,1-3.662-.253,2.779,2.779,0,0,1-.624-3.491,3.081,3.081,0,0,1,3.678-1.336" transform="translate(-132.284 -159.064)" fill="#fff"/>
        <path id="Trazado_262438" data-name="Trazado 262438" d="M203.353,153.142c-1.4,0-1.341,0-1.426-1.228a2.247,2.247,0,0,1,.9-2.065c.735-.608,1.391-1.307,2.066-1.98.2-.2.325-.227.54-.011.643.648,1.3,1.28,1.97,1.9.2.184.259.3.026.521-.933.876-1.847,1.77-2.764,2.661-.424.412-.955.066-1.31.2" transform="translate(-168.403 -124.038)" fill="#fff"/>
        <path id="Trazado_262439" data-name="Trazado 262439" d="M83.784,285.771c.765-.408,1.339-.388,1.786.063.425.429.432.961.022,1.683-1.046.59-2.042.236-2.143-.756a1.57,1.57,0,0,1,.335-.99" transform="translate(-69.593 -239.734)" fill="#85b638"/>
      </g>
    </g>
    <g id="Grupo_149622" data-name="Grupo 149622" transform="translate(366 1921.416)">
      <g id="Grupo_149621" data-name="Grupo 149621" clip-path="url(#clip-path-13)">
        <path id="Trazado_262440" data-name="Trazado 262440" d="M54.958,19.882c-.142.879-.25,1.765-.43,2.635A18.46,18.46,0,0,1,39.276,36.955a18.272,18.272,0,0,1-15.149-4.362c-.094-.08-.193-.154-.348-.277-.617.627-1.238,1.237-1.827,1.876a.93.93,0,0,0-.138.548c-.051,1.125-.059,2.253-.144,3.375a1.592,1.592,0,0,1-.4.936q-7.354,7.4-14.737,14.77A4.926,4.926,0,0,1,4.4,54.986H3.224a9.42,9.42,0,0,1-1.381-.559,3.736,3.736,0,0,1-.822-5.783c1.126-1.2,2.317-2.338,3.48-3.5q3.451-3.455,6.9-6.909a3.785,3.785,0,0,1,.389-.369.794.794,0,0,1,1.138,1.088,2.908,2.908,0,0,1-.363.394Q9.61,42.307,6.646,45.264a3.274,3.274,0,0,1-.428.318L9.347,48.71c.1-.1.233-.218.359-.343q4.99-4.991,9.985-9.976a1.239,1.239,0,0,0,.413-.982c-.019-.852-.006-1.705-.006-2.5-.956,0-1.951-.009-2.946.011a.72.72,0,0,0-.391.24c-.412.4-.8.815-1.218,1.21a.825.825,0,0,1-1.2.066.788.788,0,0,1,.052-1.189c.534-.553,1.065-1.114,1.641-1.621a1.438,1.438,0,0,1,.813-.309c1.142-.071,2.287-.088,3.431-.141a.9.9,0,0,0,.537-.158c.627-.582,1.226-1.193,1.815-1.775-.637-.86-1.29-1.646-1.84-2.5A18.578,18.578,0,1,1,54.53,14.721c.179.854.286,1.722.427,2.584Zm-18.564,15.7A16.975,16.975,0,1,0,19.41,18.66,16.947,16.947,0,0,0,36.393,35.581M8.039,49.96l-2.96-2.967-1.37,1.3,3,3.013L8.039,49.96M5.424,52.615,2.383,49.562a2.161,2.161,0,1,0,3.041,3.053" transform="translate(-0.001 0)" fill="#64892a"/>
        <path id="Trazado_262441" data-name="Trazado 262441" d="M161.9,53.535a15.355,15.355,0,0,1-15.153-13.2,14.982,14.982,0,0,1,4.127-12.866c.458-.49.933-.56,1.3-.218s.33.831-.126,1.314a13.738,13.738,0,1,0,2.818-2.236.905.905,0,0,1-1.1.046A.8.8,0,0,1,153.954,25a14.582,14.582,0,0,1,5.387-2.015,15.35,15.35,0,1,1,5.167,30.263c-.862.138-1.738.191-2.607.283" transform="translate(-125.559 -19.514)" fill="#64892a"/>
        <path id="Trazado_262442" data-name="Trazado 262442" d="M249.149,53.515a11,11,0,0,1,10.705,10.591,2.6,2.6,0,0,1,0,.375.826.826,0,0,1-.809.778.808.808,0,0,1-.788-.79,18.36,18.36,0,0,0-.268-2.123,9.3,9.3,0,0,0-8.776-7.22c-.125-.006-.251,0-.375-.019a.79.79,0,0,1-.086-1.559,1.815,1.815,0,0,1,.4-.033" transform="translate(-212.548 -45.842)" fill="#64892a"/>
        <path id="Trazado_262443" data-name="Trazado 262443" d="M306.462,153.728a.82.82,0,0,1-.834-1.185q.612-1.185,1.244-2.36a.77.77,0,0,1,1-.388.734.734,0,0,1,.449,1c-.415.883-.879,1.746-1.366,2.593-.107.186-.389.27-.494.338" transform="translate(-261.723 -128.271)" fill="#64892a"/>
      </g>
    </g>
    <g id="Grupo_149624" data-name="Grupo 149624" transform="translate(503.64 1915.416)">
      <g id="Grupo_149623" data-name="Grupo 149623" clip-path="url(#clip-path-14)">
        <path id="Trazado_262444" data-name="Trazado 262444" d="M45.778,38.186c.947-.618,1.781-1.16,2.612-1.7,1.9-1.247,3.782-2.526,5.707-3.735a4.173,4.173,0,1,1,4.4,7.091q-5.385,3.556-10.785,7.089c-.633.416-1.5.71-1.823,1.3a5.121,5.121,0,0,0-.11,2.231c-.006,1.919.005,3.837,0,5.756a4.869,4.869,0,0,1-5.017,5.036q-17.9.01-35.8,0A4.816,4.816,0,0,1,.007,56.3Q-.006,32.2.007,8.107A4.736,4.736,0,0,1,4.855,3.29c1.382-.011,2.764,0,4.249,0,0-.749,0-1.475,0-2.2,0-.706.288-1.087.8-1.088s.8.381.8,1.085,0,1.419,0,2.2h6.826c0-.745,0-1.47,0-2.2,0-.709.284-1.089.8-1.092s.8.379.808,1.081,0,1.419,0,2.168h6.693c0-.7,0-1.427,0-2.152s.281-1.09.792-1.1.808.375.812,1.077,0,1.42,0,2.17h6.826c0-.752-.005-1.483,0-2.213.006-.656.293-1.025.787-1.034s.808.364.816,1.005c.008.733,0,1.465,0,2.283H37.9c.981,0,1.963-.007,2.944,0a4.784,4.784,0,0,1,4.933,4.952q.009,14.49,0,28.98ZM9.1,4.894c-1.488,0-2.87-.009-4.252,0a3.135,3.135,0,0,0-3.24,3.262q-.008,24.06,0,48.12a3.221,3.221,0,0,0,3.375,3.364q17.867.006,35.734,0A3.27,3.27,0,0,0,44.17,56.2c.009-2.119,0-4.239,0-6.358,0-.161-.032-.322-.057-.554-2.362,1.552-4.646,3.064-6.947,4.549a2.344,2.344,0,0,1-1.1.4c-2.072.089-4.146.132-6.22.173-1,.02-1.321-.533-.866-1.429.244-.48.492-.958.772-1.5H28.494q-4.249,0-8.5,0c-.551,0-.942-.237-.944-.8s.387-.814.939-.805c.156,0,.312,0,.468,0h9.436c.841,0,.989-.136,1.15-1.071H20.4c-.223,0-.506.077-.656-.03-.278-.2-.658-.5-.661-.765s.374-.569.643-.782c.125-.1.388-.029.589-.029,3.3,0,6.6-.05,9.9.024a4.954,4.954,0,0,0,3.4-1.016c.854-.674,1.813-1.216,2.727-1.813.649-.424,1.112-.417,1.409.013.315.455.14.891-.55,1.346-.968.638-1.939,1.27-2.908,1.907-.179.118-.35.249-.54.385l.969,1.452L54.949,36.209l-.966-1.467c-.208.131-.358.223-.5.319q-5.506,3.615-11.012,7.229c-.753.494-1.213.507-1.521.056-.328-.48-.134-.891.667-1.417.708-.464,1.408-.942,2.13-1.385a.819.819,0,0,0,.439-.8c-.021-1.762-.009-3.525-.009-5.287q0-12.582,0-25.164a3.2,3.2,0,0,0-3.4-3.394c-.6,0-1.2,0-1.807,0H35.874c0,.461.027.839-.007,1.212a.839.839,0,0,0,.552.969,2.968,2.968,0,0,1,1.518,3.561,3.018,3.018,0,0,1-5.865-.4,2.988,2.988,0,0,1,1.7-3.244c.181-.087.453-.235.467-.375.054-.563.022-1.135.022-1.687H27.441a7.712,7.712,0,0,1-.006.892,1.115,1.115,0,0,0,.726,1.329,2.891,2.891,0,0,1,1.3,3.683,3.015,3.015,0,0,1-5.784-.624A3.055,3.055,0,0,1,25.3,7.035c.205-.113.485-.305.509-.491a12.321,12.321,0,0,0,.024-1.61H19.143c0,.37.027.7-.006,1.03A1.034,1.034,0,0,0,19.8,7.146a2.941,2.941,0,0,1,1.407,3.49,3.019,3.019,0,0,1-5.867-.4,3,3,0,0,1,1.706-3.245c.181-.087.454-.234.468-.374.054-.563.022-1.135.022-1.726H10.71a8.329,8.329,0,0,1-.006.929,1.115,1.115,0,0,0,.725,1.33,2.888,2.888,0,0,1,1.3,3.682,3.016,3.016,0,0,1-5.787-.619,2.928,2.928,0,0,1,1.638-3.15.8.8,0,0,0,.533-.913C9.085,5.758,9.1,5.361,9.1,4.894m27.48,47.417L56.8,39.031l-.974-1.477L35.6,50.844l.986,1.467M55.359,33.9l2.752,4.188A2.545,2.545,0,0,0,55.359,33.9M30.96,52.675h3.923l-2.173-3.308L30.96,52.675M18.328,8.337a1.4,1.4,0,0,0-1.455,1.346,1.436,1.436,0,0,0,1.407,1.477,1.419,1.419,0,0,0,1.411-1.4,1.373,1.373,0,0,0-1.363-1.426m16.689,0a1.408,1.408,0,0,0-1.41,1.4,1.443,1.443,0,0,0,1.459,1.428,1.419,1.419,0,0,0,1.362-1.446,1.372,1.372,0,0,0-1.411-1.379m-25.1,0a1.379,1.379,0,0,0-1.4,1.39,1.423,1.423,0,0,0,1.444,1.434,1.459,1.459,0,0,0,1.383-1.442A1.414,1.414,0,0,0,9.917,8.337M25.253,9.754a1.421,1.421,0,0,0,1.4,1.407,1.459,1.459,0,0,0,1.424-1.4,1.418,1.418,0,0,0-1.452-1.422,1.378,1.378,0,0,0-1.375,1.416" transform="translate(0 0.001)" fill="#85b638"/>
        <path id="Trazado_262445" data-name="Trazado 262445" d="M33.533,107.871a5.439,5.439,0,1,1,5.455-5.433,5.431,5.431,0,0,1-5.455,5.433m-.042-1.606a3.833,3.833,0,1,0-3.8-3.858,3.837,3.837,0,0,0,3.8,3.858" transform="translate(-23.067 -79.653)" fill="#85b638"/>
        <path id="Trazado_262446" data-name="Trazado 262446" d="M33.527,182.751a5.439,5.439,0,1,1,5.461-5.427,5.431,5.431,0,0,1-5.461,5.427m.015-1.606a3.833,3.833,0,1,0-3.847-3.808,3.837,3.837,0,0,0,3.847,3.808" transform="translate(-23.067 -141.147)" fill="#85b638"/>
        <path id="Trazado_262447" data-name="Trazado 262447" d="M33.557,257.63a5.439,5.439,0,1,1,5.433-5.456,5.429,5.429,0,0,1-5.433,5.456m-.013-1.606a3.833,3.833,0,1,0-3.849-3.806,3.837,3.837,0,0,0,3.849,3.806" transform="translate(-23.068 -202.64)" fill="#85b638"/>
        <path id="Trazado_262448" data-name="Trazado 262448" d="M117.581,114.149h9.565c.2,0,.464-.063.587.038.249.2.581.5.582.76s-.327.559-.575.766c-.122.1-.387.04-.587.04q-9.632,0-19.264,0c-.178,0-.42.06-.522-.031-.258-.23-.606-.52-.625-.8-.015-.236.358-.538.617-.735.13-.1.388-.034.589-.034h9.632" transform="translate(-87.661 -93.726)" fill="#85b638"/>
        <path id="Trazado_262449" data-name="Trazado 262449" d="M117.524,190.635h-9.565c-.2,0-.466.068-.588-.033-.264-.219-.608-.516-.628-.8-.016-.236.356-.539.615-.737.129-.1.388-.035.589-.035h19.2a3.642,3.642,0,0,1,.468.009.751.751,0,0,1,.744.788.738.738,0,0,1-.732.8,9.4,9.4,0,0,1-1,.013h-9.1" transform="translate(-87.66 -155.219)" fill="#85b638"/>
        <path id="Trazado_262450" data-name="Trazado 262450" d="M112.621,129.2c1.694,0,3.388,0,5.081,0,.737,0,1.08.258,1.086.792s-.342.811-1.066.812q-5.082,0-10.163,0c-.692,0-1.11-.316-1.059-.824.061-.609.474-.788,1.038-.784,1.694.011,3.388,0,5.082,0" transform="translate(-87.458 -106.097)" fill="#85b638"/>
        <path id="Trazado_262451" data-name="Trazado 262451" d="M112.684,204.092c1.672,0,3.343,0,5.015,0,.728,0,1.074.269,1.072.805s-.347.8-1.079.8q-5.048,0-10.1,0c-.718,0-1.1-.269-1.119-.772-.022-.528.381-.831,1.126-.832q2.541,0,5.082,0" transform="translate(-87.44 -167.605)" fill="#85b638"/>
        <path id="Trazado_262452" data-name="Trazado 262452" d="M17.223,73.523c0-1.2-.005-2.405,0-3.608,0-.644.309-1.016.8-1.014s.8.374.8,1.021c0,2.45,0,4.9,0,7.35,0,.537-.184.924-.775.965-.518.037-.826-.323-.83-.972-.008-1.247,0-2.494,0-3.742" transform="translate(-14.142 -56.583)" fill="#85b638"/>
        <path id="Trazado_262453" data-name="Trazado 262453" d="M16.162,51.429c.251-.392.4-.824.693-1.007a1.047,1.047,0,0,1,.887.207,5.981,5.981,0,0,1-.036,1.833,1.09,1.09,0,0,1-.9.148,3.9,3.9,0,0,1-.64-1.181" transform="translate(-13.273 -41.378)" fill="#85b638"/>
        <path id="Trazado_262454" data-name="Trazado 262454" d="M45.856,268.419a7.433,7.433,0,0,0-.6-.794.744.744,0,0,0-1.128-.043.771.771,0,0,0,.018,1.182c.364.389.751.757,1.126,1.135a.842.842,0,0,0,1.337.023c.705-.676,1.42-1.343,2.117-2.028.472-.463.516-.92.127-1.271-.437-.394-.846-.266-1.231.108-.525.51-1.057,1.012-1.765,1.688" transform="translate(-36.019 -218.761)" fill="#85b638"/>
        <path id="Trazado_262455" data-name="Trazado 262455" d="M45.884,118.634c.647-.616,1.18-1.112,1.7-1.622.4-.39.814-.562,1.279-.136.385.354.334.8-.145,1.27q-1.023,1-2.073,1.978c-.532.494-.869.493-1.379.007-.386-.368-.765-.744-1.129-1.133a.767.767,0,0,1-.046-1.135.753.753,0,0,1,1.175.013,8.486,8.486,0,0,1,.617.757" transform="translate(-36.02 -95.777)" fill="#85b638"/>
        <path id="Trazado_262456" data-name="Trazado 262456" d="M45.826,193.544c.732-.7,1.276-1.218,1.82-1.739.392-.375.821-.485,1.226-.064s.274.849-.115,1.223q-1.082,1.037-2.168,2.071a.822.822,0,0,1-1.287-.017c-.379-.375-.757-.751-1.129-1.132A.78.78,0,0,1,44.1,192.7a.746.746,0,0,1,1.173.039,5.991,5.991,0,0,1,.548.8" transform="translate(-36.022 -157.241)" fill="#85b638"/>
        <path id="Trazado_262457" data-name="Trazado 262457" d="M46.608,269.923a.842.842,0,0,1-1.337-.023c-.375-.378-.762-.746-1.126-1.135a.771.771,0,0,1-.018-1.182.744.744,0,0,1,1.128.044,7.461,7.461,0,0,1,.6.794c.708-.676,1.24-1.179,1.765-1.688.385-.373.794-.5,1.231-.107.388.35.345.807-.127,1.271" transform="translate(-36.019 -218.762)" fill="#85b638"/>
      </g>
    </g>
    <g id="Grupo_149626" data-name="Grupo 149626" transform="translate(639.777 1916.416)">
      <g id="Grupo_149625" data-name="Grupo 149625" clip-path="url(#clip-path-15)">
        <path id="Trazado_262458" data-name="Trazado 262458" d="M109.183,64.019c-.588-.116-1.18-.217-1.764-.351a13.376,13.376,0,0,1-8-5.284,1.056,1.056,0,0,0-.967-.5c-5.231.016-10.461.011-15.692.01a2.962,2.962,0,0,1-.623-.023.93.93,0,0,1,.022-1.833,3.34,3.34,0,0,1,.624-.019H97.9c-.3-1.078-.659-2.1-.839-3.153a22.673,22.673,0,0,1-.232-3.167c-.022-.76.4-1.2.992-1.171.57.032.9.462.869,1.209a11.326,11.326,0,0,0,3.265,8.754,11.734,11.734,0,0,0,20.117-6.7A11.663,11.663,0,0,0,109.69,38.678a11.454,11.454,0,0,0-9.758,6.436c-.069.128-.125.263-.194.391a.951.951,0,0,1-1.275.563.94.94,0,0,1-.408-1.376,12.965,12.965,0,0,1,2.915-4.1,13.711,13.711,0,0,1,11.189-3.743c.009-.192.026-.388.026-.583q0-8.532,0-17.064c0-.849,0-.85-.85-.85-3.647,0-7.294.007-10.941,0a4.343,4.343,0,0,1-4.526-3.433,6.252,6.252,0,0,1-.093-1.3c-.007-3.667-.018-7.334.01-11,0-.593-.189-.746-.745-.74-2.063.023-4.126.013-6.189.006-.711,0-1.131-.39-1.1-.983A.9.9,0,0,1,88.7.014C90.968,0,93.24-.019,95.511.033a4.189,4.189,0,0,1,2.9,1.3q7.16,7.161,14.306,14.337a4.675,4.675,0,0,1,1.35,3.452c-.008,5.834,0,11.668-.014,17.5a.7.7,0,0,0,.591.815,13.619,13.619,0,0,1-1.43,26.293c-.506.107-1.018.189-1.527.283Zm1.577-47.541-13.092-13c0,.06-.02.2-.02.343,0,3.332-.007,6.665,0,10a2.454,2.454,0,0,0,2.65,2.652c.937.014,1.875,0,2.812,0h7.649" transform="translate(-67.786 0)" fill="#64892a"/>
        <path id="Trazado_262459" data-name="Trazado 262459" d="M223.481,273.8c-.608.629-1.1,1.169-1.625,1.673a2.8,2.8,0,0,1-3.991-3.937c.514-.542,1.081-1.034,1.723-1.643-.582-.549-1.106-1.017-1.6-1.515a2.809,2.809,0,1,1,3.962-3.977c.489.482.956.987,1.541,1.593.505-.54.956-1.049,1.436-1.529a2.815,2.815,0,1,1,3.958,3.985c-.466.47-.944.928-1.49,1.464.563.537,1.085,1.01,1.579,1.512a2.808,2.808,0,1,1-3.962,3.976c-.5-.493-.975-1.018-1.532-1.6m-1.634-3.887a5.777,5.777,0,0,1-.533.8c-.586.62-1.2,1.212-1.8,1.816-.626.628-.714,1.172-.263,1.607s.967.334,1.609-.306c.6-.6,1.2-1.212,1.813-1.809a.98.98,0,0,1,1.616.01c.669.656,1.322,1.328,1.992,1.983A.944.944,0,1,0,227.6,272.7c-.655-.67-1.327-1.323-1.983-1.992a.98.98,0,0,1-.011-1.615c.567-.581,1.146-1.15,1.72-1.725.727-.727.844-1.233.394-1.7s-.983-.361-1.7.351c-.589.589-1.171,1.185-1.77,1.764a.97.97,0,0,1-1.572-.012c-.67-.654-1.323-1.327-1.993-1.983-.512-.5-1.072-.537-1.474-.109a.964.964,0,0,0,.154,1.429c.657.668,1.335,1.316,1.979,2a4.869,4.869,0,0,1,.5.808" transform="translate(-180.826 -219.503)" fill="#64892a"/>
        <path id="Trazado_262460" data-name="Trazado 262460" d="M1.889,116.988q0,8.374,0,16.748a4.1,4.1,0,0,0,4.435,4.437c1.25,0,2.5-.01,3.75.006a.9.9,0,0,1,.981.909.831.831,0,0,1-.813.934,37.613,37.613,0,0,1-5.177-.091,5.766,5.766,0,0,1-5.048-5.89c-.017-5.1,0-10.207-.005-15.31q0-9.342,0-18.685a3.324,3.324,0,0,1,.017-.623.879.879,0,0,1,.956-.8.871.871,0,0,1,.888.8,3.714,3.714,0,0,1,.014.624q0,8.467,0,16.935" transform="translate(-0.006 -82.155)" fill="#64892a"/>
        <path id="Trazado_262461" data-name="Trazado 262461" d="M56.473,151.7q6.779,0,13.558,0a3.928,3.928,0,0,1,.685.032.914.914,0,0,1,.049,1.782,3.318,3.318,0,0,1-.744.057q-13.495,0-26.99,0c-.083,0-.167,0-.25,0-.774-.025-1.205-.383-1.182-.981.022-.572.435-.891,1.193-.891q6.841-.005,13.682,0" transform="translate(-34.65 -126.365)" fill="#64892a"/>
        <path id="Trazado_262462" data-name="Trazado 262462" d="M56.592,196.615H70.024a5.88,5.88,0,0,1,.624.015.919.919,0,0,1,.028,1.83,4.326,4.326,0,0,1-.623.03q-13.464,0-26.928,0a4.371,4.371,0,0,1-.685-.036.917.917,0,0,1,.032-1.821,5.4,5.4,0,0,1,.624-.017h13.5" transform="translate(-34.696 -163.782)" fill="#64892a"/>
        <path id="Trazado_262463" data-name="Trazado 262463" d="M10.982.014q2.625,0,5.249,0c.78,0,1.207.345,1.2.949s-.433.924-1.226.924q-4.968,0-9.936,0A4.083,4.083,0,0,0,1.884,6.247c0,2.166,0,4.332,0,6.5,0,.78-.347,1.2-.955,1.192-.584-.012-.917-.425-.918-1.169,0-2.27-.019-4.54,0-6.81A5.928,5.928,0,0,1,5.983.018c1.666-.017,3.333,0,5,0" transform="translate(0 -0.008)" fill="#64892a"/>
        <path id="Trazado_262464" data-name="Trazado 262464" d="M51.768,108.576q-3.59,0-7.18,0a3.883,3.883,0,0,1-.683-.042.916.916,0,0,1,.038-1.81,3.917,3.917,0,0,1,.561-.021q7.3,0,14.609,0c.207,0,.476-.058.61.046a1.933,1.933,0,0,1,.71.817.759.759,0,0,1-.618.936,2.988,2.988,0,0,1-.8.071q-3.621.007-7.242,0" transform="translate(-35.944 -88.871)" fill="#64892a"/>
        <path id="Trazado_262465" data-name="Trazado 262465" d="M51.8,241.534h7.18c.187,0,.376-.007.561.011a.876.876,0,0,1,.879.877.9.9,0,0,1-.858.962,4.573,4.573,0,0,1-.623.025q-7.18,0-14.36,0c-1.019,0-1.47-.287-1.478-.934s.435-.94,1.456-.941H51.8" transform="translate(-35.902 -201.2)" fill="#64892a"/>
      </g>
    </g>
    <g id="Grupo_149628" data-name="Grupo 149628" transform="translate(768.667 1916.416)">
      <g id="Grupo_149627" data-name="Grupo 149627" clip-path="url(#clip-path-16)">
        <path id="Trazado_262466" data-name="Trazado 262466" d="M10.25,24.592v-.829q0-10.149,0-20.3C10.25,1.211,11.471,0,13.742,0H45.69c2.267,0,3.49,1.214,3.49,3.467q0,27.278,0,54.556a3.116,3.116,0,0,1-3.439,3.455q-16.038,0-32.076,0a3.113,3.113,0,0,1-3.415-3.414q0-6.115,0-12.23v-.749c-1.741,0-3.422-.038-5.1.015a3.512,3.512,0,0,1-2.432-.731c-.651-.513-1.371-.94-2.073-1.387A1.273,1.273,0,0,1,0,41.818q.012-6.979,0-13.959a1.173,1.173,0,0,1,.825-1.22c1.586-.622,3.162-1.272,4.75-1.891a2.531,2.531,0,0,1,.871-.15c1.236-.016,2.472-.007,3.8-.007M12.3,32.787v.708q0,12.229,0,24.458c0,1.179.3,1.477,1.468,1.477H45.648c1.183,0,1.484-.3,1.484-1.463q0-27.211,0-54.421c0-1.212-.287-1.5-1.515-1.5H13.8c-1.219,0-1.5.283-1.5,1.507q0,10.148,0,20.3v.739h.693c1.792,0,3.589-.069,5.376.032a5.326,5.326,0,0,1,2.341.692,3.954,3.954,0,0,1,1.672,4.526,4.08,4.08,0,0,1-3.849,2.939c-2.046.025-4.093.006-6.232.006M5.156,34.875c1.833-.3,2.892-1.314,3.037-2.888.09-.978.384-1.246,1.385-1.247q4.321,0,8.642,0a2.058,2.058,0,1,0,.033-4.1q-5.729-.006-11.458,0a1.943,1.943,0,0,0-.684.1c-1.232.475-2.462.957-3.677,1.475a.73.73,0,0,0-.364.541q-.031,6.146,0,12.291a.948.948,0,0,0,.322.608,5.212,5.212,0,0,0,4.262,1.392,26.438,26.438,0,0,1,3.006-.023c.184,0,.368-.023.542-.034V32.8c-1.061,2.76-2.937,4.231-5.044,4.022Z" transform="translate(0 -0.001)" fill="#85b638"/>
        <path id="Trazado_262467" data-name="Trazado 262467" d="M309.754,101.258h-2.027V92.115h-2.071v.732c0,9.346.039,18.692-.039,28.037a22.081,22.081,0,0,1-.845,4.5c-.348,1.559-.773,3.1-1.149,4.653-.136.56-.431.947-1.031.953s-.906-.372-1.045-.934c-.65-2.626-1.313-5.249-1.964-7.875a2.657,2.657,0,0,1-.071-.632q0-17.284,0-34.567a3.07,3.07,0,0,1,5.252-2.192,2.987,2.987,0,0,1,.888,2.129c.009,1,0,2,0,3.1.912,0,1.8,0,2.684,0,1.093,0,1.414.318,1.415,1.4q0,4.609,0,9.218Zm-6.19-9.143H301.59v28.608h1.975ZM303.6,90c0-1.093.034-2.131-.014-3.165a.925.925,0,0,0-.973-.909.884.884,0,0,0-1,.788c-.071,1.089-.022,2.186-.022,3.286Zm-.291,32.84h-1.45l.653,2.592.145,0,.652-2.59" transform="translate(-248.279 -69.522)" fill="#85b638"/>
        <path id="Trazado_262468" data-name="Trazado 262468" d="M113.8,32.992c0-1.131.013-2.262-.005-3.393a1.166,1.166,0,0,1,.763-1.2c2.981-1.317,5.953-2.655,8.945-3.948a1.524,1.524,0,0,1,1.089,0c2.991,1.294,5.963,2.632,8.943,3.952a1.177,1.177,0,0,1,.761,1.2c-.014,2.155.018,4.311-.013,6.465a8.889,8.889,0,0,1-2.947,6.65c-2.119,1.95-4.292,3.841-6.447,5.752a1.066,1.066,0,0,1-1.688,0c-2.123-1.883-4.254-3.756-6.355-5.664a9.022,9.022,0,0,1-3.044-6.865c-.009-.981,0-1.963,0-2.945m10.249,13.487c2.03-1.81,4.037-3.562,6-5.363a5.964,5.964,0,0,0,2.062-4.008c.145-2.252.105-4.516.112-6.775,0-.152-.243-.368-.421-.449q-3.667-1.659-7.355-3.271a1.154,1.154,0,0,0-.826.017c-2.441,1.062-4.864,2.164-7.3,3.227a.689.689,0,0,0-.473.766c.02,1.792,0,3.584.013,5.376a6.84,6.84,0,0,0,2.215,5.139c1.94,1.8,3.942,3.526,5.981,5.341" transform="translate(-94.333 -20.184)" fill="#85b638"/>
        <rect id="Rectángulo_90499" data-name="Rectángulo 90499" width="20.431" height="1.969" transform="translate(22.572 36.922)" fill="#85b638"/>
        <rect id="Rectángulo_90500" data-name="Rectángulo 90500" width="20.431" height="1.97" transform="translate(22.572 43.069)" fill="#85b638"/>
        <rect id="Rectángulo_90501" data-name="Rectángulo 90501" width="20.409" height="1.975" transform="translate(22.575 49.214)" fill="#85b638"/>
        <rect id="Rectángulo_90502" data-name="Rectángulo 90502" width="20.409" height="1.971" transform="translate(22.596 55.375)" fill="#85b638"/>
        <rect id="Rectángulo_90503" data-name="Rectángulo 90503" width="4.018" height="1.968" transform="translate(16.45 36.933)" fill="#85b638"/>
        <rect id="Rectángulo_90504" data-name="Rectángulo 90504" width="4.016" height="1.971" transform="translate(16.444 43.062)" fill="#85b638"/>
        <rect id="Rectángulo_90505" data-name="Rectángulo 90505" width="3.995" height="1.993" transform="translate(16.451 49.196)" fill="#85b638"/>
        <rect id="Rectángulo_90506" data-name="Rectángulo 90506" width="4.018" height="1.971" transform="translate(16.448 55.375)" fill="#85b638"/>
        <path id="Trazado_262469" data-name="Trazado 262469" d="M152.981,67.832l1.411-1.449,2.019,2.15,5.074-5.143,1.548,1.532c-1.925,1.922-3.832,3.84-5.757,5.739a.948.948,0,0,1-1.432.046c-.979-.943-1.921-1.924-2.863-2.876" transform="translate(-126.814 -52.548)" fill="#85b638"/>
      </g>
    </g>
    <g id="Grupo_149630" data-name="Grupo 149630" transform="translate(906.751 1916.416)">
      <g id="Grupo_149629" data-name="Grupo 149629" clip-path="url(#clip-path-17)">
        <path id="Trazado_262470" data-name="Trazado 262470" d="M12.816,0H50.538c0,.24.011.48.011.72q0,16-.009,32a.964.964,0,0,0,.5.968c.771.461,1.481,1.029,2.261,1.472a3.4,3.4,0,0,0,1.5.51c2.219.051,4.441.016,6.661.012v2.042c-1.961,0-3.922-.034-5.882,0a6.284,6.284,0,0,1-3.775-1.134c-2.077-1.426-4.19-2.8-6.281-4.206a3.364,3.364,0,0,0-2.084-.629.575.575,0,0,0-.442.262c-.27.893-.5,1.8-.744,2.725.184.049.318.082.449.12a2.959,2.959,0,0,1,1.654,4.493,3.166,3.166,0,0,1-2.854,1.34q-4.8-.012-9.6,0c-.44,0-.882,0-1.319.039a2.783,2.783,0,0,0-2.48,2.914h.64c2.081,0,4.163.041,6.243-.01a20.921,20.921,0,0,1,7.824,1.251,12.928,12.928,0,0,0,7.674.319c2.537-.618,5.032-1.474,7.683-1.528q1.649-.034,3.3-.062V45.65a29.311,29.311,0,0,0-10.939,1.634v8.27H37.654v5.925H0V5.94H12.816ZM1.989,7.944V59.473H35.615v-7.88c-1.193-.371-.9.73-1.245,1.21l-1.854-.471a3.27,3.27,0,0,0,.176-.783,1.019,1.019,0,0,0-.222-.7,3.573,3.573,0,0,1-1.289-4.064c.1-.359.185-.723.292-1.146H28.645c-1.746,0-2.274-.408-2.687-2.07a7.037,7.037,0,0,1-1.482-.015,3.057,3.057,0,0,1-1.682-4.964c.515-.622,1.112-1.176,1.8-1.893H20.825V34.72c1.777,0,3.516,0,5.254,0,.195,0,.456.03.573-.077.621-.57,1.205-1.179,1.8-1.775l-.076-.141H20.818V30.754h.673c2.9,0,5.806,0,8.709-.007a1.437,1.437,0,0,0,.734-.168A5.163,5.163,0,0,1,33.9,29.77c.574.013,1.147,0,1.729,0V7.923H16.853V6.01H37.669v16.3a1.133,1.133,0,0,0,.263-.525q1.2-4.457,2.408-8.913A3.79,3.79,0,0,1,44.97,10a3.624,3.624,0,0,1,2.716,4.6q-1.939,7.27-3.908,14.532c-.051.189-.089.38-.151.648,2.008-.075,3.332,1.278,4.957,2.222V31.32q0-14.324.013-28.649c0-.567-.17-.693-.707-.692Q31.7,2,15.517,1.991c-.21,0-.42.02-.684.034V7.944ZM39.276,45.875c-.074.221-.122.35-.16.482-.289,1-.553,2-.874,2.986-.121.37-.51.688-.536,1.047-.074,1.045-.026,2.1-.026,3.147H48.542V47.5c-3.275.5-6.216-.714-9.266-1.625m.334-22.684L35.428,38.666h3.707l3.877-14.341-3.4-1.133m-4.381,8.6a4.514,4.514,0,0,0-4.18,1.266c-2.057,2.181-4.223,4.259-6.341,6.381a3.894,3.894,0,0,0-.44.489A1.1,1.1,0,0,0,24.36,41.3a1.05,1.05,0,0,0,1.362.172,3.189,3.189,0,0,0,.548-.461q2.274-2.264,4.538-4.539a5.2,5.2,0,0,1,3.219-1.686c.154-.016.395-.116.429-.228.278-.909.517-1.83.775-2.773m5.96-14.462,3.41,1.129c.405-1.5.8-2.942,1.178-4.387a1.612,1.612,0,0,0-1.1-2.087,1.762,1.762,0,0,0-2.3,1.064c-.438,1.386-.785,2.8-1.193,4.281M37.272,45.642c-.714,0-1.33-.005-1.946,0-.577.006-1.344-.2-1.681.1-.392.338-.408,1.113-.587,1.7a1.17,1.17,0,0,0-.032.115A1.639,1.639,0,0,0,34.1,49.509a1.761,1.761,0,0,0,2.279-.882c.352-.946.584-1.936.892-2.985M43.527,22.4l.549-2.02-3.4-1.126-.532,2.018L43.527,22.4M41.2,38.644c1.143.1,1.668-.219,1.663-.954,0-.617-.415-.953-1.158-.909l-.5,1.863m-7.831.012.464-1.737-.2-.158-2.167,1.753.089.142Z" fill="#64892a"/>
        <path id="Trazado_262471" data-name="Trazado 262471" d="M31.907,80.665H57.663v9.82H31.907Zm23.754,1.954H33.927v5.886H55.661Z" transform="translate(-27.96 -70.686)" fill="#64892a"/>
        <path id="Trazado_262472" data-name="Trazado 262472" d="M32.181,208.791h7.841V210.7H34.18v7.918h7.878v-3.887h1.93v5.9H32.181Z" transform="translate(-28.2 -182.961)" fill="#64892a"/>
        <path id="Trazado_262473" data-name="Trazado 262473" d="M39.987,347.087H34.131V355h7.875V351.11h1.94v5.853H32.14V345.139h7.847Z" transform="translate(-28.164 -302.442)" fill="#64892a"/>
        <path id="Trazado_262474" data-name="Trazado 262474" d="M59.148,324.58,60.48,323.3l1.147,1.293,9.256-9.255,1.283,1.384L61.724,327.15l-2.576-2.57" transform="translate(-51.831 -276.326)" fill="#64892a"/>
        <path id="Trazado_262475" data-name="Trazado 262475" d="M58.994,187.944l1.39-1.328,1.047,1.361,9.338-9.335,1.305,1.337L61.553,190.5l-2.559-2.557" transform="translate(-51.696 -156.543)" fill="#64892a"/>
        <rect id="Rectángulo_90508" data-name="Rectángulo 90508" width="12.851" height="1.894" transform="translate(20.823 26.825)" fill="#64892a"/>
        <rect id="Rectángulo_90509" data-name="Rectángulo 90509" width="10.847" height="1.932" transform="translate(18.845 54.589)" fill="#64892a"/>
        <rect id="Rectángulo_90510" data-name="Rectángulo 90510" width="1.907" height="1.939" transform="translate(31.741 54.591)" fill="#64892a"/>
        <rect id="Rectángulo_90511" data-name="Rectángulo 90511" width="1.921" height="1.896" transform="translate(7.931 13.927)" fill="#64892a"/>
        <rect id="Rectángulo_90512" data-name="Rectángulo 90512" width="1.922" height="1.895" transform="translate(11.899 13.947)" fill="#64892a"/>
        <rect id="Rectángulo_90513" data-name="Rectángulo 90513" width="1.938" height="1.895" transform="translate(15.858 13.937)" fill="#64892a"/>
        <rect id="Rectángulo_90514" data-name="Rectángulo 90514" width="1.921" height="1.895" transform="translate(19.84 13.931)" fill="#64892a"/>
        <rect id="Rectángulo_90515" data-name="Rectángulo 90515" width="1.938" height="1.892" transform="translate(23.794 13.939)" fill="#64892a"/>
      </g>
    </g>
    <g id="Grupo_149632" data-name="Grupo 149632" transform="translate(1042.641 1918.942)">
      <g id="Grupo_149631" data-name="Grupo 149631" clip-path="url(#clip-path-18)">
        <path id="Trazado_262476" data-name="Trazado 262476" d="M32.988,181.039a1.735,1.735,0,0,1-.855-1.694c-.01-3.845-.064-7.69-.1-11.535-.013-1.311.368-1.687,1.7-1.687q5.884,0,11.769,0c1.057,0,1.7.837,1.33,1.714a1.308,1.308,0,0,1-1.375.765c-2.952-.01-5.9,0-8.856,0H35.88a5.271,5.271,0,0,0,.3.436,26.518,26.518,0,0,0,17.682,9.331,27.231,27.231,0,0,0,28.625-17.608,26.756,26.756,0,0,0,1.161-15.176,2.2,2.2,0,0,1,.092-1.227,1.063,1.063,0,0,1,1.223-.586,1.169,1.169,0,0,1,1.024.985c.22,1.182.473,2.364.579,3.559A29.9,29.9,0,0,1,61.27,180.7c-.839.132-1.685.225-2.528.336H55.013c-.169-.034-.336-.077-.506-.1-1.285-.185-2.586-.295-3.853-.562a29.159,29.159,0,0,1-15.623-8.885c-.132-.142-.275-.274-.41-.408,0,2.823-.018,5.578.012,8.332a1.529,1.529,0,0,1-.946,1.625Z" transform="translate(-27.044 -121.369)" fill="#85b638"/>
        <path id="Trazado_262477" data-name="Trazado 262477" d="M0,27.972C.15,26.88.251,25.778.458,24.7A29.488,29.488,0,0,1,16.007,3.426,28.022,28.022,0,0,1,29.933.013a29.248,29.248,0,0,1,21.709,9.5,1.668,1.668,0,0,0,.566.458V9.36c0-2.66-.006-5.321,0-7.981A1.24,1.24,0,0,1,53.976.131a1.2,1.2,0,0,1,.706,1.175c0,.971,0,1.942,0,2.913q0,4.573,0,9.146c0,1.134-.421,1.554-1.543,1.554q-5.913,0-11.826,0c-.116,0-.234,0-.349-.006a1.249,1.249,0,0,1-1.186-1.271,1.21,1.21,0,0,1,1.2-1.185c1.028-.027,2.058-.013,3.087-.013H50.84c-.145-.207-.218-.334-.313-.442A26.568,26.568,0,0,0,32.844,2.673,27.378,27.378,0,0,0,3.061,35.516a2.239,2.239,0,0,1,.037.858,1.209,1.209,0,0,1-1.2.918,1.2,1.2,0,0,1-1.19-1c-.227-1.278-.4-2.566-.6-3.85L0,31.7V27.972" transform="translate(0 0)" fill="#85b638"/>
        <path id="Trazado_262478" data-name="Trazado 262478" d="M105.271,111.2a4.019,4.019,0,0,1-4.01,1.965c-.775-.039-1.559.018-2.325-.081a3.625,3.625,0,0,1-3.158-3.557q-.036-6.322,0-12.643a3.685,3.685,0,0,1,3.62-3.614,20.643,20.643,0,0,1,2.678.019,17.041,17.041,0,0,1,2.3.576,11.265,11.265,0,0,0,2.722-2.584,4.757,4.757,0,0,0,.956-2.873,9.866,9.866,0,0,1,.187-1.966,2.836,2.836,0,0,1,4.4-2.031,4.824,4.824,0,0,1,2.346,3.512,10.589,10.589,0,0,1-.162,4.789c-.041.166-.076.334-.125.553h4.52c4.081,0,6.758,2.921,6.3,6.963-.248,2.193-.623,4.373-.975,6.553a17.434,17.434,0,0,1-.505,2.009,5.952,5.952,0,0,1-5.49,4.322,31,31,0,0,1-12.337-1.55c-.307-.112-.611-.233-.943-.36m.383-8.949h.049v4.659c0,1.845,0,1.846,1.776,2.454a29.707,29.707,0,0,0,11.152,1.246,3.49,3.49,0,0,0,3.116-2.94q.549-3.093,1.045-6.195A12.357,12.357,0,0,0,123.082,99a3.443,3.443,0,0,0-3.583-3.253c-2.155-.021-4.31,0-6.465-.007-1.321,0-1.826-.873-1.227-2.054a8.2,8.2,0,0,0,.734-5.319,2.529,2.529,0,0,0-.944-1.686c-.477-.346-.8-.231-.913.347a8.143,8.143,0,0,0-.13,1.444,7.05,7.05,0,0,1-1.16,3.844,13.6,13.6,0,0,1-3.406,3.473.8.8,0,0,0-.322.525c-.023,1.979-.014,3.959-.014,5.938m-2.427.979q0-3,0-6a1.3,1.3,0,0,0-1.442-1.491q-1.047-.017-2.1,0a1.3,1.3,0,0,0-1.44,1.445c-.013.737,0,1.475,0,2.212q0,4.86,0,9.721c0,1.087.44,1.526,1.51,1.535q.99.008,1.979,0c1.052-.009,1.488-.442,1.49-1.488q.006-2.969,0-5.937" transform="translate(-80.851 -70.889)" fill="#85b638"/>
      </g>
    </g>
    <g id="Grupo_149634" data-name="Grupo 149634" transform="translate(1185 1918.942)">
      <g id="Grupo_149633" data-name="Grupo 149633" clip-path="url(#clip-path-19)">
        <path id="Trazado_262479" data-name="Trazado 262479" d="M39.4,0c2.344,2.416,4.674,4.845,7.043,7.236a2.487,2.487,0,0,1,.783,1.919q-.035,23.877,0,47.755a2.024,2.024,0,0,1-1.043,2.042H40.319c-.412-.27-.72-.609-.537-1.14s.633-.6,1.125-.593c1.493.01,2.986,0,4.527,0V9.334c-.181-.009-.382-.028-.583-.028-1.819,0-3.639,0-5.458,0-.985,0-1.257-.279-1.258-1.273,0-2.071,0-4.142,0-6.257H1.83v.615q0,2.648,0,5.3c0,.134,0,.269,0,.4a.884.884,0,0,1-.856.959.859.859,0,0,1-.857-.9q-.023-3.4,0-6.792C.123.677.642.337,1.133,0Zm.508,3.07V7.544h4.336L39.908,3.07" transform="translate(-0.089)" fill="#64892a"/>
        <path id="Trazado_262480" data-name="Trazado 262480" d="M1.044,140.407A2.024,2.024,0,0,1,0,138.363q.032-20.9.017-41.8a3.38,3.38,0,0,1,.043-.744.784.784,0,0,1,.868-.673.8.8,0,0,1,.8.758,4.891,4.891,0,0,1,.017.69q0,20.639,0,41.278v.8H33.606c.172,0,.345.007.517,0,.492-.024.943.063,1.126.589s-.125.869-.535,1.141Z" transform="translate(0 -81.455)" fill="#64892a"/>
        <path id="Trazado_262481" data-name="Trazado 262481" d="M48.7,31.954q5.054,0,10.107,0a1.505,1.505,0,0,1,1.728,1.71c0,1.439.007,2.877,0,4.315a1.449,1.449,0,0,1-1.58,1.624q-10.251.013-20.5,0a1.479,1.479,0,0,1-1.6-1.622q-.015-2.215,0-4.431a1.483,1.483,0,0,1,1.624-1.6q5.111-.007,10.222,0m-10.09,5.883H58.782V33.718H38.613Z" transform="translate(-31.545 -27.355)" fill="#64892a"/>
        <path id="Trazado_262482" data-name="Trazado 262482" d="M132.254,197.148H142.6c.923,0,1.362.279,1.368.863s-.43.871-1.355.871q-10.37,0-20.739,0a3.22,3.22,0,0,1-.741-.059.836.836,0,0,1-.011-1.606,3,3,0,0,1,.74-.065q5.2-.006,10.4,0" transform="translate(-103.173 -168.773)" fill="#64892a"/>
        <path id="Trazado_262483" data-name="Trazado 262483" d="M132.212,117.086q-5.171,0-10.341,0a3.611,3.611,0,0,1-.687-.033.769.769,0,0,1-.666-.753.753.753,0,0,1,.536-.849,2.454,2.454,0,0,1,.734-.091q10.428-.007,20.855,0c.876,0,1.307.284,1.317.861s-.423.869-1.292.869H132.212" transform="translate(-103.169 -98.752)" fill="#64892a"/>
        <path id="Trazado_262484" data-name="Trazado 262484" d="M132.258,279.016h10.456c.824,0,1.247.3,1.243.86s-.439.87-1.251.871q-10.485,0-20.97,0a2.222,2.222,0,0,1-.677-.088.838.838,0,0,1,.114-1.6,3.517,3.517,0,0,1,.687-.034q5.2,0,10.4,0" transform="translate(-103.167 -238.858)" fill="#64892a"/>
        <path id="Trazado_262485" data-name="Trazado 262485" d="M47.75,279c.727,0,1.455-.012,2.182,0a1.428,1.428,0,0,1,1.507,1.52q.019,2.215,0,4.431a1.448,1.448,0,0,1-1.5,1.536q-2.239.03-4.48,0a1.456,1.456,0,0,1-1.487-1.5q-.028-2.244,0-4.488A1.439,1.439,0,0,1,45.452,279c.765-.017,1.532,0,2.3,0m1.93,1.771H45.734v3.962H49.68Z" transform="translate(-37.628 -238.841)" fill="#64892a"/>
        <path id="Trazado_262486" data-name="Trazado 262486" d="M130.022,157.164q-4.048,0-8.1,0a5.746,5.746,0,0,1-.63-.021.84.84,0,0,1-.053-1.668,3.222,3.222,0,0,1,.57-.041q8.21,0,16.421,0c.1,0,.192,0,.287,0,.674.034,1.05.364,1.032.9-.017.517-.375.823-1.034.825-2.832.008-5.665,0-8.5,0" transform="translate(-103.182 -133.06)" fill="#64892a"/>
        <path id="Trazado_262487" data-name="Trazado 262487" d="M130.015,237.324q4.076,0,8.153,0a4.394,4.394,0,0,1,.687.033.836.836,0,0,1,.051,1.632,2.547,2.547,0,0,1-.568.058q-8.3,0-16.593,0a2.428,2.428,0,0,1-.624-.066.765.765,0,0,1-.6-.861.756.756,0,0,1,.655-.759,3.667,3.667,0,0,1,.686-.038q4.076,0,8.153,0" transform="translate(-103.173 -203.167)" fill="#64892a"/>
        <path id="Trazado_262488" data-name="Trazado 262488" d="M130.077,319.082h8.1c.191,0,.384-.006.574.012a.846.846,0,0,1,.1,1.675,2.58,2.58,0,0,1-.57.041q-8.24,0-16.479,0a2.583,2.583,0,0,1-.68-.07.764.764,0,0,1-.594-.865.782.782,0,0,1,.714-.772,3.436,3.436,0,0,1,.573-.021h8.268" transform="translate(-103.173 -273.156)" fill="#64892a"/>
        <path id="Trazado_262489" data-name="Trazado 262489" d="M128.437,137.11q-3.271,0-6.541,0a3.116,3.116,0,0,1-.629-.034c-.4-.083-.7-.359-.634-.754a1.585,1.585,0,0,1,.534-.838c.155-.133.474-.1.719-.1q6.628-.007,13.255,0a2.451,2.451,0,0,1,.679.077.838.838,0,0,1-.1,1.62,3.675,3.675,0,0,1-.629.031q-3.328,0-6.656,0" transform="translate(-103.262 -115.894)" fill="#64892a"/>
        <path id="Trazado_262490" data-name="Trazado 262490" d="M128.466,299.031h6.542a4.011,4.011,0,0,1,.573.021.841.841,0,0,1,.09,1.65,2.649,2.649,0,0,1-.624.057q-6.628,0-13.256,0a2.593,2.593,0,0,1-.679-.071.839.839,0,0,1,.127-1.632,7.019,7.019,0,0,1,.917-.025q3.156,0,6.313,0" transform="translate(-103.171 -255.991)" fill="#64892a"/>
        <path id="Trazado_262491" data-name="Trazado 262491" d="M128.457,217.242q3.27,0,6.541,0a4.144,4.144,0,0,1,.629.037.757.757,0,0,1,.692.785.768.768,0,0,1-.674.859,3.384,3.384,0,0,1-.626.049q-6.6,0-13.2,0a3.4,3.4,0,0,1-.57-.038.781.781,0,0,1-.721-.878.749.749,0,0,1,.756-.784c.667-.037,1.338-.029,2.006-.031q2.582-.005,5.164,0" transform="translate(-103.183 -185.974)" fill="#64892a"/>
        <path id="Trazado_262492" data-name="Trazado 262492" d="M46.641,120.8c1.164-1.533,2.308-3.04,3.455-4.546a4.231,4.231,0,0,1,.479-.571.839.839,0,0,1,1.322.988,2.6,2.6,0,0,1-.28.432q-1.959,2.589-3.924,5.173c-.623.818-1.018.856-1.793.182-.491-.427-.988-.849-1.463-1.294a.845.845,0,0,1-.148-1.269.862.862,0,0,1,1.279-.022c.356.288.694.6,1.073.926" transform="translate(-37.723 -98.823)" fill="#64892a"/>
        <path id="Trazado_262493" data-name="Trazado 262493" d="M46.648,202.6c1.2-1.584,2.358-3.11,3.517-4.634a3.506,3.506,0,0,1,.41-.478.793.793,0,0,1,1.1-.045.772.772,0,0,1,.229,1.027,2.652,2.652,0,0,1-.278.433q-1.976,2.611-3.958,5.218c-.572.751-1.006.794-1.711.18-.505-.44-1.016-.875-1.506-1.331a.846.846,0,0,1-.156-1.268.873.873,0,0,1,1.28-.028c.357.287.7.6,1.077.927" transform="translate(-37.728 -168.859)" fill="#64892a"/>
      </g>
    </g>
    <g id="Grupo_149636" data-name="Grupo 149636" transform="translate(1315 1918.942)">
      <g id="Grupo_149635" data-name="Grupo 149635" clip-path="url(#clip-path-20)">
        <path id="Trazado_262494" data-name="Trazado 262494" d="M214.289,23.064c0,1.683.018,3.286-.015,4.888a1.6,1.6,0,0,1-.327.943c-.375.442-1,.34-1.506-.186-1.673-1.735-3.346-3.47-5-5.224a1.259,1.259,0,0,0-1.018-.429q-6.15.022-12.3.006a4,4,0,0,1-4.132-3.036,5.414,5.414,0,0,1-.127-1.285q-.013-7.2,0-14.4A4.013,4.013,0,0,1,194.228,0q10.631,0,21.261,0a4.027,4.027,0,0,1,4.352,4.352q0,7.17,0,14.341a4.043,4.043,0,0,1-4.345,4.368c-.37,0-.74,0-1.207,0M212.31,25.71c0-1.244,0-2.311,0-3.379.005-.9.336-1.236,1.222-1.243.659-.006,1.318,0,1.978,0a2.085,2.085,0,0,0,2.351-2.362q0-7.139,0-14.279c0-1.738-.732-2.463-2.492-2.463H194.358c-1.8,0-2.519.71-2.52,2.5q0,7.047,0,14.093c0,1.792.722,2.515,2.507,2.516,4.244,0,8.488.008,12.732-.009a1.7,1.7,0,0,1,1.353.582c1.237,1.321,2.5,2.616,3.881,4.052" transform="translate(-158.5 -0.001)" fill="#85b638"/>
        <path id="Trazado_262495" data-name="Trazado 262495" d="M5.562,218.862c-.623,0-1.138.01-1.652,0A3.937,3.937,0,0,1,.022,215q-.044-7.636,0-15.272a3.891,3.891,0,0,1,3.864-3.875q11.128-.035,22.256,0a3.9,3.9,0,0,1,3.825,3.652c.017.205.026.412.026.617q0,7.234,0,14.468a3.983,3.983,0,0,1-3.248,4.2,5.762,5.762,0,0,1-1.107.07q-6.089.007-12.179-.006a1.257,1.257,0,0,0-1.019.427c-1.641,1.738-3.31,3.45-4.96,5.179-.366.384-.754.664-1.3.443s-.621-.7-.616-1.226c.014-1.581,0-3.163,0-4.818m1.978,2.671c1.371-1.425,2.636-2.714,3.867-4.034a1.829,1.829,0,0,1,1.464-.623c4.285.019,8.571.012,12.856.009a2.035,2.035,0,0,0,2.284-2.285c.008-1.113,0-2.226,0-3.338,0-3.73.005-7.459,0-11.189a1.99,1.99,0,0,0-2.063-2.251q-10.94-.014-21.881,0a1.968,1.968,0,0,0-2.074,2.054q-.015,7.48,0,14.96a1.981,1.981,0,0,0,2.081,2.049c.742.011,1.483,0,2.225,0,.879.008,1.234.362,1.24,1.245.007,1.071,0,2.141,0,3.4" transform="translate(0 -163.492)" fill="#85b638"/>
        <path id="Trazado_262496" data-name="Trazado 262496" d="M69.875,77.164v-.645q0-5.747,0-11.494c0-1.133.3-1.433,1.425-1.434q5.375,0,10.751,0a2.364,2.364,0,0,1,.728.088.886.886,0,0,1,.634.953.909.909,0,0,1-.786.9,3.762,3.762,0,0,1-.677.031q-4.665,0-9.33,0H71.9V77.341c.4-.589.716-1.058,1.043-1.518a1,1,0,0,1,1.432-.382.986.986,0,0,1,.215,1.465c-.938,1.4-1.882,2.8-2.846,4.188a.971.971,0,0,1-1.729.021c-.979-1.4-1.932-2.818-2.878-4.241a.976.976,0,0,1,.2-1.417,1,1,0,0,1,1.443.342c.332.458.643.932.964,1.4l.126-.034" transform="translate(-55.873 -53.088)" fill="#85b638"/>
        <path id="Trazado_262497" data-name="Trazado 262497" d="M216.727,166.777v10.129c0,.762.012,1.524,0,2.286a1.021,1.021,0,0,1-1.153,1.141q-5.622.011-11.243,0a1.022,1.022,0,0,1-1.148-1.017c.018-.589.469-.957,1.2-.958q4.819,0,9.637,0h.7V166.667c-.138.158-.243.259-.326.376-.285.4-.543.827-.847,1.215a.962.962,0,0,1-1.322.228.93.93,0,0,1-.3-1.3c1-1.512,2.006-3.016,3.053-4.493a.911.911,0,0,1,1.532.033c1.033,1.462,2.033,2.948,3.019,4.442a.944.944,0,0,1-.272,1.31.972.972,0,0,1-1.365-.25c-.368-.485-.7-1-1.044-1.5l-.119.052" transform="translate(-169.621 -135.485)" fill="#85b638"/>
        <path id="Trazado_262498" data-name="Trazado 262498" d="M237.345,31.1h7.165a3.587,3.587,0,0,1,.555.016.912.912,0,0,1,.83.859.886.886,0,0,1-.634,1.008,2.531,2.531,0,0,1-.788.091q-7.135.007-14.269,0a3.522,3.522,0,0,1-.555-.019.984.984,0,0,1-.872-1.028.961.961,0,0,1,.97-.924c.37-.019.741-.007,1.112-.007h6.486" transform="translate(-190.992 -25.956)" fill="#85b638"/>
        <path id="Trazado_262499" data-name="Trazado 262499" d="M237.352,98.464c-2.471,0-4.941,0-7.412,0a.983.983,0,0,1-1.114-.756.919.919,0,0,1,.668-1.149,3.062,3.062,0,0,1,.793-.073q7.072-.006,14.145,0a4.2,4.2,0,0,1,.555.016.987.987,0,0,1,.931,1.035.96.96,0,0,1-1.031.922c-.864.015-1.729.005-2.594.005h-4.941" transform="translate(-191.006 -80.549)" fill="#85b638"/>
        <path id="Trazado_262500" data-name="Trazado 262500" d="M237.349,65.8q-3.551,0-7.1,0a3.122,3.122,0,0,1-.674-.049.893.893,0,0,1-.747-.988.883.883,0,0,1,.778-.9,3.879,3.879,0,0,1,.676-.038q7.1,0,14.2,0c.082,0,.165,0,.247,0,.786.02,1.224.383,1.214,1s-.449.971-1.246.973c-2.45.006-4.9,0-7.349,0" transform="translate(-191.032 -53.285)" fill="#85b638"/>
        <path id="Trazado_262501" data-name="Trazado 262501" d="M47.571,228.711q-3.675,0-7.351,0c-.8,0-1.237-.339-1.248-.957s.437-1.017,1.207-1.018q7.351-.008,14.7,0c.794,0,1.263.429,1.216,1.069-.042.573-.46.9-1.175.905q-3.675.006-7.351,0" transform="translate(-32.535 -189.285)" fill="#85b638"/>
        <path id="Trazado_262502" data-name="Trazado 262502" d="M47.556,259.587q3.676,0,7.351,0c.734,0,1.176.368,1.189.963.014.617-.445,1.012-1.208,1.012q-7.351,0-14.7,0c-.753,0-1.185-.345-1.216-.939-.032-.631.414-1.035,1.173-1.036q3.707-.007,7.413,0" transform="translate(-32.532 -216.713)" fill="#85b638"/>
        <path id="Trazado_262503" data-name="Trazado 262503" d="M47.507,294.374c-2.368,0-4.735,0-7.1,0a2.493,2.493,0,0,1-.788-.095.886.886,0,0,1-.625-1.014.9.9,0,0,1,.837-.85,4.115,4.115,0,0,1,.555-.016h14.33a3.88,3.88,0,0,1,.555.017.9.9,0,0,1,.827.859.886.886,0,0,1-.632,1.009,2.367,2.367,0,0,1-.728.09q-3.613.009-7.227,0" transform="translate(-32.543 -244.103)" fill="#85b638"/>
      </g>
    </g>
  </g>
</svg>
