<svg xmlns="http://www.w3.org/2000/svg" xmlns:xlink="http://www.w3.org/1999/xlink" width="122" height="122" viewBox="0 0 122 122">
  <defs>
    <clipPath id="clip-path">
      <rect id="Rectángulo_90548" data-name="Rectángulo 90548" width="77" height="76.956" fill="none"/>
    </clipPath>
  </defs>
  <g id="Grupo_149774" data-name="Grupo 149774" transform="translate(-1090 -1104)">
    <g id="Elipse_5544" data-name="Elipse 5544" transform="translate(1090 1104)" fill="#f5feff" stroke="#0082b2" stroke-width="2">
      <circle cx="61" cy="61" r="61" stroke="none"/>
      <circle cx="61" cy="61" r="60" fill="none"/>
    </g>
    <circle id="Elipse_5553" data-name="Elipse 5553" cx="43" cy="43" r="43" transform="translate(1108 1122)" fill="#dff7f9"/>
    <g id="Grupo_149712" data-name="Grupo 149712" transform="translate(1111.942 1126.521)">
      <g id="Grupo_149711" data-name="Grupo 149711" clip-path="url(#clip-path)">
        <path id="Trazado_262618" data-name="Trazado 262618" d="M39.77,101.642q-17.08,0-34.159,0A5.338,5.338,0,0,1,.647,98.9,5.141,5.141,0,0,1,0,96.215Q0,69.849.008,43.484a5.239,5.239,0,0,1,4.717-5.443c.248-.064.5-.135.713.082A3.2,3.2,0,0,1,5.6,39.65Q5.6,66.675,5.6,93.7a11.36,11.36,0,0,0,.025,1.242A1.063,1.063,0,0,0,6.774,96.05c.362.032.726.017,1.089.017q16.146,0,32.291,0a5.172,5.172,0,0,1,1.392.082c.533.277.2.611.019.878a9.093,9.093,0,0,0-1.282,2.7,5.617,5.617,0,0,0-.178,1.216c-.013.267.036.589-.335.694" transform="translate(0 -30.092)" fill="#a7e446"/>
        <path id="Trazado_262619" data-name="Trazado 262619" d="M239.308,176.958a14.213,14.213,0,0,1-.586,4.807,2.924,2.924,0,0,1-2.175,2.186,1.162,1.162,0,0,0-.931,1.165,10.815,10.815,0,0,1-4.343,7.969c-.384.3-.748.626-1.121.94-.069.1-.108.209-.174.308a23.8,23.8,0,0,1-2.048,1.65,5.362,5.362,0,0,1-6.371.018c-.739-.522-1.416-1.122-2.138-1.664a2.6,2.6,0,0,1-.271-.219c-.575-.522-1.217-.964-1.8-1.481a11.8,11.8,0,0,1-3.391-5.386,10.691,10.691,0,0,1-.367-1.973,1,1,0,0,0-.607-1c-2.013-.608-2.549-2.246-2.877-4.027a8.487,8.487,0,0,1-.181-3.068,2.19,2.19,0,0,1,2-1.673,2.083,2.083,0,0,1,2.329,1.9c.093.435.223.646.7.568,2.946-.48,5.683-1.392,7.8-3.64a10.182,10.182,0,0,0,1.19-1.624,2.219,2.219,0,0,1,3.066-.956,19.859,19.859,0,0,1,4.083,2.673c1.333,1.023,2.582,2.147,3.931,3.276.338-1.292.9-2.276,2.4-2.2a1.884,1.884,0,0,1,1.87,1.454" transform="translate(-166.28 -135.884)" fill="#a9673a"/>
        <path id="Trazado_262620" data-name="Trazado 262620" d="M239.185,141.175c-.439-.494-.755-1.13-1.507-1.255a2.014,2.014,0,0,0-2.477,1.744c-.035.2-.032.409-.054.714-1.2-1.008-2.319-1.983-3.475-2.92a24.7,24.7,0,0,0-4.577-3.181c-1.477-.724-2.342-.47-3.182.923a10.639,10.639,0,0,1-6.323,4.58,14.256,14.256,0,0,1-3.181.651c-.3.022-.391-.019-.429-.338-.153-1.292-.683-2.022-1.515-2.169-1.151-.2-1.742.129-2.479,1.393-.435-.489-.263-1.089-.223-1.624a15.1,15.1,0,0,1,2.852-8.121,9.57,9.57,0,0,1,1.032-1.148c.083-.085.17-.166.257-.246a14.985,14.985,0,0,1,4.268-2.8,20.8,20.8,0,0,1,7.022-1.032,17.445,17.445,0,0,1,5.9,1.144c0,.319.29.336.483.424,4.544,2.074,6.736,5.806,7.484,10.557a12.736,12.736,0,0,1,.122,2.7" transform="translate(-166.157 -100.101)" fill="#473b33"/>
        <path id="Trazado_262621" data-name="Trazado 262621" d="M63.3,7.8A2.651,2.651,0,0,1,66.2,5.3c1.012-.006,2.024-.025,3.035.009.518.017.668-.163.656-.668A10.884,10.884,0,0,1,70,2.171,2.544,2.544,0,0,1,72.486.021q4.085-.037,8.17,0a2.558,2.558,0,0,1,2.579,2.569c.027.7.03,1.4,0,2.1-.021.466.126.645.613.627.907-.032,1.815-.009,2.723-.009,2.127,0,2.821.53,3.331,2.542a.358.358,0,0,1,.114.258,2.719,2.719,0,0,1-2.227,2.627,5.122,5.122,0,0,1-1.235.119q-9.989,0-19.978,0a3.293,3.293,0,0,1-2.884-1.212,2.129,2.129,0,0,1-.526-1.575A.974.974,0,0,1,63.3,7.8" transform="translate(-50.039 -0.001)" fill="#fbca55"/>
        <path id="Trazado_262622" data-name="Trazado 262622" d="M191.541,313.386c.212-.763.151-1.566.407-2.333a11.255,11.255,0,0,1,1.616-2.954c.021-.383.315-.58.565-.793a8.6,8.6,0,0,1,5.548-2.094,2.4,2.4,0,0,1,1.126.128c.246.384-.072.626-.25.876-.541.758-1.126,1.484-1.664,2.244a1.284,1.284,0,0,0-.277,1.435,1.33,1.33,0,0,0,1.332.607c2.378.045,2.489.132,3.237,2.381.522,1.57,1.059,3.135,1.567,4.71.115.355.321.736-.052,1.079-3.975.049-7.948.057-11.922,0a1.29,1.29,0,0,1-1.146-1.414,29.557,29.557,0,0,0-.087-3.869" transform="translate(-151.771 -241.836)" fill="#fc4b52"/>
        <path id="Trazado_262623" data-name="Trazado 262623" d="M310.969,306.247a8.634,8.634,0,0,1,6.323,1.833,7.529,7.529,0,0,1,2.844,5.64c.055,1.446.02,2.9.027,4.344a1.267,1.267,0,0,1-1.14,1.415c-3.965.068-7.93.037-11.894.017-.367-.252-.237-.6-.137-.908.641-1.991,1.3-3.976,1.989-5.951a1.846,1.846,0,0,1,1.89-1.326c.414,0,.829.018,1.241-.01a1.091,1.091,0,0,0,.947-1.791c-.51-.839-1.171-1.575-1.736-2.377-.185-.262-.479-.5-.354-.886" transform="translate(-243.167 -242.645)" fill="#fc4b52"/>
        <path id="Trazado_262624" data-name="Trazado 262624" d="M233.631,57.641c-.014.213-.163.3-.338.37a13.328,13.328,0,0,0-3.725,2.4c-.28-.268-.221-.621-.221-.95q-.008-10.158.008-20.315c0-.425-.2-1.1.676-.954a5.327,5.327,0,0,1,4.812,5.51c.014,3.251.014,6.5.02,9.755a.722.722,0,0,1-.212.636,4.459,4.459,0,0,0-.913,3.265.356.356,0,0,1-.107.28" transform="translate(-181.719 -30.25)" fill="#a7e446"/>
        <path id="Trazado_262625" data-name="Trazado 262625" d="M290.8,285.478q1.045,1.436,2.09,2.872a1.489,1.489,0,0,1,.339,1.7,1.528,1.528,0,0,1-1.583.72c-2.249-.008-2.252,0-2.975,2.167q-.93,2.785-1.849,5.574a.291.291,0,0,1-.282.222c-1.655-.021-3.313.092-4.966-.059-.255-.316-.112-.636,0-.95,1.413-3.908,2.813-7.82,4.275-11.709a9.822,9.822,0,0,0,.666-3.928,3.44,3.44,0,0,1,.183-1.9l.17-.172c0,1.163.023,2.327,0,3.49a.761.761,0,0,0,.617.9c1.115.324,2.212.712,3.316,1.073" transform="translate(-223.002 -221.876)" fill="#eff1f4"/>
        <path id="Trazado_262626" data-name="Trazado 262626" d="M249.54,108.108a4.635,4.635,0,0,1,1.231-4.181,7.731,7.731,0,0,1,9.017-1.088,4.737,4.737,0,0,1,2.779,5.268c-.358.277-.625-.062-.927-.142a20.48,20.48,0,0,0-6.553-.776,17.536,17.536,0,0,0-4.971.937.57.57,0,0,1-.576-.018" transform="translate(-197.627 -80.717)" fill="#382f29"/>
        <path id="Trazado_262627" data-name="Trazado 262627" d="M215.027,368.582c.016.02.031.055.049.057a19.05,19.05,0,0,0,5.223-.023c.256.261.584.157.882.158q5.575.027,11.15.039c-.257.187-.552.1-.829.1q-16.6.007-33.2,0c-.277,0-.572.083-.829-.1q5.574-.017,11.148-.039c.3,0,.626.108.88-.159a25.013,25.013,0,0,1,3.178-.071c.647-.023,1.3.02,1.943-.05a.567.567,0,0,1,.4.088" transform="translate(-156.474 -291.981)" fill="#cdbbc2"/>
        <path id="Trazado_262628" data-name="Trazado 262628" d="M200.431,37.768c-.51-.033-.481.308-.481.66.006,2.792,0,5.584,0,8.376q0,6.592.014,13.183l-.165.156c-.345-.4-.241-.884-.242-1.339q-.011-9.512,0-19.024c0-.155,0-.311,0-.466,0-1.269,0-1.27-1.312-1.271-1.711,0-3.423.006-5.135,0a1.4,1.4,0,0,1-1.1-.255,1.147,1.147,0,0,1-.027-.118L200,37.637a.548.548,0,0,1,.428.131" transform="translate(-152.119 -29.822)" fill="#efe0d5"/>
        <path id="Trazado_262629" data-name="Trazado 262629" d="M31.288,37.577c0,.058,0,.116,0,.174a1.234,1.234,0,0,1-.949.239q-3.022.015-6.043,0a1.525,1.525,0,0,1-.959-.238l-.577-.031c.242-.217.539-.131.813-.132q3.859-.014,7.718-.014" transform="translate(-18.032 -29.773)" fill="#efe0d5"/>
        <path id="Trazado_262630" data-name="Trazado 262630" d="M25.538,38.338l7.951,0a2.727,2.727,0,0,0,3.054,2.619q10.023,0,20.045,0c2.27,0,2.932-.493,3.535-2.636,2.329,0,4.658.028,6.987-.007.649-.01.826.184.824.826-.022,7.18-.015,14.36-.016,21.54a14.684,14.684,0,0,0-3.853,10.895,12.762,12.762,0,0,0,.778,5.175A2.651,2.651,0,0,0,66.768,78.4a1.25,1.25,0,0,1,1.008,1.279c.053.719.2,1.43.312,2.145a9.2,9.2,0,0,1,.249,2.213c-.012,2.883,0,5.766-.009,8.649,0,.429.077.887-.277,1.242a8.632,8.632,0,0,0-6.025,2.691c-2.074-.006-4.149-.017-6.223-.018q-14.044,0-28.088,0c-1.934,0-2.164-.234-2.164-2.2q0-27.528,0-55.057c0-.336-.008-.673-.013-1.009" transform="translate(-20.236 -30.358)" fill="#eff1f4"/>
        <path id="Trazado_262631" data-name="Trazado 262631" d="M260.489,299.122l-.245.006a1.1,1.1,0,0,1-.45-.7c-1.571-4.364-3.188-8.711-4.751-13.078a2.765,2.765,0,0,1-.172-.674c-.033-1-.016-1.995-.013-2.992,0-.3-.044-.622.221-.86a8.494,8.494,0,0,1,1.909,1.394,5.333,5.333,0,0,0,7.12-.232,7.133,7.133,0,0,1,1.53-1.159c.008,1.24.01,2.48.028,3.72a2.7,2.7,0,0,1-.251.966q-2.46,6.8-4.926,13.6" transform="translate(-201.936 -222.52)" fill="#925932"/>
        <path id="Trazado_262632" data-name="Trazado 262632" d="M230.3,259.992q.018-6.052.037-12.1a17.283,17.283,0,0,0,1.719,3.351,14.146,14.146,0,0,0,2.985,2.89,3.622,3.622,0,0,1,.425.437c.165,1.339.032,2.684.075,4.025-.018.28-.228.394-.447.473-1.018.367-2.044.71-3.08,1.022a.489.489,0,0,1-.444-.048l-1.269-.047" transform="translate(-182.48 -196.42)" fill="#c57640"/>
        <path id="Trazado_262633" data-name="Trazado 262633" d="M255.15,284.215q0-2.08,0-4.159l.162.16q0,2.018-.01,4.035a.1.1,0,0,1-.156-.036" transform="translate(-202.173 -221.908)" fill="#c58155"/>
        <path id="Trazado_262634" data-name="Trazado 262634" d="M99.623,15.566c-.933,0-1.867-.02-2.8.009-.487.015-.679-.118-.689-.646-.038-2-.058-2,1.964-2,1.477,0,2.955,0,4.432,0,.957,0,1.539.477,1.544,1.249a1.491,1.491,0,0,1-1.5,1.383c-.984.032-1.97.007-2.954.008" transform="translate(-76.167 -10.241)" fill="#daad4b"/>
        <path id="Trazado_262635" data-name="Trazado 262635" d="M230.309,300.089l.156.036,5.174,14.264c-.082.056-.164.159-.246.16q-2.38.013-4.76,0c-.091,0-.181-.086-.272-.132q-1.107-3.336-2.216-6.671a1.459,1.459,0,0,0-1.52-1.074c-.465,0-.931-.012-1.4,0a1.3,1.3,0,0,1-1.271-.715,1.261,1.261,0,0,1,.163-1.445c.76-1.041,1.529-2.075,2.295-3.111l3.892-1.312" transform="translate(-177.333 -237.782)" fill="#eff1f4"/>
        <path id="Trazado_262636" data-name="Trazado 262636" d="M62.5,229.844q4.821,0,9.643,0c1.033,0,1.655.519,1.634,1.343-.019.764-.664,1.3-1.631,1.3q-9.682.009-19.363,0c-.966,0-1.573-.536-1.57-1.339,0-.845.539-1.3,1.567-1.3q4.86-.007,9.72,0" transform="translate(-40.577 -182.121)" fill="#89919f"/>
        <path id="Trazado_262637" data-name="Trazado 262637" d="M100.825,255.33q4.782,0,9.564,0c1.1,0,1.674.442,1.685,1.276s-.632,1.368-1.7,1.368q-9.564,0-19.127,0c-.1,0-.208,0-.311,0a1.387,1.387,0,0,1-1.421-1.341,1.318,1.318,0,0,1,1.441-1.3c3.292-.009,6.583,0,9.875,0" transform="translate(-70.925 -202.315)" fill="#89909f"/>
        <path id="Trazado_262638" data-name="Trazado 262638" d="M59.079,283.453q-3.107,0-6.213,0c-1.1,0-1.642-.432-1.656-1.3s.56-1.346,1.617-1.347q6.329-.007,12.659,0c1.056,0,1.631.49,1.617,1.347s-.559,1.294-1.656,1.3q-3.184,0-6.368,0" transform="translate(-40.577 -222.503)" fill="#88909f"/>
        <path id="Trazado_262639" data-name="Trazado 262639" d="M175.349,229.837c.441,0,.882-.015,1.322,0a1.256,1.256,0,0,1,1.322,1.236,1.322,1.322,0,0,1-1.208,1.378,24.965,24.965,0,0,1-2.875,0,1.323,1.323,0,0,1-1.207-1.38,1.257,1.257,0,0,1,1.323-1.235c.44-.018.881,0,1.322,0" transform="translate(-136.845 -182.111)" fill="#8991a0"/>
        <path id="Trazado_262640" data-name="Trazado 262640" d="M53.91,255.32c.415,0,.83-.014,1.244,0a1.311,1.311,0,0,1,.137,2.617,26.027,26.027,0,0,1-2.874,0,1.273,1.273,0,0,1-1.206-1.36,1.248,1.248,0,0,1,1.3-1.255c.466-.021.933,0,1.4,0" transform="translate(-40.577 -202.303)" fill="#8991a0"/>
        <path id="Trazado_262641" data-name="Trazado 262641" d="M62.5,172.148q4.821,0,9.643,0c1.033,0,1.655.519,1.634,1.343-.019.764-.664,1.3-1.631,1.3q-9.682.009-19.363,0c-.966,0-1.573-.536-1.57-1.339,0-.845.539-1.3,1.567-1.3q4.86-.007,9.72,0" transform="translate(-40.577 -136.404)" fill="#89919f"/>
        <path id="Trazado_262642" data-name="Trazado 262642" d="M100.825,197.634q4.782,0,9.564,0c1.1,0,1.674.442,1.685,1.276s-.632,1.368-1.7,1.368q-9.564,0-19.127,0c-.1,0-.208,0-.311,0a1.387,1.387,0,0,1-1.421-1.341,1.318,1.318,0,0,1,1.441-1.3c3.292-.009,6.583,0,9.875,0" transform="translate(-70.925 -156.598)" fill="#89909f"/>
        <path id="Trazado_262643" data-name="Trazado 262643" d="M175.349,172.141c.441,0,.882-.015,1.322,0a1.256,1.256,0,0,1,1.322,1.236,1.322,1.322,0,0,1-1.208,1.378,24.972,24.972,0,0,1-2.875,0,1.323,1.323,0,0,1-1.207-1.38,1.256,1.256,0,0,1,1.323-1.235c.44-.018.881,0,1.322,0" transform="translate(-136.845 -136.395)" fill="#8991a0"/>
        <path id="Trazado_262644" data-name="Trazado 262644" d="M53.91,197.624c.415,0,.83-.014,1.244,0a1.311,1.311,0,0,1,.137,2.617,26.027,26.027,0,0,1-2.874,0,1.273,1.273,0,0,1-1.206-1.36,1.248,1.248,0,0,1,1.3-1.255c.466-.021.933,0,1.4,0" transform="translate(-40.577 -156.587)" fill="#8991a0"/>
        <path id="Trazado_262645" data-name="Trazado 262645" d="M62.5,117.164q4.821,0,9.643,0c1.033,0,1.655.519,1.634,1.343-.019.764-.664,1.3-1.631,1.3q-9.682.009-19.363,0c-.966,0-1.573-.536-1.57-1.339,0-.845.539-1.3,1.567-1.3q4.86-.007,9.72,0" transform="translate(-40.577 -92.836)" fill="#89919f"/>
        <path id="Trazado_262646" data-name="Trazado 262646" d="M100.825,142.65q4.782,0,9.564,0c1.1,0,1.674.442,1.685,1.276s-.632,1.368-1.7,1.368q-9.564,0-19.127,0c-.1,0-.208,0-.311,0a1.387,1.387,0,0,1-1.421-1.341,1.318,1.318,0,0,1,1.441-1.3c3.292-.009,6.583,0,9.875,0" transform="translate(-70.925 -113.03)" fill="#89909f"/>
        <path id="Trazado_262647" data-name="Trazado 262647" d="M175.349,117.157c.441,0,.882-.015,1.322,0a1.256,1.256,0,0,1,1.322,1.236,1.322,1.322,0,0,1-1.208,1.378,24.969,24.969,0,0,1-2.875,0,1.323,1.323,0,0,1-1.207-1.38,1.256,1.256,0,0,1,1.323-1.235c.44-.018.881,0,1.322,0" transform="translate(-136.845 -92.827)" fill="#8991a0"/>
        <path id="Trazado_262648" data-name="Trazado 262648" d="M53.91,142.64c.415,0,.83-.014,1.244,0a1.311,1.311,0,0,1,.137,2.617,26.027,26.027,0,0,1-2.874,0,1.273,1.273,0,0,1-1.206-1.36,1.248,1.248,0,0,1,1.3-1.255c.466-.021.933,0,1.4,0" transform="translate(-40.577 -113.019)" fill="#8991a0"/>
      </g>
    </g>
  </g>
</svg>
