<svg xmlns="http://www.w3.org/2000/svg" xmlns:xlink="http://www.w3.org/1999/xlink" width="525" height="260" viewBox="0 0 525 260">
  <defs>
    <clipPath id="clip-path">
      <rect id="Rectángulo_90545" data-name="Rectángulo 90545" width="104.974" height="104.992" fill="none"/>
    </clipPath>
  </defs>
  <g id="Grupo_149777" data-name="Grupo 149777" transform="translate(-790 -1759)">
    <g id="Grupo_149776" data-name="Grupo 149776">
      <rect id="Image_Place_Holder" data-name="Image Place Holder" width="525" height="260" transform="translate(790 1759)" fill="#d9eaea"/>
      <g id="Grupo_149706" data-name="Grupo 149706" transform="translate(1125.026 1836.235)">
        <g id="Grupo_149706-2" data-name="Grupo 149706" clip-path="url(#clip-path)">
          <path id="Trazado_262548" data-name="Trazado 262548" d="M104.974,60.478a34.026,34.026,0,0,1-1.4,4.316,14.438,14.438,0,0,1-14.29,8.134A14.275,14.275,0,0,1,76.652,61.676c-.187-.88-.533-1.027-1.326-1.012-2.562.049-5.126.055-7.687,0-.774-.018-1,.244-1.158.958a14.3,14.3,0,0,1-27.951.14c-.182-.845-.469-1.126-1.355-1.1q-3.79.106-7.584,0c-.807-.022-1.074.209-1.243.985A14.328,14.328,0,1,1,11.037,44.716c1.029-.227,1.409-.543,1.3-1.61a27.56,27.56,0,0,1-.021-3.278,2.084,2.084,0,0,1,2.32-2.365q4.664-.042,9.328,0c1.46.011,2.324.8,2.325,2.028a2.066,2.066,0,0,1-2.313,2.055q-3.33.06-6.662-.005c-.681-.013-.937.111-.921.867.04,2,.025,1.913,1.893,2.482a13.894,13.894,0,0,1,9.964,10.4c.251.973.506,1.375,1.609,1.326,2.524-.111,5.056-.069,7.583-.013.706.016.884-.229,1.022-.859A14.307,14.307,0,0,1,66.449,55.5c.178.823.44,1.141,1.347,1.115,2.595-.076,5.193-.061,7.789,0,.707.015.915-.256,1.048-.861A14.031,14.031,0,0,1,85.771,45.17a12.148,12.148,0,0,1,2.164-.585c.493-.094.642-.283.652-.79.046-2.239.065-2.239-2.192-2.239h-45.2a8.222,8.222,0,0,1-1.023-.028,2.1,2.1,0,0,1-2.021-2.05A2.056,2.056,0,0,1,40.3,37.468c.989-.041,1.981-.013,2.972-.013,2.05,0,4.1-.052,6.149.024.9.033,1.114-.262,1.032-1.086a12.627,12.627,0,0,1,0-2.15c.043-.6-.153-.769-.76-.886A16.475,16.475,0,0,1,37.023,23.316,16.776,16.776,0,0,1,50.218.185c.16-.021.349.021.429-.185h3.69a6.909,6.909,0,0,0,1.7.194,2.4,2.4,0,0,1,2.373,3.058c-.763,1.4-1.558,1.781-3.329,1.412a12,12,0,0,0-5.376.063,12.486,12.486,0,0,0-9.632,12.828,13.314,13.314,0,0,0,.733,3.4c.209.655.445.877,1.01.261a5.37,5.37,0,0,1,2.592-1.582,1.059,1.059,0,0,0,.841-1.211c-.015-1.263-.012-2.527,0-3.791a7.255,7.255,0,0,1,13.477-3.571,6.856,6.856,0,0,1,1.027,3.8c-.043,1.194-.013,2.39-.006,3.586,0,.418,0,.894.48,1.035a7.707,7.707,0,0,1,3.607,2.4,12.5,12.5,0,0,0,.974-6.729c-.073-.438-.189-.868-.241-1.309A2.428,2.428,0,0,1,66.3,10.88c1.6-.1,2.488.589,2.866,2.273A16.088,16.088,0,0,1,68,23.942,16.823,16.823,0,0,1,56.043,33.5c-.907.205-1.244.6-1.222,1.519.059,2.42-.193,2.2,2.225,2.2q16.343.007,32.686,0c2.47,0,3.225.761,3.235,3.247,0,.888.029,1.777-.007,2.664a1.1,1.1,0,0,0,1.014,1.277,13.217,13.217,0,0,1,3.62,1.4,14.671,14.671,0,0,1,6.882,8.079,19.444,19.444,0,0,1,.5,3.106Z" transform="translate(0)"/>
          <path id="Trazado_262549" data-name="Trazado 262549" d="M90.6,263.752c0,1.127.055,2.257-.02,3.379-.049.737.216.936.9,1.1,6.021,1.432,9.782,5.22,11.125,11.226a14.342,14.342,0,1,1-17.229-11.169c.9-.195,1.184-.492,1.147-1.428-.087-2.182-.036-4.369-.025-6.555.008-1.493.8-2.441,2.029-2.455s2.048.94,2.065,2.42c.014,1.161,0,2.322,0,3.483" transform="translate(-55.126 -191.619)"/>
          <path id="Trazado_262550" data-name="Trazado 262550" d="M235,263.736c0-1.161-.012-2.322,0-3.483.018-1.473.858-2.43,2.081-2.4a2.119,2.119,0,0,1,2.012,2.37c.017,2.288.045,4.576-.018,6.862-.021.776.248,1,.959,1.159a14.348,14.348,0,1,1-6.106.034c.852-.185,1.163-.484,1.09-1.365-.087-1.051-.021-2.115-.021-3.174" transform="translate(-165.491 -191.618)"/>
          <path id="Trazado_262551" data-name="Trazado 262551" d="M121.617,149.982a2.075,2.075,0,0,1-1.982-2.055,2,2,0,0,1,2.1-2A2.045,2.045,0,0,1,123.686,148a2.125,2.125,0,0,1-2.07,1.984" transform="translate(-88.906 -108.442)" fill="#010101"/>
          <path id="Trazado_262552" data-name="Trazado 262552" d="M173.249,12.63a13.789,13.789,0,0,1,3.143,1.731c.183.308-.01.585-.073.872a1.784,1.784,0,0,0,2.122,2.255c.323-.045.633-.27.976-.082q.909,1.545,1.817,3.089a2.245,2.245,0,0,0-1.3,2.957,12.665,12.665,0,0,1-.978,8.29c-.831-.914-1.614-1.955-2.759-2.177-1.67-.323-1.744-1.254-1.658-2.644a12.765,12.765,0,0,0-.349-4.971,7.084,7.084,0,0,0-7.429-4.723,6.98,6.98,0,0,0-6.206,6.441,35.7,35.7,0,0,0,.01,4.607c.02.312.169.686-.358.8a6.872,6.872,0,0,0-4.026,2.643c-3.188-5.756-.58-13.672,5.485-16.783a12.523,12.523,0,0,1,8.542-1.154c1.611.34,2.168.12,3.039-1.153" transform="translate(-115.049 -9.386)" fill="#fc4b52"/>
          <path id="Trazado_262553" data-name="Trazado 262553" d="M16.938,202.436a10.148,10.148,0,0,1,15.262-12.2,9.9,9.9,0,0,1,3.475,12.2,6.985,6.985,0,0,0-2.914-1.756c-.444-.117-.283-.475-.285-.758-.008-1.126.04-2.254-.021-3.376a6.17,6.17,0,0,0-12.318-.043c-.063,1.156-.021,2.319-.015,3.479,0,.308.071.617-.348.725a6.449,6.449,0,0,0-2.836,1.729" transform="translate(-11.936 -139.925)" fill="#a4db69"/>
          <path id="Trazado_262554" data-name="Trazado 262554" d="M184.121,202.459a6.047,6.047,0,0,0-2.716-1.7c-.4-.1-.5-.333-.486-.741.041-1.056.065-2.116.022-3.172a6.187,6.187,0,0,0-12.373.072c-.035,1.022,0,2.047.017,3.07,0,.311.061.609-.353.723a5.87,5.87,0,0,0-2.817,1.761,10.157,10.157,0,1,1,18.707-.008" transform="translate(-122.265 -139.921)" fill="#a4db69"/>
          <path id="Trazado_262555" data-name="Trazado 262555" d="M332.51,202.427a6.228,6.228,0,0,0-2.743-1.691c-.434-.109-.452-.39-.444-.767.022-1.159.053-2.322-.01-3.478a6.171,6.171,0,0,0-12.32.049c-.057,1.123-.034,2.251-.006,3.376.01.414,0,.722-.488.84a5.861,5.861,0,0,0-2.66,1.647c-1.9-3.072-.785-8.509,2.3-11.287a10.015,10.015,0,0,1,12.96-.861c4.028,2.949,5.431,8.189,3.416,12.171" transform="translate(-232.532 -139.915)" fill="#a4db69"/>
          <path id="Trazado_262556" data-name="Trazado 262556" d="M179.916,97.418a12.77,12.77,0,0,1-7.962-2.9.988.988,0,0,1-.274-1.261,3.08,3.08,0,0,1,4.358-1.457A7.061,7.061,0,0,0,184,91.76a3.055,3.055,0,0,1,4.372,1.765.876.876,0,0,1-.318.976,12.769,12.769,0,0,1-8.138,2.918" transform="translate(-127.502 -67.894)" fill="#9abdfe"/>
          <path id="Trazado_262557" data-name="Trazado 262557" d="M198.735,50.809c0,.647.041,1.3-.008,1.939a2.909,2.909,0,0,1-5.805-.043,35.474,35.474,0,0,1,0-3.673,2.866,2.866,0,0,1,2.872-2.74,2.9,2.9,0,0,1,2.943,2.783c.039.576.006,1.156.006,1.735h-.008" transform="translate(-143.333 -34.401)" fill="#feccab"/>
          <path id="Trazado_262558" data-name="Trazado 262558" d="M36.728,255.669a10.725,10.725,0,0,1-6.182-2.1.813.813,0,0,1-.229-1.277,2.339,2.339,0,0,1,2.957-.662,6.091,6.091,0,0,0,6.921,0,2.337,2.337,0,0,1,2.955.669.815.815,0,0,1-.238,1.276,10.726,10.726,0,0,1-6.184,2.1" transform="translate(-22.372 -186.791)" fill="#fe9055"/>
          <path id="Trazado_262559" data-name="Trazado 262559" d="M185.215,255.651a10.672,10.672,0,0,1-6.27-2.142.765.765,0,0,1-.257-1.118,2.322,2.322,0,0,1,3-.8,6.093,6.093,0,0,0,6.921.038,2.4,2.4,0,0,1,2.852.448c.405.526.581.988-.15,1.516a10.872,10.872,0,0,1-6.095,2.06" transform="translate(-132.688 -186.773)" fill="#fe9055"/>
          <path id="Trazado_262560" data-name="Trazado 262560" d="M333.657,255.668a10.73,10.73,0,0,1-6.185-2.094.817.817,0,0,1-.251-1.274,2.341,2.341,0,0,1,2.953-.681,6.1,6.1,0,0,0,6.921.011,2.4,2.4,0,0,1,2.848.48c.4.539.537.994-.186,1.513a10.9,10.9,0,0,1-6.1,2.045" transform="translate(-243.021 -186.79)" fill="#fe9055"/>
          <path id="Trazado_262561" data-name="Trazado 262561" d="M51.885,217.208a14.725,14.725,0,0,1-.012,1.63,2.027,2.027,0,0,1-2.005,1.806,2,2,0,0,1-2.084-1.825,22.475,22.475,0,0,1,0-3.259,1.962,1.962,0,0,1,2-1.8,2,2,0,0,1,2.091,1.814,14.422,14.422,0,0,1,.009,1.63" transform="translate(-35.467 -158.857)" fill="#feccab"/>
          <path id="Trazado_262562" data-name="Trazado 262562" d="M200.335,217.167a15.323,15.323,0,0,1-.01,1.63,2.029,2.029,0,0,1-2.072,1.847,2,2,0,0,1-2.033-1.885,22.806,22.806,0,0,1,0-3.158,1.973,1.973,0,0,1,2.066-1.837,2.009,2.009,0,0,1,2.04,1.874,15.16,15.16,0,0,1,.009,1.528h0" transform="translate(-145.781 -158.857)" fill="#feccab"/>
          <path id="Trazado_262563" data-name="Trazado 262563" d="M348.87,217.261c-.024.543-.008,1.092-.082,1.628a2.035,2.035,0,0,1-2.053,1.755,1.976,1.976,0,0,1-2.025-1.775,22.092,22.092,0,0,1,0-3.36,1.956,1.956,0,0,1,2.043-1.745,2,2,0,0,1,2.032,1.764,14.79,14.79,0,0,1,.012,1.731h.071" transform="translate(-256.122 -158.858)" fill="#feccab"/>
          <path id="Trazado_262564" data-name="Trazado 262564" d="M240.578,20.526a2.177,2.177,0,0,1-2.855-.182c-.754-.764-.8-1.595-.17-2.863a2.126,2.126,0,0,1,2.7-.281,2.07,2.07,0,0,1,.964,2.082,2.833,2.833,0,0,1-.636,1.245" transform="translate(-176.209 -12.506)" fill="#010101"/>
          <path id="Trazado_262565" data-name="Trazado 262565" d="M91.2,326.981c-1.85-3.6-.685-8.758,2.511-11.5a10.023,10.023,0,0,1,12.729-.726,9.9,9.9,0,0,1,3.488,12.2,6.979,6.979,0,0,0-2.913-1.749c-.444-.112-.29-.469-.292-.754-.006-1.126.042-2.254-.019-3.376a6.171,6.171,0,0,0-12.326.042c-.059,1.123-.027,2.251,0,3.376.008.372,0,.662-.437.771a5.848,5.848,0,0,0-2.738,1.708" transform="translate(-67.122 -232.468)" fill="#feca2e"/>
          <path id="Trazado_262566" data-name="Trazado 262566" d="M111,380.16a10.621,10.621,0,0,1-6.272-2.134.784.784,0,0,1-.215-1.2,2.332,2.332,0,0,1,2.943-.726,6.1,6.1,0,0,0,7-.005,2.338,2.338,0,0,1,2.941.74.787.787,0,0,1-.229,1.2A10.64,10.64,0,0,1,111,380.16" transform="translate(-77.524 -279.302)" fill="#a4db68"/>
          <path id="Trazado_262567" data-name="Trazado 262567" d="M126.115,341.763a13.258,13.258,0,0,1-.012,1.63,2.012,2.012,0,0,1-2.042,1.763,1.968,1.968,0,0,1-2.034-1.764,22.151,22.151,0,0,1,0-3.362,1.96,1.96,0,0,1,2.035-1.755,2,2,0,0,1,2.041,1.757,14.631,14.631,0,0,1,.012,1.732" transform="translate(-90.636 -251.386)" fill="#feccab"/>
          <path id="Trazado_262568" data-name="Trazado 262568" d="M258.31,327.068a6.005,6.005,0,0,0-2.719-1.7c-.41-.1-.492-.342-.481-.745.032-1.159.06-2.322,0-3.478a6.171,6.171,0,0,0-12.32-.02c-.06,1.157-.021,2.319-.011,3.479,0,.314.055.614-.359.719a6.023,6.023,0,0,0-2.821,1.746,9.917,9.917,0,0,1,3.014-11.9,10.1,10.1,0,0,1,12.341-.273c3.939,3.07,5.308,7.935,3.358,12.17" transform="translate(-177.39 -232.548)" fill="#feca2e"/>
          <path id="Trazado_262569" data-name="Trazado 262569" d="M259.378,380.16a10.639,10.639,0,0,1-6.175-2.12.791.791,0,0,1-.246-1.2,2.344,2.344,0,0,1,2.937-.755,6.1,6.1,0,0,0,7.005.017,2.362,2.362,0,0,1,2.892.623.841.841,0,0,1-.224,1.355,10.669,10.669,0,0,1-6.188,2.079" transform="translate(-187.854 -279.302)" fill="#a4db68"/>
          <path id="Trazado_262570" data-name="Trazado 262570" d="M274.576,341.734c0,.51.042,1.024-.008,1.529a2.027,2.027,0,0,1-2.032,1.892,1.989,1.989,0,0,1-2.073-1.837,22.5,22.5,0,0,1,.006-3.261,1.96,1.96,0,0,1,2.011-1.784,2.006,2.006,0,0,1,2.08,1.829,15.21,15.21,0,0,1,.01,1.631h.007" transform="translate(-200.95 -251.386)" fill="#feccab"/>
        </g>
      </g>
    </g>
  </g>
</svg>
